<svg xmlns="http://www.w3.org/2000/svg" xmlns:xlink="http://www.w3.org/1999/xlink" version="1.1" x="0px" y="0px" viewBox="0 0 100 125" enable-background="new 0 0 100 100" xml:space="preserve"><g><path d="M19.301,51.881c0.923,2.834,1.68,5.941,2.813,8.846c-0.945-0.462-1.986-0.944-3.124-1.406   c-5.647-2.351-8.009-8.723-8.181-13.688c-0.172-4.981-1.819,2.088-1.116,4.981c0.697,2.888-0.462,8.454,11.213,13.344   c1.514,0.634,2.786,1.208,3.87,1.729c0.504,0.677,1.063,1.305,1.707,1.895c4.305,3.935,9.334,6.854,10.789,8.878   c1.465,2.035,2.287,4.053,4.305,3.227c2.04-0.811,2.373-5.486,0.344-6.232c-0.462-0.188-0.907-0.306-1.379-0.418   c-1.09-1.139-3.505-3.709-4.611-5.642c-1.46-2.561-2.77-7.692-4.681-8.647c-1.9-0.939,0.735,1.187,1.03,2.786   c0.161,0.88,0.73,3.849,1.734,6.994c-2.984-2.958-5.62-4.466-7.402-10.006c-1.976-6.076-4.863-11.272-2.287-16.592   c2.566-5.325,4.515-5.915,7.161-7.676c2.904-1.927,8.202-12.522,5.636-10.198c-2.475,2.228-2.287,3.645-4.949,6.554   c-2.662,2.925-8.926,6.307-9.372,2.244c0,0-0.064-1.036-0.171-2.437c2.823-1.696,5.196-2.394,6.516-4.487   c1.385-2.163-2.845,1.39-6.629,3.076c-0.134-1.61-0.312-3.355-0.473-4.498c-0.392-2.598-1.524-6.785-1.712-2.281   c-0.07,1.723,0.043,4.509,0.188,7.466c-0.059,0.016-0.112,0.038-0.177,0.038c-3.779,0.714-4.166,7.649-6.415,10.005   c-1.068-0.848-2.056-1.723-2.786-2.373c-3.436-3.038-4.461-4.369-3.033-10.07c1.068-4.305,0.183-3.929-1.025-1.964   c-1.192,1.964-4.353,7.848,0.328,12.287C12.108,42.047,17.53,46.492,19.301,51.881z M20.472,31.892   c0.048-0.054,0.086-0.07,0.14-0.107c0.166,4.074,0.279,8.094-0.156,9.823c-0.359,1.471-1.755,1.224-3.408,0.311   C17.09,39.647,17.541,34.167,20.472,31.892z"/><path d="M68.459,58.746c-1.9,0.955-3.221,6.087-4.687,8.647c-1.101,1.933-3.516,4.503-4.621,5.642   c-0.451,0.112-0.892,0.23-1.374,0.418c-2.019,0.746-1.675,5.422,0.354,6.232c2.019,0.826,2.835-1.191,4.306-3.227   c1.449-2.023,6.495-4.943,10.789-8.878c0.639-0.59,1.202-1.218,1.712-1.895c1.09-0.537,2.352-1.095,3.87-1.729   c11.67-4.89,10.521-10.456,11.208-13.344c0.703-2.894-0.945-9.963-1.116-4.981c-0.183,4.965-2.534,11.337-8.181,13.688   c-1.148,0.462-2.174,0.944-3.124,1.406c1.133-2.904,1.89-6.012,2.823-8.846c1.771-5.389,7.188-9.834,11.873-14.268   c4.687-4.439,1.525-10.322,0.322-12.287c-1.197-1.964-2.077-2.34-1.015,1.964c1.423,5.701,0.403,7.032-3.032,10.07   c-0.725,0.65-1.718,1.525-2.786,2.373c-2.238-2.356-2.636-9.292-6.414-10.005c-0.054,0-0.107-0.021-0.172-0.038   c0.129-2.958,0.252-5.743,0.183-7.466c-0.183-4.503-1.331-0.317-1.713,2.281c-0.155,1.143-0.327,2.888-0.467,4.498   c-3.789-1.686-8.009-5.239-6.635-3.076c1.321,2.094,3.704,2.792,6.527,4.487c-0.112,1.401-0.177,2.437-0.177,2.437   c-0.451,4.063-6.715,0.682-9.378-2.244c-2.651-2.909-2.479-4.326-4.943-6.554c-2.561-2.324,2.716,8.271,5.631,10.198   c2.651,1.761,4.595,2.351,7.166,7.676c2.561,5.32-0.316,10.516-2.276,16.592c-1.792,5.54-4.417,7.048-7.412,9.995   c1.009-3.135,1.567-6.104,1.728-6.983C67.718,59.933,70.359,57.807,68.459,58.746z M79.248,31.892   c2.926,2.275,3.365,7.756,3.425,10.026c-1.653,0.913-3.06,1.16-3.414-0.311c-0.43-1.729-0.327-5.749-0.161-9.823   C79.141,31.822,79.194,31.838,79.248,31.892z"/></g><text x="0" y="115" fill="#000000" font-size="5px" font-weight="bold" font-family="'Helvetica Neue', Helvetica, Arial-Unicode, Arial, Sans-serif">Created by VectorBakery</text><text x="0" y="120" fill="#000000" font-size="5px" font-weight="bold" font-family="'Helvetica Neue', Helvetica, Arial-Unicode, Arial, Sans-serif">from the Noun Project</text></svg>