<svg width="1024" height="768" viewBox="0 0 1024 768" fill="none" xmlns="http://www.w3.org/2000/svg">
<rect width="1024" height="768" fill="#E5E5E5"/>
<g clip-path="url(#clip0)">
<rect width="1024" height="768" fill="white"/>
<ellipse cx="-111.175" cy="-117.173" rx="468.811" ry="435.565" transform="rotate(4.2583 -111.175 -117.173)" fill="#86BE8C"/>
<ellipse cx="-213.175" cy="-205.173" rx="468.811" ry="435.565" transform="rotate(4.2583 -213.175 -205.173)" fill="#6B9B6D"/>
<g clip-path="url(#clip1)">
<path d="M299.75 507.668L218.864 530.826C209.064 533.443 201.121 543.009 201.121 552.179V630.921C201.121 630.921 201.121 631.997 201.121 632.025C201.121 632.025 195.26 628.325 182.206 630.056C163.037 632.604 147.493 646.373 147.493 660.818C147.493 675.262 163.037 684.112 182.206 681.564C201.39 679.03 215.449 665.682 215.449 651.231C215.449 651.231 215.449 589.462 215.449 583.057C215.449 576.653 223.676 573.907 223.676 573.907L295.192 552.929C295.192 552.929 303.106 550.442 303.106 557.296C303.106 564.15 303.106 612.014 303.106 612.014C303.106 612.014 303.106 612.028 303.106 612.055C303.106 612.055 295.819 608.13 282.765 609.616C263.595 611.789 248.051 625.273 248.051 639.71C248.051 654.161 263.595 663.305 282.765 661.124C301.949 658.951 317.493 645.474 317.493 631.023V519.537C317.493 510.366 309.542 505.052 299.75 507.668Z" fill="#86BE8C"/>
</g>
<path d="M857.182 572.668L776.295 595.826C766.496 598.442 758.552 608.008 758.552 617.179V695.921C758.552 695.921 758.552 696.997 758.552 697.024C758.552 697.024 752.692 693.325 739.638 695.055C720.468 697.603 704.924 711.373 704.924 725.817C704.924 740.262 720.468 749.112 739.638 746.564C758.822 744.029 772.881 730.682 772.881 716.231C772.881 716.231 772.881 654.462 772.881 648.057C772.881 641.653 781.108 638.907 781.108 638.907L852.624 617.929C852.624 617.929 860.538 615.442 860.538 622.296C860.538 629.15 860.538 677.014 860.538 677.014C860.538 677.014 860.538 677.027 860.538 677.055C860.538 677.055 853.25 673.13 840.196 674.615C821.027 676.789 805.483 690.272 805.483 704.71C805.483 719.161 821.027 728.304 840.196 726.124C859.38 723.951 874.924 710.474 874.924 696.023V584.537C874.924 575.366 866.974 570.051 857.182 572.668Z" fill="#86BE8C"/>
<path d="M469.75 101.668L388.864 124.826C379.064 127.442 371.121 137.008 371.121 146.179V224.921C371.121 224.921 371.121 225.997 371.121 226.024C371.121 226.024 365.26 222.325 352.206 224.055C333.037 226.603 317.493 240.373 317.493 254.817C317.493 269.262 333.037 278.112 352.206 275.564C371.39 273.029 385.449 259.682 385.449 245.231C385.449 245.231 385.449 183.462 385.449 177.057C385.449 170.653 393.676 167.907 393.676 167.907L465.192 146.929C465.192 146.929 473.106 144.442 473.106 151.296C473.106 158.15 473.106 206.014 473.106 206.014C473.106 206.014 473.106 206.027 473.106 206.055C473.106 206.055 465.819 202.13 452.765 203.615C433.595 205.789 418.051 219.272 418.051 233.71C418.051 248.161 433.595 257.304 452.765 255.124C471.949 252.951 487.493 239.474 487.493 225.023V113.537C487.493 104.366 479.542 99.0514 469.75 101.668Z" fill="#86BE8C"/>
<g clip-path="url(#clip2)">
<path d="M140.871 354.933C135.433 343.519 126.091 337.115 117.067 330.928C110.332 326.311 103.967 321.951 99.4682 315.723L98.6611 314.612C96.0015 310.957 92.9978 306.813 92.5215 303.334C92.0451 299.813 88.9224 297.309 85.5085 297.512C82.0418 297.755 79.3557 300.694 79.3557 304.254V424.893C73.8115 421.454 66.9838 419.342 59.5078 419.342C41.2742 419.342 26.4279 431.487 26.4279 446.421C26.4279 461.355 41.2742 473.5 59.5078 473.5C77.7414 473.5 92.5876 461.355 92.5876 446.421V328.369C97.7746 334.001 103.808 338.144 109.697 342.179C117.622 347.608 125.112 352.74 128.989 360.877C131.423 365.955 132.588 371.492 132.297 376.421C131.569 388.485 127.123 400.616 120.706 408.104C118.284 410.906 118.549 415.185 121.301 417.649C124.027 420.14 128.208 419.843 130.629 417.04C138.913 407.413 144.616 392.167 145.502 377.26C145.938 369.908 144.338 362.191 140.871 354.933V354.933Z" fill="#86BE8C"/>
</g>
<g clip-path="url(#clip3)">
<path d="M810.871 157.433C805.433 146.019 796.091 139.615 787.067 133.427C780.332 128.81 773.967 124.451 769.468 118.222L768.661 117.112C766.001 113.456 762.998 109.313 762.521 105.833C762.045 102.313 758.922 99.8083 755.509 100.011C752.042 100.255 749.356 103.193 749.356 106.754V227.393C743.811 223.954 736.984 221.841 729.508 221.841C711.274 221.841 696.428 233.986 696.428 248.921C696.428 263.855 711.274 276 729.508 276C747.741 276 762.588 263.855 762.588 248.921V130.868C767.775 136.501 773.808 140.644 779.697 144.679C787.622 150.108 795.112 155.24 798.989 163.377C801.423 168.454 802.588 173.992 802.297 178.921C801.569 190.984 797.123 203.116 790.706 210.603C788.284 213.406 788.549 217.685 791.301 220.149C794.027 222.64 798.208 222.342 800.629 219.54C808.913 209.913 814.616 194.667 815.502 179.76C815.938 172.408 814.338 164.69 810.871 157.433V157.433Z" fill="#86BE8C"/>
</g>
<g clip-path="url(#clip4)">
<path d="M636.867 421.433C631.429 410.019 622.087 403.615 613.063 397.427C606.328 392.81 599.963 388.451 595.465 382.222L594.657 381.112C591.998 377.456 588.994 373.313 588.518 369.833C588.041 366.313 584.919 363.808 581.505 364.011C578.038 364.255 575.352 367.193 575.352 370.754V491.393C569.808 487.954 562.98 485.841 555.504 485.841C537.27 485.841 522.424 497.986 522.424 512.921C522.424 527.855 537.27 540 555.504 540C573.738 540 588.584 527.855 588.584 512.921V394.868C593.771 400.501 599.805 404.644 605.693 408.679C613.619 414.108 621.108 419.24 624.985 427.377C627.42 432.454 628.584 437.992 628.293 442.921C627.565 454.984 623.119 467.116 616.702 474.603C614.28 477.406 614.545 481.685 617.297 484.149C620.023 486.64 624.204 486.342 626.626 483.54C634.909 473.913 640.612 458.667 641.498 443.76C641.935 436.408 640.334 428.69 636.867 421.433V421.433Z" fill="#86BE8C"/>
</g>
</g>
<defs>
<clipPath id="clip0">
<rect width="1024" height="768" fill="white"/>
</clipPath>
<clipPath id="clip1">
<rect width="187" height="175" fill="white" transform="translate(138.996 507)"/>
</clipPath>
<clipPath id="clip2">
<rect width="172" height="176" fill="white" transform="translate(0 297.5)"/>
</clipPath>
<clipPath id="clip3">
<rect width="172" height="176" fill="white" transform="translate(670 100)"/>
</clipPath>
<clipPath id="clip4">
<rect width="172" height="176" fill="white" transform="translate(495.996 364)"/>
</clipPath>
</defs>
</svg>
