<svg id="Layer_1" height="512" viewBox="0 0 512 512" width="512" xmlns="http://www.w3.org/2000/svg" data-name="Layer 1"><path d="m266.14 304.708a4.881 4.881 0 0 0 .767-.06 5 5 0 0 0 4.181-5.7 29.246 29.246 0 0 1 1.688-14.527 5 5 0 0 0 -9.132-4.073 39.046 39.046 0 0 0 -2.44 20.122 5 5 0 0 0 4.936 4.238z"/><path d="m240.912 298.946a5 5 0 0 0 4.181 5.7 4.881 4.881 0 0 0 .767.06 5 5 0 0 0 4.936-4.24 39.046 39.046 0 0 0 -2.44-20.122 5 5 0 1 0 -9.124 4.092 29.187 29.187 0 0 1 1.68 14.51z"/><path d="m97.877 169.135a83.212 83.212 0 0 0 12.432 11.465 15.97 15.97 0 0 0 -5.849 8.031 21.368 21.368 0 0 0 -.178 13.045l3.961 13.515a27.8 27.8 0 0 1 1.121 7.824 36.928 36.928 0 0 0 6.174 20.681c11.089 16.518 30.881 26.847 58.826 30.7 1.664.23 3.713 1.969 5.769 4.9a28.5 28.5 0 0 1 3.372 6.433 31.343 31.343 0 0 1 -.016 21.56c-4.468 12.349-10.35 31.16-13 50.649-3.285 24.195-.73 43.229 7.591 56.574a68.422 68.422 0 0 1 5.093 9.511c2.267 5.347 4.955 13.123 4.882 19.789a5 5 0 0 0 8.4 3.721 24.7 24.7 0 0 0 2.374-2.533 31.345 31.345 0 0 0 12.762 12.982 21.261 21.261 0 0 1 6.494 5.447 9.647 9.647 0 0 1 1.4 2.2 5 5 0 0 0 9.675 1.766l1.493-3.935a17.889 17.889 0 0 1 2.133 11.057c-1.274 10.043 9.551 23.961 18.857 33.867a8.241 8.241 0 0 0 6.012 2.616q.188 0 .375-.009a8.273 8.273 0 0 0 6.146-3.2c5.9-7.566 15.7-21.907 15.067-32.935a21.488 21.488 0 0 1 2.259-10.981l1.335 3.519a5 5 0 0 0 9.675-1.766 9.646 9.646 0 0 1 1.4-2.2 21.274 21.274 0 0 1 6.494-5.448 31.147 31.147 0 0 0 12.537-12.549c.739.665 1.435 1.2 1.965 1.6.251.192.475.355.63.493a5 5 0 0 0 8.4-3.721c-.073-6.666 2.615-14.442 4.882-19.79a68.473 68.473 0 0 1 5.093-9.51c8.321-13.345 10.876-32.379 7.591-56.574-2.645-19.489-8.527-38.3-12.995-50.649a32.194 32.194 0 0 1 -1.884-9.246c0-.113 0-.227-.01-.338a29.746 29.746 0 0 1 5.25-18.408c2.056-2.929 4.1-4.668 5.769-4.9 27.945-3.854 47.737-14.183 58.826-30.7a36.928 36.928 0 0 0 6.174-20.681 27.786 27.786 0 0 1 1.121-7.823l3.961-13.516a21.368 21.368 0 0 0 -.178-13.045 15.97 15.97 0 0 0 -5.849-8.031 83.212 83.212 0 0 0 12.432-11.465c13.859-15.854 17.025-33.6 9.157-51.334q-.73-1.646-1.488-3.273c.327-33.787-9.772-62.036-18.367-79.861a179.552 179.552 0 0 0 -13.379-23.259c-6.386-9.317-7.844-9.8-8.908-10.145a5.021 5.021 0 0 0 -5.651 1.857c-.99 1.394-1.689 3.685.588 6.66 2.415 3.432 7.951 26.11 13.267 51.539-7.257-9.66-12.557-15.667-13.061-16.234a5 5 0 0 0 -8.544 4.7l9.145 31.974c-11.757-4.615-27.387-11.709-38.975-17.355a5 5 0 0 0 -7.094 5.473c2.854 14.305 16.571 20.693 32.454 28.09 6.225 2.9 12.662 5.9 19.237 9.654a36.347 36.347 0 0 1 9.277 7.335c-.156 20.786-29.2 48.025-41.821 57.927-15.507 2.823-24.422 6.768-29.525 10.423a49.652 49.652 0 0 1 -1.084-5.872c-1.25-10.208-5.279-35.152-15.664-46.288-8.36-8.962-9.194-31.067-8.811-38.824a5 5 0 0 0 -8.239-4.056c-12.608 10.761-15.447 44.87 1.951 81.213 14.669 30.639-.074 45.045-1.8 46.587l-.012.011c-5.8-1.353-16.67-2.047-30.838 5.38a.962.962 0 0 1 -.383.109.772.772 0 0 1 -.325-.1c-8.755-4.631-17.1-6.734-24.822-6.258a29.656 29.656 0 0 0 -5.268.787c-2.031-1.85-16.2-16.268-1.721-46.512 17.4-36.343 14.559-70.452 1.951-81.213a5 5 0 0 0 -8.239 4.056c.392 7.75-.425 29.834-8.811 38.825-10.385 11.135-14.414 36.079-15.664 46.287a49.858 49.858 0 0 1 -1.083 5.872c-5.105-3.656-14.025-7.6-29.541-10.426-12.675-9.821-41.881-36.907-42.019-57.679a36.086 36.086 0 0 1 9.49-7.58c6.575-3.758 13.012-6.755 19.237-9.654 15.883-7.4 29.6-13.785 32.454-28.09a5 5 0 0 0 -7.092-5.483c-11.656 5.679-27.4 12.826-39.185 17.438l9.342-32.028a5 5 0 0 0 -8.536-4.723c-.5.567-5.8 6.574-13.062 16.234 5.315-25.428 10.85-48.1 13.256-51.521 2.289-2.993 1.59-5.284.6-6.678l-5.651-1.857c-1.064.349-2.522.828-8.908 10.145a179.552 179.552 0 0 0 -13.381 23.271c-8.595 17.821-18.694 46.07-18.366 79.857q-.756 1.629-1.489 3.273c-7.868 17.729-4.702 35.48 9.157 51.334zm77.853 95.356c-25-3.448-42.457-12.32-51.889-26.369a26.962 26.962 0 0 1 -4.477-15.107 37.823 37.823 0 0 0 -1.524-10.636l-3.962-13.515c-.081-.278-.151-.558-.213-.838 5.814-.3 18.928 1.037 39.758 13.9a16.842 16.842 0 0 0 -5.261 7.006 5 5 0 0 0 5.128 6.574 36.647 36.647 0 0 1 6.5.158 52.8 52.8 0 0 0 -5.693 5.48 5.052 5.052 0 0 0 5.055 8.221 10.572 10.572 0 0 1 1.792.348 24.33 24.33 0 0 0 -2.473 4.824 5 5 0 0 0 3.946 6.731c9.271 1.357 13.458 7.731 15.338 13.686a13.247 13.247 0 0 0 -2.025-.463zm-57.967-76.491c3.1-.842 8.1.042 13.971 2.509.712.3 1.4.566 2.1.852a62.66 62.66 0 0 0 -16.071-3.361zm53.863 55.537a5 5 0 0 0 2.885-9.5c-1.382-.612-3.612-1.6-6.113-2.507a22.647 22.647 0 0 1 3.018-2.095 5 5 0 0 0 3.053-8.919 23.5 23.5 0 0 0 -9.753-4.2l.083-.044a5 5 0 0 0 .5-8.566 145.628 145.628 0 0 0 -23.942-13.454c3.109 1.11 6.147 2.09 9.158 2.957 17.424 5.017 29.141 11.841 31.343 18.254 4.456 12.987 18.773 24.189 26.7 29.6-.2.137-.385.286-.589.412-9.4 5.8-15.557 14.114-19.445 21.269-1.668-8.739-6.386-18.635-16.898-23.204zm153.8 165.679a78.386 78.386 0 0 0 -5.814 10.9c-.966 2.28-2 4.957-2.914 7.847a5.554 5.554 0 0 0 -5.629-1.766 5.617 5.617 0 0 0 -4.167 5.016 22.27 22.27 0 0 1 -11.353 18.029 32.136 32.136 0 0 0 -6.957 5.166 6.891 6.891 0 0 0 -5.119-4.035 6.809 6.809 0 0 0 -6.382 2.259 31.828 31.828 0 0 0 -7.835 22.8c.3 5.22-4.16 14.534-11.727 24.589-10.842-11.866-15.276-20.675-14.823-24.248a28.566 28.566 0 0 0 -7.947-23.48 6.886 6.886 0 0 0 -11.359 2.107 32.167 32.167 0 0 0 -6.954-5.162c-10.055-5.585-11.361-15.76-11.521-18.74a5.189 5.189 0 0 0 -9.6-2.454c-.922-2.922-1.965-5.629-2.941-7.932a78.386 78.386 0 0 0 -5.814-10.9c-12.659-20.3-6.848-54.369-.024-78.731 10.82 21.89 23.828 50.462 24.268 58.285h.044c-.419 10.32 1.894 19.249 6.614 25.336a22.871 22.871 0 0 0 8.232 6.7c-1.112 3.828-1.646 8.967 1.186 13.408 3.016 4.73 8.851 7.115 17.378 7.115q2.2 0 4.648-.213a75.445 75.445 0 0 1 13.1 0c11.172.973 18.743-1.38 22.5-6.994 3.064-4.574 2.659-9.9 1.677-13.767a23.779 23.779 0 0 0 8.748-7.6c4.354-6.19 6.244-14.672 6.234-23.245h.01c.441-7.833 13.461-36.758 24.285-58.929 6.822 24.357 12.602 58.366-.041 78.642zm-74.947 11.488a8.665 8.665 0 0 0 5.442 1.953 8.851 8.851 0 0 0 2-.232 9.112 9.112 0 0 0 3.574-1.738 42.368 42.368 0 0 0 13.018 2.281c.685 0 1.35-.024 2-.066.485 1.987.645 4.25-.311 5.661-1.522 2.248-6.377 3.193-13.32 2.584a86.208 86.208 0 0 0 -14.839 0c-9.868.863-12.231-1.548-12.72-2.305-.878-1.364-.509-3.719.135-5.724.432.019.862.038 1.309.038a44.165 44.165 0 0 0 13.715-2.449zm-2.564-25.527a9.041 9.041 0 0 0 -4.169-1 15.19 15.19 0 0 0 -6.218 1.624 4.468 4.468 0 0 1 .439-2.952c.584-.8 2.054-1.365 4.14-1.591 3.432-.368 6.2 1.757 7.521 3.049l.162.155a11.737 11.737 0 0 0 15.931.213 10.765 10.765 0 0 0 .824-.813 7.656 7.656 0 0 1 5.5-2.708c2.857.075 4.932.674 5.695 1.641a4.309 4.309 0 0 1 .476 3.033c-5.68-2.322-9.923-1.339-12.537-.042-4.461 2.21-7.618 6.757-9.6 13.852-1.848-8.126-4.351-12.516-8.161-14.458zm75.557-128.432c-3.888-7.155-10.046-15.466-19.446-21.269-.209-.129-.4-.282-.6-.422 7.935-5.4 22.261-16.6 26.72-29.585 2.2-6.414 13.918-13.238 31.342-18.255 3.01-.867 6.048-1.847 9.158-2.957a145.7 145.7 0 0 0 -23.946 13.457 5 5 0 0 0 .5 8.566l.084.044a23.5 23.5 0 0 0 -9.754 4.2 5 5 0 0 0 3.053 8.919 22.647 22.647 0 0 1 3.018 2.095c-2.5.906-4.731 1.9-6.113 2.507a5 5 0 0 0 2.887 9.5c-10.514 4.563-15.232 14.455-16.9 23.203zm74.647-67.884-3.959 13.519a37.811 37.811 0 0 0 -1.524 10.635 26.962 26.962 0 0 1 -4.477 15.107c-9.432 14.049-26.89 22.921-51.889 26.369a13.3 13.3 0 0 0 -2.082.482c1.861-5.956 6.046-12.337 15.394-13.705a5 5 0 0 0 3.946-6.731 24.9 24.9 0 0 0 -2.428-4.837 10.335 10.335 0 0 1 1.751-.338 5.052 5.052 0 0 0 5.055-8.221 52.885 52.885 0 0 0 -5.693-5.481 36.752 36.752 0 0 1 6.493-.158 5 5 0 0 0 5.136-6.573 16.842 16.842 0 0 0 -5.261-7.006c20.83-12.865 33.945-14.2 39.758-13.9-.066.282-.139.562-.217.841zm-19.955-7.5c.7-.286 1.388-.552 2.1-.851 5.873-2.467 10.869-3.351 13.97-2.509a62.668 62.668 0 0 0 -16.067 3.362zm32.417-98.2c-2.3-3.934-4.622-7.7-6.928-11.293-1.647-8.606-4.969-25.52-8.614-41.52a173.359 173.359 0 0 1 15.545 52.817zm-15.021-5.328a4.956 4.956 0 0 0 -3.234-1.3 17.789 17.789 0 0 1 -3.889-.744l-4.112-14.376c3.506 4.816 7.346 10.354 11.235 16.42zm2.7 42.92a31.773 31.773 0 0 1 -2.052 12.292c-1.3 3.462-8.155 14.115-22.606 21.95 9.188-9.303 19.41-21.563 24.658-34.242zm-100.655 34.393c-9.3-19.435-11.872-36.952-11.037-49.67 1.87 9.951 5.158 17.5 9.8 22.477 6.849 7.343 11.232 25.83 13.051 40.683a56.285 56.285 0 0 0 2.777 12.029 38.716 38.716 0 0 0 1.821 4.315c.019.043.04.084.061.125 2.983 5.894 6.752 8.477 11.244 7.674l-1.6-8.978a7.906 7.906 0 0 1 .7-.811 1.107 1.107 0 0 1 .254.106 1.727 1.727 0 0 1 -.187-.172c2.332-2.335 9.232-7.092 28.424-10.433 34.388-5.986 49.666-27.97 52.651-35.937 5.563-14.844 3.727-35.152-18.108-47.63-6.937-3.964-13.865-7.19-19.978-10.036q-1.2-.561-2.371-1.106c11.141 4.673 22.021 8.646 27.009 8.747a4.937 4.937 0 0 0 4.867-6.434 253.9 253.9 0 0 1 17.149 31.762c6.23 14.038 3.749 27.664-7.375 40.5a78.128 78.128 0 0 1 -19.201 15.643 46.77 46.77 0 0 0 -11.164 3.3 158.872 158.872 0 0 1 -17.67 6.314c-21.784 6.273-34.58 14.555-38.034 24.618-3.363 9.794-15.627 19.682-23.382 24.909a40.416 40.416 0 0 1 -3.157-14.291c4.142-4.121 20.044-23.05 3.456-57.704zm5.82 79.91a15.483 15.483 0 0 1 -3.425-3.332 15.66 15.66 0 0 0 3.425 3.332zm-75.742-19.422c3.647-.874 11.409-1.406 22.866 4.654a10.823 10.823 0 0 0 4.659 1.258c.117 0 .234.006.352.006a10.837 10.837 0 0 0 5.016-1.252c11.576-6.069 19.835-5.479 23.749-4.58.672 7.518 3.431 21.464 14.451 28.267 13.379 8.261 18.954 23.462 20.4 28.153a40.059 40.059 0 0 0 -2.451 10.89c-22.929.621-35.988 21.491-36.573 22.448a5 5 0 0 0 8.524 5.229c.027-.044.665-1.051 1.853-2.561a32.7 32.7 0 0 0 15.794 4.465 25.8 25.8 0 0 0 14-4.154c-2.676 5.373-7.924 16.039-13.173 27.453-4.4 9.556-7.565 16.963-9.86 22.735a32.008 32.008 0 0 0 -5.279-8.988c-14.882-17.062-16.87-40.135-16.889-40.365a5 5 0 0 0 -9.97.768c.082 1.075 2.2 26.544 19.323 46.169 3.716 4.261 6.528 13.391 6.745 22.519 0 .069-.008.136-.012.2h.016c.131 6.672-1.128 13.324-4.454 18.053-4.159 5.913-11.16 7.457-20.844 4.613 1.114-3.625 2.586-6.07 4.193-6.866 1.178-.582 2.848-.371 4.966.629a8.982 8.982 0 0 0 7.87-.065 9.083 9.083 0 0 0 4.858-6.3c1.33-6.24-.473-10.191-2.219-12.408-2.722-3.455-7.193-5.288-13.285-5.448a17.4 17.4 0 0 0 -13.227 6.041 1.781 1.781 0 0 1 -2.457-.038 19.5 19.5 0 0 0 -15.6-5.845c-5.058.55-8.8 2.446-11.133 5.632-2.257 3.089-2.951 7.183-2.006 11.84a9.251 9.251 0 0 0 4.925 6.491 8.916 8.916 0 0 0 7.85.1l.13-.061a17.393 17.393 0 0 1 2.684-1.108c.407.451 1.556 2.119 2.777 7.362-9.714 2.96-16.731 1.763-20.881-3.589-6.373-8.217-6.5-29.695 2.439-42.115 20.806-28.9 19.246-45.125 19-46.88a5.033 5.033 0 0 0 -5.653-4.3 4.964 4.964 0 0 0 -4.262 5.605c.015.138 1.246 14.108-17.2 39.731a41.1 41.1 0 0 0 -4.679 8.778c-2.319-5.828-5.574-13.391-10.175-23.278-5.222-11.224-10.443-21.707-13.134-27.044a25.786 25.786 0 0 0 13.962 4.133 32.784 32.784 0 0 0 15.947-4.553 5 5 0 0 0 6.848-7.2c-5.306-6.458-16.694-17.4-33.2-17.838a40.477 40.477 0 0 0 -2.387-10.777c-.016-.042-.035-.084-.051-.126 1.462-4.718 7.04-19.881 20.4-28.128 11.058-6.83 13.798-20.855 14.457-28.355zm90.445 81.938c-7.693 6.868-15.442 5.406-20.339 3.195 4.807-3.9 11.369-7.512 19.339-7.737a42.577 42.577 0 0 0 1 4.542zm-124.25 0a42.342 42.342 0 0 0 .992-4.555c7.971.223 14.535 3.839 19.343 7.744-4.895 2.217-12.642 3.679-20.335-3.184zm14.681-62.51a15.624 15.624 0 0 0 3.432-3.332 15.47 15.47 0 0 1 -3.432 3.337zm-70.571-80.294c-14.171-7.813-20.911-18.3-22.2-21.728a32.015 32.015 0 0 1 -2.068-11.623c5.263 12.354 15.224 24.248 24.268 33.356zm-10.551-93.03-4.12 14.117a16.875 16.875 0 0 1 -3.643.676 4.958 4.958 0 0 0 -3.229 1.3c3.799-5.931 7.555-11.354 10.992-16.093zm-10.479-31.386c-3.645 16-6.967 32.914-8.614 41.52-2.306 3.589-4.633 7.359-6.928 11.293a173.359 173.359 0 0 1 15.542-52.813zm-19.1 81.505a253.934 253.934 0 0 1 17.15-31.757 4.938 4.938 0 0 0 4.868 6.432c4.988-.1 15.868-4.074 27.009-8.747q-1.167.546-2.371 1.106c-6.113 2.846-13.041 6.072-19.978 10.036-21.835 12.478-23.671 32.786-18.108 47.63 2.985 7.967 18.263 29.951 52.651 35.937 19.192 3.341 26.092 8.1 28.424 10.433a1.727 1.727 0 0 1 -.187.172 1.107 1.107 0 0 1 .254-.106 7.906 7.906 0 0 1 .7.811l-1.6 8.978c4.49.8 8.261-1.781 11.244-7.673.021-.042.042-.083.061-.126a38.529 38.529 0 0 0 1.821-4.315 56.285 56.285 0 0 0 2.777-12.029c1.819-14.853 6.2-33.34 13.051-40.682 5.336-5.722 8.236-14.331 9.8-22.574.854 12.726-1.7 30.283-11.03 49.766-16.588 34.649-.686 53.582 3.456 57.7a40.412 40.412 0 0 1 -3.165 14.307c-7.752-5.233-20.011-15.13-23.374-24.925-3.454-10.063-16.25-18.345-38.034-24.618a158.872 158.872 0 0 1 -17.67-6.314 46.8 46.8 0 0 0 -11.163-3.3 78.12 78.12 0 0 1 -19.21-15.639c-11.123-12.839-13.604-26.46-7.374-40.503z"/></svg>