<svg width="254" height="254" viewBox="0 0 254 254" fill="none" xmlns="http://www.w3.org/2000/svg">
<rect width="254" height="254" fill="#EDEDED"/>
<circle id="Ellipse 1" cx="127" cy="127" r="125.5" fill="white" stroke="#6B9B6D" stroke-width="3"/>
<path id="b" d="M131.539 145.242C131.539 161.648 127.861 174.702 120.504 184.402C113.212 194.103 103.154 198.953 90.3281 198.953C77.9583 198.953 68.3229 194.493 61.4219 185.574L60.25 197H38.7656V47H62.4961V101.492C69.332 93.4193 78.5443 89.3828 90.1328 89.3828C103.023 89.3828 113.147 94.168 120.504 103.738C127.861 113.309 131.539 126.688 131.539 143.875V145.242ZM107.809 143.191C107.809 131.733 105.79 123.139 101.754 117.41C97.7174 111.681 91.8581 108.816 84.1758 108.816C73.8893 108.816 66.6628 113.309 62.4961 122.293V165.848C66.7279 175.027 74.0195 179.617 84.3711 179.617C91.793 179.617 97.5221 176.85 101.559 171.316C105.595 165.783 107.678 157.417 107.809 146.219V143.191Z" fill="#6B9B6D"/>
<path id="b_2" d="M192.8 200.4C185.867 200.4 179.533 199 173.8 196.2C168.2 193.4 163.733 189.333 160.4 184H159L157 198H140.6V53.4H161.2V104.8H162.4C169.067 95.2 179.667 90.4 194.2 90.4C206.6 90.4 216.4 95 223.6 104.2C230.8 113.267 234.4 127 234.4 145.4C234.4 164.067 230.8 177.933 223.6 187C216.4 195.933 206.133 200.4 192.8 200.4ZM187 183C196.467 183 203.2 180.2 207.2 174.6C211.2 169 213.2 159.667 213.2 146.6V144.8C213.2 131.467 211.2 122 207.2 116.4C203.2 110.667 196.467 107.8 187 107.8C178.067 107.8 171.533 110.933 167.4 117.2C163.267 123.467 161.2 132.733 161.2 145V146.6C161.2 158.6 163.267 167.667 167.4 173.8C171.533 179.933 178.067 183 187 183Z" fill="#FE2D52"/>
</svg>
