<svg width="2944" height="3416" viewBox="0 0 2944 3416" fill="none" xmlns="http://www.w3.org/2000/svg">
<g clip-path="url(#clip0)">
<rect width="2944" height="3416" fill="#FAFAFA"/>
<path d="M1235.16 1708L1235.16 1631.5L1235.16 1631.5L1235.16 1708ZM2902.09 1762.09C2931.97 1732.22 2931.97 1683.78 2902.09 1653.91L2415.25 1167.06C2385.38 1137.19 2336.94 1137.19 2307.06 1167.06C2277.19 1196.94 2277.19 1245.38 2307.06 1275.25L2739.81 1708L2307.06 2140.75C2277.19 2170.62 2277.19 2219.06 2307.06 2248.94C2336.94 2278.81 2385.38 2278.81 2415.25 2248.94L2902.09 1762.09ZM118.609 1784.5L1235.16 1784.5L1235.16 1631.5L118.609 1631.5L118.609 1784.5ZM1235.16 1784.5L2848 1784.5L2848 1631.5L1235.16 1631.5L1235.16 1784.5Z" fill="#6A6C74"/>
<path d="M1388.33 397.191C1377.79 397.191 1368.13 395.591 1359.33 392.391C1350.66 389.057 1343.73 384.191 1338.53 377.791C1333.33 371.391 1330.73 363.657 1330.73 354.591L1330.93 350.191H1360.33L1360.13 353.391C1360.13 359.257 1362.73 363.924 1367.93 367.391C1373.13 370.857 1380.39 372.591 1389.73 372.591C1399.59 372.591 1406.73 371.324 1411.13 368.791C1415.53 366.124 1417.73 362.591 1417.73 358.191C1417.73 354.324 1416.26 351.124 1413.33 348.591C1410.53 345.924 1406.93 343.857 1402.53 342.391C1398.26 340.791 1392.33 338.924 1384.73 336.791C1373.93 333.724 1365.19 330.791 1358.53 327.991C1351.86 325.191 1346.13 321.057 1341.33 315.591C1336.53 309.991 1334.13 302.657 1334.13 293.591C1334.13 281.057 1339.19 271.524 1349.33 264.991C1359.46 258.457 1372.93 255.191 1389.73 255.191C1405.59 255.191 1418.53 258.591 1428.53 265.391C1438.66 272.057 1443.73 282.124 1443.73 295.591V297.991H1414.93V296.191C1414.93 291.124 1412.59 287.124 1407.93 284.191C1403.39 281.257 1397.19 279.791 1389.33 279.791C1380.93 279.791 1374.46 280.924 1369.93 283.191C1365.53 285.457 1363.33 288.591 1363.33 292.591C1363.33 295.657 1364.66 298.324 1367.33 300.591C1369.99 302.724 1373.33 304.524 1377.33 305.991C1381.33 307.324 1386.99 308.991 1394.33 310.991C1405.26 313.924 1414.19 316.857 1421.13 319.791C1428.19 322.591 1434.26 326.791 1439.33 332.391C1444.39 337.991 1446.93 345.324 1446.93 354.391C1446.93 369.057 1441.66 379.857 1431.13 386.791C1420.73 393.724 1406.46 397.191 1388.33 397.191ZM1469.93 289.591H1493.33L1495.13 303.391H1496.53C1499.86 298.057 1504.33 294.057 1509.93 291.391C1515.53 288.591 1521.73 287.191 1528.53 287.191C1541.86 287.191 1552.19 291.791 1559.53 300.991C1566.86 310.057 1570.53 323.857 1570.53 342.391C1570.53 360.524 1566.79 374.191 1559.33 383.391C1551.99 392.591 1542.19 397.191 1529.93 397.191C1522.86 397.191 1516.59 395.924 1511.13 393.391C1505.79 390.857 1501.59 387.257 1498.53 382.591H1497.33V429.391H1469.93V289.591ZM1519.73 373.391C1527.86 373.391 1533.66 370.991 1537.13 366.191C1540.59 361.257 1542.33 353.857 1542.33 343.991V340.391C1542.33 330.524 1540.59 323.191 1537.13 318.391C1533.66 313.457 1527.86 310.991 1519.73 310.991C1504.79 310.991 1497.33 320.791 1497.33 340.391V343.591C1497.33 363.457 1504.79 373.391 1519.73 373.391ZM1635.59 397.191C1618.66 397.191 1605.99 392.724 1597.59 383.791C1589.33 374.857 1585.19 360.991 1585.19 342.191C1585.19 323.391 1589.33 309.524 1597.59 300.591C1605.99 291.657 1618.66 287.191 1635.59 287.191C1651.19 287.191 1662.86 291.724 1670.59 300.791C1678.33 309.724 1682.19 323.524 1682.19 342.191V348.591H1612.99C1613.26 357.924 1615.13 364.857 1618.59 369.391C1622.06 373.791 1627.86 375.991 1635.99 375.991C1641.73 375.991 1646.33 374.391 1649.79 371.191C1653.39 367.991 1655.19 363.457 1655.19 357.591H1682.19C1682.19 370.791 1677.93 380.724 1669.39 387.391C1660.86 393.924 1649.59 397.191 1635.59 397.191ZM1653.79 330.391C1653.79 315.857 1647.73 308.591 1635.59 308.591C1628.66 308.591 1623.39 310.391 1619.79 313.991C1616.33 317.591 1614.19 323.057 1613.39 330.391H1653.79ZM1703.33 289.591H1726.73L1728.73 303.391H1730.13C1738.66 292.591 1749.59 287.191 1762.93 287.191C1773.73 287.191 1782.19 290.124 1788.33 295.991C1794.59 301.857 1797.73 311.257 1797.73 324.191V394.791H1770.33V329.991C1770.33 323.457 1768.79 318.724 1765.73 315.791C1762.66 312.857 1758.13 311.391 1752.13 311.391C1745.99 311.391 1740.86 313.591 1736.73 317.991C1732.73 322.257 1730.73 327.591 1730.73 333.991V394.791H1703.33V289.591ZM1860.79 397.191C1847.46 397.191 1837.12 392.657 1829.79 383.591C1822.46 374.391 1818.79 360.524 1818.79 341.991C1818.79 323.857 1822.46 310.191 1829.79 300.991C1837.26 291.791 1847.12 287.191 1859.39 287.191C1866.46 287.191 1872.66 288.457 1877.99 290.991C1883.46 293.524 1887.72 297.124 1890.79 301.791H1891.99V250.191H1919.39V394.791H1895.99L1894.19 380.991H1892.79C1889.46 386.324 1884.99 390.391 1879.39 393.191C1873.79 395.857 1867.59 397.191 1860.79 397.191ZM1869.59 373.391C1884.52 373.391 1891.99 363.591 1891.99 343.991V340.791C1891.99 320.924 1884.52 310.991 1869.59 310.991C1861.46 310.991 1855.66 313.457 1852.19 318.391C1848.72 323.191 1846.99 330.524 1846.99 340.391V343.991C1846.99 353.857 1848.72 361.257 1852.19 366.191C1855.66 370.991 1861.46 373.391 1869.59 373.391ZM1364.73 615.191C1354.86 615.191 1347.79 612.524 1343.53 607.191C1339.26 601.857 1337.13 595.124 1337.13 586.991V529.991H1324.53V507.591H1337.73L1342.33 477.991H1364.53V507.591H1382.73V529.991H1364.53V584.191C1364.53 589.924 1367.39 592.791 1373.13 592.791H1382.73V611.991C1380.46 612.791 1377.59 613.524 1374.13 614.191C1370.79 614.857 1367.66 615.191 1364.73 615.191ZM1449.93 615.191C1431.93 615.191 1418.53 610.724 1409.73 601.791C1400.93 592.857 1396.53 578.991 1396.53 560.191C1396.53 541.391 1400.93 527.524 1409.73 518.591C1418.53 509.657 1431.93 505.191 1449.93 505.191C1467.93 505.191 1481.33 509.657 1490.13 518.591C1499.06 527.524 1503.53 541.391 1503.53 560.191C1503.53 578.991 1499.06 592.857 1490.13 601.791C1481.33 610.724 1467.93 615.191 1449.93 615.191ZM1449.93 592.791C1458.86 592.791 1465.33 590.257 1469.33 585.191C1473.33 579.991 1475.33 572.191 1475.33 561.791V558.591C1475.33 548.191 1473.33 540.457 1469.33 535.391C1465.33 530.191 1458.86 527.591 1449.93 527.591C1441 527.591 1434.53 530.191 1430.53 535.391C1426.66 540.457 1424.73 548.191 1424.73 558.591V561.791C1424.73 572.191 1426.66 579.991 1430.53 585.191C1434.53 590.257 1441 592.791 1449.93 592.791ZM1624.46 615.191C1607.53 615.191 1594.86 610.724 1586.46 601.791C1578.19 592.857 1574.06 578.991 1574.06 560.191C1574.06 541.391 1578.19 527.524 1586.46 518.591C1594.86 509.657 1607.53 505.191 1624.46 505.191C1640.06 505.191 1651.73 509.724 1659.46 518.791C1667.19 527.724 1671.06 541.524 1671.06 560.191V566.591H1601.86C1602.13 575.924 1603.99 582.857 1607.46 587.391C1610.93 591.791 1616.73 593.991 1624.86 593.991C1630.59 593.991 1635.19 592.391 1638.66 589.191C1642.26 585.991 1644.06 581.457 1644.06 575.591H1671.06C1671.06 588.791 1666.79 598.724 1658.26 605.391C1649.73 611.924 1638.46 615.191 1624.46 615.191ZM1642.66 548.391C1642.66 533.857 1636.59 526.591 1624.46 526.591C1617.53 526.591 1612.26 528.391 1608.66 531.991C1605.19 535.591 1603.06 541.057 1602.26 548.391H1642.66ZM1716.19 558.391L1682.19 507.591H1715.19L1734.19 538.191H1735.39L1754.79 507.591H1785.79L1751.19 557.791L1787.79 612.791H1754.99L1733.19 577.991H1731.99L1709.99 612.791H1679.19L1716.19 558.391ZM1831.53 615.191C1821.66 615.191 1814.59 612.524 1810.33 607.191C1806.06 601.857 1803.93 595.124 1803.93 586.991V529.991H1791.33V507.591H1804.53L1809.13 477.991H1831.33V507.591H1849.53V529.991H1831.33V584.191C1831.33 589.924 1834.19 592.791 1839.93 592.791H1849.53V611.991C1847.26 612.791 1844.39 613.524 1840.93 614.191C1837.59 614.857 1834.46 615.191 1831.53 615.191ZM1913.33 615.191C1896.39 615.191 1883.73 610.724 1875.33 601.791C1867.06 592.857 1862.93 578.991 1862.93 560.191C1862.93 541.391 1867.06 527.524 1875.33 518.591C1883.73 509.657 1896.39 505.191 1913.33 505.191C1928.93 505.191 1940.59 509.724 1948.33 518.791C1956.06 527.724 1959.93 541.524 1959.93 560.191V566.591H1890.73C1890.99 575.924 1892.86 582.857 1896.33 587.391C1899.79 591.791 1905.59 593.991 1913.73 593.991C1919.46 593.991 1924.06 592.391 1927.53 589.191C1931.13 585.991 1932.93 581.457 1932.93 575.591H1959.93C1959.93 588.791 1955.66 598.724 1947.13 605.391C1938.59 611.924 1927.33 615.191 1913.33 615.191ZM1931.53 548.391C1931.53 533.857 1925.46 526.591 1913.33 526.591C1906.39 526.591 1901.13 528.391 1897.53 531.991C1894.06 535.591 1891.93 541.057 1891.13 548.391H1931.53ZM1981.06 507.591H2004.46L2006.46 521.391H2007.86C2016.39 510.591 2027.33 505.191 2040.66 505.191C2051.46 505.191 2059.93 508.124 2066.06 513.991C2072.33 519.857 2075.46 529.257 2075.46 542.191V612.791H2048.06V547.991C2048.06 541.457 2046.53 536.724 2043.46 533.791C2040.39 530.857 2035.86 529.391 2029.86 529.391C2023.73 529.391 2018.59 531.591 2014.46 535.991C2010.46 540.257 2008.46 545.591 2008.46 551.991V612.791H1981.06V507.591ZM2138.53 615.191C2125.19 615.191 2114.86 610.657 2107.53 601.591C2100.19 592.391 2096.53 578.524 2096.53 559.991C2096.53 541.857 2100.19 528.191 2107.53 518.991C2114.99 509.791 2124.86 505.191 2137.13 505.191C2144.19 505.191 2150.39 506.457 2155.73 508.991C2161.19 511.524 2165.46 515.124 2168.53 519.791H2169.73V468.191H2197.13V612.791H2173.73L2171.93 598.991H2170.53C2167.19 604.324 2162.73 608.391 2157.13 611.191C2151.53 613.857 2145.33 615.191 2138.53 615.191ZM2147.33 591.391C2162.26 591.391 2169.73 581.591 2169.73 561.991V558.791C2169.73 538.924 2162.26 528.991 2147.33 528.991C2139.19 528.991 2133.39 531.457 2129.93 536.391C2126.46 541.191 2124.73 548.524 2124.73 558.391V561.991C2124.73 571.857 2126.46 579.257 2129.93 584.191C2133.39 588.991 2139.19 591.391 2147.33 591.391ZM1364.73 1051.19C1354.86 1051.19 1347.79 1048.52 1343.53 1043.19C1339.26 1037.86 1337.13 1031.12 1337.13 1022.99V965.991H1324.53V943.591H1337.73L1342.33 913.991H1364.53V943.591H1382.73V965.991H1364.53V1020.19C1364.53 1025.92 1367.39 1028.79 1373.13 1028.79H1382.73V1047.99C1380.46 1048.79 1377.59 1049.52 1374.13 1050.19C1370.79 1050.86 1367.66 1051.19 1364.73 1051.19ZM1449.93 1051.19C1431.93 1051.19 1418.53 1046.72 1409.73 1037.79C1400.93 1028.86 1396.53 1014.99 1396.53 996.191C1396.53 977.391 1400.93 963.524 1409.73 954.591C1418.53 945.657 1431.93 941.191 1449.93 941.191C1467.93 941.191 1481.33 945.657 1490.13 954.591C1499.06 963.524 1503.53 977.391 1503.53 996.191C1503.53 1014.99 1499.06 1028.86 1490.13 1037.79C1481.33 1046.72 1467.93 1051.19 1449.93 1051.19ZM1449.93 1028.79C1458.86 1028.79 1465.33 1026.26 1469.33 1021.19C1473.33 1015.99 1475.33 1008.19 1475.33 997.791V994.591C1475.33 984.191 1473.33 976.457 1469.33 971.391C1465.33 966.191 1458.86 963.591 1449.93 963.591C1441 963.591 1434.53 966.191 1430.53 971.391C1426.66 976.457 1424.73 984.191 1424.73 994.591V997.791C1424.73 1008.19 1426.66 1015.99 1430.53 1021.19C1434.53 1026.26 1441 1028.79 1449.93 1028.79ZM2081.05 1239.39H2108.65V1266.79H2081.05V1239.39Z" fill="#6A6C74"/>
<path d="M2002.72 257.591H2031.72V323.791L2095.12 257.591H2130.32L2076.72 313.391L2131.12 394.791H2096.72L2057.32 333.791L2031.72 354.991V394.791H2002.72V257.591ZM2172.06 397.191C2163.92 397.191 2156.46 395.057 2149.66 390.791C2142.86 386.524 2139.46 378.791 2139.46 367.591C2139.46 354.124 2144.99 344.591 2156.06 338.991C2167.12 333.257 2182.79 330.391 2203.06 330.391V322.991C2203.06 318.324 2201.99 314.724 2199.86 312.191C2197.86 309.657 2193.99 308.391 2188.26 308.391C2182.12 308.391 2177.72 309.324 2175.06 311.191C2172.52 313.057 2171.26 315.257 2171.26 317.791V320.791H2144.86C2144.72 319.991 2144.66 318.524 2144.66 316.391C2144.66 307.591 2148.52 300.524 2156.26 295.191C2164.12 289.857 2174.52 287.191 2187.46 287.191C2201.86 287.191 2212.59 290.124 2219.66 295.991C2226.86 301.857 2230.46 310.324 2230.46 321.391V367.791C2230.46 370.191 2231.12 371.991 2232.46 373.191C2233.79 374.257 2235.46 374.791 2237.46 374.791H2243.06V393.991C2238.79 396.124 2233.52 397.191 2227.26 397.191C2221.79 397.191 2217.19 395.991 2213.46 393.591C2209.86 391.191 2207.39 387.791 2206.06 383.391H2204.86C2200.99 387.924 2196.52 391.391 2191.46 393.791C2186.52 396.057 2180.06 397.191 2172.06 397.191ZM2180.66 375.591C2188.39 375.591 2194.06 373.457 2197.66 369.191C2201.26 364.791 2203.06 358.991 2203.06 351.791V348.591C2179.19 348.591 2167.26 353.924 2167.26 364.591C2167.26 367.924 2168.32 370.591 2170.46 372.591C2172.72 374.591 2176.12 375.591 2180.66 375.591ZM2258.99 289.591H2282.39L2284.59 306.591H2285.99C2288.26 300.591 2291.19 295.857 2294.79 292.391C2298.39 288.924 2303.12 287.191 2308.99 287.191C2312.86 287.191 2316.32 287.791 2319.39 288.991V314.591H2311.79C2302.86 314.591 2296.39 317.057 2292.39 321.991C2288.39 326.791 2286.39 334.124 2286.39 343.991V394.791H2258.99V289.591ZM2336.72 289.591H2360.12L2362.12 303.391H2363.52C2371.26 292.591 2381.26 287.191 2393.52 287.191C2406.86 287.191 2416.06 292.591 2421.12 303.391H2422.72C2430.72 292.591 2441.12 287.191 2453.92 287.191C2463.92 287.191 2471.86 290.124 2477.72 295.991C2483.72 301.857 2486.72 311.257 2486.72 324.191V394.791H2459.32V329.991C2459.32 317.591 2454.19 311.391 2443.92 311.391C2438.59 311.391 2434.19 313.591 2430.72 317.991C2427.26 322.257 2425.52 327.591 2425.52 333.991V394.791H2398.12V329.991C2398.12 317.591 2392.99 311.391 2382.72 311.391C2377.39 311.391 2372.92 313.591 2369.32 317.991C2365.86 322.257 2364.12 327.591 2364.12 333.991V394.791H2336.72V289.591ZM2538.66 397.191C2530.52 397.191 2523.06 395.057 2516.26 390.791C2509.46 386.524 2506.06 378.791 2506.06 367.591C2506.06 354.124 2511.59 344.591 2522.66 338.991C2533.72 333.257 2549.39 330.391 2569.66 330.391V322.991C2569.66 318.324 2568.59 314.724 2566.46 312.191C2564.46 309.657 2560.59 308.391 2554.86 308.391C2548.72 308.391 2544.32 309.324 2541.66 311.191C2539.12 313.057 2537.86 315.257 2537.86 317.791V320.791H2511.46C2511.32 319.991 2511.26 318.524 2511.26 316.391C2511.26 307.591 2515.12 300.524 2522.86 295.191C2530.72 289.857 2541.12 287.191 2554.06 287.191C2568.46 287.191 2579.19 290.124 2586.26 295.991C2593.46 301.857 2597.06 310.324 2597.06 321.391V367.791C2597.06 370.191 2597.72 371.991 2599.06 373.191C2600.39 374.257 2602.06 374.791 2604.06 374.791H2609.66V393.991C2605.39 396.124 2600.12 397.191 2593.86 397.191C2588.39 397.191 2583.79 395.991 2580.06 393.591C2576.46 391.191 2573.99 387.791 2572.66 383.391H2571.46C2567.59 387.924 2563.12 391.391 2558.06 393.791C2553.12 396.057 2546.66 397.191 2538.66 397.191ZM2547.26 375.591C2554.99 375.591 2560.66 373.457 2564.26 369.191C2567.86 364.791 2569.66 358.991 2569.66 351.791V348.591C2545.79 348.591 2533.86 353.924 2533.86 364.591C2533.86 367.924 2534.92 370.591 2537.06 372.591C2539.32 374.591 2542.72 375.591 2547.26 375.591ZM1580.26 911.591H1679.66V936.191H1609.26V969.991H1672.26V994.591H1609.26V1048.79H1580.26V911.591ZM1737.53 1051.19C1726.73 1051.19 1718.19 1048.26 1711.93 1042.39C1705.79 1036.52 1702.73 1027.12 1702.73 1014.19V943.591H1730.13V1008.39C1730.13 1014.92 1731.66 1019.66 1734.73 1022.59C1737.79 1025.52 1742.33 1026.99 1748.33 1026.99C1754.46 1026.99 1759.53 1024.86 1763.53 1020.59C1767.66 1016.19 1769.73 1010.79 1769.73 1004.39V943.591H1797.13V1048.79H1773.73L1771.73 1034.99H1770.33C1761.79 1045.79 1750.86 1051.19 1737.53 1051.19ZM1825.59 904.191H1852.99V1048.79H1825.59V904.191ZM1881.25 904.191H1908.65V1048.79H1881.25V904.191ZM1335.73 1129.59H1364.73V1241.59H1438.73V1266.79H1335.73V1129.59ZM1458.59 1122.19H1485.99V1148.19H1458.59V1122.19ZM1458.59 1161.59H1485.99V1266.79H1458.59V1161.59ZM1558.06 1269.19C1541.26 1269.19 1528.66 1264.72 1520.26 1255.79C1511.99 1246.86 1507.86 1232.99 1507.86 1214.19C1507.86 1195.52 1511.99 1181.72 1520.26 1172.79C1528.66 1163.72 1541.26 1159.19 1558.06 1159.19C1572.06 1159.19 1583.19 1162.79 1591.46 1169.99C1599.86 1177.06 1604.06 1187.46 1604.06 1201.19H1576.46C1576.46 1194.79 1574.79 1189.86 1571.46 1186.39C1568.12 1182.92 1563.46 1181.19 1557.46 1181.19C1549.99 1181.19 1544.46 1183.86 1540.86 1189.19C1537.39 1194.39 1535.66 1202.19 1535.66 1212.59V1215.79C1535.66 1226.19 1537.46 1234.06 1541.06 1239.39C1544.79 1244.59 1550.72 1247.19 1558.86 1247.19C1564.59 1247.19 1569.12 1245.46 1572.46 1241.99C1575.92 1238.39 1577.66 1233.46 1577.66 1227.19H1604.06C1604.06 1240.92 1599.92 1251.39 1591.66 1258.59C1583.39 1265.66 1572.19 1269.19 1558.06 1269.19ZM1668.99 1269.19C1652.06 1269.19 1639.39 1264.72 1630.99 1255.79C1622.72 1246.86 1618.59 1232.99 1618.59 1214.19C1618.59 1195.39 1622.72 1181.52 1630.99 1172.59C1639.39 1163.66 1652.06 1159.19 1668.99 1159.19C1684.59 1159.19 1696.26 1163.72 1703.99 1172.79C1711.72 1181.72 1715.59 1195.52 1715.59 1214.19V1220.59H1646.39C1646.66 1229.92 1648.52 1236.86 1651.99 1241.39C1655.46 1245.79 1661.26 1247.99 1669.39 1247.99C1675.12 1247.99 1679.72 1246.39 1683.19 1243.19C1686.79 1239.99 1688.59 1235.46 1688.59 1229.59H1715.59C1715.59 1242.79 1711.32 1252.72 1702.79 1259.39C1694.26 1265.92 1682.99 1269.19 1668.99 1269.19ZM1687.19 1202.39C1687.19 1187.86 1681.12 1180.59 1668.99 1180.59C1662.06 1180.59 1656.79 1182.39 1653.19 1185.99C1649.72 1189.59 1647.59 1195.06 1646.79 1202.39H1687.19ZM1736.72 1161.59H1760.12L1762.12 1175.39H1763.52C1772.06 1164.59 1782.99 1159.19 1796.32 1159.19C1807.12 1159.19 1815.59 1162.12 1821.72 1167.99C1827.99 1173.86 1831.12 1183.26 1831.12 1196.19V1266.79H1803.72V1201.99C1803.72 1195.46 1802.19 1190.72 1799.12 1187.79C1796.06 1184.86 1791.52 1183.39 1785.52 1183.39C1779.39 1183.39 1774.26 1185.59 1770.12 1189.99C1766.12 1194.26 1764.12 1199.59 1764.12 1205.99V1266.79H1736.72V1161.59ZM1900.99 1269.19C1886.32 1269.19 1874.79 1266.19 1866.39 1260.19C1858.12 1254.06 1853.99 1245.92 1853.99 1235.79L1854.19 1233.39H1880.79V1234.79C1880.92 1239.46 1882.99 1242.86 1886.99 1244.99C1891.12 1246.99 1896.12 1247.99 1901.99 1247.99C1907.46 1247.99 1912.12 1247.26 1915.99 1245.79C1919.86 1244.32 1921.79 1241.92 1921.79 1238.59C1921.79 1234.86 1919.79 1232.06 1915.79 1230.19C1911.92 1228.32 1905.79 1226.46 1897.39 1224.59C1888.72 1222.59 1881.66 1220.59 1876.19 1218.59C1870.72 1216.46 1865.99 1213.19 1861.99 1208.79C1857.99 1204.39 1855.99 1198.52 1855.99 1191.19C1855.99 1180.92 1860.26 1173.06 1868.79 1167.59C1877.46 1161.99 1888.59 1159.19 1902.19 1159.19C1914.86 1159.19 1925.32 1161.79 1933.59 1166.99C1941.86 1172.06 1945.99 1178.99 1945.99 1187.79L1945.79 1192.39H1919.19V1191.19C1919.19 1187.72 1917.52 1185.06 1914.19 1183.19C1910.99 1181.32 1906.66 1180.39 1901.19 1180.39C1895.72 1180.39 1891.39 1181.12 1888.19 1182.59C1884.99 1184.06 1883.39 1186.12 1883.39 1188.79C1883.39 1192.12 1885.19 1194.59 1888.79 1196.19C1892.52 1197.79 1898.46 1199.39 1906.59 1200.99C1915.52 1202.99 1922.79 1204.99 1928.39 1206.99C1933.99 1208.99 1938.86 1212.26 1942.99 1216.79C1947.12 1221.32 1949.19 1227.46 1949.19 1235.19C1949.19 1257.86 1933.12 1269.19 1900.99 1269.19ZM2013.52 1269.19C1996.59 1269.19 1983.92 1264.72 1975.52 1255.79C1967.26 1246.86 1963.12 1232.99 1963.12 1214.19C1963.12 1195.39 1967.26 1181.52 1975.52 1172.59C1983.92 1163.66 1996.59 1159.19 2013.52 1159.19C2029.12 1159.19 2040.79 1163.72 2048.52 1172.79C2056.26 1181.72 2060.12 1195.52 2060.12 1214.19V1220.59H1990.92C1991.19 1229.92 1993.06 1236.86 1996.52 1241.39C1999.99 1245.79 2005.79 1247.99 2013.92 1247.99C2019.66 1247.99 2024.26 1246.39 2027.72 1243.19C2031.32 1239.99 2033.12 1235.46 2033.12 1229.59H2060.12C2060.12 1242.79 2055.86 1252.72 2047.32 1259.39C2038.79 1265.92 2027.52 1269.19 2013.52 1269.19ZM2031.72 1202.39C2031.72 1187.86 2025.66 1180.59 2013.52 1180.59C2006.59 1180.59 2001.32 1182.39 1997.72 1185.99C1994.26 1189.59 1992.12 1195.06 1991.32 1202.39H2031.72Z" fill="#D69090"/>
<path d="M1335.73 693.591H1414.33C1421.53 693.591 1428.06 695.057 1433.93 697.991C1439.79 700.791 1444.39 704.791 1447.73 709.991C1451.06 715.057 1452.73 720.924 1452.73 727.591C1452.73 735.191 1450.59 741.791 1446.33 747.391C1442.19 752.857 1436.86 756.657 1430.33 758.791V759.591C1438.06 761.057 1444.33 764.857 1449.13 770.991C1454.06 776.991 1456.53 784.124 1456.53 792.391C1456.53 804.791 1452.53 814.324 1444.53 820.991C1436.66 827.524 1426.59 830.791 1414.33 830.791H1335.73V693.591ZM1406.13 748.391C1411.46 748.391 1415.59 747.057 1418.53 744.391C1421.46 741.591 1422.93 738.057 1422.93 733.791C1422.93 728.724 1421.53 724.857 1418.73 722.191C1416.06 719.524 1412.33 718.191 1407.53 718.191H1364.93V748.391H1406.13ZM1409.53 806.191C1414.59 806.191 1418.73 804.724 1421.93 801.791C1425.13 798.857 1426.73 794.657 1426.73 789.191C1426.73 784.257 1425.13 780.257 1421.93 777.191C1418.73 774.124 1414.06 772.591 1407.93 772.591H1364.93V806.191H1409.53ZM1505.06 833.191C1496.93 833.191 1489.46 831.057 1482.66 826.791C1475.86 822.524 1472.46 814.791 1472.46 803.591C1472.46 790.124 1478 780.591 1489.06 774.991C1500.13 769.257 1515.8 766.391 1536.06 766.391V758.991C1536.06 754.324 1535 750.724 1532.86 748.191C1530.86 745.657 1527 744.391 1521.26 744.391C1515.13 744.391 1510.73 745.324 1508.06 747.191C1505.53 749.057 1504.26 751.257 1504.26 753.791V756.791H1477.86C1477.73 755.991 1477.66 754.524 1477.66 752.391C1477.66 743.591 1481.53 736.524 1489.26 731.191C1497.13 725.857 1507.53 723.191 1520.46 723.191C1534.86 723.191 1545.6 726.124 1552.66 731.991C1559.86 737.857 1563.46 746.324 1563.46 757.391V803.791C1563.46 806.191 1564.13 807.991 1565.46 809.191C1566.8 810.257 1568.46 810.791 1570.46 810.791H1576.06V829.991C1571.8 832.124 1566.53 833.191 1560.26 833.191C1554.8 833.191 1550.2 831.991 1546.46 829.591C1542.86 827.191 1540.4 823.791 1539.06 819.391H1537.86C1534 823.924 1529.53 827.391 1524.46 829.791C1519.53 832.057 1513.06 833.191 1505.06 833.191ZM1513.66 811.591C1521.4 811.591 1527.06 809.457 1530.66 805.191C1534.26 800.791 1536.06 794.991 1536.06 787.791V784.591C1512.2 784.591 1500.26 789.924 1500.26 800.591C1500.26 803.924 1501.33 806.591 1503.46 808.591C1505.73 810.591 1509.13 811.591 1513.66 811.591ZM1634 833.191C1619.33 833.191 1607.8 830.191 1599.4 824.191C1591.13 818.057 1587 809.924 1587 799.791L1587.2 797.391H1613.8V798.791C1613.93 803.457 1616 806.857 1620 808.991C1624.13 810.991 1629.13 811.991 1635 811.991C1640.46 811.991 1645.13 811.257 1649 809.791C1652.86 808.324 1654.8 805.924 1654.8 802.591C1654.8 798.857 1652.8 796.057 1648.8 794.191C1644.93 792.324 1638.8 790.457 1630.4 788.591C1621.73 786.591 1614.66 784.591 1609.2 782.591C1603.73 780.457 1599 777.191 1595 772.791C1591 768.391 1589 762.524 1589 755.191C1589 744.924 1593.26 737.057 1601.8 731.591C1610.46 725.991 1621.6 723.191 1635.2 723.191C1647.86 723.191 1658.33 725.791 1666.6 730.991C1674.86 736.057 1679 742.991 1679 751.791L1678.8 756.391H1652.2V755.191C1652.2 751.724 1650.53 749.057 1647.2 747.191C1644 745.324 1639.66 744.391 1634.2 744.391C1628.73 744.391 1624.4 745.124 1621.2 746.591C1618 748.057 1616.4 750.124 1616.4 752.791C1616.4 756.124 1618.2 758.591 1621.8 760.191C1625.53 761.791 1631.46 763.391 1639.6 764.991C1648.53 766.991 1655.8 768.991 1661.4 770.991C1667 772.991 1671.86 776.257 1676 780.791C1680.13 785.324 1682.2 791.457 1682.2 799.191C1682.2 821.857 1666.13 833.191 1634 833.191ZM1702.93 686.191H1730.33V712.191H1702.93V686.191ZM1702.93 725.591H1730.33V830.791H1702.93V725.591ZM1802.39 833.191C1785.59 833.191 1772.99 828.724 1764.59 819.791C1756.33 810.857 1752.19 796.991 1752.19 778.191C1752.19 759.524 1756.33 745.724 1764.59 736.791C1772.99 727.724 1785.59 723.191 1802.39 723.191C1816.39 723.191 1827.53 726.791 1835.79 733.991C1844.19 741.057 1848.39 751.457 1848.39 765.191H1820.79C1820.79 758.791 1819.13 753.857 1815.79 750.391C1812.46 746.924 1807.79 745.191 1801.79 745.191C1794.33 745.191 1788.79 747.857 1785.19 753.191C1781.73 758.391 1779.99 766.191 1779.99 776.591V779.791C1779.99 790.191 1781.79 798.057 1785.39 803.391C1789.13 808.591 1795.06 811.191 1803.19 811.191C1808.93 811.191 1813.46 809.457 1816.79 805.991C1820.26 802.391 1821.99 797.457 1821.99 791.191H1848.39C1848.39 804.924 1844.26 815.391 1835.99 822.591C1827.73 829.657 1816.53 833.191 1802.39 833.191ZM1924.79 693.591H1953.79V805.591H2027.79V830.791H1924.79V693.591ZM2047.66 686.191H2075.06V712.191H2047.66V686.191ZM2047.66 725.591H2075.06V830.791H2047.66V725.591ZM2147.12 833.191C2130.32 833.191 2117.72 828.724 2109.32 819.791C2101.05 810.857 2096.92 796.991 2096.92 778.191C2096.92 759.524 2101.05 745.724 2109.32 736.791C2117.72 727.724 2130.32 723.191 2147.12 723.191C2161.12 723.191 2172.25 726.791 2180.52 733.991C2188.92 741.057 2193.12 751.457 2193.12 765.191H2165.52C2165.52 758.791 2163.85 753.857 2160.52 750.391C2157.19 746.924 2152.52 745.191 2146.52 745.191C2139.05 745.191 2133.52 747.857 2129.92 753.191C2126.45 758.391 2124.72 766.191 2124.72 776.591V779.791C2124.72 790.191 2126.52 798.057 2130.12 803.391C2133.85 808.591 2139.79 811.191 2147.92 811.191C2153.65 811.191 2158.19 809.457 2161.52 805.991C2164.99 802.391 2166.72 797.457 2166.72 791.191H2193.12C2193.12 804.924 2188.99 815.391 2180.72 822.591C2172.45 829.657 2161.25 833.191 2147.12 833.191ZM2258.05 833.191C2241.12 833.191 2228.45 828.724 2220.05 819.791C2211.79 810.857 2207.65 796.991 2207.65 778.191C2207.65 759.391 2211.79 745.524 2220.05 736.591C2228.45 727.657 2241.12 723.191 2258.05 723.191C2273.65 723.191 2285.32 727.724 2293.05 736.791C2300.79 745.724 2304.65 759.524 2304.65 778.191V784.591H2235.45C2235.72 793.924 2237.59 800.857 2241.05 805.391C2244.52 809.791 2250.32 811.991 2258.45 811.991C2264.19 811.991 2268.79 810.391 2272.25 807.191C2275.85 803.991 2277.65 799.457 2277.65 793.591H2304.65C2304.65 806.791 2300.39 816.724 2291.85 823.391C2283.32 829.924 2272.05 833.191 2258.05 833.191ZM2276.25 766.391C2276.25 751.857 2270.19 744.591 2258.05 744.591C2251.12 744.591 2245.85 746.391 2242.25 749.991C2238.79 753.591 2236.65 759.057 2235.85 766.391H2276.25ZM2325.79 725.591H2349.19L2351.19 739.391H2352.59C2361.12 728.591 2372.05 723.191 2385.39 723.191C2396.19 723.191 2404.65 726.124 2410.79 731.991C2417.05 737.857 2420.19 747.257 2420.19 760.191V830.791H2392.79V765.991C2392.79 759.457 2391.25 754.724 2388.19 751.791C2385.12 748.857 2380.59 747.391 2374.59 747.391C2368.45 747.391 2363.32 749.591 2359.19 753.991C2355.19 758.257 2353.19 763.591 2353.19 769.991V830.791H2325.79V725.591ZM2490.05 833.191C2475.38 833.191 2463.85 830.191 2455.45 824.191C2447.18 818.057 2443.05 809.924 2443.05 799.791L2443.25 797.391H2469.85V798.791C2469.98 803.457 2472.05 806.857 2476.05 808.991C2480.18 810.991 2485.18 811.991 2491.05 811.991C2496.52 811.991 2501.18 811.257 2505.05 809.791C2508.92 808.324 2510.85 805.924 2510.85 802.591C2510.85 798.857 2508.85 796.057 2504.85 794.191C2500.98 792.324 2494.85 790.457 2486.45 788.591C2477.78 786.591 2470.72 784.591 2465.25 782.591C2459.78 780.457 2455.05 777.191 2451.05 772.791C2447.05 768.391 2445.05 762.524 2445.05 755.191C2445.05 744.924 2449.32 737.057 2457.85 731.591C2466.52 725.991 2477.65 723.191 2491.25 723.191C2503.92 723.191 2514.38 725.791 2522.65 730.991C2530.92 736.057 2535.05 742.991 2535.05 751.791L2534.85 756.391H2508.25V755.191C2508.25 751.724 2506.58 749.057 2503.25 747.191C2500.05 745.324 2495.72 744.391 2490.25 744.391C2484.78 744.391 2480.45 745.124 2477.25 746.591C2474.05 748.057 2472.45 750.124 2472.45 752.791C2472.45 756.124 2474.25 758.591 2477.85 760.191C2481.58 761.791 2487.52 763.391 2495.65 764.991C2504.58 766.991 2511.85 768.991 2517.45 770.991C2523.05 772.991 2527.92 776.257 2532.05 780.791C2536.18 785.324 2538.25 791.457 2538.25 799.191C2538.25 821.857 2522.18 833.191 2490.05 833.191ZM2602.58 833.191C2585.65 833.191 2572.98 828.724 2564.58 819.791C2556.32 810.857 2552.18 796.991 2552.18 778.191C2552.18 759.391 2556.32 745.524 2564.58 736.591C2572.98 727.657 2585.65 723.191 2602.58 723.191C2618.18 723.191 2629.85 727.724 2637.58 736.791C2645.32 745.724 2649.18 759.524 2649.18 778.191V784.591H2579.98C2580.25 793.924 2582.12 800.857 2585.58 805.391C2589.05 809.791 2594.85 811.991 2602.98 811.991C2608.72 811.991 2613.32 810.391 2616.78 807.191C2620.38 803.991 2622.18 799.457 2622.18 793.591H2649.18C2649.18 806.791 2644.92 816.724 2636.38 823.391C2627.85 829.924 2616.58 833.191 2602.58 833.191ZM2620.78 766.391C2620.78 751.857 2614.72 744.591 2602.58 744.591C2595.65 744.591 2590.38 746.391 2586.78 749.991C2583.32 753.591 2581.18 759.057 2580.38 766.391H2620.78Z" fill="#658566"/>
<path d="M132.009 1942.84H239.809V1967.44H161.009V1997.64H231.009V2022.24H161.009V2055.44H241.009V2080.04H132.009V1942.84ZM290.408 2082.44C282.274 2082.44 274.808 2080.31 268.008 2076.04C261.208 2071.78 257.808 2064.04 257.808 2052.84C257.808 2039.38 263.341 2029.84 274.408 2024.24C285.474 2018.51 301.141 2015.64 321.408 2015.64V2008.24C321.408 2003.58 320.341 1999.98 318.208 1997.44C316.208 1994.91 312.341 1993.64 306.608 1993.64C300.474 1993.64 296.074 1994.58 293.408 1996.44C290.874 1998.31 289.608 2000.51 289.608 2003.04V2006.04H263.208C263.074 2005.24 263.008 2003.78 263.008 2001.64C263.008 1992.84 266.874 1985.78 274.608 1980.44C282.474 1975.11 292.874 1972.44 305.808 1972.44C320.208 1972.44 330.941 1975.38 338.008 1981.24C345.208 1987.11 348.808 1995.58 348.808 2006.64V2053.04C348.808 2055.44 349.474 2057.24 350.808 2058.44C352.141 2059.51 353.808 2060.04 355.808 2060.04H361.408V2079.24C357.141 2081.38 351.874 2082.44 345.608 2082.44C340.141 2082.44 335.541 2081.24 331.808 2078.84C328.208 2076.44 325.741 2073.04 324.408 2068.64H323.208C319.341 2073.18 314.874 2076.64 309.808 2079.04C304.874 2081.31 298.408 2082.44 290.408 2082.44ZM299.008 2060.84C306.741 2060.84 312.408 2058.71 316.008 2054.44C319.608 2050.04 321.408 2044.24 321.408 2037.04V2033.84C297.541 2033.84 285.608 2039.18 285.608 2049.84C285.608 2053.18 286.674 2055.84 288.808 2057.84C291.074 2059.84 294.474 2060.84 299.008 2060.84ZM377.341 1974.84H400.741L402.941 1991.84H404.341C406.607 1985.84 409.541 1981.11 413.141 1977.64C416.741 1974.18 421.474 1972.44 427.341 1972.44C431.207 1972.44 434.674 1973.04 437.741 1974.24V1999.84H430.141C421.207 1999.84 414.741 2002.31 410.741 2007.24C406.741 2012.04 404.741 2019.38 404.741 2029.24V2080.04H377.341V1974.84ZM455.075 1974.84H478.475L480.475 1988.64H481.875C490.408 1977.84 501.342 1972.44 514.675 1972.44C525.475 1972.44 533.942 1975.38 540.075 1981.24C546.342 1987.11 549.475 1996.51 549.475 2009.44V2080.04H522.075V2015.24C522.075 2008.71 520.542 2003.98 517.475 2001.04C514.408 1998.11 509.875 1996.64 503.875 1996.64C497.742 1996.64 492.608 1998.84 488.475 2003.24C484.475 2007.51 482.475 2012.84 482.475 2019.24V2080.04H455.075V1974.84ZM191.409 2300.44C184.609 2300.44 178.409 2299.11 172.809 2296.44C167.209 2293.64 162.743 2289.58 159.409 2284.24H158.009L156.209 2298.04H132.809V2153.44H160.209V2205.04H161.409C164.476 2200.38 168.676 2196.78 174.009 2194.24C179.476 2191.71 185.743 2190.44 192.809 2190.44C205.076 2190.44 214.876 2195.04 222.209 2204.24C229.676 2213.44 233.409 2227.11 233.409 2245.24C233.409 2263.78 229.743 2277.64 222.409 2286.84C215.076 2295.91 204.743 2300.44 191.409 2300.44ZM182.609 2276.64C190.743 2276.64 196.543 2274.24 200.009 2269.44C203.476 2264.51 205.209 2257.11 205.209 2247.24V2243.64C205.209 2233.78 203.476 2226.44 200.009 2221.64C196.543 2216.71 190.743 2214.24 182.609 2214.24C167.676 2214.24 160.209 2224.18 160.209 2244.04V2247.24C160.209 2266.84 167.676 2276.64 182.609 2276.64ZM271.075 2334.44C263.742 2334.44 257.475 2333.58 252.275 2331.84V2312.64H265.275C269.942 2312.64 273.742 2311.51 276.675 2309.24C279.608 2306.98 282.008 2303.24 283.875 2298.04L242.675 2192.84H271.275L291.075 2242.24C293.075 2247.44 295.542 2256.58 298.475 2269.64H299.475C302.675 2257.38 305.142 2248.31 306.875 2242.44L322.475 2192.84H350.275L314.875 2292.64C311.675 2301.44 308.342 2308.78 304.875 2314.64C301.408 2320.64 296.875 2325.44 291.275 2329.04C285.808 2332.64 279.075 2334.44 271.075 2334.44ZM421.872 2192.84H445.272L447.072 2206.64H448.472C451.805 2201.31 456.272 2197.31 461.872 2194.64C467.472 2191.84 473.672 2190.44 480.472 2190.44C493.805 2190.44 504.139 2195.04 511.472 2204.24C518.805 2213.31 522.472 2227.11 522.472 2245.64C522.472 2263.78 518.739 2277.44 511.272 2286.64C503.939 2295.84 494.139 2300.44 481.872 2300.44C474.805 2300.44 468.539 2299.18 463.072 2296.64C457.739 2294.11 453.539 2290.51 450.472 2285.84H449.272V2332.64H421.872V2192.84ZM471.672 2276.64C479.805 2276.64 485.605 2274.24 489.072 2269.44C492.539 2264.51 494.272 2257.11 494.272 2247.24V2243.64C494.272 2233.78 492.539 2226.44 489.072 2221.64C485.605 2216.71 479.805 2214.24 471.672 2214.24C456.739 2214.24 449.272 2224.04 449.272 2243.64V2246.84C449.272 2266.71 456.739 2276.64 471.672 2276.64ZM578.338 2300.44C567.538 2300.44 559.004 2297.51 552.738 2291.64C546.604 2285.78 543.538 2276.38 543.538 2263.44V2192.84H570.938V2257.64C570.938 2264.18 572.471 2268.91 575.538 2271.84C578.604 2274.78 583.138 2276.24 589.138 2276.24C595.271 2276.24 600.338 2274.11 604.338 2269.84C608.471 2265.44 610.538 2260.04 610.538 2253.64V2192.84H637.938V2298.04H614.538L612.538 2284.24H611.138C602.604 2295.04 591.671 2300.44 578.338 2300.44ZM725.003 2300.44C718.203 2300.44 712.003 2299.11 706.403 2296.44C700.803 2293.64 696.336 2289.58 693.003 2284.24H691.603L689.803 2298.04H666.403V2153.44H693.803V2205.04H695.003C698.07 2200.38 702.27 2196.78 707.603 2194.24C713.07 2191.71 719.336 2190.44 726.403 2190.44C738.67 2190.44 748.47 2195.04 755.803 2204.24C763.27 2213.44 767.003 2227.11 767.003 2245.24C767.003 2263.78 763.336 2277.64 756.003 2286.84C748.67 2295.91 738.336 2300.44 725.003 2300.44ZM716.203 2276.64C724.336 2276.64 730.136 2274.24 733.603 2269.44C737.07 2264.51 738.803 2257.11 738.803 2247.24V2243.64C738.803 2233.78 737.07 2226.44 733.603 2221.64C730.136 2216.71 724.336 2214.24 716.203 2214.24C701.27 2214.24 693.803 2224.18 693.803 2244.04V2247.24C693.803 2266.84 701.27 2276.64 716.203 2276.64ZM788.669 2153.44H816.069V2298.04H788.669V2153.44ZM844.133 2153.44H871.533V2179.44H844.133V2153.44ZM844.133 2192.84H871.533V2298.04H844.133V2192.84ZM941.997 2300.44C927.33 2300.44 915.797 2297.44 907.397 2291.44C899.13 2285.31 894.997 2277.18 894.997 2267.04L895.197 2264.64H921.797V2266.04C921.93 2270.71 923.997 2274.11 927.997 2276.24C932.13 2278.24 937.13 2279.24 942.997 2279.24C948.464 2279.24 953.13 2278.51 956.997 2277.04C960.864 2275.58 962.797 2273.18 962.797 2269.84C962.797 2266.11 960.797 2263.31 956.797 2261.44C952.93 2259.58 946.797 2257.71 938.397 2255.84C929.73 2253.84 922.664 2251.84 917.197 2249.84C911.73 2247.71 906.997 2244.44 902.997 2240.04C898.997 2235.64 896.997 2229.78 896.997 2222.44C896.997 2212.18 901.264 2204.31 909.797 2198.84C918.464 2193.24 929.597 2190.44 943.197 2190.44C955.864 2190.44 966.33 2193.04 974.597 2198.24C982.864 2203.31 986.997 2210.24 986.997 2219.04L986.797 2223.64H960.197V2222.44C960.197 2218.98 958.53 2216.31 955.197 2214.44C951.997 2212.58 947.664 2211.64 942.197 2211.64C936.73 2211.64 932.397 2212.38 929.197 2213.84C925.997 2215.31 924.397 2217.38 924.397 2220.04C924.397 2223.38 926.197 2225.84 929.797 2227.44C933.53 2229.04 939.464 2230.64 947.597 2232.24C956.53 2234.24 963.797 2236.24 969.397 2238.24C974.997 2240.24 979.864 2243.51 983.997 2248.04C988.13 2252.58 990.197 2258.71 990.197 2266.44C990.197 2289.11 974.13 2300.44 941.997 2300.44ZM1011.13 2153.44H1038.53V2205.04H1039.93C1047.93 2195.31 1058.2 2190.44 1070.73 2190.44C1081.53 2190.44 1090 2193.38 1096.13 2199.24C1102.4 2205.11 1105.53 2214.51 1105.53 2227.44V2298.04H1078.13V2233.24C1078.13 2226.71 1076.6 2221.98 1073.53 2219.04C1070.46 2216.11 1065.93 2214.64 1059.93 2214.64C1053.8 2214.64 1048.66 2216.84 1044.53 2221.24C1040.53 2225.51 1038.53 2230.84 1038.53 2237.24V2298.04H1011.13V2153.44ZM1133.2 2153.44H1160.6V2179.44H1133.2V2153.44ZM1133.2 2192.84H1160.6V2298.04H1133.2V2192.84ZM1189.06 2192.84H1212.46L1214.46 2206.64H1215.86C1224.39 2195.84 1235.33 2190.44 1248.66 2190.44C1259.46 2190.44 1267.93 2193.38 1274.06 2199.24C1280.33 2205.11 1283.46 2214.51 1283.46 2227.44V2298.04H1256.06V2233.24C1256.06 2226.71 1254.53 2221.98 1251.46 2219.04C1248.39 2216.11 1243.86 2214.64 1237.86 2214.64C1231.73 2214.64 1226.59 2216.84 1222.46 2221.24C1218.46 2225.51 1216.46 2230.84 1216.46 2237.24V2298.04H1189.06V2192.84ZM1328.13 2334.44C1320.79 2334.44 1314.59 2332.18 1309.53 2327.64C1304.46 2323.11 1301.93 2317.31 1301.93 2310.24C1301.93 2300.91 1307.33 2293.78 1318.13 2288.84C1311.33 2285.38 1307.93 2280.11 1307.93 2273.04C1307.93 2268.64 1309.66 2264.84 1313.13 2261.64C1316.59 2258.31 1321.06 2255.98 1326.52 2254.64C1316.26 2248.38 1311.13 2238.91 1311.13 2226.24C1311.13 2215.18 1315.13 2206.44 1323.13 2200.04C1331.26 2193.64 1342.79 2190.44 1357.73 2190.44C1365.86 2190.44 1372.93 2191.44 1378.93 2193.44C1382.93 2190.91 1385.79 2187.91 1387.53 2184.44C1389.39 2180.84 1390.33 2177.78 1390.33 2175.24H1417.13C1417.13 2182.58 1415.13 2188.51 1411.13 2193.04C1407.26 2197.44 1401.73 2200.44 1394.53 2202.04C1401.19 2208.31 1404.53 2216.38 1404.53 2226.24C1404.53 2237.31 1400.59 2246.04 1392.73 2252.44C1384.99 2258.84 1373.86 2262.04 1359.33 2262.04H1343.33C1340.93 2262.04 1338.99 2262.58 1337.53 2263.64C1336.19 2264.71 1335.53 2266.18 1335.53 2268.04C1335.53 2269.64 1336.13 2271.04 1337.33 2272.24C1338.53 2273.31 1340.13 2273.84 1342.13 2273.84H1389.93C1397.66 2273.84 1404.13 2276.44 1409.33 2281.64C1414.53 2286.84 1417.13 2293.64 1417.13 2302.04C1417.13 2308.44 1415.39 2314.11 1411.93 2319.04C1408.46 2323.98 1403.73 2327.78 1397.73 2330.44C1391.73 2333.11 1385.13 2334.44 1377.93 2334.44H1328.13ZM1357.73 2243.44C1364.13 2243.44 1368.99 2241.98 1372.33 2239.04C1375.66 2235.98 1377.33 2231.71 1377.33 2226.24C1377.33 2220.78 1375.66 2216.58 1372.33 2213.64C1368.99 2210.58 1364.13 2209.04 1357.73 2209.04C1351.33 2209.04 1346.46 2210.58 1343.13 2213.64C1339.93 2216.58 1338.33 2220.78 1338.33 2226.24C1338.33 2231.71 1339.93 2235.98 1343.13 2239.04C1346.46 2241.98 1351.33 2243.44 1357.73 2243.44ZM1377.53 2315.44C1380.99 2315.44 1383.86 2314.58 1386.13 2312.84C1388.39 2311.11 1389.53 2308.84 1389.53 2306.04C1389.53 2303.11 1388.46 2300.84 1386.33 2299.24C1384.33 2297.64 1381.79 2296.84 1378.73 2296.84H1340.13C1337.19 2296.84 1334.66 2297.71 1332.53 2299.44C1330.53 2301.18 1329.53 2303.38 1329.53 2306.04C1329.53 2308.84 1330.53 2311.11 1332.53 2312.84C1334.53 2314.58 1337.06 2315.44 1340.13 2315.44H1377.53ZM167.009 2518.44C156.209 2518.44 147.676 2515.51 141.409 2509.64C135.276 2503.78 132.209 2494.38 132.209 2481.44V2410.84H159.609V2475.64C159.609 2482.18 161.143 2486.91 164.209 2489.84C167.276 2492.78 171.809 2494.24 177.809 2494.24C183.943 2494.24 189.009 2492.11 193.009 2487.84C197.143 2483.44 199.209 2478.04 199.209 2471.64V2410.84H226.609V2516.04H203.209L201.209 2502.24H199.809C191.276 2513.04 180.343 2518.44 167.009 2518.44ZM255.075 2410.84H278.475L280.275 2424.64H281.675C285.008 2419.31 289.475 2415.31 295.075 2412.64C300.675 2409.84 306.875 2408.44 313.675 2408.44C327.008 2408.44 337.342 2413.04 344.675 2422.24C352.008 2431.31 355.675 2445.11 355.675 2463.64C355.675 2481.78 351.942 2495.44 344.475 2504.64C337.142 2513.84 327.342 2518.44 315.075 2518.44C308.008 2518.44 301.742 2517.18 296.275 2514.64C290.942 2512.11 286.742 2508.51 283.675 2503.84H282.475V2550.64H255.075V2410.84ZM304.875 2494.64C313.008 2494.64 318.808 2492.24 322.275 2487.44C325.742 2482.51 327.475 2475.11 327.475 2465.24V2461.64C327.475 2451.78 325.742 2444.44 322.275 2439.64C318.808 2434.71 313.008 2432.24 304.875 2432.24C289.942 2432.24 282.475 2442.04 282.475 2461.64V2464.84C282.475 2484.71 289.942 2494.64 304.875 2494.64ZM377.341 2371.44H404.741V2516.04H377.341V2371.44ZM479.805 2518.44C461.805 2518.44 448.405 2513.98 439.605 2505.04C430.805 2496.11 426.405 2482.24 426.405 2463.44C426.405 2444.64 430.805 2430.78 439.605 2421.84C448.405 2412.91 461.805 2408.44 479.805 2408.44C497.805 2408.44 511.205 2412.91 520.005 2421.84C528.938 2430.78 533.405 2444.64 533.405 2463.44C533.405 2482.24 528.938 2496.11 520.005 2505.04C511.205 2513.98 497.805 2518.44 479.805 2518.44ZM479.805 2496.04C488.738 2496.04 495.205 2493.51 499.205 2488.44C503.205 2483.24 505.205 2475.44 505.205 2465.04V2461.84C505.205 2451.44 503.205 2443.71 499.205 2438.64C495.205 2433.44 488.738 2430.84 479.805 2430.84C470.871 2430.84 464.405 2433.44 460.405 2438.64C456.538 2443.71 454.605 2451.44 454.605 2461.84V2465.04C454.605 2475.44 456.538 2483.24 460.405 2488.44C464.405 2493.51 470.871 2496.04 479.805 2496.04ZM579.47 2518.44C571.337 2518.44 563.87 2516.31 557.07 2512.04C550.27 2507.78 546.87 2500.04 546.87 2488.84C546.87 2475.38 552.404 2465.84 563.47 2460.24C574.537 2454.51 590.204 2451.64 610.47 2451.64V2444.24C610.47 2439.58 609.404 2435.98 607.27 2433.44C605.27 2430.91 601.404 2429.64 595.67 2429.64C589.537 2429.64 585.137 2430.58 582.47 2432.44C579.937 2434.31 578.67 2436.51 578.67 2439.04V2442.04H552.27C552.137 2441.24 552.07 2439.78 552.07 2437.64C552.07 2428.84 555.937 2421.78 563.67 2416.44C571.537 2411.11 581.937 2408.44 594.87 2408.44C609.27 2408.44 620.004 2411.38 627.07 2417.24C634.27 2423.11 637.87 2431.58 637.87 2442.64V2489.04C637.87 2491.44 638.537 2493.24 639.87 2494.44C641.204 2495.51 642.87 2496.04 644.87 2496.04H650.47V2515.24C646.204 2517.38 640.937 2518.44 634.67 2518.44C629.204 2518.44 624.604 2517.24 620.87 2514.84C617.27 2512.44 614.804 2509.04 613.47 2504.64H612.27C608.404 2509.18 603.937 2512.64 598.87 2515.04C593.937 2517.31 587.47 2518.44 579.47 2518.44ZM588.07 2496.84C595.804 2496.84 601.47 2494.71 605.07 2490.44C608.67 2486.04 610.47 2480.24 610.47 2473.04V2469.84C586.604 2469.84 574.67 2475.18 574.67 2485.84C574.67 2489.18 575.737 2491.84 577.87 2493.84C580.137 2495.84 583.537 2496.84 588.07 2496.84ZM701.603 2518.44C688.27 2518.44 677.936 2513.91 670.603 2504.84C663.27 2495.64 659.603 2481.78 659.603 2463.24C659.603 2445.11 663.27 2431.44 670.603 2422.24C678.07 2413.04 687.936 2408.44 700.203 2408.44C707.27 2408.44 713.47 2409.71 718.803 2412.24C724.27 2414.78 728.536 2418.38 731.603 2423.04H732.803V2371.44H760.203V2516.04H736.803L735.003 2502.24H733.603C730.27 2507.58 725.803 2511.64 720.203 2514.44C714.603 2517.11 708.403 2518.44 701.603 2518.44ZM710.403 2494.64C725.336 2494.64 732.803 2484.84 732.803 2465.24V2462.04C732.803 2442.18 725.336 2432.24 710.403 2432.24C702.27 2432.24 696.47 2434.71 693.003 2439.64C689.536 2444.44 687.803 2451.78 687.803 2461.64V2465.24C687.803 2475.11 689.536 2482.51 693.003 2487.44C696.47 2492.24 702.27 2494.64 710.403 2494.64ZM788.469 2371.44H815.869V2397.44H788.469V2371.44ZM788.469 2410.84H815.869V2516.04H788.469V2410.84ZM844.333 2410.84H867.733L869.733 2424.64H871.133C879.666 2413.84 890.599 2408.44 903.933 2408.44C914.733 2408.44 923.199 2411.38 929.333 2417.24C935.599 2423.11 938.733 2432.51 938.733 2445.44V2516.04H911.333V2451.24C911.333 2444.71 909.799 2439.98 906.733 2437.04C903.666 2434.11 899.133 2432.64 893.133 2432.64C886.999 2432.64 881.866 2434.84 877.733 2439.24C873.733 2443.51 871.733 2448.84 871.733 2455.24V2516.04H844.333V2410.84ZM983.398 2552.44C976.065 2552.44 969.865 2550.18 964.798 2545.64C959.732 2541.11 957.198 2535.31 957.198 2528.24C957.198 2518.91 962.598 2511.78 973.398 2506.84C966.598 2503.38 963.198 2498.11 963.198 2491.04C963.198 2486.64 964.932 2482.84 968.398 2479.64C971.865 2476.31 976.332 2473.98 981.798 2472.64C971.532 2466.38 966.398 2456.91 966.398 2444.24C966.398 2433.18 970.398 2424.44 978.398 2418.04C986.532 2411.64 998.065 2408.44 1013 2408.44C1021.13 2408.44 1028.2 2409.44 1034.2 2411.44C1038.2 2408.91 1041.07 2405.91 1042.8 2402.44C1044.67 2398.84 1045.6 2395.78 1045.6 2393.24H1072.4C1072.4 2400.58 1070.4 2406.51 1066.4 2411.04C1062.53 2415.44 1057 2418.44 1049.8 2420.04C1056.47 2426.31 1059.8 2434.38 1059.8 2444.24C1059.8 2455.31 1055.87 2464.04 1048 2470.44C1040.27 2476.84 1029.13 2480.04 1014.6 2480.04H998.598C996.198 2480.04 994.265 2480.58 992.798 2481.64C991.465 2482.71 990.798 2484.18 990.798 2486.04C990.798 2487.64 991.398 2489.04 992.598 2490.24C993.798 2491.31 995.398 2491.84 997.398 2491.84H1045.2C1052.93 2491.84 1059.4 2494.44 1064.6 2499.64C1069.8 2504.84 1072.4 2511.64 1072.4 2520.04C1072.4 2526.44 1070.67 2532.11 1067.2 2537.04C1063.73 2541.98 1059 2545.78 1053 2548.44C1047 2551.11 1040.4 2552.44 1033.2 2552.44H983.398ZM1013 2461.44C1019.4 2461.44 1024.27 2459.98 1027.6 2457.04C1030.93 2453.98 1032.6 2449.71 1032.6 2444.24C1032.6 2438.78 1030.93 2434.58 1027.6 2431.64C1024.27 2428.58 1019.4 2427.04 1013 2427.04C1006.6 2427.04 1001.73 2428.58 998.398 2431.64C995.198 2434.58 993.598 2438.78 993.598 2444.24C993.598 2449.71 995.198 2453.98 998.398 2457.04C1001.73 2459.98 1006.6 2461.44 1013 2461.44ZM1032.8 2533.44C1036.27 2533.44 1039.13 2532.58 1041.4 2530.84C1043.67 2529.11 1044.8 2526.84 1044.8 2524.04C1044.8 2521.11 1043.73 2518.84 1041.6 2517.24C1039.6 2515.64 1037.07 2514.84 1034 2514.84H995.398C992.465 2514.84 989.932 2515.71 987.798 2517.44C985.798 2519.18 984.798 2521.38 984.798 2524.04C984.798 2526.84 985.798 2529.11 987.798 2530.84C989.798 2532.58 992.332 2533.44 995.398 2533.44H1032.8ZM148.809 2770.44C141.476 2770.44 135.209 2769.58 130.009 2767.84V2748.64H143.009C147.676 2748.64 151.476 2747.51 154.409 2745.24C157.343 2742.98 159.743 2739.24 161.609 2734.04L120.409 2628.84H149.009L168.809 2678.24C170.809 2683.44 173.276 2692.58 176.209 2705.64H177.209C180.409 2693.38 182.876 2684.31 184.609 2678.44L200.209 2628.84H228.009L192.609 2728.64C189.409 2737.44 186.076 2744.78 182.609 2750.64C179.143 2756.64 174.609 2761.44 169.009 2765.04C163.543 2768.64 156.809 2770.44 148.809 2770.44ZM290.742 2736.44C272.742 2736.44 259.342 2731.98 250.542 2723.04C241.742 2714.11 237.342 2700.24 237.342 2681.44C237.342 2662.64 241.742 2648.78 250.542 2639.84C259.342 2630.91 272.742 2626.44 290.742 2626.44C308.742 2626.44 322.142 2630.91 330.942 2639.84C339.876 2648.78 344.342 2662.64 344.342 2681.44C344.342 2700.24 339.876 2714.11 330.942 2723.04C322.142 2731.98 308.742 2736.44 290.742 2736.44ZM290.742 2714.04C299.676 2714.04 306.142 2711.51 310.142 2706.44C314.142 2701.24 316.142 2693.44 316.142 2683.04V2679.84C316.142 2669.44 314.142 2661.71 310.142 2656.64C306.142 2651.44 299.676 2648.84 290.742 2648.84C281.809 2648.84 275.342 2651.44 271.342 2656.64C267.476 2661.71 265.542 2669.44 265.542 2679.84V2683.04C265.542 2693.44 267.476 2701.24 271.342 2706.44C275.342 2711.51 281.809 2714.04 290.742 2714.04ZM400.408 2736.44C389.608 2736.44 381.074 2733.51 374.808 2727.64C368.674 2721.78 365.608 2712.38 365.608 2699.44V2628.84H393.008V2693.64C393.008 2700.18 394.541 2704.91 397.608 2707.84C400.674 2710.78 405.208 2712.24 411.208 2712.24C417.341 2712.24 422.408 2710.11 426.408 2705.84C430.541 2701.44 432.608 2696.04 432.608 2689.64V2628.84H460.008V2734.04H436.608L434.608 2720.24H433.208C424.674 2731.04 413.741 2736.44 400.408 2736.44ZM488.473 2628.84H511.873L514.073 2645.84H515.473C517.74 2639.84 520.673 2635.11 524.273 2631.64C527.873 2628.18 532.607 2626.44 538.473 2626.44C542.34 2626.44 545.807 2627.04 548.873 2628.24V2653.84H541.273C532.34 2653.84 525.873 2656.31 521.873 2661.24C517.873 2666.04 515.873 2673.38 515.873 2683.24V2734.04H488.473V2628.84ZM673.672 2736.44C663.139 2736.44 653.472 2734.84 644.672 2731.64C636.005 2728.31 629.072 2723.44 623.872 2717.04C618.672 2710.64 616.072 2702.91 616.072 2693.84L616.272 2689.44H645.672L645.472 2692.64C645.472 2698.51 648.072 2703.18 653.272 2706.64C658.472 2710.11 665.739 2711.84 675.072 2711.84C684.939 2711.84 692.072 2710.58 696.472 2708.04C700.872 2705.38 703.072 2701.84 703.072 2697.44C703.072 2693.58 701.605 2690.38 698.672 2687.84C695.872 2685.18 692.272 2683.11 687.872 2681.64C683.605 2680.04 677.672 2678.18 670.072 2676.04C659.272 2672.98 650.539 2670.04 643.872 2667.24C637.205 2664.44 631.472 2660.31 626.672 2654.84C621.872 2649.24 619.472 2641.91 619.472 2632.84C619.472 2620.31 624.539 2610.78 634.672 2604.24C644.805 2597.71 658.272 2594.44 675.072 2594.44C690.939 2594.44 703.872 2597.84 713.872 2604.64C724.005 2611.31 729.072 2621.38 729.072 2634.84V2637.24H700.272V2635.44C700.272 2630.38 697.939 2626.38 693.272 2623.44C688.739 2620.51 682.539 2619.04 674.672 2619.04C666.272 2619.04 659.805 2620.18 655.272 2622.44C650.872 2624.71 648.672 2627.84 648.672 2631.84C648.672 2634.91 650.005 2637.58 652.672 2639.84C655.339 2641.98 658.672 2643.78 662.672 2645.24C666.672 2646.58 672.339 2648.24 679.672 2650.24C690.605 2653.18 699.539 2656.11 706.472 2659.04C713.539 2661.84 719.605 2666.04 724.672 2671.64C729.739 2677.24 732.272 2684.58 732.272 2693.64C732.272 2708.31 727.005 2719.11 716.472 2726.04C706.072 2732.98 691.805 2736.44 673.672 2736.44ZM779.47 2736.44C771.337 2736.44 763.87 2734.31 757.07 2730.04C750.27 2725.78 746.87 2718.04 746.87 2706.84C746.87 2693.38 752.404 2683.84 763.47 2678.24C774.537 2672.51 790.204 2669.64 810.47 2669.64V2662.24C810.47 2657.58 809.404 2653.98 807.27 2651.44C805.27 2648.91 801.404 2647.64 795.67 2647.64C789.537 2647.64 785.137 2648.58 782.47 2650.44C779.937 2652.31 778.67 2654.51 778.67 2657.04V2660.04H752.27C752.137 2659.24 752.07 2657.78 752.07 2655.64C752.07 2646.84 755.937 2639.78 763.67 2634.44C771.537 2629.11 781.937 2626.44 794.87 2626.44C809.27 2626.44 820.004 2629.38 827.07 2635.24C834.27 2641.11 837.87 2649.58 837.87 2660.64V2707.04C837.87 2709.44 838.537 2711.24 839.87 2712.44C841.204 2713.51 842.87 2714.04 844.87 2714.04H850.47V2733.24C846.204 2735.38 840.937 2736.44 834.67 2736.44C829.204 2736.44 824.604 2735.24 820.87 2732.84C817.27 2730.44 814.804 2727.04 813.47 2722.64H812.27C808.404 2727.18 803.937 2730.64 798.87 2733.04C793.937 2735.31 787.47 2736.44 779.47 2736.44ZM788.07 2714.84C795.804 2714.84 801.47 2712.71 805.07 2708.44C808.67 2704.04 810.47 2698.24 810.47 2691.04V2687.84C786.604 2687.84 774.67 2693.18 774.67 2703.84C774.67 2707.18 775.737 2709.84 777.87 2711.84C780.137 2713.84 783.537 2714.84 788.07 2714.84ZM866.403 2628.84H889.803L891.803 2642.64H893.203C900.936 2631.84 910.936 2626.44 923.203 2626.44C936.536 2626.44 945.736 2631.84 950.803 2642.64H952.403C960.403 2631.84 970.803 2626.44 983.603 2626.44C993.603 2626.44 1001.54 2629.38 1007.4 2635.24C1013.4 2641.11 1016.4 2650.51 1016.4 2663.44V2734.04H989.003V2669.24C989.003 2656.84 983.87 2650.64 973.603 2650.64C968.27 2650.64 963.87 2652.84 960.403 2657.24C956.936 2661.51 955.203 2666.84 955.203 2673.24V2734.04H927.803V2669.24C927.803 2656.84 922.67 2650.64 912.403 2650.64C907.07 2650.64 902.603 2652.84 899.003 2657.24C895.536 2661.51 893.803 2666.84 893.803 2673.24V2734.04H866.403V2628.84ZM1044.14 2628.84H1067.54L1069.34 2642.64H1070.74C1074.07 2637.31 1078.54 2633.31 1084.14 2630.64C1089.74 2627.84 1095.94 2626.44 1102.74 2626.44C1116.07 2626.44 1126.4 2631.04 1133.74 2640.24C1141.07 2649.31 1144.74 2663.11 1144.74 2681.64C1144.74 2699.78 1141 2713.44 1133.54 2722.64C1126.2 2731.84 1116.4 2736.44 1104.14 2736.44C1097.07 2736.44 1090.8 2735.18 1085.34 2732.64C1080 2730.11 1075.8 2726.51 1072.74 2721.84H1071.54V2768.64H1044.14V2628.84ZM1093.94 2712.64C1102.07 2712.64 1107.87 2710.24 1111.34 2705.44C1114.8 2700.51 1116.54 2693.11 1116.54 2683.24V2679.64C1116.54 2669.78 1114.8 2662.44 1111.34 2657.64C1107.87 2652.71 1102.07 2650.24 1093.94 2650.24C1079 2650.24 1071.54 2660.04 1071.54 2679.64V2682.84C1071.54 2702.71 1079 2712.64 1093.94 2712.64ZM1166.4 2589.44H1193.8V2734.04H1166.4V2589.44ZM1265.47 2736.44C1248.53 2736.44 1235.87 2731.98 1227.47 2723.04C1219.2 2714.11 1215.07 2700.24 1215.07 2681.44C1215.07 2662.64 1219.2 2648.78 1227.47 2639.84C1235.87 2630.91 1248.53 2626.44 1265.47 2626.44C1281.07 2626.44 1292.73 2630.98 1300.47 2640.04C1308.2 2648.98 1312.07 2662.78 1312.07 2681.44V2687.84H1242.87C1243.13 2697.18 1245 2704.11 1248.47 2708.64C1251.93 2713.04 1257.73 2715.24 1265.87 2715.24C1271.6 2715.24 1276.2 2713.64 1279.67 2710.44C1283.27 2707.24 1285.07 2702.71 1285.07 2696.84H1312.07C1312.07 2710.04 1307.8 2719.98 1299.27 2726.64C1290.73 2733.18 1279.47 2736.44 1265.47 2736.44ZM1283.67 2669.64C1283.67 2655.11 1277.6 2647.84 1265.47 2647.84C1258.53 2647.84 1253.27 2649.64 1249.67 2653.24C1246.2 2656.84 1244.07 2662.31 1243.27 2669.64H1283.67ZM179.609 2954.44C161.609 2954.44 148.209 2949.98 139.409 2941.04C130.609 2932.11 126.209 2918.24 126.209 2899.44C126.209 2880.64 130.609 2866.78 139.409 2857.84C148.209 2848.91 161.609 2844.44 179.609 2844.44C197.609 2844.44 211.009 2848.91 219.809 2857.84C228.743 2866.78 233.209 2880.64 233.209 2899.44C233.209 2918.24 228.743 2932.11 219.809 2941.04C211.009 2949.98 197.609 2954.44 179.609 2954.44ZM179.609 2932.04C188.543 2932.04 195.009 2929.51 199.009 2924.44C203.009 2919.24 205.009 2911.44 205.009 2901.04V2897.84C205.009 2887.44 203.009 2879.71 199.009 2874.64C195.009 2869.44 188.543 2866.84 179.609 2866.84C170.676 2866.84 164.209 2869.44 160.209 2874.64C156.343 2879.71 154.409 2887.44 154.409 2897.84V2901.04C154.409 2911.44 156.343 2919.24 160.209 2924.44C164.209 2929.51 170.676 2932.04 179.609 2932.04ZM255.075 2846.84H278.475L280.475 2860.64H281.875C290.408 2849.84 301.342 2844.44 314.675 2844.44C325.475 2844.44 333.942 2847.38 340.075 2853.24C346.342 2859.11 349.475 2868.51 349.475 2881.44V2952.04H322.075V2887.24C322.075 2880.71 320.542 2875.98 317.475 2873.04C314.408 2870.11 309.875 2868.64 303.875 2868.64C297.742 2868.64 292.608 2870.84 288.475 2875.24C284.475 2879.51 282.475 2884.84 282.475 2891.24V2952.04H255.075V2846.84ZM1310.34 3142.64H1337.94V3170.04H1310.34V3142.64Z" fill="#6A6C74"/>
<path d="M632.205 1942.84H661.205V2009.04L724.605 1942.84H759.805L706.205 1998.64L760.605 2080.04H726.205L686.805 2019.04L661.205 2040.24V2080.04H632.205V1942.84ZM801.541 2082.44C793.407 2082.44 785.941 2080.31 779.141 2076.04C772.341 2071.78 768.941 2064.04 768.941 2052.84C768.941 2039.38 774.474 2029.84 785.541 2024.24C796.607 2018.51 812.274 2015.64 832.541 2015.64V2008.24C832.541 2003.58 831.474 1999.98 829.341 1997.44C827.341 1994.91 823.474 1993.64 817.741 1993.64C811.607 1993.64 807.207 1994.58 804.541 1996.44C802.007 1998.31 800.741 2000.51 800.741 2003.04V2006.04H774.341C774.207 2005.24 774.141 2003.78 774.141 2001.64C774.141 1992.84 778.007 1985.78 785.741 1980.44C793.607 1975.11 804.007 1972.44 816.941 1972.44C831.341 1972.44 842.074 1975.38 849.141 1981.24C856.341 1987.11 859.941 1995.58 859.941 2006.64V2053.04C859.941 2055.44 860.607 2057.24 861.941 2058.44C863.274 2059.51 864.941 2060.04 866.941 2060.04H872.541V2079.24C868.274 2081.38 863.007 2082.44 856.741 2082.44C851.274 2082.44 846.674 2081.24 842.941 2078.84C839.341 2076.44 836.874 2073.04 835.541 2068.64H834.341C830.474 2073.18 826.007 2076.64 820.941 2079.04C816.007 2081.31 809.541 2082.44 801.541 2082.44ZM810.141 2060.84C817.874 2060.84 823.541 2058.71 827.141 2054.44C830.741 2050.04 832.541 2044.24 832.541 2037.04V2033.84C808.674 2033.84 796.741 2039.18 796.741 2049.84C796.741 2053.18 797.807 2055.84 799.941 2057.84C802.207 2059.84 805.607 2060.84 810.141 2060.84ZM888.473 1974.84H911.873L914.073 1991.84H915.473C917.74 1985.84 920.673 1981.11 924.273 1977.64C927.873 1974.18 932.607 1972.44 938.473 1972.44C942.34 1972.44 945.807 1973.04 948.873 1974.24V1999.84H941.273C932.34 1999.84 925.873 2002.31 921.873 2007.24C917.873 2012.04 915.873 2019.38 915.873 2029.24V2080.04H888.473V1974.84ZM966.208 1974.84H989.608L991.608 1988.64H993.008C1000.74 1977.84 1010.74 1972.44 1023.01 1972.44C1036.34 1972.44 1045.54 1977.84 1050.61 1988.64H1052.21C1060.21 1977.84 1070.61 1972.44 1083.41 1972.44C1093.41 1972.44 1101.34 1975.38 1107.21 1981.24C1113.21 1987.11 1116.21 1996.51 1116.21 2009.44V2080.04H1088.81V2015.24C1088.81 2002.84 1083.67 1996.64 1073.41 1996.64C1068.07 1996.64 1063.67 1998.84 1060.21 2003.24C1056.74 2007.51 1055.01 2012.84 1055.01 2019.24V2080.04H1027.61V2015.24C1027.61 2002.84 1022.47 1996.64 1012.21 1996.64C1006.87 1996.64 1002.41 1998.84 998.808 2003.24C995.341 2007.51 993.608 2012.84 993.608 2019.24V2080.04H966.208V1974.84ZM1168.14 2082.44C1160.01 2082.44 1152.54 2080.31 1145.74 2076.04C1138.94 2071.78 1135.54 2064.04 1135.54 2052.84C1135.54 2039.38 1141.08 2029.84 1152.14 2024.24C1163.21 2018.51 1178.88 2015.64 1199.14 2015.64V2008.24C1199.14 2003.58 1198.08 1999.98 1195.94 1997.44C1193.94 1994.91 1190.08 1993.64 1184.34 1993.64C1178.21 1993.64 1173.81 1994.58 1171.14 1996.44C1168.61 1998.31 1167.34 2000.51 1167.34 2003.04V2006.04H1140.94C1140.81 2005.24 1140.74 2003.78 1140.74 2001.64C1140.74 1992.84 1144.61 1985.78 1152.34 1980.44C1160.21 1975.11 1170.61 1972.44 1183.54 1972.44C1197.94 1972.44 1208.68 1975.38 1215.74 1981.24C1222.94 1987.11 1226.54 1995.58 1226.54 2006.64V2053.04C1226.54 2055.44 1227.21 2057.24 1228.54 2058.44C1229.88 2059.51 1231.54 2060.04 1233.54 2060.04H1239.14V2079.24C1234.88 2081.38 1229.61 2082.44 1223.34 2082.44C1217.88 2082.44 1213.28 2081.24 1209.54 2078.84C1205.94 2076.44 1203.48 2073.04 1202.14 2068.64H1200.94C1197.08 2073.18 1192.61 2076.64 1187.54 2079.04C1182.61 2081.31 1176.14 2082.44 1168.14 2082.44ZM1176.74 2060.84C1184.48 2060.84 1190.14 2058.71 1193.74 2054.44C1197.34 2050.04 1199.14 2044.24 1199.14 2037.04V2033.84C1175.28 2033.84 1163.34 2039.18 1163.34 2049.84C1163.34 2053.18 1164.41 2055.84 1166.54 2057.84C1168.81 2059.84 1172.21 2060.84 1176.74 2060.84Z" fill="#D69090"/>
<path d="M132.009 3032.84H210.609C217.809 3032.84 224.343 3034.31 230.209 3037.24C236.076 3040.04 240.676 3044.04 244.009 3049.24C247.343 3054.31 249.009 3060.18 249.009 3066.84C249.009 3074.44 246.876 3081.04 242.609 3086.64C238.476 3092.11 233.143 3095.91 226.609 3098.04V3098.84C234.343 3100.31 240.609 3104.11 245.409 3110.24C250.343 3116.24 252.809 3123.38 252.809 3131.64C252.809 3144.04 248.809 3153.58 240.809 3160.24C232.943 3166.78 222.876 3170.04 210.609 3170.04H132.009V3032.84ZM202.409 3087.64C207.743 3087.64 211.876 3086.31 214.809 3083.64C217.743 3080.84 219.209 3077.31 219.209 3073.04C219.209 3067.98 217.809 3064.11 215.009 3061.44C212.343 3058.78 208.609 3057.44 203.809 3057.44H161.209V3087.64H202.409ZM205.809 3145.44C210.876 3145.44 215.009 3143.98 218.209 3141.04C221.409 3138.11 223.009 3133.91 223.009 3128.44C223.009 3123.51 221.409 3119.51 218.209 3116.44C215.009 3113.38 210.343 3111.84 204.209 3111.84H161.209V3145.44H205.809ZM320.545 3172.44C303.612 3172.44 290.945 3167.98 282.545 3159.04C274.279 3150.11 270.145 3136.24 270.145 3117.44C270.145 3098.64 274.279 3084.78 282.545 3075.84C290.945 3066.91 303.612 3062.44 320.545 3062.44C336.145 3062.44 347.812 3066.98 355.545 3076.04C363.279 3084.98 367.145 3098.78 367.145 3117.44V3123.84H297.945C298.212 3133.18 300.079 3140.11 303.545 3144.64C307.012 3149.04 312.812 3151.24 320.945 3151.24C326.679 3151.24 331.279 3149.64 334.745 3146.44C338.345 3143.24 340.145 3138.71 340.145 3132.84H367.145C367.145 3146.04 362.879 3155.98 354.345 3162.64C345.812 3169.18 334.545 3172.44 320.545 3172.44ZM338.745 3105.64C338.745 3091.11 332.679 3083.84 320.545 3083.84C313.612 3083.84 308.345 3085.64 304.745 3089.24C301.279 3092.84 299.145 3098.31 298.345 3105.64H338.745ZM412.478 3172.44C404.345 3172.44 396.878 3170.31 390.078 3166.04C383.278 3161.78 379.878 3154.04 379.878 3142.84C379.878 3129.38 385.411 3119.84 396.478 3114.24C407.545 3108.51 423.211 3105.64 443.478 3105.64V3098.24C443.478 3093.58 442.411 3089.98 440.278 3087.44C438.278 3084.91 434.411 3083.64 428.678 3083.64C422.545 3083.64 418.145 3084.58 415.478 3086.44C412.945 3088.31 411.678 3090.51 411.678 3093.04V3096.04H385.278C385.145 3095.24 385.078 3093.78 385.078 3091.64C385.078 3082.84 388.945 3075.78 396.678 3070.44C404.545 3065.11 414.945 3062.44 427.878 3062.44C442.278 3062.44 453.011 3065.38 460.078 3071.24C467.278 3077.11 470.878 3085.58 470.878 3096.64V3143.04C470.878 3145.44 471.545 3147.24 472.878 3148.44C474.211 3149.51 475.878 3150.04 477.878 3150.04H483.478V3169.24C479.211 3171.38 473.945 3172.44 467.678 3172.44C462.211 3172.44 457.611 3171.24 453.878 3168.84C450.278 3166.44 447.811 3163.04 446.478 3158.64H445.278C441.411 3163.18 436.945 3166.64 431.878 3169.04C426.945 3171.31 420.478 3172.44 412.478 3172.44ZM421.078 3150.84C428.811 3150.84 434.478 3148.71 438.078 3144.44C441.678 3140.04 443.478 3134.24 443.478 3127.04V3123.84C419.611 3123.84 407.678 3129.18 407.678 3139.84C407.678 3143.18 408.745 3145.84 410.878 3147.84C413.145 3149.84 416.545 3150.84 421.078 3150.84ZM527.611 3172.44C517.744 3172.44 510.678 3169.78 506.411 3164.44C502.144 3159.11 500.011 3152.38 500.011 3144.24V3087.24H487.411V3064.84H500.611L505.211 3035.24H527.411V3064.84H545.611V3087.24H527.411V3141.44C527.411 3147.18 530.278 3150.04 536.011 3150.04H545.611V3169.24C543.344 3170.04 540.478 3170.78 537.011 3171.44C533.678 3172.11 530.544 3172.44 527.611 3172.44ZM565.213 3032.84H643.813C651.013 3032.84 657.546 3034.31 663.413 3037.24C669.279 3040.04 673.879 3044.04 677.213 3049.24C680.546 3054.31 682.213 3060.18 682.213 3066.84C682.213 3074.44 680.079 3081.04 675.813 3086.64C671.679 3092.11 666.346 3095.91 659.813 3098.04V3098.84C667.546 3100.31 673.813 3104.11 678.613 3110.24C683.546 3116.24 686.013 3123.38 686.013 3131.64C686.013 3144.04 682.013 3153.58 674.013 3160.24C666.146 3166.78 656.079 3170.04 643.813 3170.04H565.213V3032.84ZM635.613 3087.64C640.946 3087.64 645.079 3086.31 648.013 3083.64C650.946 3080.84 652.413 3077.31 652.413 3073.04C652.413 3067.98 651.013 3064.11 648.213 3061.44C645.546 3058.78 641.813 3057.44 637.013 3057.44H594.413V3087.64H635.613ZM639.013 3145.44C644.079 3145.44 648.213 3143.98 651.413 3141.04C654.613 3138.11 656.213 3133.91 656.213 3128.44C656.213 3123.51 654.613 3119.51 651.413 3116.44C648.213 3113.38 643.546 3111.84 637.413 3111.84H594.413V3145.44H639.013ZM710.348 3025.44H737.748V3170.04H710.348V3025.44ZM809.413 3172.44C792.479 3172.44 779.813 3167.98 771.413 3159.04C763.146 3150.11 759.013 3136.24 759.013 3117.44C759.013 3098.64 763.146 3084.78 771.413 3075.84C779.813 3066.91 792.479 3062.44 809.413 3062.44C825.013 3062.44 836.679 3066.98 844.413 3076.04C852.146 3084.98 856.013 3098.78 856.013 3117.44V3123.84H786.813C787.079 3133.18 788.946 3140.11 792.413 3144.64C795.879 3149.04 801.679 3151.24 809.813 3151.24C815.546 3151.24 820.146 3149.64 823.613 3146.44C827.213 3143.24 829.013 3138.71 829.013 3132.84H856.013C856.013 3146.04 851.746 3155.98 843.213 3162.64C834.679 3169.18 823.413 3172.44 809.413 3172.44ZM827.613 3105.64C827.613 3091.11 821.546 3083.84 809.413 3083.84C802.479 3083.84 797.213 3085.64 793.613 3089.24C790.146 3092.84 788.013 3098.31 787.213 3105.64H827.613ZM877.145 3064.84H900.545L902.545 3078.64H903.945C912.479 3067.84 923.412 3062.44 936.745 3062.44C947.545 3062.44 956.012 3065.38 962.145 3071.24C968.412 3077.11 971.545 3086.51 971.545 3099.44V3170.04H944.145V3105.24C944.145 3098.71 942.612 3093.98 939.545 3091.04C936.479 3088.11 931.945 3086.64 925.945 3086.64C919.812 3086.64 914.679 3088.84 910.545 3093.24C906.545 3097.51 904.545 3102.84 904.545 3109.24V3170.04H877.145V3064.84ZM1034.61 3172.44C1021.28 3172.44 1010.94 3167.91 1003.61 3158.84C996.278 3149.64 992.611 3135.78 992.611 3117.24C992.611 3099.11 996.278 3085.44 1003.61 3076.24C1011.08 3067.04 1020.94 3062.44 1033.21 3062.44C1040.28 3062.44 1046.48 3063.71 1051.81 3066.24C1057.28 3068.78 1061.54 3072.38 1064.61 3077.04H1065.81V3025.44H1093.21V3170.04H1069.81L1068.01 3156.24H1066.61C1063.28 3161.58 1058.81 3165.64 1053.21 3168.44C1047.61 3171.11 1041.41 3172.44 1034.61 3172.44ZM1043.41 3148.64C1058.34 3148.64 1065.81 3138.84 1065.81 3119.24V3116.04C1065.81 3096.18 1058.34 3086.24 1043.41 3086.24C1035.28 3086.24 1029.48 3088.71 1026.01 3093.64C1022.54 3098.44 1020.81 3105.78 1020.81 3115.64V3119.24C1020.81 3129.11 1022.54 3136.51 1026.01 3141.44C1029.48 3146.24 1035.28 3148.64 1043.41 3148.64ZM1165.08 3172.44C1148.14 3172.44 1135.48 3167.98 1127.08 3159.04C1118.81 3150.11 1114.68 3136.24 1114.68 3117.44C1114.68 3098.64 1118.81 3084.78 1127.08 3075.84C1135.48 3066.91 1148.14 3062.44 1165.08 3062.44C1180.68 3062.44 1192.34 3066.98 1200.08 3076.04C1207.81 3084.98 1211.68 3098.78 1211.68 3117.44V3123.84H1142.48C1142.74 3133.18 1144.61 3140.11 1148.08 3144.64C1151.54 3149.04 1157.34 3151.24 1165.48 3151.24C1171.21 3151.24 1175.81 3149.64 1179.28 3146.44C1182.88 3143.24 1184.68 3138.71 1184.68 3132.84H1211.68C1211.68 3146.04 1207.41 3155.98 1198.88 3162.64C1190.34 3169.18 1179.08 3172.44 1165.08 3172.44ZM1183.28 3105.64C1183.28 3091.11 1177.21 3083.84 1165.08 3083.84C1158.14 3083.84 1152.88 3085.64 1149.28 3089.24C1145.81 3092.84 1143.68 3098.31 1142.88 3105.64H1183.28ZM1232.81 3064.84H1256.21L1258.41 3081.84H1259.81C1262.08 3075.84 1265.01 3071.11 1268.61 3067.64C1272.21 3064.18 1276.94 3062.44 1282.81 3062.44C1286.68 3062.44 1290.14 3063.04 1293.21 3064.24V3089.84H1285.61C1276.68 3089.84 1270.21 3092.31 1266.21 3097.24C1262.21 3102.04 1260.21 3109.38 1260.21 3119.24V3170.04H1232.81V3064.84Z" fill="#658566"/>
</g>
<defs>
<clipPath id="clip0">
<rect width="2944" height="3416" fill="white"/>
</clipPath>
</defs>
</svg>
