<svg width="2944" height="3416" viewBox="0 0 2944 3416" fill="none" xmlns="http://www.w3.org/2000/svg">
<rect width="2944" height="3416" fill="#FAFAFA"/>
<path d="M1235.16 1708L1235.16 1674.5L1235.16 1708ZM2871.69 1731.69C2884.77 1718.61 2884.77 1697.39 2871.69 1684.31L2658.5 1471.12C2645.41 1458.04 2624.2 1458.04 2611.12 1471.12C2598.04 1484.2 2598.04 1505.41 2611.12 1518.5L2800.62 1708L2611.12 1897.5C2598.04 1910.59 2598.04 1931.8 2611.12 1944.88C2624.2 1957.96 2645.41 1957.96 2658.5 1944.88L2871.69 1731.69ZM118.609 1741.5L1235.16 1741.5L1235.16 1674.5L118.609 1674.5L118.609 1741.5ZM1235.16 1741.5L2848 1741.5L2848 1674.5L1235.16 1674.5L1235.16 1741.5Z" fill="#6A6C74"/>
<path d="M993.149 1182.9H1029.55L1083.15 1320.1H1051.55L1041.75 1293.9H979.349L969.549 1320.1H939.549L993.149 1182.9ZM1032.55 1269.7L1019.55 1234.9C1017.95 1230.64 1015.08 1221.64 1010.95 1207.9H1009.95C1005.82 1221.64 1002.95 1230.64 1001.35 1234.9L988.349 1269.7H1032.55ZM2535.18 1175.5H2562.58V1201.5H2535.18V1175.5ZM2535.18 1214.9H2562.58V1320.1H2535.18V1214.9ZM2633.04 1322.5C2618.38 1322.5 2606.84 1319.5 2598.44 1313.5C2590.18 1307.37 2586.04 1299.24 2586.04 1289.1L2586.24 1286.7H2612.84V1288.1C2612.98 1292.77 2615.04 1296.17 2619.04 1298.3C2623.18 1300.3 2628.18 1301.3 2634.04 1301.3C2639.51 1301.3 2644.18 1300.57 2648.04 1299.1C2651.91 1297.64 2653.84 1295.24 2653.84 1291.9C2653.84 1288.17 2651.84 1285.37 2647.84 1283.5C2643.98 1281.64 2637.84 1279.77 2629.44 1277.9C2620.78 1275.9 2613.71 1273.9 2608.24 1271.9C2602.78 1269.77 2598.04 1266.5 2594.04 1262.1C2590.04 1257.7 2588.04 1251.84 2588.04 1244.5C2588.04 1234.24 2592.31 1226.37 2600.84 1220.9C2609.51 1215.3 2620.64 1212.5 2634.24 1212.5C2646.91 1212.5 2657.38 1215.1 2665.64 1220.3C2673.91 1225.37 2678.04 1232.3 2678.04 1241.1L2677.84 1245.7H2651.24V1244.5C2651.24 1241.04 2649.58 1238.37 2646.24 1236.5C2643.04 1234.64 2638.71 1233.7 2633.24 1233.7C2627.78 1233.7 2623.44 1234.44 2620.24 1235.9C2617.04 1237.37 2615.44 1239.44 2615.44 1242.1C2615.44 1245.44 2617.24 1247.9 2620.84 1249.5C2624.58 1251.1 2630.51 1252.7 2638.64 1254.3C2647.58 1256.3 2654.84 1258.3 2660.44 1260.3C2666.04 1262.3 2670.91 1265.57 2675.04 1270.1C2679.18 1274.64 2681.24 1280.77 2681.24 1288.5C2681.24 1311.17 2665.18 1322.5 2633.04 1322.5ZM996.949 1540.5C980.149 1540.5 967.549 1536.04 959.149 1527.1C950.883 1518.17 946.749 1504.3 946.749 1485.5C946.749 1466.84 950.883 1453.04 959.149 1444.1C967.549 1435.04 980.149 1430.5 996.949 1430.5C1010.95 1430.5 1022.08 1434.1 1030.35 1441.3C1038.75 1448.37 1042.95 1458.77 1042.95 1472.5H1015.35C1015.35 1466.1 1013.68 1461.17 1010.35 1457.7C1007.02 1454.24 1002.35 1452.5 996.349 1452.5C988.883 1452.5 983.349 1455.17 979.749 1460.5C976.283 1465.7 974.549 1473.5 974.549 1483.9V1487.1C974.549 1497.5 976.349 1505.37 979.949 1510.7C983.683 1515.9 989.616 1518.5 997.749 1518.5C1003.48 1518.5 1008.02 1516.77 1011.35 1513.3C1014.82 1509.7 1016.55 1504.77 1016.55 1498.5H1042.95C1042.95 1512.24 1038.82 1522.7 1030.55 1529.9C1022.28 1536.97 1011.08 1540.5 996.949 1540.5ZM1111.28 1540.5C1093.28 1540.5 1079.88 1536.04 1071.08 1527.1C1062.28 1518.17 1057.88 1504.3 1057.88 1485.5C1057.88 1466.7 1062.28 1452.84 1071.08 1443.9C1079.88 1434.97 1093.28 1430.5 1111.28 1430.5C1129.28 1430.5 1142.68 1434.97 1151.48 1443.9C1160.42 1452.84 1164.88 1466.7 1164.88 1485.5C1164.88 1504.3 1160.42 1518.17 1151.48 1527.1C1142.68 1536.04 1129.28 1540.5 1111.28 1540.5ZM1111.28 1518.1C1120.22 1518.1 1126.68 1515.57 1130.68 1510.5C1134.68 1505.3 1136.68 1497.5 1136.68 1487.1V1483.9C1136.68 1473.5 1134.68 1465.77 1130.68 1460.7C1126.68 1455.5 1120.22 1452.9 1111.28 1452.9C1102.35 1452.9 1095.88 1455.5 1091.88 1460.7C1088.02 1465.77 1086.08 1473.5 1086.08 1483.9V1487.1C1086.08 1497.5 1088.02 1505.3 1091.88 1510.5C1095.88 1515.57 1102.35 1518.1 1111.28 1518.1ZM1186.75 1432.9H1210.15L1212.15 1446.7H1213.55C1221.28 1435.9 1231.28 1430.5 1243.55 1430.5C1256.88 1430.5 1266.08 1435.9 1271.15 1446.7H1272.75C1280.75 1435.9 1291.15 1430.5 1303.95 1430.5C1313.95 1430.5 1321.88 1433.44 1327.75 1439.3C1333.75 1445.17 1336.75 1454.57 1336.75 1467.5V1538.1H1309.35V1473.3C1309.35 1460.9 1304.21 1454.7 1293.95 1454.7C1288.61 1454.7 1284.21 1456.9 1280.75 1461.3C1277.28 1465.57 1275.55 1470.9 1275.55 1477.3V1538.1H1248.15V1473.3C1248.15 1460.9 1243.01 1454.7 1232.75 1454.7C1227.41 1454.7 1222.95 1456.9 1219.35 1461.3C1215.88 1465.57 1214.15 1470.9 1214.15 1477.3V1538.1H1186.75V1432.9ZM1364.48 1432.9H1387.88L1389.68 1446.7H1391.08C1394.42 1441.37 1398.88 1437.37 1404.48 1434.7C1410.08 1431.9 1416.28 1430.5 1423.08 1430.5C1436.42 1430.5 1446.75 1435.1 1454.08 1444.3C1461.42 1453.37 1465.08 1467.17 1465.08 1485.7C1465.08 1503.84 1461.35 1517.5 1453.88 1526.7C1446.55 1535.9 1436.75 1540.5 1424.48 1540.5C1417.42 1540.5 1411.15 1539.24 1405.68 1536.7C1400.35 1534.17 1396.15 1530.57 1393.08 1525.9H1391.88V1572.7H1364.48V1432.9ZM1414.28 1516.7C1422.42 1516.7 1428.22 1514.3 1431.68 1509.5C1435.15 1504.57 1436.88 1497.17 1436.88 1487.3V1483.7C1436.88 1473.84 1435.15 1466.5 1431.68 1461.7C1428.22 1456.77 1422.42 1454.3 1414.28 1454.3C1399.35 1454.3 1391.88 1464.1 1391.88 1483.7V1486.9C1391.88 1506.77 1399.35 1516.7 1414.28 1516.7ZM1486.75 1393.5H1514.15V1538.1H1486.75V1393.5ZM1585.81 1540.5C1568.88 1540.5 1556.21 1536.04 1547.81 1527.1C1539.55 1518.17 1535.41 1504.3 1535.41 1485.5C1535.41 1466.7 1539.55 1452.84 1547.81 1443.9C1556.21 1434.97 1568.88 1430.5 1585.81 1430.5C1601.41 1430.5 1613.08 1435.04 1620.81 1444.1C1628.55 1453.04 1632.41 1466.84 1632.41 1485.5V1491.9H1563.21C1563.48 1501.24 1565.35 1508.17 1568.81 1512.7C1572.28 1517.1 1578.08 1519.3 1586.21 1519.3C1591.95 1519.3 1596.55 1517.7 1600.01 1514.5C1603.61 1511.3 1605.41 1506.77 1605.41 1500.9H1632.41C1632.41 1514.1 1628.15 1524.04 1619.61 1530.7C1611.08 1537.24 1599.81 1540.5 1585.81 1540.5ZM1604.01 1473.7C1604.01 1459.17 1597.95 1451.9 1585.81 1451.9C1578.88 1451.9 1573.61 1453.7 1570.01 1457.3C1566.55 1460.9 1564.41 1466.37 1563.61 1473.7H1604.01ZM1681.74 1540.5C1671.88 1540.5 1664.81 1537.84 1660.54 1532.5C1656.28 1527.17 1654.14 1520.44 1654.14 1512.3V1455.3H1641.54V1432.9H1654.74L1659.34 1403.3H1681.54V1432.9H1699.74V1455.3H1681.54V1509.5C1681.54 1515.24 1684.41 1518.1 1690.14 1518.1H1699.74V1537.3C1697.48 1538.1 1694.61 1538.84 1691.14 1539.5C1687.81 1540.17 1684.68 1540.5 1681.74 1540.5ZM1720.15 1393.5H1747.55V1538.1H1720.15V1393.5ZM1791.81 1574.5C1784.48 1574.5 1778.21 1573.64 1773.01 1571.9V1552.7H1786.01C1790.68 1552.7 1794.48 1551.57 1797.41 1549.3C1800.34 1547.04 1802.74 1543.3 1804.61 1538.1L1763.41 1432.9H1792.01L1811.81 1482.3C1813.81 1487.5 1816.28 1496.64 1819.21 1509.7H1820.21C1823.41 1497.44 1825.88 1488.37 1827.61 1482.5L1843.21 1432.9H1871.01L1835.61 1532.7C1832.41 1541.5 1829.08 1548.84 1825.61 1554.7C1822.14 1560.7 1817.61 1565.5 1812.01 1569.1C1806.54 1572.7 1799.81 1574.5 1791.81 1574.5ZM2364.67 1510.7H2392.27V1538.1H2364.67V1510.7Z" fill="#6A6C74"/>
<path d="M1145.13 1182.9H1223.73C1230.93 1182.9 1237.46 1184.37 1243.33 1187.3C1249.19 1190.1 1253.79 1194.1 1257.13 1199.3C1260.46 1204.37 1262.13 1210.24 1262.13 1216.9C1262.13 1224.5 1259.99 1231.1 1255.73 1236.7C1251.59 1242.17 1246.26 1245.97 1239.73 1248.1V1248.9C1247.46 1250.37 1253.73 1254.17 1258.53 1260.3C1263.46 1266.3 1265.93 1273.44 1265.93 1281.7C1265.93 1294.1 1261.93 1303.64 1253.93 1310.3C1246.06 1316.84 1235.99 1320.1 1223.73 1320.1H1145.13V1182.9ZM1215.53 1237.7C1220.86 1237.7 1224.99 1236.37 1227.93 1233.7C1230.86 1230.9 1232.33 1227.37 1232.33 1223.1C1232.33 1218.04 1230.93 1214.17 1228.13 1211.5C1225.46 1208.84 1221.73 1207.5 1216.93 1207.5H1174.33V1237.7H1215.53ZM1218.93 1295.5C1223.99 1295.5 1228.13 1294.04 1231.33 1291.1C1234.53 1288.17 1236.13 1283.97 1236.13 1278.5C1236.13 1273.57 1234.53 1269.57 1231.33 1266.5C1228.13 1263.44 1223.46 1261.9 1217.33 1261.9H1174.33V1295.5H1218.93ZM1314.46 1322.5C1306.33 1322.5 1298.86 1320.37 1292.06 1316.1C1285.26 1311.84 1281.86 1304.1 1281.86 1292.9C1281.86 1279.44 1287.4 1269.9 1298.46 1264.3C1309.53 1258.57 1325.2 1255.7 1345.46 1255.7V1248.3C1345.46 1243.64 1344.4 1240.04 1342.26 1237.5C1340.26 1234.97 1336.4 1233.7 1330.66 1233.7C1324.53 1233.7 1320.13 1234.64 1317.46 1236.5C1314.93 1238.37 1313.66 1240.57 1313.66 1243.1V1246.1H1287.26C1287.13 1245.3 1287.06 1243.84 1287.06 1241.7C1287.06 1232.9 1290.93 1225.84 1298.66 1220.5C1306.53 1215.17 1316.93 1212.5 1329.86 1212.5C1344.26 1212.5 1355 1215.44 1362.06 1221.3C1369.26 1227.17 1372.86 1235.64 1372.86 1246.7V1293.1C1372.86 1295.5 1373.53 1297.3 1374.86 1298.5C1376.2 1299.57 1377.86 1300.1 1379.86 1300.1H1385.46V1319.3C1381.2 1321.44 1375.93 1322.5 1369.66 1322.5C1364.2 1322.5 1359.6 1321.3 1355.86 1318.9C1352.26 1316.5 1349.8 1313.1 1348.46 1308.7H1347.26C1343.4 1313.24 1338.93 1316.7 1333.86 1319.1C1328.93 1321.37 1322.46 1322.5 1314.46 1322.5ZM1323.06 1300.9C1330.8 1300.9 1336.46 1298.77 1340.06 1294.5C1343.66 1290.1 1345.46 1284.3 1345.46 1277.1V1273.9C1321.6 1273.9 1309.66 1279.24 1309.66 1289.9C1309.66 1293.24 1310.73 1295.9 1312.86 1297.9C1315.13 1299.9 1318.53 1300.9 1323.06 1300.9ZM1443.4 1322.5C1428.73 1322.5 1417.2 1319.5 1408.8 1313.5C1400.53 1307.37 1396.4 1299.24 1396.4 1289.1L1396.6 1286.7H1423.2V1288.1C1423.33 1292.77 1425.4 1296.17 1429.4 1298.3C1433.53 1300.3 1438.53 1301.3 1444.4 1301.3C1449.86 1301.3 1454.53 1300.57 1458.4 1299.1C1462.26 1297.64 1464.2 1295.24 1464.2 1291.9C1464.2 1288.17 1462.2 1285.37 1458.2 1283.5C1454.33 1281.64 1448.2 1279.77 1439.8 1277.9C1431.13 1275.9 1424.06 1273.9 1418.6 1271.9C1413.13 1269.77 1408.4 1266.5 1404.4 1262.1C1400.4 1257.7 1398.4 1251.84 1398.4 1244.5C1398.4 1234.24 1402.66 1226.37 1411.2 1220.9C1419.86 1215.3 1431 1212.5 1444.6 1212.5C1457.26 1212.5 1467.73 1215.1 1476 1220.3C1484.26 1225.37 1488.4 1232.3 1488.4 1241.1L1488.2 1245.7H1461.6V1244.5C1461.6 1241.04 1459.93 1238.37 1456.6 1236.5C1453.4 1234.64 1449.06 1233.7 1443.6 1233.7C1438.13 1233.7 1433.8 1234.44 1430.6 1235.9C1427.4 1237.37 1425.8 1239.44 1425.8 1242.1C1425.8 1245.44 1427.6 1247.9 1431.2 1249.5C1434.93 1251.1 1440.86 1252.7 1449 1254.3C1457.93 1256.3 1465.2 1258.3 1470.8 1260.3C1476.4 1262.3 1481.26 1265.57 1485.4 1270.1C1489.53 1274.64 1491.6 1280.77 1491.6 1288.5C1491.6 1311.17 1475.53 1322.5 1443.4 1322.5ZM1512.33 1175.5H1539.73V1201.5H1512.33V1175.5ZM1512.33 1214.9H1539.73V1320.1H1512.33V1214.9ZM1611.79 1322.5C1594.99 1322.5 1582.39 1318.04 1573.99 1309.1C1565.73 1300.17 1561.59 1286.3 1561.59 1267.5C1561.59 1248.84 1565.73 1235.04 1573.99 1226.1C1582.39 1217.04 1594.99 1212.5 1611.79 1212.5C1625.79 1212.5 1636.93 1216.1 1645.19 1223.3C1653.59 1230.37 1657.79 1240.77 1657.79 1254.5H1630.19C1630.19 1248.1 1628.53 1243.17 1625.19 1239.7C1621.86 1236.24 1617.19 1234.5 1611.19 1234.5C1603.73 1234.5 1598.19 1237.17 1594.59 1242.5C1591.13 1247.7 1589.39 1255.5 1589.39 1265.9V1269.1C1589.39 1279.5 1591.19 1287.37 1594.79 1292.7C1598.53 1297.9 1604.46 1300.5 1612.59 1300.5C1618.33 1300.5 1622.86 1298.77 1626.19 1295.3C1629.66 1291.7 1631.39 1286.77 1631.39 1280.5H1657.79C1657.79 1294.24 1653.66 1304.7 1645.39 1311.9C1637.13 1318.97 1625.93 1322.5 1611.79 1322.5ZM1734.19 1182.9H1763.19V1294.9H1837.19V1320.1H1734.19V1182.9ZM1857.06 1175.5H1884.46V1201.5H1857.06V1175.5ZM1857.06 1214.9H1884.46V1320.1H1857.06V1214.9ZM1956.52 1322.5C1939.72 1322.5 1927.12 1318.04 1918.72 1309.1C1910.45 1300.17 1906.32 1286.3 1906.32 1267.5C1906.32 1248.84 1910.45 1235.04 1918.72 1226.1C1927.12 1217.04 1939.72 1212.5 1956.52 1212.5C1970.52 1212.5 1981.65 1216.1 1989.92 1223.3C1998.32 1230.37 2002.52 1240.77 2002.52 1254.5H1974.92C1974.92 1248.1 1973.25 1243.17 1969.92 1239.7C1966.59 1236.24 1961.92 1234.5 1955.92 1234.5C1948.45 1234.5 1942.92 1237.17 1939.32 1242.5C1935.85 1247.7 1934.12 1255.5 1934.12 1265.9V1269.1C1934.12 1279.5 1935.92 1287.37 1939.52 1292.7C1943.25 1297.9 1949.19 1300.5 1957.32 1300.5C1963.05 1300.5 1967.59 1298.77 1970.92 1295.3C1974.39 1291.7 1976.12 1286.77 1976.12 1280.5H2002.52C2002.52 1294.24 1998.39 1304.7 1990.12 1311.9C1981.85 1318.97 1970.65 1322.5 1956.52 1322.5ZM2067.45 1322.5C2050.52 1322.5 2037.85 1318.04 2029.45 1309.1C2021.19 1300.17 2017.05 1286.3 2017.05 1267.5C2017.05 1248.7 2021.19 1234.84 2029.45 1225.9C2037.85 1216.97 2050.52 1212.5 2067.45 1212.5C2083.05 1212.5 2094.72 1217.04 2102.45 1226.1C2110.19 1235.04 2114.05 1248.84 2114.05 1267.5V1273.9H2044.85C2045.12 1283.24 2046.99 1290.17 2050.45 1294.7C2053.92 1299.1 2059.72 1301.3 2067.85 1301.3C2073.59 1301.3 2078.19 1299.7 2081.65 1296.5C2085.25 1293.3 2087.05 1288.77 2087.05 1282.9H2114.05C2114.05 1296.1 2109.79 1306.04 2101.25 1312.7C2092.72 1319.24 2081.45 1322.5 2067.45 1322.5ZM2085.65 1255.7C2085.65 1241.17 2079.59 1233.9 2067.45 1233.9C2060.52 1233.9 2055.25 1235.7 2051.65 1239.3C2048.19 1242.9 2046.05 1248.37 2045.25 1255.7H2085.65ZM2135.19 1214.9H2158.59L2160.59 1228.7H2161.99C2170.52 1217.9 2181.45 1212.5 2194.79 1212.5C2205.59 1212.5 2214.05 1215.44 2220.19 1221.3C2226.45 1227.17 2229.59 1236.57 2229.59 1249.5V1320.1H2202.19V1255.3C2202.19 1248.77 2200.65 1244.04 2197.59 1241.1C2194.52 1238.17 2189.99 1236.7 2183.99 1236.7C2177.85 1236.7 2172.72 1238.9 2168.59 1243.3C2164.59 1247.57 2162.59 1252.9 2162.59 1259.3V1320.1H2135.19V1214.9ZM2299.45 1322.5C2284.78 1322.5 2273.25 1319.5 2264.85 1313.5C2256.58 1307.37 2252.45 1299.24 2252.45 1289.1L2252.65 1286.7H2279.25V1288.1C2279.38 1292.77 2281.45 1296.17 2285.45 1298.3C2289.58 1300.3 2294.58 1301.3 2300.45 1301.3C2305.92 1301.3 2310.58 1300.57 2314.45 1299.1C2318.32 1297.64 2320.25 1295.24 2320.25 1291.9C2320.25 1288.17 2318.25 1285.37 2314.25 1283.5C2310.38 1281.64 2304.25 1279.77 2295.85 1277.9C2287.18 1275.9 2280.12 1273.9 2274.65 1271.9C2269.18 1269.77 2264.45 1266.5 2260.45 1262.1C2256.45 1257.7 2254.45 1251.84 2254.45 1244.5C2254.45 1234.24 2258.72 1226.37 2267.25 1220.9C2275.92 1215.3 2287.05 1212.5 2300.65 1212.5C2313.32 1212.5 2323.78 1215.1 2332.05 1220.3C2340.32 1225.37 2344.45 1232.3 2344.45 1241.1L2344.25 1245.7H2317.65V1244.5C2317.65 1241.04 2315.98 1238.37 2312.65 1236.5C2309.45 1234.64 2305.12 1233.7 2299.65 1233.7C2294.18 1233.7 2289.85 1234.44 2286.65 1235.9C2283.45 1237.37 2281.85 1239.44 2281.85 1242.1C2281.85 1245.44 2283.65 1247.9 2287.25 1249.5C2290.98 1251.1 2296.92 1252.7 2305.05 1254.3C2313.98 1256.3 2321.25 1258.3 2326.85 1260.3C2332.45 1262.3 2337.32 1265.57 2341.45 1270.1C2345.58 1274.64 2347.65 1280.77 2347.65 1288.5C2347.65 1311.17 2331.58 1322.5 2299.45 1322.5ZM2411.98 1322.5C2395.05 1322.5 2382.38 1318.04 2373.98 1309.1C2365.72 1300.17 2361.58 1286.3 2361.58 1267.5C2361.58 1248.7 2365.72 1234.84 2373.98 1225.9C2382.38 1216.97 2395.05 1212.5 2411.98 1212.5C2427.58 1212.5 2439.25 1217.04 2446.98 1226.1C2454.72 1235.04 2458.58 1248.84 2458.58 1267.5V1273.9H2389.38C2389.65 1283.24 2391.52 1290.17 2394.98 1294.7C2398.45 1299.1 2404.25 1301.3 2412.38 1301.3C2418.12 1301.3 2422.72 1299.7 2426.18 1296.5C2429.78 1293.3 2431.58 1288.77 2431.58 1282.9H2458.58C2458.58 1296.1 2454.32 1306.04 2445.78 1312.7C2437.25 1319.24 2425.98 1322.5 2411.98 1322.5ZM2430.18 1255.7C2430.18 1241.17 2424.12 1233.9 2411.98 1233.9C2405.05 1233.9 2399.78 1235.7 2396.18 1239.3C2392.72 1242.9 2390.58 1248.37 2389.78 1255.7H2430.18Z" fill="#D69090"/>
<path d="M1941.81 1400.9H2041.21V1425.5H1970.81V1459.3H2033.81V1483.9H1970.81V1538.1H1941.81V1400.9ZM2064.87 1432.9H2088.27L2090.47 1449.9H2091.87C2094.14 1443.9 2097.07 1439.17 2100.67 1435.7C2104.27 1432.24 2109.01 1430.5 2114.87 1430.5C2118.74 1430.5 2122.21 1431.1 2125.27 1432.3V1457.9H2117.67C2108.74 1457.9 2102.27 1460.37 2098.27 1465.3C2094.27 1470.1 2092.27 1477.44 2092.27 1487.3V1538.1H2064.87V1432.9ZM2186.01 1540.5C2169.07 1540.5 2156.41 1536.04 2148.01 1527.1C2139.74 1518.17 2135.61 1504.3 2135.61 1485.5C2135.61 1466.7 2139.74 1452.84 2148.01 1443.9C2156.41 1434.97 2169.07 1430.5 2186.01 1430.5C2201.61 1430.5 2213.27 1435.04 2221.01 1444.1C2228.74 1453.04 2232.61 1466.84 2232.61 1485.5V1491.9H2163.41C2163.67 1501.24 2165.54 1508.17 2169.01 1512.7C2172.47 1517.1 2178.27 1519.3 2186.41 1519.3C2192.14 1519.3 2196.74 1517.7 2200.21 1514.5C2203.81 1511.3 2205.61 1506.77 2205.61 1500.9H2232.61C2232.61 1514.1 2228.34 1524.04 2219.81 1530.7C2211.27 1537.24 2200.01 1540.5 2186.01 1540.5ZM2204.21 1473.7C2204.21 1459.17 2198.14 1451.9 2186.01 1451.9C2179.07 1451.9 2173.81 1453.7 2170.21 1457.3C2166.74 1460.9 2164.61 1466.37 2163.81 1473.7H2204.21ZM2297.14 1540.5C2280.21 1540.5 2267.54 1536.04 2259.14 1527.1C2250.87 1518.17 2246.74 1504.3 2246.74 1485.5C2246.74 1466.7 2250.87 1452.84 2259.14 1443.9C2267.54 1434.97 2280.21 1430.5 2297.14 1430.5C2312.74 1430.5 2324.41 1435.04 2332.14 1444.1C2339.87 1453.04 2343.74 1466.84 2343.74 1485.5V1491.9H2274.54C2274.81 1501.24 2276.67 1508.17 2280.14 1512.7C2283.61 1517.1 2289.41 1519.3 2297.54 1519.3C2303.27 1519.3 2307.87 1517.7 2311.34 1514.5C2314.94 1511.3 2316.74 1506.77 2316.74 1500.9H2343.74C2343.74 1514.1 2339.47 1524.04 2330.94 1530.7C2322.41 1537.24 2311.14 1540.5 2297.14 1540.5ZM2315.34 1473.7C2315.34 1459.17 2309.27 1451.9 2297.14 1451.9C2290.21 1451.9 2284.94 1453.7 2281.34 1457.3C2277.87 1460.9 2275.74 1466.37 2274.94 1473.7H2315.34Z" fill="#658566"/>
<path d="M132.009 1942.84H188.809C209.743 1942.84 225.876 1948.58 237.209 1960.04C248.676 1971.38 254.409 1988.51 254.409 2011.44C254.409 2034.38 248.676 2051.58 237.209 2063.04C225.876 2074.38 209.743 2080.04 188.809 2080.04H132.009V1942.84ZM188.809 2055.44C200.543 2055.44 209.409 2051.91 215.409 2044.84C221.543 2037.64 224.609 2027.51 224.609 2014.44V2008.44C224.609 1995.38 221.543 1985.31 215.409 1978.24C209.409 1971.04 200.543 1967.44 188.809 1967.44H161.009V2055.44H188.809ZM323.945 2082.44C305.945 2082.44 292.545 2077.98 283.745 2069.04C274.945 2060.11 270.545 2046.24 270.545 2027.44C270.545 2008.64 274.945 1994.78 283.745 1985.84C292.545 1976.91 305.945 1972.44 323.945 1972.44C341.945 1972.44 355.345 1976.91 364.145 1985.84C373.079 1994.78 377.545 2008.64 377.545 2027.44C377.545 2046.24 373.079 2060.11 364.145 2069.04C355.345 2077.98 341.945 2082.44 323.945 2082.44ZM323.945 2060.04C332.879 2060.04 339.345 2057.51 343.345 2052.44C347.345 2047.24 349.345 2039.44 349.345 2029.04V2025.84C349.345 2015.44 347.345 2007.71 343.345 2002.64C339.345 1997.44 332.879 1994.84 323.945 1994.84C315.012 1994.84 308.545 1997.44 304.545 2002.64C300.679 2007.71 298.745 2015.44 298.745 2025.84V2029.04C298.745 2039.44 300.679 2047.24 304.545 2052.44C308.545 2057.51 315.012 2060.04 323.945 2060.04ZM386.011 1974.84H414.211L425.611 2018.04C426.811 2022.71 428.878 2032.78 431.811 2048.24H432.611C435.544 2033.98 437.678 2023.98 439.011 2018.24L449.811 1974.84H478.011L489.411 2018.44C491.011 2024.58 493.211 2034.51 496.011 2048.24H496.811C499.344 2035.44 501.478 2025.51 503.211 2018.44L514.011 1974.84H540.011L508.811 2080.04H480.411L468.411 2029.84C466.944 2023.44 465.344 2015.71 463.611 2006.64H462.611C461.411 2015.58 460.011 2023.24 458.411 2029.64L445.811 2080.04H417.411L386.011 1974.84ZM555.075 1974.84H578.475L580.475 1988.64H581.875C590.408 1977.84 601.342 1972.44 614.675 1972.44C625.475 1972.44 633.942 1975.38 640.075 1981.24C646.342 1987.11 649.475 1996.51 649.475 2009.44V2080.04H622.075V2015.24C622.075 2008.71 620.542 2003.98 617.475 2001.04C614.408 1998.11 609.875 1996.64 603.875 1996.64C597.742 1996.64 592.608 1998.84 588.475 2003.24C584.475 2007.51 582.475 2012.84 582.475 2019.24V2080.04H555.075V1974.84ZM677.341 1935.44H704.741V2080.04H677.341V1935.44ZM779.805 2082.44C761.805 2082.44 748.405 2077.98 739.605 2069.04C730.805 2060.11 726.405 2046.24 726.405 2027.44C726.405 2008.64 730.805 1994.78 739.605 1985.84C748.405 1976.91 761.805 1972.44 779.805 1972.44C797.805 1972.44 811.205 1976.91 820.005 1985.84C828.938 1994.78 833.405 2008.64 833.405 2027.44C833.405 2046.24 828.938 2060.11 820.005 2069.04C811.205 2077.98 797.805 2082.44 779.805 2082.44ZM779.805 2060.04C788.738 2060.04 795.205 2057.51 799.205 2052.44C803.205 2047.24 805.205 2039.44 805.205 2029.04V2025.84C805.205 2015.44 803.205 2007.71 799.205 2002.64C795.205 1997.44 788.738 1994.84 779.805 1994.84C770.871 1994.84 764.405 1997.44 760.405 2002.64C756.538 2007.71 754.605 2015.44 754.605 2025.84V2029.04C754.605 2039.44 756.538 2047.24 760.405 2052.44C764.405 2057.51 770.871 2060.04 779.805 2060.04ZM879.47 2082.44C871.337 2082.44 863.87 2080.31 857.07 2076.04C850.27 2071.78 846.87 2064.04 846.87 2052.84C846.87 2039.38 852.404 2029.84 863.47 2024.24C874.537 2018.51 890.204 2015.64 910.47 2015.64V2008.24C910.47 2003.58 909.404 1999.98 907.27 1997.44C905.27 1994.91 901.404 1993.64 895.67 1993.64C889.537 1993.64 885.137 1994.58 882.47 1996.44C879.937 1998.31 878.67 2000.51 878.67 2003.04V2006.04H852.27C852.137 2005.24 852.07 2003.78 852.07 2001.64C852.07 1992.84 855.937 1985.78 863.67 1980.44C871.537 1975.11 881.937 1972.44 894.87 1972.44C909.27 1972.44 920.004 1975.38 927.07 1981.24C934.27 1987.11 937.87 1995.58 937.87 2006.64V2053.04C937.87 2055.44 938.537 2057.24 939.87 2058.44C941.204 2059.51 942.87 2060.04 944.87 2060.04H950.47V2079.24C946.204 2081.38 940.937 2082.44 934.67 2082.44C929.204 2082.44 924.604 2081.24 920.87 2078.84C917.27 2076.44 914.804 2073.04 913.47 2068.64H912.27C908.404 2073.18 903.937 2076.64 898.87 2079.04C893.937 2081.31 887.47 2082.44 879.47 2082.44ZM888.07 2060.84C895.804 2060.84 901.47 2058.71 905.07 2054.44C908.67 2050.04 910.47 2044.24 910.47 2037.04V2033.84C886.604 2033.84 874.67 2039.18 874.67 2049.84C874.67 2053.18 875.737 2055.84 877.87 2057.84C880.137 2059.84 883.537 2060.84 888.07 2060.84ZM1001.6 2082.44C988.27 2082.44 977.936 2077.91 970.603 2068.84C963.27 2059.64 959.603 2045.78 959.603 2027.24C959.603 2009.11 963.27 1995.44 970.603 1986.24C978.07 1977.04 987.936 1972.44 1000.2 1972.44C1007.27 1972.44 1013.47 1973.71 1018.8 1976.24C1024.27 1978.78 1028.54 1982.38 1031.6 1987.04H1032.8V1935.44H1060.2V2080.04H1036.8L1035 2066.24H1033.6C1030.27 2071.58 1025.8 2075.64 1020.2 2078.44C1014.6 2081.11 1008.4 2082.44 1001.6 2082.44ZM1010.4 2058.64C1025.34 2058.64 1032.8 2048.84 1032.8 2029.24V2026.04C1032.8 2006.18 1025.34 1996.24 1010.4 1996.24C1002.27 1996.24 996.47 1998.71 993.003 2003.64C989.536 2008.44 987.803 2015.78 987.803 2025.64V2029.24C987.803 2039.11 989.536 2046.51 993.003 2051.44C996.47 2056.24 1002.27 2058.64 1010.4 2058.64ZM1168.53 2082.44C1160.4 2082.44 1152.93 2080.31 1146.13 2076.04C1139.33 2071.78 1135.93 2064.04 1135.93 2052.84C1135.93 2039.38 1141.47 2029.84 1152.53 2024.24C1163.6 2018.51 1179.27 2015.64 1199.53 2015.64V2008.24C1199.53 2003.58 1198.47 1999.98 1196.33 1997.44C1194.33 1994.91 1190.47 1993.64 1184.73 1993.64C1178.6 1993.64 1174.2 1994.58 1171.53 1996.44C1169 1998.31 1167.73 2000.51 1167.73 2003.04V2006.04H1141.33C1141.2 2005.24 1141.13 2003.78 1141.13 2001.64C1141.13 1992.84 1145 1985.78 1152.73 1980.44C1160.6 1975.11 1171 1972.44 1183.93 1972.44C1198.33 1972.44 1209.07 1975.38 1216.13 1981.24C1223.33 1987.11 1226.93 1995.58 1226.93 2006.64V2053.04C1226.93 2055.44 1227.6 2057.24 1228.93 2058.44C1230.27 2059.51 1231.93 2060.04 1233.93 2060.04H1239.53V2079.24C1235.27 2081.38 1230 2082.44 1223.73 2082.44C1218.27 2082.44 1213.67 2081.24 1209.93 2078.84C1206.33 2076.44 1203.87 2073.04 1202.53 2068.64H1201.33C1197.47 2073.18 1193 2076.64 1187.93 2079.04C1183 2081.31 1176.53 2082.44 1168.53 2082.44ZM1177.13 2060.84C1184.87 2060.84 1190.53 2058.71 1194.13 2054.44C1197.73 2050.04 1199.53 2044.24 1199.53 2037.04V2033.84C1175.67 2033.84 1163.73 2039.18 1163.73 2049.84C1163.73 2053.18 1164.8 2055.84 1166.93 2057.84C1169.2 2059.84 1172.6 2060.84 1177.13 2060.84ZM1035.66 2300.44C1017.66 2300.44 1004.26 2295.98 995.464 2287.04C986.664 2278.11 982.264 2264.24 982.264 2245.44C982.264 2226.64 986.664 2212.78 995.464 2203.84C1004.26 2194.91 1017.66 2190.44 1035.66 2190.44C1053.66 2190.44 1067.06 2194.91 1075.86 2203.84C1084.8 2212.78 1089.26 2226.64 1089.26 2245.44C1089.26 2264.24 1084.8 2278.11 1075.86 2287.04C1067.06 2295.98 1053.66 2300.44 1035.66 2300.44ZM1035.66 2278.04C1044.6 2278.04 1051.06 2275.51 1055.06 2270.44C1059.06 2265.24 1061.06 2257.44 1061.06 2247.04V2243.84C1061.06 2233.44 1059.06 2225.71 1055.06 2220.64C1051.06 2215.44 1044.6 2212.84 1035.66 2212.84C1026.73 2212.84 1020.26 2215.44 1016.26 2220.64C1012.4 2225.71 1010.46 2233.44 1010.46 2243.84V2247.04C1010.46 2257.44 1012.4 2265.24 1016.26 2270.44C1020.26 2275.51 1026.73 2278.04 1035.66 2278.04ZM1145.33 2300.44C1134.53 2300.44 1126 2297.51 1119.73 2291.64C1113.6 2285.78 1110.53 2276.38 1110.53 2263.44V2192.84H1137.93V2257.64C1137.93 2264.18 1139.46 2268.91 1142.53 2271.84C1145.6 2274.78 1150.13 2276.24 1156.13 2276.24C1162.26 2276.24 1167.33 2274.11 1171.33 2269.84C1175.46 2265.44 1177.53 2260.04 1177.53 2253.64V2192.84H1204.93V2298.04H1181.53L1179.53 2284.24H1178.13C1169.6 2295.04 1158.66 2300.44 1145.33 2300.44ZM1233.4 2192.84H1256.8L1259 2209.84H1260.4C1262.66 2203.84 1265.6 2199.11 1269.2 2195.64C1272.8 2192.18 1277.53 2190.44 1283.4 2190.44C1287.26 2190.44 1290.73 2191.04 1293.8 2192.24V2217.84H1286.2C1277.26 2217.84 1270.8 2220.31 1266.8 2225.24C1262.8 2230.04 1260.8 2237.38 1260.8 2247.24V2298.04H1233.4V2192.84ZM1543.94 2488.64H1571.54V2516.04H1543.94V2488.64Z" fill="#6A6C74"/>
<path d="M1310.33 1942.84H1388.93C1396.13 1942.84 1402.66 1944.31 1408.53 1947.24C1414.4 1950.04 1419 1954.04 1422.33 1959.24C1425.66 1964.31 1427.33 1970.18 1427.33 1976.84C1427.33 1984.44 1425.2 1991.04 1420.93 1996.64C1416.8 2002.11 1411.46 2005.91 1404.93 2008.04V2008.84C1412.66 2010.31 1418.93 2014.11 1423.73 2020.24C1428.66 2026.24 1431.13 2033.38 1431.13 2041.64C1431.13 2054.04 1427.13 2063.58 1419.13 2070.24C1411.26 2076.78 1401.2 2080.04 1388.93 2080.04H1310.33V1942.84ZM1380.73 1997.64C1386.06 1997.64 1390.2 1996.31 1393.13 1993.64C1396.06 1990.84 1397.53 1987.31 1397.53 1983.04C1397.53 1977.98 1396.13 1974.11 1393.33 1971.44C1390.66 1968.78 1386.93 1967.44 1382.13 1967.44H1339.53V1997.64H1380.73ZM1384.13 2055.44C1389.2 2055.44 1393.33 2053.98 1396.53 2051.04C1399.73 2048.11 1401.33 2043.91 1401.33 2038.44C1401.33 2033.51 1399.73 2029.51 1396.53 2026.44C1393.33 2023.38 1388.66 2021.84 1382.53 2021.84H1339.53V2055.44H1384.13ZM1479.67 2082.44C1471.53 2082.44 1464.07 2080.31 1457.27 2076.04C1450.47 2071.78 1447.07 2064.04 1447.07 2052.84C1447.07 2039.38 1452.6 2029.84 1463.67 2024.24C1474.73 2018.51 1490.4 2015.64 1510.67 2015.64V2008.24C1510.67 2003.58 1509.6 1999.98 1507.47 1997.44C1505.47 1994.91 1501.6 1993.64 1495.87 1993.64C1489.73 1993.64 1485.33 1994.58 1482.67 1996.44C1480.13 1998.31 1478.87 2000.51 1478.87 2003.04V2006.04H1452.47C1452.33 2005.24 1452.27 2003.78 1452.27 2001.64C1452.27 1992.84 1456.13 1985.78 1463.87 1980.44C1471.73 1975.11 1482.13 1972.44 1495.07 1972.44C1509.47 1972.44 1520.2 1975.38 1527.27 1981.24C1534.47 1987.11 1538.07 1995.58 1538.07 2006.64V2053.04C1538.07 2055.44 1538.73 2057.24 1540.07 2058.44C1541.4 2059.51 1543.07 2060.04 1545.07 2060.04H1550.67V2079.24C1546.4 2081.38 1541.13 2082.44 1534.87 2082.44C1529.4 2082.44 1524.8 2081.24 1521.07 2078.84C1517.47 2076.44 1515 2073.04 1513.67 2068.64H1512.47C1508.6 2073.18 1504.13 2076.64 1499.07 2079.04C1494.13 2081.31 1487.67 2082.44 1479.67 2082.44ZM1488.27 2060.84C1496 2060.84 1501.67 2058.71 1505.27 2054.44C1508.87 2050.04 1510.67 2044.24 1510.67 2037.04V2033.84C1486.8 2033.84 1474.87 2039.18 1474.87 2049.84C1474.87 2053.18 1475.93 2055.84 1478.07 2057.84C1480.33 2059.84 1483.73 2060.84 1488.27 2060.84ZM1608.6 2082.44C1593.93 2082.44 1582.4 2079.44 1574 2073.44C1565.73 2067.31 1561.6 2059.18 1561.6 2049.04L1561.8 2046.64H1588.4V2048.04C1588.53 2052.71 1590.6 2056.11 1594.6 2058.24C1598.73 2060.24 1603.73 2061.24 1609.6 2061.24C1615.07 2061.24 1619.73 2060.51 1623.6 2059.04C1627.47 2057.58 1629.4 2055.18 1629.4 2051.84C1629.4 2048.11 1627.4 2045.31 1623.4 2043.44C1619.53 2041.58 1613.4 2039.71 1605 2037.84C1596.33 2035.84 1589.27 2033.84 1583.8 2031.84C1578.33 2029.71 1573.6 2026.44 1569.6 2022.04C1565.6 2017.64 1563.6 2011.78 1563.6 2004.44C1563.6 1994.18 1567.87 1986.31 1576.4 1980.84C1585.07 1975.24 1596.2 1972.44 1609.8 1972.44C1622.47 1972.44 1632.93 1975.04 1641.2 1980.24C1649.47 1985.31 1653.6 1992.24 1653.6 2001.04L1653.4 2005.64H1626.8V2004.44C1626.8 2000.98 1625.13 1998.31 1621.8 1996.44C1618.6 1994.58 1614.27 1993.64 1608.8 1993.64C1603.33 1993.64 1599 1994.38 1595.8 1995.84C1592.6 1997.31 1591 1999.38 1591 2002.04C1591 2005.38 1592.8 2007.84 1596.4 2009.44C1600.13 2011.04 1606.07 2012.64 1614.2 2014.24C1623.13 2016.24 1630.4 2018.24 1636 2020.24C1641.6 2022.24 1646.47 2025.51 1650.6 2030.04C1654.73 2034.58 1656.8 2040.71 1656.8 2048.44C1656.8 2071.11 1640.73 2082.44 1608.6 2082.44ZM1677.53 1935.44H1704.93V1961.44H1677.53V1935.44ZM1677.53 1974.84H1704.93V2080.04H1677.53V1974.84ZM1777 2082.44C1760.2 2082.44 1747.6 2077.98 1739.2 2069.04C1730.93 2060.11 1726.8 2046.24 1726.8 2027.44C1726.8 2008.78 1730.93 1994.98 1739.2 1986.04C1747.6 1976.98 1760.2 1972.44 1777 1972.44C1791 1972.44 1802.13 1976.04 1810.4 1983.24C1818.8 1990.31 1823 2000.71 1823 2014.44H1795.4C1795.4 2008.04 1793.73 2003.11 1790.4 1999.64C1787.06 1996.18 1782.4 1994.44 1776.4 1994.44C1768.93 1994.44 1763.4 1997.11 1759.8 2002.44C1756.33 2007.64 1754.6 2015.44 1754.6 2025.84V2029.04C1754.6 2039.44 1756.4 2047.31 1760 2052.64C1763.73 2057.84 1769.66 2060.44 1777.8 2060.44C1783.53 2060.44 1788.06 2058.71 1791.4 2055.24C1794.86 2051.64 1796.6 2046.71 1796.6 2040.44H1823C1823 2054.18 1818.86 2064.64 1810.6 2071.84C1802.33 2078.91 1791.13 2082.44 1777 2082.44ZM132.009 2160.84H161.009V2272.84H235.009V2298.04H132.009V2160.84ZM254.875 2153.44H282.275V2179.44H254.875V2153.44ZM254.875 2192.84H282.275V2298.04H254.875V2192.84ZM354.339 2300.44C337.539 2300.44 324.939 2295.98 316.539 2287.04C308.272 2278.11 304.139 2264.24 304.139 2245.44C304.139 2226.78 308.272 2212.98 316.539 2204.04C324.939 2194.98 337.539 2190.44 354.339 2190.44C368.339 2190.44 379.472 2194.04 387.739 2201.24C396.139 2208.31 400.339 2218.71 400.339 2232.44H372.739C372.739 2226.04 371.072 2221.11 367.739 2217.64C364.406 2214.18 359.739 2212.44 353.739 2212.44C346.272 2212.44 340.739 2215.11 337.139 2220.44C333.672 2225.64 331.939 2233.44 331.939 2243.84V2247.04C331.939 2257.44 333.739 2265.31 337.339 2270.64C341.072 2275.84 347.006 2278.44 355.139 2278.44C360.872 2278.44 365.406 2276.71 368.739 2273.24C372.206 2269.64 373.939 2264.71 373.939 2258.44H400.339C400.339 2272.18 396.206 2282.64 387.939 2289.84C379.672 2296.91 368.472 2300.44 354.339 2300.44ZM465.272 2300.44C448.339 2300.44 435.672 2295.98 427.272 2287.04C419.005 2278.11 414.872 2264.24 414.872 2245.44C414.872 2226.64 419.005 2212.78 427.272 2203.84C435.672 2194.91 448.339 2190.44 465.272 2190.44C480.872 2190.44 492.539 2194.98 500.272 2204.04C508.005 2212.98 511.872 2226.78 511.872 2245.44V2251.84H442.672C442.939 2261.18 444.805 2268.11 448.272 2272.64C451.739 2277.04 457.539 2279.24 465.672 2279.24C471.405 2279.24 476.005 2277.64 479.472 2274.44C483.072 2271.24 484.872 2266.71 484.872 2260.84H511.872C511.872 2274.04 507.605 2283.98 499.072 2290.64C490.539 2297.18 479.272 2300.44 465.272 2300.44ZM483.472 2233.64C483.472 2219.11 477.405 2211.84 465.272 2211.84C458.339 2211.84 453.072 2213.64 449.472 2217.24C446.005 2220.84 443.872 2226.31 443.072 2233.64H483.472ZM533.005 2192.84H556.405L558.405 2206.64H559.805C568.338 2195.84 579.271 2190.44 592.605 2190.44C603.405 2190.44 611.871 2193.38 618.005 2199.24C624.271 2205.11 627.405 2214.51 627.405 2227.44V2298.04H600.005V2233.24C600.005 2226.71 598.471 2221.98 595.405 2219.04C592.338 2216.11 587.805 2214.64 581.805 2214.64C575.671 2214.64 570.538 2216.84 566.405 2221.24C562.405 2225.51 560.405 2230.84 560.405 2237.24V2298.04H533.005V2192.84ZM697.27 2300.44C682.604 2300.44 671.07 2297.44 662.67 2291.44C654.404 2285.31 650.27 2277.18 650.27 2267.04L650.47 2264.64H677.07V2266.04C677.204 2270.71 679.27 2274.11 683.27 2276.24C687.404 2278.24 692.404 2279.24 698.27 2279.24C703.737 2279.24 708.404 2278.51 712.27 2277.04C716.137 2275.58 718.07 2273.18 718.07 2269.84C718.07 2266.11 716.07 2263.31 712.07 2261.44C708.204 2259.58 702.07 2257.71 693.67 2255.84C685.004 2253.84 677.937 2251.84 672.47 2249.84C667.004 2247.71 662.27 2244.44 658.27 2240.04C654.27 2235.64 652.27 2229.78 652.27 2222.44C652.27 2212.18 656.537 2204.31 665.07 2198.84C673.737 2193.24 684.87 2190.44 698.47 2190.44C711.137 2190.44 721.604 2193.04 729.87 2198.24C738.137 2203.31 742.27 2210.24 742.27 2219.04L742.07 2223.64H715.47V2222.44C715.47 2218.98 713.804 2216.31 710.47 2214.44C707.27 2212.58 702.937 2211.64 697.47 2211.64C692.004 2211.64 687.67 2212.38 684.47 2213.84C681.27 2215.31 679.67 2217.38 679.67 2220.04C679.67 2223.38 681.47 2225.84 685.07 2227.44C688.804 2229.04 694.737 2230.64 702.87 2232.24C711.804 2234.24 719.07 2236.24 724.67 2238.24C730.27 2240.24 735.137 2243.51 739.27 2248.04C743.404 2252.58 745.47 2258.71 745.47 2266.44C745.47 2289.11 729.404 2300.44 697.27 2300.44ZM809.803 2300.44C792.87 2300.44 780.203 2295.98 771.803 2287.04C763.536 2278.11 759.403 2264.24 759.403 2245.44C759.403 2226.64 763.536 2212.78 771.803 2203.84C780.203 2194.91 792.87 2190.44 809.803 2190.44C825.403 2190.44 837.07 2194.98 844.803 2204.04C852.536 2212.98 856.403 2226.78 856.403 2245.44V2251.84H787.203C787.47 2261.18 789.336 2268.11 792.803 2272.64C796.27 2277.04 802.07 2279.24 810.203 2279.24C815.936 2279.24 820.536 2277.64 824.003 2274.44C827.603 2271.24 829.403 2266.71 829.403 2260.84H856.403C856.403 2274.04 852.136 2283.98 843.603 2290.64C835.07 2297.18 823.803 2300.44 809.803 2300.44ZM828.003 2233.64C828.003 2219.11 821.936 2211.84 809.803 2211.84C802.87 2211.84 797.603 2213.64 794.003 2217.24C790.536 2220.84 788.403 2226.31 787.603 2233.64H828.003Z" fill="#658566"/>
<path d="M184.609 2518.44C174.076 2518.44 164.409 2516.84 155.609 2513.64C146.943 2510.31 140.009 2505.44 134.809 2499.04C129.609 2492.64 127.009 2484.91 127.009 2475.84L127.209 2471.44H156.609L156.409 2474.64C156.409 2480.51 159.009 2485.18 164.209 2488.64C169.409 2492.11 176.676 2493.84 186.009 2493.84C195.876 2493.84 203.009 2492.58 207.409 2490.04C211.809 2487.38 214.009 2483.84 214.009 2479.44C214.009 2475.58 212.543 2472.38 209.609 2469.84C206.809 2467.18 203.209 2465.11 198.809 2463.64C194.543 2462.04 188.609 2460.18 181.009 2458.04C170.209 2454.98 161.476 2452.04 154.809 2449.24C148.143 2446.44 142.409 2442.31 137.609 2436.84C132.809 2431.24 130.409 2423.91 130.409 2414.84C130.409 2402.31 135.476 2392.78 145.609 2386.24C155.743 2379.71 169.209 2376.44 186.009 2376.44C201.876 2376.44 214.809 2379.84 224.809 2386.64C234.943 2393.31 240.009 2403.38 240.009 2416.84V2419.24H211.209V2417.44C211.209 2412.38 208.876 2408.38 204.209 2405.44C199.676 2402.51 193.476 2401.04 185.609 2401.04C177.209 2401.04 170.743 2402.18 166.209 2404.44C161.809 2406.71 159.609 2409.84 159.609 2413.84C159.609 2416.91 160.943 2419.58 163.609 2421.84C166.276 2423.98 169.609 2425.78 173.609 2427.24C177.609 2428.58 183.276 2430.24 190.609 2432.24C201.543 2435.18 210.476 2438.11 217.409 2441.04C224.476 2443.84 230.543 2448.04 235.609 2453.64C240.676 2459.24 243.209 2466.58 243.209 2475.64C243.209 2490.31 237.943 2501.11 227.409 2508.04C217.009 2514.98 202.743 2518.44 184.609 2518.44ZM290.408 2518.44C282.274 2518.44 274.808 2516.31 268.008 2512.04C261.208 2507.78 257.808 2500.04 257.808 2488.84C257.808 2475.38 263.341 2465.84 274.408 2460.24C285.474 2454.51 301.141 2451.64 321.408 2451.64V2444.24C321.408 2439.58 320.341 2435.98 318.208 2433.44C316.208 2430.91 312.341 2429.64 306.608 2429.64C300.474 2429.64 296.074 2430.58 293.408 2432.44C290.874 2434.31 289.608 2436.51 289.608 2439.04V2442.04H263.208C263.074 2441.24 263.008 2439.78 263.008 2437.64C263.008 2428.84 266.874 2421.78 274.608 2416.44C282.474 2411.11 292.874 2408.44 305.808 2408.44C320.208 2408.44 330.941 2411.38 338.008 2417.24C345.208 2423.11 348.808 2431.58 348.808 2442.64V2489.04C348.808 2491.44 349.474 2493.24 350.808 2494.44C352.141 2495.51 353.808 2496.04 355.808 2496.04H361.408V2515.24C357.141 2517.38 351.874 2518.44 345.608 2518.44C340.141 2518.44 335.541 2517.24 331.808 2514.84C328.208 2512.44 325.741 2509.04 324.408 2504.64H323.208C319.341 2509.18 314.874 2512.64 309.808 2515.04C304.874 2517.31 298.408 2518.44 290.408 2518.44ZM299.008 2496.84C306.741 2496.84 312.408 2494.71 316.008 2490.44C319.608 2486.04 321.408 2480.24 321.408 2473.04V2469.84C297.541 2469.84 285.608 2475.18 285.608 2485.84C285.608 2489.18 286.674 2491.84 288.808 2493.84C291.074 2495.84 294.474 2496.84 299.008 2496.84ZM377.341 2410.84H400.741L402.741 2424.64H404.141C411.874 2413.84 421.874 2408.44 434.141 2408.44C447.474 2408.44 456.674 2413.84 461.741 2424.64H463.341C471.341 2413.84 481.741 2408.44 494.541 2408.44C504.541 2408.44 512.474 2411.38 518.341 2417.24C524.341 2423.11 527.341 2432.51 527.341 2445.44V2516.04H499.941V2451.24C499.941 2438.84 494.807 2432.64 484.541 2432.64C479.207 2432.64 474.807 2434.84 471.341 2439.24C467.874 2443.51 466.141 2448.84 466.141 2455.24V2516.04H438.741V2451.24C438.741 2438.84 433.607 2432.64 423.341 2432.64C418.007 2432.64 413.541 2434.84 409.941 2439.24C406.474 2443.51 404.741 2448.84 404.741 2455.24V2516.04H377.341V2410.84ZM555.075 2410.84H578.475L580.275 2424.64H581.675C585.008 2419.31 589.475 2415.31 595.075 2412.64C600.675 2409.84 606.875 2408.44 613.675 2408.44C627.008 2408.44 637.342 2413.04 644.675 2422.24C652.008 2431.31 655.675 2445.11 655.675 2463.64C655.675 2481.78 651.942 2495.44 644.475 2504.64C637.142 2513.84 627.342 2518.44 615.075 2518.44C608.008 2518.44 601.742 2517.18 596.275 2514.64C590.942 2512.11 586.742 2508.51 583.675 2503.84H582.475V2550.64H555.075V2410.84ZM604.875 2494.64C613.008 2494.64 618.808 2492.24 622.275 2487.44C625.742 2482.51 627.475 2475.11 627.475 2465.24V2461.64C627.475 2451.78 625.742 2444.44 622.275 2439.64C618.808 2434.71 613.008 2432.24 604.875 2432.24C589.942 2432.24 582.475 2442.04 582.475 2461.64V2464.84C582.475 2484.71 589.942 2494.64 604.875 2494.64ZM677.341 2371.44H704.741V2516.04H677.341V2371.44ZM776.405 2518.44C759.471 2518.44 746.805 2513.98 738.405 2505.04C730.138 2496.11 726.005 2482.24 726.005 2463.44C726.005 2444.64 730.138 2430.78 738.405 2421.84C746.805 2412.91 759.471 2408.44 776.405 2408.44C792.005 2408.44 803.671 2412.98 811.405 2422.04C819.138 2430.98 823.005 2444.78 823.005 2463.44V2469.84H753.805C754.071 2479.18 755.938 2486.11 759.405 2490.64C762.871 2495.04 768.671 2497.24 776.805 2497.24C782.538 2497.24 787.138 2495.64 790.605 2492.44C794.205 2489.24 796.005 2484.71 796.005 2478.84H823.005C823.005 2492.04 818.738 2501.98 810.205 2508.64C801.671 2515.18 790.405 2518.44 776.405 2518.44ZM794.605 2451.64C794.605 2437.11 788.538 2429.84 776.405 2429.84C769.471 2429.84 764.205 2431.64 760.605 2435.24C757.138 2438.84 755.005 2444.31 754.205 2451.64H794.605ZM899.002 2378.84H944.202L963.402 2454.44C964.868 2460.18 967.002 2470.51 969.802 2485.44H970.802C973.202 2469.84 975.068 2459.51 976.402 2454.44L995.602 2378.84H1038.8V2516.04H1009.8V2428.64C1009.8 2424.78 1010.2 2417.44 1011 2406.64H1010L1005.8 2422.84L982.202 2516.04H954.602L931.002 2422.84L926.802 2406.64H925.802C926.602 2417.84 927.002 2425.18 927.002 2428.64V2516.04H899.002V2378.84ZM1090.6 2518.44C1082.47 2518.44 1075 2516.31 1068.2 2512.04C1061.4 2507.78 1058 2500.04 1058 2488.84C1058 2475.38 1063.54 2465.84 1074.6 2460.24C1085.67 2454.51 1101.34 2451.64 1121.6 2451.64V2444.24C1121.6 2439.58 1120.54 2435.98 1118.4 2433.44C1116.4 2430.91 1112.54 2429.64 1106.8 2429.64C1100.67 2429.64 1096.27 2430.58 1093.6 2432.44C1091.07 2434.31 1089.8 2436.51 1089.8 2439.04V2442.04H1063.4C1063.27 2441.24 1063.2 2439.78 1063.2 2437.64C1063.2 2428.84 1067.07 2421.78 1074.8 2416.44C1082.67 2411.11 1093.07 2408.44 1106 2408.44C1120.4 2408.44 1131.14 2411.38 1138.2 2417.24C1145.4 2423.11 1149 2431.58 1149 2442.64V2489.04C1149 2491.44 1149.67 2493.24 1151 2494.44C1152.34 2495.51 1154 2496.04 1156 2496.04H1161.6V2515.24C1157.34 2517.38 1152.07 2518.44 1145.8 2518.44C1140.34 2518.44 1135.74 2517.24 1132 2514.84C1128.4 2512.44 1125.94 2509.04 1124.6 2504.64H1123.4C1119.54 2509.18 1115.07 2512.64 1110 2515.04C1105.07 2517.31 1098.6 2518.44 1090.6 2518.44ZM1099.2 2496.84C1106.94 2496.84 1112.6 2494.71 1116.2 2490.44C1119.8 2486.04 1121.6 2480.24 1121.6 2473.04V2469.84C1097.74 2469.84 1085.8 2475.18 1085.8 2485.84C1085.8 2489.18 1086.87 2491.84 1089 2493.84C1091.27 2495.84 1094.67 2496.84 1099.2 2496.84ZM1177.54 2410.84H1200.94L1203.14 2427.84H1204.54C1206.8 2421.84 1209.74 2417.11 1213.34 2413.64C1216.94 2410.18 1221.67 2408.44 1227.54 2408.44C1231.4 2408.44 1234.87 2409.04 1237.94 2410.24V2435.84H1230.34C1221.4 2435.84 1214.94 2438.31 1210.94 2443.24C1206.94 2448.04 1204.94 2455.38 1204.94 2465.24V2516.04H1177.54V2410.84ZM1255.27 2371.44H1282.67V2452.64L1317.47 2410.84H1349.07L1314.27 2451.24L1351.07 2516.04H1319.67L1296.67 2471.44L1282.67 2485.04V2516.04H1255.27V2371.44ZM1409.8 2518.44C1392.87 2518.44 1380.2 2513.98 1371.8 2505.04C1363.54 2496.11 1359.4 2482.24 1359.4 2463.44C1359.4 2444.64 1363.54 2430.78 1371.8 2421.84C1380.2 2412.91 1392.87 2408.44 1409.8 2408.44C1425.4 2408.44 1437.07 2412.98 1444.8 2422.04C1452.54 2430.98 1456.4 2444.78 1456.4 2463.44V2469.84H1387.2C1387.47 2479.18 1389.34 2486.11 1392.8 2490.64C1396.27 2495.04 1402.07 2497.24 1410.2 2497.24C1415.94 2497.24 1420.54 2495.64 1424 2492.44C1427.6 2489.24 1429.4 2484.71 1429.4 2478.84H1456.4C1456.4 2492.04 1452.14 2501.98 1443.6 2508.64C1435.07 2515.18 1423.8 2518.44 1409.8 2518.44ZM1428 2451.64C1428 2437.11 1421.94 2429.84 1409.8 2429.84C1402.87 2429.84 1397.6 2431.64 1394 2435.24C1390.54 2438.84 1388.4 2444.31 1387.6 2451.64H1428ZM1505.74 2518.44C1495.87 2518.44 1488.8 2515.78 1484.54 2510.44C1480.27 2505.11 1478.14 2498.38 1478.14 2490.24V2433.24H1465.54V2410.84H1478.74L1483.34 2381.24H1505.54V2410.84H1523.74V2433.24H1505.54V2487.44C1505.54 2493.18 1508.4 2496.04 1514.14 2496.04H1523.74V2515.24C1521.47 2516.04 1518.6 2516.78 1515.14 2517.44C1511.8 2518.11 1508.67 2518.44 1505.74 2518.44Z" fill="#D69090"/>
</svg>
