<svg width="2677" height="1416" viewBox="0 0 2677 1416" fill="none" xmlns="http://www.w3.org/2000/svg">
<g clip-path="url(#clip0)">
<rect width="2677" height="1416" fill="#FAFAFA"/>
<path d="M1076.35 640.568L1076.35 625.568L1076.35 625.568L1076.35 640.568ZM2514.61 651.174C2520.46 645.316 2520.46 635.819 2514.61 629.961L2419.15 534.502C2413.29 528.644 2403.79 528.644 2397.93 534.502C2392.08 540.359 2392.08 549.857 2397.93 555.715L2482.79 640.568L2397.93 725.42C2392.08 731.278 2392.08 740.776 2397.93 746.634C2403.79 752.491 2413.29 752.491 2419.15 746.634L2514.61 651.174ZM88 655.568L1076.35 655.568L1076.35 625.568L88 625.568L88 655.568ZM1076.35 655.568L2504 655.568L2504 625.568L1076.35 625.568L1076.35 655.568Z" fill="#6A6C74"/>
<path d="M96.04 797.176H130.12C142.68 797.176 152.36 800.616 159.16 807.496C166.04 814.296 169.48 824.576 169.48 838.336C169.48 852.096 166.04 862.416 159.16 869.296C152.36 876.096 142.68 879.496 130.12 879.496H96.04V797.176ZM130.12 864.736C137.16 864.736 142.48 862.616 146.08 858.376C149.76 854.056 151.6 847.976 151.6 840.136V836.536C151.6 828.696 149.76 822.656 146.08 818.416C142.48 814.096 137.16 811.936 130.12 811.936H113.44V864.736H130.12ZM211.202 880.936C200.402 880.936 192.362 878.256 187.082 872.896C181.802 867.536 179.162 859.216 179.162 847.936C179.162 836.656 181.802 828.336 187.082 822.976C192.362 817.616 200.402 814.936 211.202 814.936C222.002 814.936 230.042 817.616 235.322 822.976C240.682 828.336 243.362 836.656 243.362 847.936C243.362 859.216 240.682 867.536 235.322 872.896C230.042 878.256 222.002 880.936 211.202 880.936ZM211.202 867.496C216.562 867.496 220.442 865.976 222.842 862.936C225.242 859.816 226.442 855.136 226.442 848.896V846.976C226.442 840.736 225.242 836.096 222.842 833.056C220.442 829.936 216.562 828.376 211.202 828.376C205.842 828.376 201.962 829.936 199.562 833.056C197.242 836.096 196.082 840.736 196.082 846.976V848.896C196.082 855.136 197.242 859.816 199.562 862.936C201.962 865.976 205.842 867.496 211.202 867.496ZM248.441 816.376H265.361L272.201 842.296C272.921 845.096 274.161 851.136 275.921 860.416H276.401C278.161 851.856 279.441 845.856 280.241 842.416L286.721 816.376H303.641L310.481 842.536C311.441 846.216 312.761 852.176 314.441 860.416H314.921C316.441 852.736 317.721 846.776 318.761 842.536L325.241 816.376H340.841L322.121 879.496H305.081L297.881 849.376C297.001 845.536 296.041 840.896 295.001 835.456H294.401C293.681 840.816 292.841 845.416 291.881 849.256L284.321 879.496H267.281L248.441 816.376ZM349.879 816.376H363.919L365.119 824.656H365.959C371.079 818.176 377.639 814.936 385.639 814.936C392.119 814.936 397.199 816.696 400.879 820.216C404.639 823.736 406.519 829.376 406.519 837.136V879.496H390.079V840.616C390.079 836.696 389.159 833.856 387.319 832.096C385.479 830.336 382.759 829.456 379.159 829.456C375.479 829.456 372.399 830.776 369.919 833.416C367.519 835.976 366.319 839.176 366.319 843.016V879.496H349.879V816.376ZM423.239 792.736H439.679V879.496H423.239V792.736ZM484.717 880.936C473.917 880.936 465.877 878.256 460.597 872.896C455.317 867.536 452.677 859.216 452.677 847.936C452.677 836.656 455.317 828.336 460.597 822.976C465.877 817.616 473.917 814.936 484.717 814.936C495.517 814.936 503.557 817.616 508.837 822.976C514.197 828.336 516.877 836.656 516.877 847.936C516.877 859.216 514.197 867.536 508.837 872.896C503.557 878.256 495.517 880.936 484.717 880.936ZM484.717 867.496C490.077 867.496 493.957 865.976 496.357 862.936C498.757 859.816 499.957 855.136 499.957 848.896V846.976C499.957 840.736 498.757 836.096 496.357 833.056C493.957 829.936 490.077 828.376 484.717 828.376C479.357 828.376 475.477 829.936 473.077 833.056C470.757 836.096 469.597 840.736 469.597 846.976V848.896C469.597 855.136 470.757 859.816 473.077 862.936C475.477 865.976 479.357 867.496 484.717 867.496ZM544.517 880.936C539.637 880.936 535.157 879.656 531.077 877.096C526.997 874.536 524.957 869.896 524.957 863.176C524.957 855.096 528.277 849.376 534.917 846.016C541.557 842.576 550.957 840.856 563.117 840.856V836.416C563.117 833.616 562.477 831.456 561.197 829.936C559.997 828.416 557.677 827.656 554.237 827.656C550.557 827.656 547.917 828.216 546.317 829.336C544.797 830.456 544.037 831.776 544.037 833.296V835.096H528.197C528.117 834.616 528.077 833.736 528.077 832.456C528.077 827.176 530.397 822.936 535.037 819.736C539.757 816.536 545.997 814.936 553.757 814.936C562.397 814.936 568.837 816.696 573.077 820.216C577.397 823.736 579.557 828.816 579.557 835.456V863.296C579.557 864.736 579.957 865.816 580.757 866.536C581.557 867.176 582.557 867.496 583.757 867.496H587.117V879.016C584.557 880.296 581.397 880.936 577.637 880.936C574.357 880.936 571.597 880.216 569.357 878.776C567.197 877.336 565.717 875.296 564.917 872.656H564.197C561.877 875.376 559.197 877.456 556.157 878.896C553.197 880.256 549.317 880.936 544.517 880.936ZM549.677 867.976C554.317 867.976 557.717 866.696 559.877 864.136C562.037 861.496 563.117 858.016 563.117 853.696V851.776C548.797 851.776 541.637 854.976 541.637 861.376C541.637 863.376 542.277 864.976 543.557 866.176C544.917 867.376 546.957 867.976 549.677 867.976ZM617.796 880.936C609.796 880.936 603.596 878.216 599.196 872.776C594.796 867.256 592.596 858.936 592.596 847.816C592.596 836.936 594.796 828.736 599.196 823.216C603.676 817.696 609.596 814.936 616.956 814.936C621.196 814.936 624.916 815.696 628.116 817.216C631.396 818.736 633.956 820.896 635.796 823.696H636.516V792.736H652.956V879.496H638.916L637.836 871.216H636.996C634.996 874.416 632.316 876.856 628.956 878.536C625.596 880.136 621.876 880.936 617.796 880.936ZM623.076 866.656C632.036 866.656 636.516 860.776 636.516 849.016V847.096C636.516 835.176 632.036 829.216 623.076 829.216C618.196 829.216 614.716 830.696 612.636 833.656C610.556 836.536 609.516 840.936 609.516 846.856V849.016C609.516 854.936 610.556 859.376 612.636 862.336C614.716 865.216 618.196 866.656 623.076 866.656ZM96.4 923.736H112.84V939.336H96.4V923.736ZM96.4 947.376H112.84V1010.5H96.4V947.376ZM129.918 947.376H143.958L145.158 955.656H145.998C151.118 949.176 157.678 945.936 165.678 945.936C172.158 945.936 177.238 947.696 180.918 951.216C184.678 954.736 186.558 960.376 186.558 968.136V1010.5H170.118V971.616C170.118 967.696 169.198 964.856 167.358 963.096C165.518 961.336 162.798 960.456 159.198 960.456C155.518 960.456 152.438 961.776 149.958 964.416C147.558 966.976 146.358 970.176 146.358 974.016V1010.5H129.918V947.376ZM1083.35 994.056H1099.91V1010.5H1083.35V994.056Z" fill="#6A6C74"/>
<path d="M702.954 797.176H750.114C754.434 797.176 758.354 798.056 761.874 799.816C765.394 801.496 768.154 803.896 770.154 807.016C772.154 810.056 773.154 813.576 773.154 817.576C773.154 822.136 771.874 826.096 769.314 829.456C766.834 832.736 763.634 835.016 759.714 836.296V836.776C764.354 837.656 768.114 839.936 770.994 843.616C773.954 847.216 775.434 851.496 775.434 856.456C775.434 863.896 773.034 869.616 768.234 873.616C763.514 877.536 757.474 879.496 750.114 879.496H702.954V797.176ZM745.194 830.056C748.394 830.056 750.874 829.256 752.634 827.656C754.394 825.976 755.274 823.856 755.274 821.296C755.274 818.256 754.434 815.936 752.754 814.336C751.154 812.736 748.914 811.936 746.034 811.936H720.474V830.056H745.194ZM747.234 864.736C750.274 864.736 752.754 863.856 754.674 862.096C756.594 860.336 757.554 857.816 757.554 854.536C757.554 851.576 756.594 849.176 754.674 847.336C752.754 845.496 749.954 844.576 746.274 844.576H720.474V864.736H747.234ZM804.556 880.936C799.676 880.936 795.196 879.656 791.116 877.096C787.036 874.536 784.996 869.896 784.996 863.176C784.996 855.096 788.316 849.376 794.956 846.016C801.596 842.576 810.996 840.856 823.156 840.856V836.416C823.156 833.616 822.516 831.456 821.236 829.936C820.036 828.416 817.716 827.656 814.276 827.656C810.596 827.656 807.956 828.216 806.356 829.336C804.836 830.456 804.076 831.776 804.076 833.296V835.096H788.236C788.156 834.616 788.116 833.736 788.116 832.456C788.116 827.176 790.436 822.936 795.076 819.736C799.796 816.536 806.036 814.936 813.796 814.936C822.436 814.936 828.876 816.696 833.116 820.216C837.436 823.736 839.596 828.816 839.596 835.456V863.296C839.596 864.736 839.996 865.816 840.796 866.536C841.596 867.176 842.596 867.496 843.796 867.496H847.156V879.016C844.596 880.296 841.436 880.936 837.676 880.936C834.396 880.936 831.636 880.216 829.396 878.776C827.236 877.336 825.756 875.296 824.956 872.656H824.236C821.916 875.376 819.236 877.456 816.196 878.896C813.236 880.256 809.356 880.936 804.556 880.936ZM809.716 867.976C814.356 867.976 817.756 866.696 819.916 864.136C822.076 861.496 823.156 858.016 823.156 853.696V851.776C808.836 851.776 801.676 854.976 801.676 861.376C801.676 863.376 802.316 864.976 803.596 866.176C804.956 867.376 806.996 867.976 809.716 867.976ZM881.915 880.936C873.115 880.936 866.195 879.136 861.155 875.536C856.195 871.856 853.715 866.976 853.715 860.896L853.835 859.456H869.795V860.296C869.875 863.096 871.115 865.136 873.515 866.416C875.995 867.616 878.995 868.216 882.515 868.216C885.795 868.216 888.595 867.776 890.915 866.896C893.235 866.016 894.395 864.576 894.395 862.576C894.395 860.336 893.195 858.656 890.795 857.536C888.475 856.416 884.795 855.296 879.755 854.176C874.555 852.976 870.315 851.776 867.035 850.576C863.755 849.296 860.915 847.336 858.515 844.696C856.115 842.056 854.915 838.536 854.915 834.136C854.915 827.976 857.475 823.256 862.595 819.976C867.795 816.616 874.475 814.936 882.635 814.936C890.235 814.936 896.515 816.496 901.475 819.616C906.435 822.656 908.915 826.816 908.915 832.096L908.795 834.856H892.835V834.136C892.835 832.056 891.835 830.456 889.835 829.336C887.915 828.216 885.315 827.656 882.035 827.656C878.755 827.656 876.155 828.096 874.235 828.976C872.315 829.856 871.355 831.096 871.355 832.696C871.355 834.696 872.435 836.176 874.595 837.136C876.835 838.096 880.395 839.056 885.275 840.016C890.635 841.216 894.995 842.416 898.355 843.616C901.715 844.816 904.635 846.776 907.115 849.496C909.595 852.216 910.835 855.896 910.835 860.536C910.835 874.136 901.195 880.936 881.915 880.936ZM923.275 792.736H939.715V808.336H923.275V792.736ZM923.275 816.376H939.715V879.496H923.275V816.376ZM982.953 880.936C972.873 880.936 965.313 878.256 960.273 872.896C955.313 867.536 952.833 859.216 952.833 847.936C952.833 836.736 955.313 828.456 960.273 823.096C965.313 817.656 972.873 814.936 982.953 814.936C991.353 814.936 998.033 817.096 1002.99 821.416C1008.03 825.656 1010.55 831.896 1010.55 840.136H993.993C993.993 836.296 992.993 833.336 990.993 831.256C988.993 829.176 986.193 828.136 982.593 828.136C978.113 828.136 974.793 829.736 972.633 832.936C970.553 836.056 969.513 840.736 969.513 846.976V848.896C969.513 855.136 970.593 859.856 972.753 863.056C974.993 866.176 978.553 867.736 983.433 867.736C986.873 867.736 989.593 866.696 991.593 864.616C993.673 862.456 994.713 859.496 994.713 855.736H1010.55C1010.55 863.976 1008.07 870.256 1003.11 874.576C998.153 878.816 991.433 880.936 982.953 880.936ZM1056.39 797.176H1073.79V864.376H1118.19V879.496H1056.39V797.176ZM1130.11 792.736H1146.55V808.336H1130.11V792.736ZM1130.11 816.376H1146.55V879.496H1130.11V816.376ZM1189.79 880.936C1179.71 880.936 1172.15 878.256 1167.11 872.896C1162.15 867.536 1159.67 859.216 1159.67 847.936C1159.67 836.736 1162.15 828.456 1167.11 823.096C1172.15 817.656 1179.71 814.936 1189.79 814.936C1198.19 814.936 1204.87 817.096 1209.83 821.416C1214.87 825.656 1217.39 831.896 1217.39 840.136H1200.83C1200.83 836.296 1199.83 833.336 1197.83 831.256C1195.83 829.176 1193.03 828.136 1189.43 828.136C1184.95 828.136 1181.63 829.736 1179.47 832.936C1177.39 836.056 1176.35 840.736 1176.35 846.976V848.896C1176.35 855.136 1177.43 859.856 1179.59 863.056C1181.83 866.176 1185.39 867.736 1190.27 867.736C1193.71 867.736 1196.43 866.696 1198.43 864.616C1200.51 862.456 1201.55 859.496 1201.55 855.736H1217.39C1217.39 863.976 1214.91 870.256 1209.95 874.576C1204.99 878.816 1198.27 880.936 1189.79 880.936ZM1256.35 880.936C1246.19 880.936 1238.59 878.256 1233.55 872.896C1228.59 867.536 1226.11 859.216 1226.11 847.936C1226.11 836.656 1228.59 828.336 1233.55 822.976C1238.59 817.616 1246.19 814.936 1256.35 814.936C1265.71 814.936 1272.71 817.656 1277.35 823.096C1281.99 828.456 1284.31 836.736 1284.31 847.936V851.776H1242.79C1242.95 857.376 1244.07 861.536 1246.15 864.256C1248.23 866.896 1251.71 868.216 1256.59 868.216C1260.03 868.216 1262.79 867.256 1264.87 865.336C1267.03 863.416 1268.11 860.696 1268.11 857.176H1284.31C1284.31 865.096 1281.75 871.056 1276.63 875.056C1271.51 878.976 1264.75 880.936 1256.35 880.936ZM1267.27 840.856C1267.27 832.136 1263.63 827.776 1256.35 827.776C1252.19 827.776 1249.03 828.856 1246.87 831.016C1244.79 833.176 1243.51 836.456 1243.03 840.856H1267.27ZM1296.99 816.376H1311.03L1312.23 824.656H1313.07C1318.19 818.176 1324.75 814.936 1332.75 814.936C1339.23 814.936 1344.31 816.696 1347.99 820.216C1351.75 823.736 1353.63 829.376 1353.63 837.136V879.496H1337.19V840.616C1337.19 836.696 1336.27 833.856 1334.43 832.096C1332.59 830.336 1329.87 829.456 1326.27 829.456C1322.59 829.456 1319.51 830.776 1317.03 833.416C1314.63 835.976 1313.43 839.176 1313.43 843.016V879.496H1296.99V816.376ZM1395.55 880.936C1386.75 880.936 1379.83 879.136 1374.79 875.536C1369.83 871.856 1367.35 866.976 1367.35 860.896L1367.47 859.456H1383.43V860.296C1383.51 863.096 1384.75 865.136 1387.15 866.416C1389.63 867.616 1392.63 868.216 1396.15 868.216C1399.43 868.216 1402.23 867.776 1404.55 866.896C1406.87 866.016 1408.03 864.576 1408.03 862.576C1408.03 860.336 1406.83 858.656 1404.43 857.536C1402.11 856.416 1398.43 855.296 1393.39 854.176C1388.19 852.976 1383.95 851.776 1380.67 850.576C1377.39 849.296 1374.55 847.336 1372.15 844.696C1369.75 842.056 1368.55 838.536 1368.55 834.136C1368.55 827.976 1371.11 823.256 1376.23 819.976C1381.43 816.616 1388.11 814.936 1396.27 814.936C1403.87 814.936 1410.15 816.496 1415.11 819.616C1420.07 822.656 1422.55 826.816 1422.55 832.096L1422.43 834.856H1406.47V834.136C1406.47 832.056 1405.47 830.456 1403.47 829.336C1401.55 828.216 1398.95 827.656 1395.67 827.656C1392.39 827.656 1389.79 828.096 1387.87 828.976C1385.95 829.856 1384.99 831.096 1384.99 832.696C1384.99 834.696 1386.07 836.176 1388.23 837.136C1390.47 838.096 1394.03 839.056 1398.91 840.016C1404.27 841.216 1408.63 842.416 1411.99 843.616C1415.35 844.816 1418.27 846.776 1420.75 849.496C1423.23 852.216 1424.47 855.896 1424.47 860.536C1424.47 874.136 1414.83 880.936 1395.55 880.936ZM1463.07 880.936C1452.91 880.936 1445.31 878.256 1440.27 872.896C1435.31 867.536 1432.83 859.216 1432.83 847.936C1432.83 836.656 1435.31 828.336 1440.27 822.976C1445.31 817.616 1452.91 814.936 1463.07 814.936C1472.43 814.936 1479.43 817.656 1484.07 823.096C1488.71 828.456 1491.03 836.736 1491.03 847.936V851.776H1449.51C1449.67 857.376 1450.79 861.536 1452.87 864.256C1454.95 866.896 1458.43 868.216 1463.31 868.216C1466.75 868.216 1469.51 867.256 1471.59 865.336C1473.75 863.416 1474.83 860.696 1474.83 857.176H1491.03C1491.03 865.096 1488.47 871.056 1483.35 875.056C1478.23 878.976 1471.47 880.936 1463.07 880.936ZM1473.99 840.856C1473.99 832.136 1470.35 827.776 1463.07 827.776C1458.91 827.776 1455.75 828.856 1453.59 831.016C1451.51 833.176 1450.23 836.456 1449.75 840.856H1473.99ZM1528.91 880.936C1520.11 880.936 1513.19 879.136 1508.15 875.536C1503.19 871.856 1500.71 866.976 1500.71 860.896L1500.83 859.456H1516.79V860.296C1516.87 863.096 1518.11 865.136 1520.51 866.416C1522.99 867.616 1525.99 868.216 1529.51 868.216C1532.79 868.216 1535.59 867.776 1537.91 866.896C1540.23 866.016 1541.39 864.576 1541.39 862.576C1541.39 860.336 1540.19 858.656 1537.79 857.536C1535.47 856.416 1531.79 855.296 1526.75 854.176C1521.55 852.976 1517.31 851.776 1514.03 850.576C1510.75 849.296 1507.91 847.336 1505.51 844.696C1503.11 842.056 1501.91 838.536 1501.91 834.136C1501.91 827.976 1504.47 823.256 1509.59 819.976C1514.79 816.616 1521.47 814.936 1529.63 814.936C1537.23 814.936 1543.51 816.496 1548.47 819.616C1553.43 822.656 1555.91 826.816 1555.91 832.096L1555.79 834.856H1539.83V834.136C1539.83 832.056 1538.83 830.456 1536.83 829.336C1534.91 828.216 1532.31 827.656 1529.03 827.656C1525.75 827.656 1523.15 828.096 1521.23 828.976C1519.31 829.856 1518.35 831.096 1518.35 832.696C1518.35 834.696 1519.43 836.176 1521.59 837.136C1523.83 838.096 1527.39 839.056 1532.27 840.016C1537.63 841.216 1541.99 842.416 1545.35 843.616C1548.71 844.816 1551.63 846.776 1554.11 849.496C1556.59 852.216 1557.83 855.896 1557.83 860.536C1557.83 874.136 1548.19 880.936 1528.91 880.936Z" fill="#658566"/>
<path d="M267.756 1011.94C261.436 1011.94 255.636 1010.98 250.356 1009.06C245.156 1007.06 240.996 1004.14 237.876 1000.3C234.756 996.456 233.196 991.816 233.196 986.376L233.316 983.736H250.956L250.836 985.656C250.836 989.176 252.396 991.976 255.516 994.056C258.636 996.136 262.996 997.176 268.596 997.176C274.516 997.176 278.796 996.416 281.436 994.896C284.076 993.296 285.396 991.176 285.396 988.536C285.396 986.216 284.516 984.296 282.756 982.776C281.076 981.176 278.916 979.936 276.276 979.056C273.716 978.096 270.156 976.976 265.596 975.696C259.116 973.856 253.876 972.096 249.876 970.416C245.876 968.736 242.436 966.256 239.556 962.976C236.676 959.616 235.236 955.216 235.236 949.776C235.236 942.256 238.276 936.536 244.356 932.616C250.436 928.696 258.516 926.736 268.596 926.736C278.116 926.736 285.876 928.776 291.876 932.856C297.956 936.856 300.996 942.896 300.996 950.976V952.416H283.716V951.336C283.716 948.296 282.316 945.896 279.516 944.136C276.796 942.376 273.076 941.496 268.356 941.496C263.316 941.496 259.436 942.176 256.716 943.536C254.076 944.896 252.756 946.776 252.756 949.176C252.756 951.016 253.556 952.616 255.156 953.976C256.756 955.256 258.756 956.336 261.156 957.216C263.556 958.016 266.956 959.016 271.356 960.216C277.916 961.976 283.276 963.736 287.436 965.496C291.676 967.176 295.316 969.696 298.356 973.056C301.396 976.416 302.916 980.816 302.916 986.256C302.916 995.056 299.756 1001.54 293.436 1005.7C287.196 1009.86 278.636 1011.94 267.756 1011.94ZM331.235 1011.94C326.355 1011.94 321.875 1010.66 317.795 1008.1C313.715 1005.54 311.675 1000.9 311.675 994.176C311.675 986.096 314.995 980.376 321.635 977.016C328.275 973.576 337.675 971.856 349.835 971.856V967.416C349.835 964.616 349.195 962.456 347.915 960.936C346.715 959.416 344.395 958.656 340.955 958.656C337.275 958.656 334.635 959.216 333.035 960.336C331.515 961.456 330.755 962.776 330.755 964.296V966.096H314.915C314.835 965.616 314.795 964.736 314.795 963.456C314.795 958.176 317.115 953.936 321.755 950.736C326.475 947.536 332.715 945.936 340.475 945.936C349.115 945.936 355.555 947.696 359.795 951.216C364.115 954.736 366.275 959.816 366.275 966.456V994.296C366.275 995.736 366.675 996.816 367.475 997.536C368.275 998.176 369.275 998.496 370.475 998.496H373.835V1010.02C371.275 1011.3 368.115 1011.94 364.355 1011.94C361.075 1011.94 358.315 1011.22 356.075 1009.78C353.915 1008.34 352.435 1006.3 351.635 1003.66H350.915C348.595 1006.38 345.915 1008.46 342.875 1009.9C339.915 1011.26 336.035 1011.94 331.235 1011.94ZM336.395 998.976C341.035 998.976 344.435 997.696 346.595 995.136C348.755 992.496 349.835 989.016 349.835 984.696V982.776C335.515 982.776 328.355 985.976 328.355 992.376C328.355 994.376 328.995 995.976 330.275 997.176C331.635 998.376 333.675 998.976 336.395 998.976ZM383.395 947.376H397.435L398.635 955.656H399.475C404.115 949.176 410.115 945.936 417.475 945.936C425.475 945.936 430.995 949.176 434.035 955.656H434.995C439.795 949.176 446.035 945.936 453.715 945.936C459.715 945.936 464.475 947.696 467.995 951.216C471.595 954.736 473.395 960.376 473.395 968.136V1010.5H456.955V971.616C456.955 964.176 453.875 960.456 447.715 960.456C444.515 960.456 441.875 961.776 439.795 964.416C437.715 966.976 436.675 970.176 436.675 974.016V1010.5H420.235V971.616C420.235 964.176 417.155 960.456 410.995 960.456C407.795 960.456 405.115 961.776 402.955 964.416C400.875 966.976 399.835 970.176 399.835 974.016V1010.5H383.395V947.376ZM490.036 947.376H504.076L505.156 955.656H505.996C507.996 952.456 510.676 950.056 514.036 948.456C517.396 946.776 521.116 945.936 525.196 945.936C533.196 945.936 539.396 948.696 543.796 954.216C548.196 959.656 550.396 967.936 550.396 979.056C550.396 989.936 548.156 998.136 543.676 1003.66C539.276 1009.18 533.396 1011.94 526.036 1011.94C521.796 1011.94 518.036 1011.18 514.756 1009.66C511.556 1008.14 509.036 1005.98 507.196 1003.18H506.476V1031.26H490.036V947.376ZM519.916 997.656C524.796 997.656 528.276 996.216 530.356 993.336C532.436 990.376 533.476 985.936 533.476 980.016V977.856C533.476 971.936 532.436 967.536 530.356 964.656C528.276 961.696 524.796 960.216 519.916 960.216C510.956 960.216 506.476 966.096 506.476 977.856V979.776C506.476 991.696 510.956 997.656 519.916 997.656ZM563.395 923.736H579.835V1010.5H563.395V923.736ZM622.833 1011.94C612.673 1011.94 605.073 1009.26 600.033 1003.9C595.073 998.536 592.593 990.216 592.593 978.936C592.593 967.656 595.073 959.336 600.033 953.976C605.073 948.616 612.673 945.936 622.833 945.936C632.193 945.936 639.193 948.656 643.833 954.096C648.473 959.456 650.793 967.736 650.793 978.936V982.776H609.273C609.433 988.376 610.553 992.536 612.633 995.256C614.713 997.896 618.193 999.216 623.073 999.216C626.513 999.216 629.273 998.256 631.353 996.336C633.513 994.416 634.593 991.696 634.593 988.176H650.793C650.793 996.096 648.233 1002.06 643.113 1006.06C637.993 1009.98 631.233 1011.94 622.833 1011.94ZM633.753 971.856C633.753 963.136 630.113 958.776 622.833 958.776C618.673 958.776 615.513 959.856 613.353 962.016C611.273 964.176 609.993 967.456 609.513 971.856H633.753ZM696.392 928.176H723.512L735.032 973.536C735.912 976.976 737.192 983.176 738.872 992.136H739.472C740.912 982.776 742.032 976.576 742.832 973.536L754.352 928.176H780.272V1010.5H762.872V958.056C762.872 955.736 763.112 951.336 763.592 944.856H762.992L760.472 954.576L746.312 1010.5H729.752L715.592 954.576L713.072 944.856H712.472C712.952 951.576 713.192 955.976 713.192 958.056V1010.5H696.392V928.176ZM811.353 1011.94C806.473 1011.94 801.993 1010.66 797.913 1008.1C793.833 1005.54 791.793 1000.9 791.793 994.176C791.793 986.096 795.113 980.376 801.753 977.016C808.393 973.576 817.793 971.856 829.953 971.856V967.416C829.953 964.616 829.313 962.456 828.033 960.936C826.833 959.416 824.513 958.656 821.073 958.656C817.393 958.656 814.753 959.216 813.153 960.336C811.633 961.456 810.873 962.776 810.873 964.296V966.096H795.033C794.953 965.616 794.913 964.736 794.913 963.456C794.913 958.176 797.233 953.936 801.873 950.736C806.593 947.536 812.833 945.936 820.593 945.936C829.233 945.936 835.673 947.696 839.913 951.216C844.233 954.736 846.393 959.816 846.393 966.456V994.296C846.393 995.736 846.793 996.816 847.593 997.536C848.393 998.176 849.393 998.496 850.593 998.496H853.953V1010.02C851.393 1011.3 848.233 1011.94 844.473 1011.94C841.193 1011.94 838.433 1011.22 836.193 1009.78C834.033 1008.34 832.553 1006.3 831.753 1003.66H831.033C828.713 1006.38 826.033 1008.46 822.993 1009.9C820.033 1011.26 816.153 1011.94 811.353 1011.94ZM816.513 998.976C821.153 998.976 824.553 997.696 826.713 995.136C828.873 992.496 829.953 989.016 829.953 984.696V982.776C815.633 982.776 808.473 985.976 808.473 992.376C808.473 994.376 809.113 995.976 810.393 997.176C811.753 998.376 813.793 998.976 816.513 998.976ZM863.512 947.376H877.552L878.872 957.576H879.712C881.072 953.976 882.832 951.136 884.992 949.056C887.152 946.976 889.992 945.936 893.512 945.936C895.832 945.936 897.912 946.296 899.752 947.016V962.376H895.192C889.832 962.376 885.952 963.856 883.552 966.816C881.152 969.696 879.952 974.096 879.952 980.016V1010.5H863.512V947.376ZM910.153 923.736H926.593V972.456L947.473 947.376H966.433L945.553 971.616L967.633 1010.5H948.793L934.993 983.736L926.593 991.896V1010.5H910.153V923.736ZM1002.87 1011.94C992.713 1011.94 985.113 1009.26 980.073 1003.9C975.113 998.536 972.633 990.216 972.633 978.936C972.633 967.656 975.113 959.336 980.073 953.976C985.113 948.616 992.713 945.936 1002.87 945.936C1012.23 945.936 1019.23 948.656 1023.87 954.096C1028.51 959.456 1030.83 967.736 1030.83 978.936V982.776H989.313C989.473 988.376 990.593 992.536 992.673 995.256C994.753 997.896 998.233 999.216 1003.11 999.216C1006.55 999.216 1009.31 998.256 1011.39 996.336C1013.55 994.416 1014.63 991.696 1014.63 988.176H1030.83C1030.83 996.096 1028.27 1002.06 1023.15 1006.06C1018.03 1009.98 1011.27 1011.94 1002.87 1011.94ZM1013.79 971.856C1013.79 963.136 1010.15 958.776 1002.87 958.776C998.713 958.776 995.553 959.856 993.393 962.016C991.313 964.176 990.033 967.456 989.553 971.856H1013.79ZM1060.43 1011.94C1054.51 1011.94 1050.27 1010.34 1047.71 1007.14C1045.15 1003.94 1043.87 999.896 1043.87 995.016V960.816H1036.31V947.376H1044.23L1046.99 929.616H1060.31V947.376H1071.23V960.816H1060.31V993.336C1060.31 996.776 1062.03 998.496 1065.47 998.496H1071.23V1010.02C1069.87 1010.5 1068.15 1010.94 1066.07 1011.34C1064.07 1011.74 1062.19 1011.94 1060.43 1011.94Z" fill="#D69090"/>
<path d="M1347.4 331.248H1369.24L1401.4 413.568H1382.44L1376.56 397.848H1339.12L1333.24 413.568H1315.24L1347.4 331.248ZM1371.04 383.328L1363.24 362.448C1362.28 359.888 1360.56 354.488 1358.08 346.248H1357.48C1355 354.488 1353.28 359.888 1352.32 362.448L1344.52 383.328H1371.04ZM1438.59 331.248H1485.75C1490.07 331.248 1493.99 332.128 1497.51 333.888C1501.03 335.568 1503.79 337.968 1505.79 341.088C1507.79 344.128 1508.79 347.648 1508.79 351.648C1508.79 356.208 1507.51 360.168 1504.95 363.528C1502.47 366.808 1499.27 369.088 1495.35 370.368V370.848C1499.99 371.728 1503.75 374.008 1506.63 377.688C1509.59 381.288 1511.07 385.568 1511.07 390.528C1511.07 397.968 1508.67 403.688 1503.87 407.688C1499.15 411.608 1493.11 413.568 1485.75 413.568H1438.59V331.248ZM1480.83 364.128C1484.03 364.128 1486.51 363.328 1488.27 361.728C1490.03 360.048 1490.91 357.928 1490.91 355.368C1490.91 352.328 1490.07 350.008 1488.39 348.408C1486.79 346.808 1484.55 346.008 1481.67 346.008H1456.11V364.128H1480.83ZM1482.87 398.808C1485.91 398.808 1488.39 397.928 1490.31 396.168C1492.23 394.408 1493.19 391.888 1493.19 388.608C1493.19 385.648 1492.23 383.248 1490.31 381.408C1488.39 379.568 1485.59 378.648 1481.91 378.648H1456.11V398.808H1482.87ZM1540.19 415.008C1535.31 415.008 1530.83 413.728 1526.75 411.168C1522.67 408.608 1520.63 403.968 1520.63 397.248C1520.63 389.168 1523.95 383.448 1530.59 380.088C1537.23 376.648 1546.63 374.928 1558.79 374.928V370.488C1558.79 367.688 1558.15 365.528 1556.87 364.008C1555.67 362.488 1553.35 361.728 1549.91 361.728C1546.23 361.728 1543.59 362.288 1541.99 363.408C1540.47 364.528 1539.71 365.848 1539.71 367.368V369.168H1523.87C1523.79 368.688 1523.75 367.808 1523.75 366.528C1523.75 361.248 1526.07 357.008 1530.71 353.808C1535.43 350.608 1541.67 349.008 1549.43 349.008C1558.07 349.008 1564.51 350.768 1568.75 354.288C1573.07 357.808 1575.23 362.888 1575.23 369.528V397.368C1575.23 398.808 1575.63 399.888 1576.43 400.608C1577.23 401.248 1578.23 401.568 1579.43 401.568H1582.79V413.088C1580.23 414.368 1577.07 415.008 1573.31 415.008C1570.03 415.008 1567.27 414.288 1565.03 412.848C1562.87 411.408 1561.39 409.368 1560.59 406.728H1559.87C1557.55 409.448 1554.87 411.528 1551.83 412.968C1548.87 414.328 1544.99 415.008 1540.19 415.008ZM1545.35 402.048C1549.99 402.048 1553.39 400.768 1555.55 398.208C1557.71 395.568 1558.79 392.088 1558.79 387.768V385.848C1544.47 385.848 1537.31 389.048 1537.31 395.448C1537.31 397.448 1537.95 399.048 1539.23 400.248C1540.59 401.448 1542.63 402.048 1545.35 402.048ZM1617.55 415.008C1608.75 415.008 1601.83 413.208 1596.79 409.608C1591.83 405.928 1589.35 401.048 1589.35 394.968L1589.47 393.528H1605.43V394.368C1605.51 397.168 1606.75 399.208 1609.15 400.488C1611.63 401.688 1614.63 402.288 1618.15 402.288C1621.43 402.288 1624.23 401.848 1626.55 400.968C1628.87 400.088 1630.03 398.648 1630.03 396.648C1630.03 394.408 1628.83 392.728 1626.43 391.608C1624.11 390.488 1620.43 389.368 1615.39 388.248C1610.19 387.048 1605.95 385.848 1602.67 384.648C1599.39 383.368 1596.55 381.408 1594.15 378.768C1591.75 376.128 1590.55 372.608 1590.55 368.208C1590.55 362.048 1593.11 357.328 1598.23 354.048C1603.43 350.688 1610.11 349.008 1618.27 349.008C1625.87 349.008 1632.15 350.568 1637.11 353.688C1642.07 356.728 1644.55 360.888 1644.55 366.168L1644.43 368.928H1628.47V368.208C1628.47 366.128 1627.47 364.528 1625.47 363.408C1623.55 362.288 1620.95 361.728 1617.67 361.728C1614.39 361.728 1611.79 362.168 1609.87 363.048C1607.95 363.928 1606.99 365.168 1606.99 366.768C1606.99 368.768 1608.07 370.248 1610.23 371.208C1612.47 372.168 1616.03 373.128 1620.91 374.088C1626.27 375.288 1630.63 376.488 1633.99 377.688C1637.35 378.888 1640.27 380.848 1642.75 383.568C1645.23 386.288 1646.47 389.968 1646.47 394.608C1646.47 408.208 1636.83 415.008 1617.55 415.008ZM1658.91 326.808H1675.35V342.408H1658.91V326.808ZM1658.91 350.448H1675.35V413.568H1658.91V350.448ZM1718.59 415.008C1708.51 415.008 1700.95 412.328 1695.91 406.968C1690.95 401.608 1688.47 393.288 1688.47 382.008C1688.47 370.808 1690.95 362.528 1695.91 357.168C1700.95 351.728 1708.51 349.008 1718.59 349.008C1726.99 349.008 1733.67 351.168 1738.63 355.488C1743.67 359.728 1746.19 365.968 1746.19 374.208H1729.63C1729.63 370.368 1728.63 367.408 1726.63 365.328C1724.63 363.248 1721.83 362.208 1718.23 362.208C1713.75 362.208 1710.43 363.808 1708.27 367.008C1706.19 370.128 1705.15 374.808 1705.15 381.048V382.968C1705.15 389.208 1706.23 393.928 1708.39 397.128C1710.63 400.248 1714.19 401.808 1719.07 401.808C1722.51 401.808 1725.23 400.768 1727.23 398.688C1729.31 396.528 1730.35 393.568 1730.35 389.808H1746.19C1746.19 398.048 1743.71 404.328 1738.75 408.648C1733.79 412.888 1727.07 415.008 1718.59 415.008ZM1792.02 331.248H1809.42V398.448H1853.82V413.568H1792.02V331.248ZM1865.74 326.808H1882.18V342.408H1865.74V326.808ZM1865.74 350.448H1882.18V413.568H1865.74V350.448ZM1925.42 415.008C1915.34 415.008 1907.78 412.328 1902.74 406.968C1897.78 401.608 1895.3 393.288 1895.3 382.008C1895.3 370.808 1897.78 362.528 1902.74 357.168C1907.78 351.728 1915.34 349.008 1925.42 349.008C1933.82 349.008 1940.5 351.168 1945.46 355.488C1950.5 359.728 1953.02 365.968 1953.02 374.208H1936.46C1936.46 370.368 1935.46 367.408 1933.46 365.328C1931.46 363.248 1928.66 362.208 1925.06 362.208C1920.58 362.208 1917.26 363.808 1915.1 367.008C1913.02 370.128 1911.98 374.808 1911.98 381.048V382.968C1911.98 389.208 1913.06 393.928 1915.22 397.128C1917.46 400.248 1921.02 401.808 1925.9 401.808C1929.34 401.808 1932.06 400.768 1934.06 398.688C1936.14 396.528 1937.18 393.568 1937.18 389.808H1953.02C1953.02 398.048 1950.54 404.328 1945.58 408.648C1940.62 412.888 1933.9 415.008 1925.42 415.008ZM1991.98 415.008C1981.82 415.008 1974.22 412.328 1969.18 406.968C1964.22 401.608 1961.74 393.288 1961.74 382.008C1961.74 370.728 1964.22 362.408 1969.18 357.048C1974.22 351.688 1981.82 349.008 1991.98 349.008C2001.34 349.008 2008.34 351.728 2012.98 357.168C2017.62 362.528 2019.94 370.808 2019.94 382.008V385.848H1978.42C1978.58 391.448 1979.7 395.608 1981.78 398.328C1983.86 400.968 1987.34 402.288 1992.22 402.288C1995.66 402.288 1998.42 401.328 2000.5 399.408C2002.66 397.488 2003.74 394.768 2003.74 391.248H2019.94C2019.94 399.168 2017.38 405.128 2012.26 409.128C2007.14 413.048 2000.38 415.008 1991.98 415.008ZM2002.9 374.928C2002.9 366.208 1999.26 361.848 1991.98 361.848C1987.82 361.848 1984.66 362.928 1982.5 365.088C1980.42 367.248 1979.14 370.528 1978.66 374.928H2002.9ZM2032.62 350.448H2046.66L2047.86 358.728H2048.7C2053.82 352.248 2060.38 349.008 2068.38 349.008C2074.86 349.008 2079.94 350.768 2083.62 354.288C2087.38 357.808 2089.26 363.448 2089.26 371.208V413.568H2072.82V374.688C2072.82 370.768 2071.9 367.928 2070.06 366.168C2068.22 364.408 2065.5 363.528 2061.9 363.528C2058.22 363.528 2055.14 364.848 2052.66 367.488C2050.26 370.048 2049.06 373.248 2049.06 377.088V413.568H2032.62V350.448ZM2131.18 415.008C2122.38 415.008 2115.46 413.208 2110.42 409.608C2105.46 405.928 2102.98 401.048 2102.98 394.968L2103.1 393.528H2119.06V394.368C2119.14 397.168 2120.38 399.208 2122.78 400.488C2125.26 401.688 2128.26 402.288 2131.78 402.288C2135.06 402.288 2137.86 401.848 2140.18 400.968C2142.5 400.088 2143.66 398.648 2143.66 396.648C2143.66 394.408 2142.46 392.728 2140.06 391.608C2137.74 390.488 2134.06 389.368 2129.02 388.248C2123.82 387.048 2119.58 385.848 2116.3 384.648C2113.02 383.368 2110.18 381.408 2107.78 378.768C2105.38 376.128 2104.18 372.608 2104.18 368.208C2104.18 362.048 2106.74 357.328 2111.86 354.048C2117.06 350.688 2123.74 349.008 2131.9 349.008C2139.5 349.008 2145.78 350.568 2150.74 353.688C2155.7 356.728 2158.18 360.888 2158.18 366.168L2158.06 368.928H2142.1V368.208C2142.1 366.128 2141.1 364.528 2139.1 363.408C2137.18 362.288 2134.58 361.728 2131.3 361.728C2128.02 361.728 2125.42 362.168 2123.5 363.048C2121.58 363.928 2120.62 365.168 2120.62 366.768C2120.62 368.768 2121.7 370.248 2123.86 371.208C2126.1 372.168 2129.66 373.128 2134.54 374.088C2139.9 375.288 2144.26 376.488 2147.62 377.688C2150.98 378.888 2153.9 380.848 2156.38 383.568C2158.86 386.288 2160.1 389.968 2160.1 394.608C2160.1 408.208 2150.46 415.008 2131.18 415.008ZM2198.7 415.008C2188.54 415.008 2180.94 412.328 2175.9 406.968C2170.94 401.608 2168.46 393.288 2168.46 382.008C2168.46 370.728 2170.94 362.408 2175.9 357.048C2180.94 351.688 2188.54 349.008 2198.7 349.008C2208.06 349.008 2215.06 351.728 2219.7 357.168C2224.34 362.528 2226.66 370.808 2226.66 382.008V385.848H2185.14C2185.3 391.448 2186.42 395.608 2188.5 398.328C2190.58 400.968 2194.06 402.288 2198.94 402.288C2202.38 402.288 2205.14 401.328 2207.22 399.408C2209.38 397.488 2210.46 394.768 2210.46 391.248H2226.66C2226.66 399.168 2224.1 405.128 2218.98 409.128C2213.86 413.048 2207.1 415.008 2198.7 415.008ZM2209.62 374.928C2209.62 366.208 2205.98 361.848 2198.7 361.848C2194.54 361.848 2191.38 362.928 2189.22 365.088C2187.14 367.248 2185.86 370.528 2185.38 374.928H2209.62ZM2272.62 326.808H2289.06V342.408H2272.62V326.808ZM2272.62 350.448H2289.06V413.568H2272.62V350.448ZM2331.34 415.008C2322.54 415.008 2315.62 413.208 2310.58 409.608C2305.62 405.928 2303.14 401.048 2303.14 394.968L2303.26 393.528H2319.22V394.368C2319.3 397.168 2320.54 399.208 2322.94 400.488C2325.42 401.688 2328.42 402.288 2331.94 402.288C2335.22 402.288 2338.02 401.848 2340.34 400.968C2342.66 400.088 2343.82 398.648 2343.82 396.648C2343.82 394.408 2342.62 392.728 2340.22 391.608C2337.9 390.488 2334.22 389.368 2329.18 388.248C2323.98 387.048 2319.74 385.848 2316.46 384.648C2313.18 383.368 2310.34 381.408 2307.94 378.768C2305.54 376.128 2304.34 372.608 2304.34 368.208C2304.34 362.048 2306.9 357.328 2312.02 354.048C2317.22 350.688 2323.9 349.008 2332.06 349.008C2339.66 349.008 2345.94 350.568 2350.9 353.688C2355.86 356.728 2358.34 360.888 2358.34 366.168L2358.22 368.928H2342.26V368.208C2342.26 366.128 2341.26 364.528 2339.26 363.408C2337.34 362.288 2334.74 361.728 2331.46 361.728C2328.18 361.728 2325.58 362.168 2323.66 363.048C2321.74 363.928 2320.78 365.168 2320.78 366.768C2320.78 368.768 2321.86 370.248 2324.02 371.208C2326.26 372.168 2329.82 373.128 2334.7 374.088C2340.06 375.288 2344.42 376.488 2347.78 377.688C2351.14 378.888 2354.06 380.848 2356.54 383.568C2359.02 386.288 2360.26 389.968 2360.26 394.608C2360.26 408.208 2350.62 415.008 2331.34 415.008ZM1349.68 546.008C1339.6 546.008 1332.04 543.328 1327 537.968C1322.04 532.608 1319.56 524.288 1319.56 513.008C1319.56 501.808 1322.04 493.528 1327 488.168C1332.04 482.728 1339.6 480.008 1349.68 480.008C1358.08 480.008 1364.76 482.168 1369.72 486.488C1374.76 490.728 1377.28 496.968 1377.28 505.208H1360.72C1360.72 501.368 1359.72 498.408 1357.72 496.328C1355.72 494.248 1352.92 493.208 1349.32 493.208C1344.84 493.208 1341.52 494.808 1339.36 498.008C1337.28 501.128 1336.24 505.808 1336.24 512.048V513.968C1336.24 520.208 1337.32 524.928 1339.48 528.128C1341.72 531.248 1345.28 532.808 1350.16 532.808C1353.6 532.808 1356.32 531.768 1358.32 529.688C1360.4 527.528 1361.44 524.568 1361.44 520.808H1377.28C1377.28 529.048 1374.8 535.328 1369.84 539.648C1364.88 543.888 1358.16 546.008 1349.68 546.008ZM1418.28 546.008C1407.48 546.008 1399.44 543.328 1394.16 537.968C1388.88 532.608 1386.24 524.288 1386.24 513.008C1386.24 501.728 1388.88 493.408 1394.16 488.048C1399.44 482.688 1407.48 480.008 1418.28 480.008C1429.08 480.008 1437.12 482.688 1442.4 488.048C1447.76 493.408 1450.44 501.728 1450.44 513.008C1450.44 524.288 1447.76 532.608 1442.4 537.968C1437.12 543.328 1429.08 546.008 1418.28 546.008ZM1418.28 532.568C1423.64 532.568 1427.52 531.048 1429.92 528.008C1432.32 524.888 1433.52 520.208 1433.52 513.968V512.048C1433.52 505.808 1432.32 501.168 1429.92 498.128C1427.52 495.008 1423.64 493.448 1418.28 493.448C1412.92 493.448 1409.04 495.008 1406.64 498.128C1404.32 501.168 1403.16 505.808 1403.16 512.048V513.968C1403.16 520.208 1404.32 524.888 1406.64 528.008C1409.04 531.048 1412.92 532.568 1418.28 532.568ZM1463.56 481.448H1477.6L1478.8 489.728H1479.64C1484.28 483.248 1490.28 480.008 1497.64 480.008C1505.64 480.008 1511.16 483.248 1514.2 489.728H1515.16C1519.96 483.248 1526.2 480.008 1533.88 480.008C1539.88 480.008 1544.64 481.768 1548.16 485.288C1551.76 488.808 1553.56 494.448 1553.56 502.208V544.568H1537.12V505.688C1537.12 498.248 1534.04 494.528 1527.88 494.528C1524.68 494.528 1522.04 495.848 1519.96 498.488C1517.88 501.048 1516.84 504.248 1516.84 508.088V544.568H1500.4V505.688C1500.4 498.248 1497.32 494.528 1491.16 494.528C1487.96 494.528 1485.28 495.848 1483.12 498.488C1481.04 501.048 1480 504.248 1480 508.088V544.568H1463.56V481.448ZM1570.2 481.448H1584.24L1585.32 489.728H1586.16C1588.16 486.528 1590.84 484.128 1594.2 482.528C1597.56 480.848 1601.28 480.008 1605.36 480.008C1613.36 480.008 1619.56 482.768 1623.96 488.288C1628.36 493.728 1630.56 502.008 1630.56 513.128C1630.56 524.008 1628.32 532.208 1623.84 537.728C1619.44 543.248 1613.56 546.008 1606.2 546.008C1601.96 546.008 1598.2 545.248 1594.92 543.728C1591.72 542.208 1589.2 540.048 1587.36 537.248H1586.64V565.328H1570.2V481.448ZM1600.08 531.728C1604.96 531.728 1608.44 530.288 1610.52 527.408C1612.6 524.448 1613.64 520.008 1613.64 514.088V511.928C1613.64 506.008 1612.6 501.608 1610.52 498.728C1608.44 495.768 1604.96 494.288 1600.08 494.288C1591.12 494.288 1586.64 500.168 1586.64 511.928V513.848C1586.64 525.768 1591.12 531.728 1600.08 531.728ZM1643.56 457.808H1660V544.568H1643.56V457.808ZM1703 546.008C1692.84 546.008 1685.24 543.328 1680.2 537.968C1675.24 532.608 1672.76 524.288 1672.76 513.008C1672.76 501.728 1675.24 493.408 1680.2 488.048C1685.24 482.688 1692.84 480.008 1703 480.008C1712.36 480.008 1719.36 482.728 1724 488.168C1728.64 493.528 1730.96 501.808 1730.96 513.008V516.848H1689.44C1689.6 522.448 1690.72 526.608 1692.8 529.328C1694.88 531.968 1698.36 533.288 1703.24 533.288C1706.68 533.288 1709.44 532.328 1711.52 530.408C1713.68 528.488 1714.76 525.768 1714.76 522.248H1730.96C1730.96 530.168 1728.4 536.128 1723.28 540.128C1718.16 544.048 1711.4 546.008 1703 546.008ZM1713.92 505.928C1713.92 497.208 1710.28 492.848 1703 492.848C1698.84 492.848 1695.68 493.928 1693.52 496.088C1691.44 498.248 1690.16 501.528 1689.68 505.928H1713.92ZM1760.56 546.008C1754.64 546.008 1750.4 544.408 1747.84 541.208C1745.28 538.008 1744 533.968 1744 529.088V494.888H1736.44V481.448H1744.36L1747.12 463.688H1760.44V481.448H1771.36V494.888H1760.44V527.408C1760.44 530.848 1762.16 532.568 1765.6 532.568H1771.36V544.088C1770 544.568 1768.28 545.008 1766.2 545.408C1764.2 545.808 1762.32 546.008 1760.56 546.008ZM1783.6 457.808H1800.04V544.568H1783.6V457.808ZM1826.6 566.408C1822.2 566.408 1818.44 565.888 1815.32 564.848V553.328H1823.12C1825.92 553.328 1828.2 552.648 1829.96 551.288C1831.72 549.928 1833.16 547.688 1834.28 544.568L1809.56 481.448H1826.72L1838.6 511.088C1839.8 514.208 1841.28 519.688 1843.04 527.528H1843.64C1845.56 520.168 1847.04 514.728 1848.08 511.208L1857.44 481.448H1874.12L1852.88 541.328C1850.96 546.608 1848.96 551.008 1846.88 554.528C1844.8 558.128 1842.08 561.008 1838.72 563.168C1835.44 565.328 1831.4 566.408 1826.6 566.408ZM2170.31 528.128H2186.87V544.568H2170.31V528.128Z" fill="#6A6C74"/>
<path d="M1916.59 462.248H1976.23V477.008H1933.99V497.288H1971.79V512.048H1933.99V544.568H1916.59V462.248ZM1990.43 481.448H2004.47L2005.79 491.648H2006.63C2007.99 488.048 2009.75 485.208 2011.91 483.128C2014.07 481.048 2016.91 480.008 2020.43 480.008C2022.75 480.008 2024.83 480.368 2026.67 481.088V496.448H2022.11C2016.75 496.448 2012.87 497.928 2010.47 500.888C2008.07 503.768 2006.87 508.168 2006.87 514.088V544.568H1990.43V481.448ZM2063.11 546.008C2052.95 546.008 2045.35 543.328 2040.31 537.968C2035.35 532.608 2032.87 524.288 2032.87 513.008C2032.87 501.728 2035.35 493.408 2040.31 488.048C2045.35 482.688 2052.95 480.008 2063.11 480.008C2072.47 480.008 2079.47 482.728 2084.11 488.168C2088.75 493.528 2091.07 501.808 2091.07 513.008V516.848H2049.55C2049.71 522.448 2050.83 526.608 2052.91 529.328C2054.99 531.968 2058.47 533.288 2063.35 533.288C2066.79 533.288 2069.55 532.328 2071.63 530.408C2073.79 528.488 2074.87 525.768 2074.87 522.248H2091.07C2091.07 530.168 2088.51 536.128 2083.39 540.128C2078.27 544.048 2071.51 546.008 2063.11 546.008ZM2074.03 505.928C2074.03 497.208 2070.39 492.848 2063.11 492.848C2058.95 492.848 2055.79 493.928 2053.63 496.088C2051.55 498.248 2050.27 501.528 2049.79 505.928H2074.03ZM2129.79 546.008C2119.63 546.008 2112.03 543.328 2106.99 537.968C2102.03 532.608 2099.55 524.288 2099.55 513.008C2099.55 501.728 2102.03 493.408 2106.99 488.048C2112.03 482.688 2119.63 480.008 2129.79 480.008C2139.15 480.008 2146.15 482.728 2150.79 488.168C2155.43 493.528 2157.75 501.808 2157.75 513.008V516.848H2116.23C2116.39 522.448 2117.51 526.608 2119.59 529.328C2121.67 531.968 2125.15 533.288 2130.03 533.288C2133.47 533.288 2136.23 532.328 2138.31 530.408C2140.47 528.488 2141.55 525.768 2141.55 522.248H2157.75C2157.75 530.168 2155.19 536.128 2150.07 540.128C2144.95 544.048 2138.19 546.008 2129.79 546.008ZM2140.71 505.928C2140.71 497.208 2137.07 492.848 2129.79 492.848C2125.63 492.848 2122.47 493.928 2120.31 496.088C2118.23 498.248 2116.95 501.528 2116.47 505.928H2140.71Z" fill="#658566"/>
</g>
<defs>
<clipPath id="clip0">
<rect width="2677" height="1416" fill="white"/>
</clipPath>
</defs>
</svg>
