<svg width="2677" height="1416" viewBox="0 0 2677 1416" fill="none" xmlns="http://www.w3.org/2000/svg">
<g clip-path="url(#clip0)">
<rect width="2677" height="1416" fill="#FAFAFA"/>
<path d="M1076.35 640.568L1076.35 625.568L1076.35 640.568ZM2514.61 651.174C2520.46 645.316 2520.46 635.819 2514.61 629.961L2419.15 534.502C2413.29 528.644 2403.79 528.644 2397.93 534.502C2392.08 540.359 2392.08 549.857 2397.93 555.715L2482.79 640.568L2397.93 725.42C2392.08 731.278 2392.08 740.776 2397.93 746.634C2403.79 752.491 2413.29 752.491 2419.15 746.634L2514.61 651.174ZM88 655.568L1076.35 655.568L1076.35 625.568L88 625.568L88 655.568ZM1076.35 655.568L2504 655.568L2504 625.568L1076.35 625.568L1076.35 655.568Z" fill="#6A6C74"/>
<path d="M1169.93 230.252C1163.61 230.252 1157.81 229.292 1152.53 227.372C1147.33 225.372 1143.17 222.452 1140.05 218.612C1136.93 214.772 1135.37 210.132 1135.37 204.692L1135.49 202.052H1153.13L1153.01 203.972C1153.01 207.492 1154.57 210.292 1157.69 212.372C1160.81 214.452 1165.17 215.492 1170.77 215.492C1176.69 215.492 1180.97 214.732 1183.61 213.212C1186.25 211.612 1187.57 209.492 1187.57 206.852C1187.57 204.532 1186.69 202.612 1184.93 201.092C1183.25 199.492 1181.09 198.252 1178.45 197.372C1175.89 196.412 1172.33 195.292 1167.77 194.012C1161.29 192.172 1156.05 190.412 1152.05 188.732C1148.05 187.052 1144.61 184.572 1141.73 181.292C1138.85 177.932 1137.41 173.532 1137.41 168.092C1137.41 160.572 1140.45 154.852 1146.53 150.932C1152.61 147.012 1160.69 145.052 1170.77 145.052C1180.29 145.052 1188.05 147.092 1194.05 151.172C1200.13 155.172 1203.17 161.212 1203.17 169.292V170.732H1185.89V169.652C1185.89 166.612 1184.49 164.212 1181.69 162.452C1178.97 160.692 1175.25 159.812 1170.53 159.812C1165.49 159.812 1161.61 160.492 1158.89 161.852C1156.25 163.212 1154.93 165.092 1154.93 167.492C1154.93 169.332 1155.73 170.932 1157.33 172.292C1158.93 173.572 1160.93 174.652 1163.33 175.532C1165.73 176.332 1169.13 177.332 1173.53 178.532C1180.09 180.292 1185.45 182.052 1189.61 183.812C1193.85 185.492 1197.49 188.012 1200.53 191.372C1203.57 194.732 1205.09 199.132 1205.09 204.572C1205.09 213.372 1201.93 219.852 1195.61 224.012C1189.37 228.172 1180.81 230.252 1169.93 230.252ZM1218.89 165.692H1232.93L1234.01 173.972H1234.85C1236.85 170.772 1239.53 168.372 1242.89 166.772C1246.25 165.092 1249.97 164.252 1254.05 164.252C1262.05 164.252 1268.25 167.012 1272.65 172.532C1277.05 177.972 1279.25 186.252 1279.25 197.372C1279.25 208.252 1277.01 216.452 1272.53 221.972C1268.13 227.492 1262.25 230.252 1254.89 230.252C1250.65 230.252 1246.89 229.492 1243.61 227.972C1240.41 226.452 1237.89 224.292 1236.05 221.492H1235.33V249.572H1218.89V165.692ZM1248.77 215.972C1253.65 215.972 1257.13 214.532 1259.21 211.652C1261.29 208.692 1262.33 204.252 1262.33 198.332V196.172C1262.33 190.252 1261.29 185.852 1259.21 182.972C1257.13 180.012 1253.65 178.532 1248.77 178.532C1239.81 178.532 1235.33 184.412 1235.33 196.172V198.092C1235.33 210.012 1239.81 215.972 1248.77 215.972ZM1318.29 230.252C1308.13 230.252 1300.53 227.572 1295.49 222.212C1290.53 216.852 1288.05 208.532 1288.05 197.252C1288.05 185.972 1290.53 177.652 1295.49 172.292C1300.53 166.932 1308.13 164.252 1318.29 164.252C1327.65 164.252 1334.65 166.972 1339.29 172.412C1343.93 177.772 1346.25 186.052 1346.25 197.252V201.092H1304.73C1304.89 206.692 1306.01 210.852 1308.09 213.572C1310.17 216.212 1313.65 217.532 1318.53 217.532C1321.97 217.532 1324.73 216.572 1326.81 214.652C1328.97 212.732 1330.05 210.012 1330.05 206.492H1346.25C1346.25 214.412 1343.69 220.372 1338.57 224.372C1333.45 228.292 1326.69 230.252 1318.29 230.252ZM1329.21 190.172C1329.21 181.452 1325.57 177.092 1318.29 177.092C1314.13 177.092 1310.97 178.172 1308.81 180.332C1306.73 182.492 1305.45 185.772 1304.97 190.172H1329.21ZM1358.93 165.692H1372.97L1374.17 173.972H1375.01C1380.13 167.492 1386.69 164.252 1394.69 164.252C1401.17 164.252 1406.25 166.012 1409.93 169.532C1413.69 173.052 1415.57 178.692 1415.57 186.452V228.812H1399.13V189.932C1399.13 186.012 1398.21 183.172 1396.37 181.412C1394.53 179.652 1391.81 178.772 1388.21 178.772C1384.53 178.772 1381.45 180.092 1378.97 182.732C1376.57 185.292 1375.37 188.492 1375.37 192.332V228.812H1358.93V165.692ZM1453.41 230.252C1445.41 230.252 1439.21 227.532 1434.81 222.092C1430.41 216.572 1428.21 208.252 1428.21 197.132C1428.21 186.252 1430.41 178.052 1434.81 172.532C1439.29 167.012 1445.21 164.252 1452.57 164.252C1456.81 164.252 1460.53 165.012 1463.73 166.532C1467.01 168.052 1469.57 170.212 1471.41 173.012H1472.13V142.052H1488.57V228.812H1474.53L1473.45 220.532H1472.61C1470.61 223.732 1467.93 226.172 1464.57 227.852C1461.21 229.452 1457.49 230.252 1453.41 230.252ZM1458.69 215.972C1467.65 215.972 1472.13 210.092 1472.13 198.332V196.412C1472.13 184.492 1467.65 178.532 1458.69 178.532C1453.81 178.532 1450.33 180.012 1448.25 182.972C1446.17 185.852 1445.13 190.252 1445.13 196.172V198.332C1445.13 204.252 1446.17 208.692 1448.25 211.652C1450.33 214.532 1453.81 215.972 1458.69 215.972ZM1962.6 230.252C1956.68 230.252 1952.44 228.652 1949.88 225.452C1947.32 222.252 1946.04 218.212 1946.04 213.332V179.132H1938.48V165.692H1946.4L1949.16 147.932H1962.48V165.692H1973.4V179.132H1962.48V211.652C1962.48 215.092 1964.2 216.812 1967.64 216.812H1973.4V228.332C1972.04 228.812 1970.32 229.252 1968.24 229.652C1966.24 230.052 1964.36 230.252 1962.6 230.252ZM2013.73 230.252C2002.93 230.252 1994.89 227.572 1989.61 222.212C1984.33 216.852 1981.69 208.532 1981.69 197.252C1981.69 185.972 1984.33 177.652 1989.61 172.292C1994.89 166.932 2002.93 164.252 2013.73 164.252C2024.53 164.252 2032.57 166.932 2037.85 172.292C2043.21 177.652 2045.89 185.972 2045.89 197.252C2045.89 208.532 2043.21 216.852 2037.85 222.212C2032.57 227.572 2024.53 230.252 2013.73 230.252ZM2013.73 216.812C2019.09 216.812 2022.97 215.292 2025.37 212.252C2027.77 209.132 2028.97 204.452 2028.97 198.212V196.292C2028.97 190.052 2027.77 185.412 2025.37 182.372C2022.97 179.252 2019.09 177.692 2013.73 177.692C2008.37 177.692 2004.49 179.252 2002.09 182.372C1999.77 185.412 1998.61 190.052 1998.61 196.292V198.212C1998.61 204.452 1999.77 209.132 2002.09 212.252C2004.49 215.292 2008.37 216.812 2013.73 216.812ZM2118.44 230.252C2108.28 230.252 2100.68 227.572 2095.64 222.212C2090.68 216.852 2088.2 208.532 2088.2 197.252C2088.2 185.972 2090.68 177.652 2095.64 172.292C2100.68 166.932 2108.28 164.252 2118.44 164.252C2127.8 164.252 2134.8 166.972 2139.44 172.412C2144.08 177.772 2146.4 186.052 2146.4 197.252V201.092H2104.88C2105.04 206.692 2106.16 210.852 2108.24 213.572C2110.32 216.212 2113.8 217.532 2118.68 217.532C2122.12 217.532 2124.88 216.572 2126.96 214.652C2129.12 212.732 2130.2 210.012 2130.2 206.492H2146.4C2146.4 214.412 2143.84 220.372 2138.72 224.372C2133.6 228.292 2126.84 230.252 2118.44 230.252ZM2129.36 190.172C2129.36 181.452 2125.72 177.092 2118.44 177.092C2114.28 177.092 2111.12 178.172 2108.96 180.332C2106.88 182.492 2105.6 185.772 2105.12 190.172H2129.36ZM2173.48 196.172L2153.08 165.692H2172.88L2184.28 184.052H2185L2196.64 165.692H2215.24L2194.48 195.812L2216.44 228.812H2196.76L2183.68 207.932H2182.96L2169.76 228.812H2151.28L2173.48 196.172ZM2242.68 230.252C2236.76 230.252 2232.52 228.652 2229.96 225.452C2227.4 222.252 2226.12 218.212 2226.12 213.332V179.132H2218.56V165.692H2226.48L2229.24 147.932H2242.56V165.692H2253.48V179.132H2242.56V211.652C2242.56 215.092 2244.28 216.812 2247.72 216.812H2253.48V228.332C2252.12 228.812 2250.4 229.252 2248.32 229.652C2246.32 230.052 2244.44 230.252 2242.68 230.252ZM2291.76 230.252C2281.6 230.252 2274 227.572 2268.96 222.212C2264 216.852 2261.52 208.532 2261.52 197.252C2261.52 185.972 2264 177.652 2268.96 172.292C2274 166.932 2281.6 164.252 2291.76 164.252C2301.12 164.252 2308.12 166.972 2312.76 172.412C2317.4 177.772 2319.72 186.052 2319.72 197.252V201.092H2278.2C2278.36 206.692 2279.48 210.852 2281.56 213.572C2283.64 216.212 2287.12 217.532 2292 217.532C2295.44 217.532 2298.2 216.572 2300.28 214.652C2302.44 212.732 2303.52 210.012 2303.52 206.492H2319.72C2319.72 214.412 2317.16 220.372 2312.04 224.372C2306.92 228.292 2300.16 230.252 2291.76 230.252ZM2302.68 190.172C2302.68 181.452 2299.04 177.092 2291.76 177.092C2287.6 177.092 2284.44 178.172 2282.28 180.332C2280.2 182.492 2278.92 185.772 2278.44 190.172H2302.68ZM2332.4 165.692H2346.44L2347.64 173.972H2348.48C2353.6 167.492 2360.16 164.252 2368.16 164.252C2374.64 164.252 2379.72 166.012 2383.4 169.532C2387.16 173.052 2389.04 178.692 2389.04 186.452V228.812H2372.6V189.932C2372.6 186.012 2371.68 183.172 2369.84 181.412C2368 179.652 2365.28 178.772 2361.68 178.772C2358 178.772 2354.92 180.092 2352.44 182.732C2350.04 185.292 2348.84 188.492 2348.84 192.332V228.812H2332.4V165.692ZM2426.88 230.252C2418.88 230.252 2412.68 227.532 2408.28 222.092C2403.88 216.572 2401.68 208.252 2401.68 197.132C2401.68 186.252 2403.88 178.052 2408.28 172.532C2412.76 167.012 2418.68 164.252 2426.04 164.252C2430.28 164.252 2434 165.012 2437.2 166.532C2440.48 168.052 2443.04 170.212 2444.88 173.012H2445.6V142.052H2462.04V228.812H2448L2446.92 220.532H2446.08C2444.08 223.732 2441.4 226.172 2438.04 227.852C2434.68 229.452 2430.96 230.252 2426.88 230.252ZM2432.16 215.972C2441.12 215.972 2445.6 210.092 2445.6 198.332V196.412C2445.6 184.492 2441.12 178.532 2432.16 178.532C2427.28 178.532 2423.8 180.012 2421.72 182.972C2419.64 185.852 2418.6 190.252 2418.6 196.172V198.332C2418.6 204.252 2419.64 208.692 2421.72 211.652C2423.8 214.532 2427.28 215.972 2432.16 215.972ZM1989.44 361.252C1983.52 361.252 1979.28 359.652 1976.72 356.452C1974.16 353.252 1972.88 349.212 1972.88 344.332V310.132H1965.32V296.692H1973.24L1976 278.932H1989.32V296.692H2000.24V310.132H1989.32V342.652C1989.32 346.092 1991.04 347.812 1994.48 347.812H2000.24V359.332C1998.88 359.812 1997.16 360.252 1995.08 360.652C1993.08 361.052 1991.2 361.252 1989.44 361.252ZM2040.56 361.252C2029.76 361.252 2021.72 358.572 2016.44 353.212C2011.16 347.852 2008.52 339.532 2008.52 328.252C2008.52 316.972 2011.16 308.652 2016.44 303.292C2021.72 297.932 2029.76 295.252 2040.56 295.252C2051.36 295.252 2059.4 297.932 2064.68 303.292C2070.04 308.652 2072.72 316.972 2072.72 328.252C2072.72 339.532 2070.04 347.852 2064.68 353.212C2059.4 358.572 2051.36 361.252 2040.56 361.252ZM2040.56 347.812C2045.92 347.812 2049.8 346.292 2052.2 343.252C2054.6 340.132 2055.8 335.452 2055.8 329.212V327.292C2055.8 321.052 2054.6 316.412 2052.2 313.372C2049.8 310.252 2045.92 308.692 2040.56 308.692C2035.2 308.692 2031.32 310.252 2028.92 313.372C2026.6 316.412 2025.44 321.052 2025.44 327.292V329.212C2025.44 335.452 2026.6 340.132 2028.92 343.252C2031.32 346.292 2035.2 347.812 2040.56 347.812ZM1585.56 474.372H1602.12V490.812H1585.56V474.372Z" fill="#6A6C74"/>
<path d="M1538.56 146.492H1555.96V186.212L1594 146.492H1615.12L1582.96 179.972L1615.6 228.812H1594.96L1571.32 192.212L1555.96 204.932V228.812H1538.56V146.492ZM1640.17 230.252C1635.29 230.252 1630.81 228.972 1626.73 226.412C1622.65 223.852 1620.61 219.212 1620.61 212.492C1620.61 204.412 1623.93 198.692 1630.57 195.332C1637.21 191.892 1646.61 190.172 1658.77 190.172V185.732C1658.77 182.932 1658.13 180.772 1656.85 179.252C1655.65 177.732 1653.33 176.972 1649.89 176.972C1646.21 176.972 1643.57 177.532 1641.97 178.652C1640.45 179.772 1639.69 181.092 1639.69 182.612V184.412H1623.85C1623.77 183.932 1623.73 183.052 1623.73 181.772C1623.73 176.492 1626.05 172.252 1630.69 169.052C1635.41 165.852 1641.65 164.252 1649.41 164.252C1658.05 164.252 1664.49 166.012 1668.73 169.532C1673.05 173.052 1675.21 178.132 1675.21 184.772V212.612C1675.21 214.052 1675.61 215.132 1676.41 215.852C1677.21 216.492 1678.21 216.812 1679.41 216.812H1682.77V228.332C1680.21 229.612 1677.05 230.252 1673.29 230.252C1670.01 230.252 1667.25 229.532 1665.01 228.092C1662.85 226.652 1661.37 224.612 1660.57 221.972H1659.85C1657.53 224.692 1654.85 226.772 1651.81 228.212C1648.85 229.572 1644.97 230.252 1640.17 230.252ZM1645.33 217.292C1649.97 217.292 1653.37 216.012 1655.53 213.452C1657.69 210.812 1658.77 207.332 1658.77 203.012V201.092C1644.45 201.092 1637.29 204.292 1637.29 210.692C1637.29 212.692 1637.93 214.292 1639.21 215.492C1640.57 216.692 1642.61 217.292 1645.33 217.292ZM1692.32 165.692H1706.36L1707.68 175.892H1708.52C1709.88 172.292 1711.64 169.452 1713.8 167.372C1715.96 165.292 1718.8 164.252 1722.32 164.252C1724.64 164.252 1726.72 164.612 1728.56 165.332V180.692H1724C1718.64 180.692 1714.76 182.172 1712.36 185.132C1709.96 188.012 1708.76 192.412 1708.76 198.332V228.812H1692.32V165.692ZM1738.97 165.692H1753.01L1754.21 173.972H1755.05C1759.69 167.492 1765.69 164.252 1773.05 164.252C1781.05 164.252 1786.57 167.492 1789.61 173.972H1790.57C1795.37 167.492 1801.61 164.252 1809.29 164.252C1815.29 164.252 1820.05 166.012 1823.57 169.532C1827.17 173.052 1828.97 178.692 1828.97 186.452V228.812H1812.53V189.932C1812.53 182.492 1809.45 178.772 1803.29 178.772C1800.09 178.772 1797.45 180.092 1795.37 182.732C1793.29 185.292 1792.25 188.492 1792.25 192.332V228.812H1775.81V189.932C1775.81 182.492 1772.73 178.772 1766.57 178.772C1763.37 178.772 1760.69 180.092 1758.53 182.732C1756.45 185.292 1755.41 188.492 1755.41 192.332V228.812H1738.97V165.692ZM1860.13 230.252C1855.25 230.252 1850.77 228.972 1846.69 226.412C1842.61 223.852 1840.57 219.212 1840.57 212.492C1840.57 204.412 1843.89 198.692 1850.53 195.332C1857.17 191.892 1866.57 190.172 1878.73 190.172V185.732C1878.73 182.932 1878.09 180.772 1876.81 179.252C1875.61 177.732 1873.29 176.972 1869.85 176.972C1866.17 176.972 1863.53 177.532 1861.93 178.652C1860.41 179.772 1859.65 181.092 1859.65 182.612V184.412H1843.81C1843.73 183.932 1843.69 183.052 1843.69 181.772C1843.69 176.492 1846.01 172.252 1850.65 169.052C1855.37 165.852 1861.61 164.252 1869.37 164.252C1878.01 164.252 1884.45 166.012 1888.69 169.532C1893.01 173.052 1895.17 178.132 1895.17 184.772V212.612C1895.17 214.052 1895.57 215.132 1896.37 215.852C1897.17 216.492 1898.17 216.812 1899.37 216.812H1902.73V228.332C1900.17 229.612 1897.01 230.252 1893.25 230.252C1889.97 230.252 1887.21 229.532 1884.97 228.092C1882.81 226.652 1881.33 224.612 1880.53 221.972H1879.81C1877.49 224.692 1874.81 226.772 1871.77 228.212C1868.81 229.572 1864.93 230.252 1860.13 230.252ZM1865.29 217.292C1869.93 217.292 1873.33 216.012 1875.49 213.452C1877.65 210.812 1878.73 207.332 1878.73 203.012V201.092C1864.41 201.092 1857.25 204.292 1857.25 210.692C1857.25 212.692 1857.89 214.292 1859.17 215.492C1860.53 216.692 1862.57 217.292 1865.29 217.292ZM2118.76 277.492H2178.4V292.252H2136.16V312.532H2173.96V327.292H2136.16V359.812H2118.76V277.492ZM2213.12 361.252C2206.64 361.252 2201.52 359.492 2197.76 355.972C2194.08 352.452 2192.24 346.812 2192.24 339.052V296.692H2208.68V335.572C2208.68 339.492 2209.6 342.332 2211.44 344.092C2213.28 345.852 2216 346.732 2219.6 346.732C2223.28 346.732 2226.32 345.452 2228.72 342.892C2231.2 340.252 2232.44 337.012 2232.44 333.172V296.692H2248.88V359.812H2234.84L2233.64 351.532H2232.8C2227.68 358.012 2221.12 361.252 2213.12 361.252ZM2265.96 273.052H2282.4V359.812H2265.96V273.052ZM2299.36 273.052H2315.8V359.812H2299.36V273.052ZM1138.37 408.492H1155.77V475.692H1200.17V490.812H1138.37V408.492ZM1212.09 404.052H1228.53V419.652H1212.09V404.052ZM1212.09 427.692H1228.53V490.812H1212.09V427.692ZM1271.77 492.252C1261.69 492.252 1254.13 489.572 1249.09 484.212C1244.13 478.852 1241.65 470.532 1241.65 459.252C1241.65 448.052 1244.13 439.772 1249.09 434.412C1254.13 428.972 1261.69 426.252 1271.77 426.252C1280.17 426.252 1286.85 428.412 1291.81 432.732C1296.85 436.972 1299.37 443.212 1299.37 451.452H1282.81C1282.81 447.612 1281.81 444.652 1279.81 442.572C1277.81 440.492 1275.01 439.452 1271.41 439.452C1266.93 439.452 1263.61 441.052 1261.45 444.252C1259.37 447.372 1258.33 452.052 1258.33 458.292V460.212C1258.33 466.452 1259.41 471.172 1261.57 474.372C1263.81 477.492 1267.37 479.052 1272.25 479.052C1275.69 479.052 1278.41 478.012 1280.41 475.932C1282.49 473.772 1283.53 470.812 1283.53 467.052H1299.37C1299.37 475.292 1296.89 481.572 1291.93 485.892C1286.97 490.132 1280.25 492.252 1271.77 492.252ZM1338.33 492.252C1328.17 492.252 1320.57 489.572 1315.53 484.212C1310.57 478.852 1308.09 470.532 1308.09 459.252C1308.09 447.972 1310.57 439.652 1315.53 434.292C1320.57 428.932 1328.17 426.252 1338.33 426.252C1347.69 426.252 1354.69 428.972 1359.33 434.412C1363.97 439.772 1366.29 448.052 1366.29 459.252V463.092H1324.77C1324.93 468.692 1326.05 472.852 1328.13 475.572C1330.21 478.212 1333.69 479.532 1338.57 479.532C1342.01 479.532 1344.77 478.572 1346.85 476.652C1349.01 474.732 1350.09 472.012 1350.09 468.492H1366.29C1366.29 476.412 1363.73 482.372 1358.61 486.372C1353.49 490.292 1346.73 492.252 1338.33 492.252ZM1349.25 452.172C1349.25 443.452 1345.61 439.092 1338.33 439.092C1334.17 439.092 1331.01 440.172 1328.85 442.332C1326.77 444.492 1325.49 447.772 1325.01 452.172H1349.25ZM1378.97 427.692H1393.01L1394.21 435.972H1395.05C1400.17 429.492 1406.73 426.252 1414.73 426.252C1421.21 426.252 1426.29 428.012 1429.97 431.532C1433.73 435.052 1435.61 440.692 1435.61 448.452V490.812H1419.17V451.932C1419.17 448.012 1418.25 445.172 1416.41 443.412C1414.57 441.652 1411.85 440.772 1408.25 440.772C1404.57 440.772 1401.49 442.092 1399.01 444.732C1396.61 447.292 1395.41 450.492 1395.41 454.332V490.812H1378.97V427.692ZM1477.52 492.252C1468.72 492.252 1461.8 490.452 1456.76 486.852C1451.8 483.172 1449.32 478.292 1449.32 472.212L1449.44 470.772H1465.4V471.612C1465.48 474.412 1466.72 476.452 1469.12 477.732C1471.6 478.932 1474.6 479.532 1478.12 479.532C1481.4 479.532 1484.2 479.092 1486.52 478.212C1488.84 477.332 1490 475.892 1490 473.892C1490 471.652 1488.8 469.972 1486.4 468.852C1484.08 467.732 1480.4 466.612 1475.36 465.492C1470.16 464.292 1465.92 463.092 1462.64 461.892C1459.36 460.612 1456.52 458.652 1454.12 456.012C1451.72 453.372 1450.52 449.852 1450.52 445.452C1450.52 439.292 1453.08 434.572 1458.2 431.292C1463.4 427.932 1470.08 426.252 1478.24 426.252C1485.84 426.252 1492.12 427.812 1497.08 430.932C1502.04 433.972 1504.52 438.132 1504.52 443.412L1504.4 446.172H1488.44V445.452C1488.44 443.372 1487.44 441.772 1485.44 440.652C1483.52 439.532 1480.92 438.972 1477.64 438.972C1474.36 438.972 1471.76 439.412 1469.84 440.292C1467.92 441.172 1466.96 442.412 1466.96 444.012C1466.96 446.012 1468.04 447.492 1470.2 448.452C1472.44 449.412 1476 450.372 1480.88 451.332C1486.24 452.532 1490.6 453.732 1493.96 454.932C1497.32 456.132 1500.24 458.092 1502.72 460.812C1505.2 463.532 1506.44 467.212 1506.44 471.852C1506.44 485.452 1496.8 492.252 1477.52 492.252ZM1545.04 492.252C1534.88 492.252 1527.28 489.572 1522.24 484.212C1517.28 478.852 1514.8 470.532 1514.8 459.252C1514.8 447.972 1517.28 439.652 1522.24 434.292C1527.28 428.932 1534.88 426.252 1545.04 426.252C1554.4 426.252 1561.4 428.972 1566.04 434.412C1570.68 439.772 1573 448.052 1573 459.252V463.092H1531.48C1531.64 468.692 1532.76 472.852 1534.84 475.572C1536.92 478.212 1540.4 479.532 1545.28 479.532C1548.72 479.532 1551.48 478.572 1553.56 476.652C1555.72 474.732 1556.8 472.012 1556.8 468.492H1573C1573 476.412 1570.44 482.372 1565.32 486.372C1560.2 490.292 1553.44 492.252 1545.04 492.252ZM1555.96 452.172C1555.96 443.452 1552.32 439.092 1545.04 439.092C1540.88 439.092 1537.72 440.172 1535.56 442.332C1533.48 444.492 1532.2 447.772 1531.72 452.172H1555.96Z" fill="#D69090"/>
<path d="M1138.37 277.492H1185.53C1189.85 277.492 1193.77 278.372 1197.29 280.132C1200.81 281.812 1203.57 284.212 1205.57 287.332C1207.57 290.372 1208.57 293.892 1208.57 297.892C1208.57 302.452 1207.29 306.412 1204.73 309.772C1202.25 313.052 1199.05 315.332 1195.13 316.612V317.092C1199.77 317.972 1203.53 320.252 1206.41 323.932C1209.37 327.532 1210.85 331.812 1210.85 336.772C1210.85 344.212 1208.45 349.932 1203.65 353.932C1198.93 357.852 1192.89 359.812 1185.53 359.812H1138.37V277.492ZM1180.61 310.372C1183.81 310.372 1186.29 309.572 1188.05 307.972C1189.81 306.292 1190.69 304.172 1190.69 301.612C1190.69 298.572 1189.85 296.252 1188.17 294.652C1186.57 293.052 1184.33 292.252 1181.45 292.252H1155.89V310.372H1180.61ZM1182.65 345.052C1185.69 345.052 1188.17 344.172 1190.09 342.412C1192.01 340.652 1192.97 338.132 1192.97 334.852C1192.97 331.892 1192.01 329.492 1190.09 327.652C1188.17 325.812 1185.37 324.892 1181.69 324.892H1155.89V345.052H1182.65ZM1239.97 361.252C1235.09 361.252 1230.61 359.972 1226.53 357.412C1222.45 354.852 1220.41 350.212 1220.41 343.492C1220.41 335.412 1223.73 329.692 1230.37 326.332C1237.01 322.892 1246.41 321.172 1258.57 321.172V316.732C1258.57 313.932 1257.93 311.772 1256.65 310.252C1255.45 308.732 1253.13 307.972 1249.69 307.972C1246.01 307.972 1243.37 308.532 1241.77 309.652C1240.25 310.772 1239.49 312.092 1239.49 313.612V315.412H1223.65C1223.57 314.932 1223.53 314.052 1223.53 312.772C1223.53 307.492 1225.85 303.252 1230.49 300.052C1235.21 296.852 1241.45 295.252 1249.21 295.252C1257.85 295.252 1264.29 297.012 1268.53 300.532C1272.85 304.052 1275.01 309.132 1275.01 315.772V343.612C1275.01 345.052 1275.41 346.132 1276.21 346.852C1277.01 347.492 1278.01 347.812 1279.21 347.812H1282.57V359.332C1280.01 360.612 1276.85 361.252 1273.09 361.252C1269.81 361.252 1267.05 360.532 1264.81 359.092C1262.65 357.652 1261.17 355.612 1260.37 352.972H1259.65C1257.33 355.692 1254.65 357.772 1251.61 359.212C1248.65 360.572 1244.77 361.252 1239.97 361.252ZM1245.13 348.292C1249.77 348.292 1253.17 347.012 1255.33 344.452C1257.49 341.812 1258.57 338.332 1258.57 334.012V332.092C1244.25 332.092 1237.09 335.292 1237.09 341.692C1237.09 343.692 1237.73 345.292 1239.01 346.492C1240.37 347.692 1242.41 348.292 1245.13 348.292ZM1317.33 361.252C1308.53 361.252 1301.61 359.452 1296.57 355.852C1291.61 352.172 1289.13 347.292 1289.13 341.212L1289.25 339.772H1305.21V340.612C1305.29 343.412 1306.53 345.452 1308.93 346.732C1311.41 347.932 1314.41 348.532 1317.93 348.532C1321.21 348.532 1324.01 348.092 1326.33 347.212C1328.65 346.332 1329.81 344.892 1329.81 342.892C1329.81 340.652 1328.61 338.972 1326.21 337.852C1323.89 336.732 1320.21 335.612 1315.17 334.492C1309.97 333.292 1305.73 332.092 1302.45 330.892C1299.17 329.612 1296.33 327.652 1293.93 325.012C1291.53 322.372 1290.33 318.852 1290.33 314.452C1290.33 308.292 1292.89 303.572 1298.01 300.292C1303.21 296.932 1309.89 295.252 1318.05 295.252C1325.65 295.252 1331.93 296.812 1336.89 299.932C1341.85 302.972 1344.33 307.132 1344.33 312.412L1344.21 315.172H1328.25V314.452C1328.25 312.372 1327.25 310.772 1325.25 309.652C1323.33 308.532 1320.73 307.972 1317.45 307.972C1314.17 307.972 1311.57 308.412 1309.65 309.292C1307.73 310.172 1306.77 311.412 1306.77 313.012C1306.77 315.012 1307.85 316.492 1310.01 317.452C1312.25 318.412 1315.81 319.372 1320.69 320.332C1326.05 321.532 1330.41 322.732 1333.77 323.932C1337.13 325.132 1340.05 327.092 1342.53 329.812C1345.01 332.532 1346.25 336.212 1346.25 340.852C1346.25 354.452 1336.61 361.252 1317.33 361.252ZM1358.69 273.052H1375.13V288.652H1358.69V273.052ZM1358.69 296.692H1375.13V359.812H1358.69V296.692ZM1418.37 361.252C1408.29 361.252 1400.73 358.572 1395.69 353.212C1390.73 347.852 1388.25 339.532 1388.25 328.252C1388.25 317.052 1390.73 308.772 1395.69 303.412C1400.73 297.972 1408.29 295.252 1418.37 295.252C1426.77 295.252 1433.45 297.412 1438.41 301.732C1443.45 305.972 1445.97 312.212 1445.97 320.452H1429.41C1429.41 316.612 1428.41 313.652 1426.41 311.572C1424.41 309.492 1421.61 308.452 1418.01 308.452C1413.53 308.452 1410.21 310.052 1408.05 313.252C1405.97 316.372 1404.93 321.052 1404.93 327.292V329.212C1404.93 335.452 1406.01 340.172 1408.17 343.372C1410.41 346.492 1413.97 348.052 1418.85 348.052C1422.29 348.052 1425.01 347.012 1427.01 344.932C1429.09 342.772 1430.13 339.812 1430.13 336.052H1445.97C1445.97 344.292 1443.49 350.572 1438.53 354.892C1433.57 359.132 1426.85 361.252 1418.37 361.252ZM1491.81 277.492H1509.21V344.692H1553.61V359.812H1491.81V277.492ZM1565.53 273.052H1581.97V288.652H1565.53V273.052ZM1565.53 296.692H1581.97V359.812H1565.53V296.692ZM1625.2 361.252C1615.12 361.252 1607.56 358.572 1602.52 353.212C1597.56 347.852 1595.08 339.532 1595.08 328.252C1595.08 317.052 1597.56 308.772 1602.52 303.412C1607.56 297.972 1615.12 295.252 1625.2 295.252C1633.6 295.252 1640.28 297.412 1645.24 301.732C1650.28 305.972 1652.8 312.212 1652.8 320.452H1636.24C1636.24 316.612 1635.24 313.652 1633.24 311.572C1631.24 309.492 1628.44 308.452 1624.84 308.452C1620.36 308.452 1617.04 310.052 1614.88 313.252C1612.8 316.372 1611.76 321.052 1611.76 327.292V329.212C1611.76 335.452 1612.84 340.172 1615 343.372C1617.24 346.492 1620.8 348.052 1625.68 348.052C1629.12 348.052 1631.84 347.012 1633.84 344.932C1635.92 342.772 1636.96 339.812 1636.96 336.052H1652.8C1652.8 344.292 1650.32 350.572 1645.36 354.892C1640.4 359.132 1633.68 361.252 1625.2 361.252ZM1691.76 361.252C1681.6 361.252 1674 358.572 1668.96 353.212C1664 347.852 1661.52 339.532 1661.52 328.252C1661.52 316.972 1664 308.652 1668.96 303.292C1674 297.932 1681.6 295.252 1691.76 295.252C1701.12 295.252 1708.12 297.972 1712.76 303.412C1717.4 308.772 1719.72 317.052 1719.72 328.252V332.092H1678.2C1678.36 337.692 1679.48 341.852 1681.56 344.572C1683.64 347.212 1687.12 348.532 1692 348.532C1695.44 348.532 1698.2 347.572 1700.28 345.652C1702.44 343.732 1703.52 341.012 1703.52 337.492H1719.72C1719.72 345.412 1717.16 351.372 1712.04 355.372C1706.92 359.292 1700.16 361.252 1691.76 361.252ZM1702.68 321.172C1702.68 312.452 1699.04 308.092 1691.76 308.092C1687.6 308.092 1684.44 309.172 1682.28 311.332C1680.2 313.492 1678.92 316.772 1678.44 321.172H1702.68ZM1732.4 296.692H1746.44L1747.64 304.972H1748.48C1753.6 298.492 1760.16 295.252 1768.16 295.252C1774.64 295.252 1779.72 297.012 1783.4 300.532C1787.16 304.052 1789.04 309.692 1789.04 317.452V359.812H1772.6V320.932C1772.6 317.012 1771.68 314.172 1769.84 312.412C1768 310.652 1765.28 309.772 1761.68 309.772C1758 309.772 1754.92 311.092 1752.44 313.732C1750.04 316.292 1748.84 319.492 1748.84 323.332V359.812H1732.4V296.692ZM1830.96 361.252C1822.16 361.252 1815.24 359.452 1810.2 355.852C1805.24 352.172 1802.76 347.292 1802.76 341.212L1802.88 339.772H1818.84V340.612C1818.92 343.412 1820.16 345.452 1822.56 346.732C1825.04 347.932 1828.04 348.532 1831.56 348.532C1834.84 348.532 1837.64 348.092 1839.96 347.212C1842.28 346.332 1843.44 344.892 1843.44 342.892C1843.44 340.652 1842.24 338.972 1839.84 337.852C1837.52 336.732 1833.84 335.612 1828.8 334.492C1823.6 333.292 1819.36 332.092 1816.08 330.892C1812.8 329.612 1809.96 327.652 1807.56 325.012C1805.16 322.372 1803.96 318.852 1803.96 314.452C1803.96 308.292 1806.52 303.572 1811.64 300.292C1816.84 296.932 1823.52 295.252 1831.68 295.252C1839.28 295.252 1845.56 296.812 1850.52 299.932C1855.48 302.972 1857.96 307.132 1857.96 312.412L1857.84 315.172H1841.88V314.452C1841.88 312.372 1840.88 310.772 1838.88 309.652C1836.96 308.532 1834.36 307.972 1831.08 307.972C1827.8 307.972 1825.2 308.412 1823.28 309.292C1821.36 310.172 1820.4 311.412 1820.4 313.012C1820.4 315.012 1821.48 316.492 1823.64 317.452C1825.88 318.412 1829.44 319.372 1834.32 320.332C1839.68 321.532 1844.04 322.732 1847.4 323.932C1850.76 325.132 1853.68 327.092 1856.16 329.812C1858.64 332.532 1859.88 336.212 1859.88 340.852C1859.88 354.452 1850.24 361.252 1830.96 361.252ZM1898.48 361.252C1888.32 361.252 1880.72 358.572 1875.68 353.212C1870.72 347.852 1868.24 339.532 1868.24 328.252C1868.24 316.972 1870.72 308.652 1875.68 303.292C1880.72 297.932 1888.32 295.252 1898.48 295.252C1907.84 295.252 1914.84 297.972 1919.48 303.412C1924.12 308.772 1926.44 317.052 1926.44 328.252V332.092H1884.92C1885.08 337.692 1886.2 341.852 1888.28 344.572C1890.36 347.212 1893.84 348.532 1898.72 348.532C1902.16 348.532 1904.92 347.572 1907 345.652C1909.16 343.732 1910.24 341.012 1910.24 337.492H1926.44C1926.44 345.412 1923.88 351.372 1918.76 355.372C1913.64 359.292 1906.88 361.252 1898.48 361.252ZM1909.4 321.172C1909.4 312.452 1905.76 308.092 1898.48 308.092C1894.32 308.092 1891.16 309.172 1889 311.332C1886.92 313.492 1885.64 316.772 1885.16 321.172H1909.4Z" fill="#658566"/>
<path d="M96.04 759.725H160.72V774.485H113.44V792.605H155.44V807.365H113.44V827.285H161.44V842.045H96.04V759.725ZM191.079 843.485C186.199 843.485 181.719 842.205 177.639 839.645C173.559 837.085 171.519 832.445 171.519 825.725C171.519 817.645 174.839 811.925 181.479 808.565C188.119 805.125 197.519 803.405 209.679 803.405V798.965C209.679 796.165 209.039 794.005 207.759 792.485C206.559 790.965 204.239 790.205 200.799 790.205C197.119 790.205 194.479 790.765 192.879 791.885C191.359 793.005 190.599 794.325 190.599 795.845V797.645H174.759C174.679 797.165 174.639 796.285 174.639 795.005C174.639 789.725 176.959 785.485 181.599 782.285C186.319 779.085 192.559 777.485 200.319 777.485C208.959 777.485 215.399 779.245 219.639 782.765C223.959 786.285 226.119 791.365 226.119 798.005V825.845C226.119 827.285 226.519 828.365 227.319 829.085C228.119 829.725 229.119 830.045 230.319 830.045H233.679V841.565C231.119 842.845 227.959 843.485 224.199 843.485C220.919 843.485 218.159 842.765 215.919 841.325C213.759 839.885 212.279 837.845 211.479 835.205H210.759C208.439 837.925 205.759 840.005 202.719 841.445C199.759 842.805 195.879 843.485 191.079 843.485ZM196.239 830.525C200.879 830.525 204.279 829.245 206.439 826.685C208.599 824.045 209.679 820.565 209.679 816.245V814.325C195.359 814.325 188.199 817.525 188.199 823.925C188.199 825.925 188.839 827.525 190.119 828.725C191.479 829.925 193.519 830.525 196.239 830.525ZM243.239 778.925H257.279L258.599 789.125H259.439C260.799 785.525 262.559 782.685 264.719 780.605C266.879 778.525 269.719 777.485 273.239 777.485C275.559 777.485 277.639 777.845 279.479 778.565V793.925H274.919C269.559 793.925 265.679 795.405 263.279 798.365C260.879 801.245 259.679 805.645 259.679 811.565V842.045H243.239V778.925ZM289.879 778.925H303.919L305.119 787.205H305.959C311.079 780.725 317.639 777.485 325.639 777.485C332.119 777.485 337.199 779.245 340.879 782.765C344.639 786.285 346.519 791.925 346.519 799.685V842.045H330.079V803.165C330.079 799.245 329.159 796.405 327.319 794.645C325.479 792.885 322.759 792.005 319.159 792.005C315.479 792.005 312.399 793.325 309.919 795.965C307.519 798.525 306.319 801.725 306.319 805.565V842.045H289.879V778.925ZM838.438 843.485C834.358 843.485 830.638 842.685 827.278 841.085C823.918 839.405 821.238 836.965 819.238 833.765H818.398L817.318 842.045H803.278V755.285H819.718V786.245H820.438C822.278 783.445 824.798 781.285 827.998 779.765C831.278 778.245 835.038 777.485 839.278 777.485C846.638 777.485 852.518 780.245 856.918 785.765C861.398 791.285 863.638 799.485 863.638 810.365C863.638 821.485 861.438 829.805 857.038 835.325C852.638 840.765 846.438 843.485 838.438 843.485ZM833.158 829.205C838.038 829.205 841.518 827.765 843.598 824.885C845.678 821.925 846.718 817.485 846.718 811.565V809.405C846.718 803.485 845.678 799.085 843.598 796.205C841.518 793.245 838.038 791.765 833.158 791.765C824.198 791.765 819.718 797.725 819.718 809.645V811.565C819.718 823.325 824.198 829.205 833.158 829.205ZM886.237 863.885C881.837 863.885 878.077 863.365 874.957 862.325V850.805H882.757C885.557 850.805 887.837 850.125 889.597 848.765C891.357 847.405 892.797 845.165 893.917 842.045L869.197 778.925H886.357L898.237 808.565C899.437 811.685 900.917 817.165 902.677 825.005H903.277C905.197 817.645 906.677 812.205 907.717 808.685L917.077 778.925H933.757L912.517 838.805C910.597 844.085 908.597 848.485 906.517 852.005C904.437 855.605 901.717 858.485 898.357 860.645C895.077 862.805 891.037 863.885 886.237 863.885ZM96.52 909.925H110.56L111.64 918.205H112.48C114.48 915.005 117.16 912.605 120.52 911.005C123.88 909.325 127.6 908.485 131.68 908.485C139.68 908.485 145.88 911.245 150.28 916.765C154.68 922.205 156.88 930.485 156.88 941.605C156.88 952.485 154.64 960.685 150.16 966.205C145.76 971.725 139.88 974.485 132.52 974.485C128.28 974.485 124.52 973.725 121.24 972.205C118.04 970.685 115.52 968.525 113.68 965.725H112.96V993.805H96.52V909.925ZM126.4 960.205C131.28 960.205 134.76 958.765 136.84 955.885C138.92 952.925 139.96 948.485 139.96 942.565V940.405C139.96 934.485 138.92 930.085 136.84 927.205C134.76 924.245 131.28 922.765 126.4 922.765C117.44 922.765 112.96 928.645 112.96 940.405V942.325C112.96 954.245 117.44 960.205 126.4 960.205ZM190.399 974.485C183.919 974.485 178.799 972.725 175.039 969.205C171.359 965.685 169.519 960.045 169.519 952.285V909.925H185.959V948.805C185.959 952.725 186.879 955.565 188.719 957.325C190.559 959.085 193.279 959.965 196.879 959.965C200.559 959.965 203.599 958.685 205.999 956.125C208.479 953.485 209.719 950.245 209.719 946.405V909.925H226.159V973.045H212.119L210.919 964.765H210.079C204.959 971.245 198.399 974.485 190.399 974.485ZM278.399 974.485C274.319 974.485 270.599 973.685 267.239 972.085C263.879 970.405 261.199 967.965 259.199 964.765H258.359L257.279 973.045H243.239V886.285H259.679V917.245H260.399C262.239 914.445 264.759 912.285 267.959 910.765C271.239 909.245 274.999 908.485 279.239 908.485C286.599 908.485 292.479 911.245 296.879 916.765C301.359 922.285 303.599 930.485 303.599 941.365C303.599 952.485 301.399 960.805 296.999 966.325C292.599 971.765 286.399 974.485 278.399 974.485ZM273.119 960.205C277.999 960.205 281.479 958.765 283.559 955.885C285.639 952.925 286.679 948.485 286.679 942.565V940.405C286.679 934.485 285.639 930.085 283.559 927.205C281.479 924.245 277.999 922.765 273.119 922.765C264.159 922.765 259.679 928.725 259.679 940.645V942.565C259.679 954.325 264.159 960.205 273.119 960.205ZM316.598 886.285H333.038V973.045H316.598V886.285ZM349.877 886.285H366.317V901.885H349.877V886.285ZM349.877 909.925H366.317V973.045H349.877V909.925ZM408.595 974.485C399.795 974.485 392.875 972.685 387.835 969.085C382.875 965.405 380.395 960.525 380.395 954.445L380.515 953.005H396.475V953.845C396.555 956.645 397.795 958.685 400.195 959.965C402.675 961.165 405.675 961.765 409.195 961.765C412.475 961.765 415.275 961.325 417.595 960.445C419.915 959.565 421.075 958.125 421.075 956.125C421.075 953.885 419.875 952.205 417.475 951.085C415.155 949.965 411.475 948.845 406.435 947.725C401.235 946.525 396.995 945.325 393.715 944.125C390.435 942.845 387.595 940.885 385.195 938.245C382.795 935.605 381.595 932.085 381.595 927.685C381.595 921.525 384.155 916.805 389.275 913.525C394.475 910.165 401.155 908.485 409.315 908.485C416.915 908.485 423.195 910.045 428.155 913.165C433.115 916.205 435.595 920.365 435.595 925.645L435.475 928.405H419.515V927.685C419.515 925.605 418.515 924.005 416.515 922.885C414.595 921.765 411.995 921.205 408.715 921.205C405.435 921.205 402.835 921.645 400.915 922.525C398.995 923.405 398.035 924.645 398.035 926.245C398.035 928.245 399.115 929.725 401.275 930.685C403.515 931.645 407.075 932.605 411.955 933.565C417.315 934.765 421.675 935.965 425.035 937.165C428.395 938.365 431.315 940.325 433.795 943.045C436.275 945.765 437.515 949.445 437.515 954.085C437.515 967.685 427.875 974.485 408.595 974.485ZM450.075 886.285H466.515V917.245H467.355C472.155 911.405 478.315 908.485 485.835 908.485C492.315 908.485 497.395 910.245 501.075 913.765C504.835 917.285 506.715 922.925 506.715 930.685V973.045H490.275V934.165C490.275 930.245 489.355 927.405 487.515 925.645C485.675 923.885 482.955 923.005 479.355 923.005C475.675 923.005 472.595 924.325 470.115 926.965C467.715 929.525 466.515 932.725 466.515 936.565V973.045H450.075V886.285ZM523.314 886.285H539.754V901.885H523.314V886.285ZM523.314 909.925H539.754V973.045H523.314V909.925ZM556.833 909.925H570.873L572.073 918.205H572.913C578.033 911.725 584.593 908.485 592.593 908.485C599.073 908.485 604.153 910.245 607.833 913.765C611.593 917.285 613.473 922.925 613.473 930.685V973.045H597.033V934.165C597.033 930.245 596.113 927.405 594.273 925.645C592.433 923.885 589.713 923.005 586.113 923.005C582.433 923.005 579.353 924.325 576.873 926.965C574.473 929.525 573.273 932.725 573.273 936.565V973.045H556.833V909.925ZM640.272 994.885C635.872 994.885 632.152 993.525 629.112 990.805C626.072 988.085 624.552 984.605 624.552 980.365C624.552 974.765 627.792 970.485 634.272 967.525C630.192 965.445 628.152 962.285 628.152 958.045C628.152 955.405 629.192 953.125 631.272 951.205C633.352 949.205 636.032 947.805 639.312 947.005C633.152 943.245 630.072 937.565 630.072 929.965C630.072 923.325 632.472 918.085 637.272 914.245C642.152 910.405 649.072 908.485 658.032 908.485C662.912 908.485 667.152 909.085 670.752 910.285C673.152 908.765 674.872 906.965 675.912 904.885C677.032 902.725 677.592 900.885 677.592 899.365H693.672C693.672 903.765 692.472 907.325 690.072 910.045C687.752 912.685 684.432 914.485 680.112 915.445C684.112 919.205 686.112 924.045 686.112 929.965C686.112 936.605 683.752 941.845 679.032 945.685C674.392 949.525 667.712 951.445 658.992 951.445H649.392C647.952 951.445 646.792 951.765 645.912 952.405C645.112 953.045 644.712 953.925 644.712 955.045C644.712 956.005 645.072 956.845 645.792 957.565C646.512 958.205 647.472 958.525 648.672 958.525H677.352C681.992 958.525 685.872 960.085 688.992 963.205C692.112 966.325 693.672 970.405 693.672 975.445C693.672 979.285 692.632 982.685 690.552 985.645C688.472 988.605 685.632 990.885 682.032 992.485C678.432 994.085 674.472 994.885 670.152 994.885H640.272ZM658.032 940.285C661.872 940.285 664.792 939.405 666.792 937.645C668.792 935.805 669.792 933.245 669.792 929.965C669.792 926.685 668.792 924.165 666.792 922.405C664.792 920.565 661.872 919.645 658.032 919.645C654.192 919.645 651.272 920.565 649.272 922.405C647.352 924.165 646.392 926.685 646.392 929.965C646.392 933.245 647.352 935.805 649.272 937.645C651.272 939.405 654.192 940.285 658.032 940.285ZM669.912 983.485C671.992 983.485 673.712 982.965 675.072 981.925C676.432 980.885 677.112 979.525 677.112 977.845C677.112 976.085 676.472 974.725 675.192 973.765C673.992 972.805 672.472 972.325 670.632 972.325H647.472C645.712 972.325 644.192 972.845 642.912 973.885C641.712 974.925 641.112 976.245 641.112 977.845C641.112 979.525 641.712 980.885 642.912 981.925C644.112 982.965 645.632 983.485 647.472 983.485H669.912ZM757.47 974.485C750.99 974.485 745.87 972.725 742.11 969.205C738.43 965.685 736.59 960.045 736.59 952.285V909.925H753.03V948.805C753.03 952.725 753.95 955.565 755.79 957.325C757.63 959.085 760.35 959.965 763.95 959.965C767.63 959.965 770.67 958.685 773.07 956.125C775.55 953.485 776.79 950.245 776.79 946.405V909.925H793.23V973.045H779.19L777.99 964.765H777.15C772.03 971.245 765.47 974.485 757.47 974.485ZM810.309 909.925H824.349L825.429 918.205H826.269C828.269 915.005 830.949 912.605 834.309 911.005C837.669 909.325 841.389 908.485 845.469 908.485C853.469 908.485 859.669 911.245 864.069 916.765C868.469 922.205 870.669 930.485 870.669 941.605C870.669 952.485 868.429 960.685 863.949 966.205C859.549 971.725 853.669 974.485 846.309 974.485C842.069 974.485 838.309 973.725 835.029 972.205C831.829 970.685 829.309 968.525 827.469 965.725H826.749V993.805H810.309V909.925ZM840.189 960.205C845.069 960.205 848.549 958.765 850.629 955.885C852.709 952.925 853.749 948.485 853.749 942.565V940.405C853.749 934.485 852.709 930.085 850.629 927.205C848.549 924.245 845.069 922.765 840.189 922.765C831.229 922.765 826.749 928.645 826.749 940.405V942.325C826.749 954.245 831.229 960.205 840.189 960.205ZM883.668 886.285H900.108V973.045H883.668V886.285ZM945.147 974.485C934.347 974.485 926.307 971.805 921.027 966.445C915.747 961.085 913.107 952.765 913.107 941.485C913.107 930.205 915.747 921.885 921.027 916.525C926.307 911.165 934.347 908.485 945.147 908.485C955.947 908.485 963.987 911.165 969.267 916.525C974.627 921.885 977.307 930.205 977.307 941.485C977.307 952.765 974.627 961.085 969.267 966.445C963.987 971.805 955.947 974.485 945.147 974.485ZM945.147 961.045C950.507 961.045 954.387 959.525 956.787 956.485C959.187 953.365 960.387 948.685 960.387 942.445V940.525C960.387 934.285 959.187 929.645 956.787 926.605C954.387 923.485 950.507 921.925 945.147 921.925C939.787 921.925 935.907 923.485 933.507 926.605C931.187 929.645 930.027 934.285 930.027 940.525V942.445C930.027 948.685 931.187 953.365 933.507 956.485C935.907 959.525 939.787 961.045 945.147 961.045ZM1004.95 974.485C1000.07 974.485 995.586 973.205 991.506 970.645C987.426 968.085 985.386 963.445 985.386 956.725C985.386 948.645 988.706 942.925 995.346 939.565C1001.99 936.125 1011.39 934.405 1023.55 934.405V929.965C1023.55 927.165 1022.91 925.005 1021.63 923.485C1020.43 921.965 1018.11 921.205 1014.67 921.205C1010.99 921.205 1008.35 921.765 1006.75 922.885C1005.23 924.005 1004.47 925.325 1004.47 926.845V928.645H988.626C988.546 928.165 988.506 927.285 988.506 926.005C988.506 920.725 990.826 916.485 995.466 913.285C1000.19 910.085 1006.43 908.485 1014.19 908.485C1022.83 908.485 1029.27 910.245 1033.51 913.765C1037.83 917.285 1039.99 922.365 1039.99 929.005V956.845C1039.99 958.285 1040.39 959.365 1041.19 960.085C1041.99 960.725 1042.99 961.045 1044.19 961.045H1047.55V972.565C1044.99 973.845 1041.83 974.485 1038.07 974.485C1034.79 974.485 1032.03 973.765 1029.79 972.325C1027.63 970.885 1026.15 968.845 1025.35 966.205H1024.63C1022.31 968.925 1019.63 971.005 1016.59 972.445C1013.63 973.805 1009.75 974.485 1004.95 974.485ZM1010.11 961.525C1014.75 961.525 1018.15 960.245 1020.31 957.685C1022.47 955.045 1023.55 951.565 1023.55 947.245V945.325C1009.23 945.325 1002.07 948.525 1002.07 954.925C1002.07 956.925 1002.71 958.525 1003.99 959.725C1005.35 960.925 1007.39 961.525 1010.11 961.525ZM1078.23 974.485C1070.23 974.485 1064.03 971.765 1059.63 966.325C1055.23 960.805 1053.03 952.485 1053.03 941.365C1053.03 930.485 1055.23 922.285 1059.63 916.765C1064.11 911.245 1070.03 908.485 1077.39 908.485C1081.63 908.485 1085.35 909.245 1088.55 910.765C1091.83 912.285 1094.39 914.445 1096.23 917.245H1096.95V886.285H1113.39V973.045H1099.35L1098.27 964.765H1097.43C1095.43 967.965 1092.75 970.405 1089.39 972.085C1086.03 973.685 1082.31 974.485 1078.23 974.485ZM1083.51 960.205C1092.47 960.205 1096.95 954.325 1096.95 942.565V940.645C1096.95 928.725 1092.47 922.765 1083.51 922.765C1078.63 922.765 1075.15 924.245 1073.07 927.205C1070.99 930.085 1069.95 934.485 1069.95 940.405V942.565C1069.95 948.485 1070.99 952.925 1073.07 955.885C1075.15 958.765 1078.63 960.205 1083.51 960.205ZM1130.35 886.285H1146.79V901.885H1130.35V886.285ZM1130.35 909.925H1146.79V973.045H1130.35V909.925ZM1163.86 909.925H1177.9L1179.1 918.205H1179.94C1185.06 911.725 1191.62 908.485 1199.62 908.485C1206.1 908.485 1211.18 910.245 1214.86 913.765C1218.62 917.285 1220.5 922.925 1220.5 930.685V973.045H1204.06V934.165C1204.06 930.245 1203.14 927.405 1201.3 925.645C1199.46 923.885 1196.74 923.005 1193.14 923.005C1189.46 923.005 1186.38 924.325 1183.9 926.965C1181.5 929.525 1180.3 932.725 1180.3 936.565V973.045H1163.86V909.925ZM1247.3 994.885C1242.9 994.885 1239.18 993.525 1236.14 990.805C1233.1 988.085 1231.58 984.605 1231.58 980.365C1231.58 974.765 1234.82 970.485 1241.3 967.525C1237.22 965.445 1235.18 962.285 1235.18 958.045C1235.18 955.405 1236.22 953.125 1238.3 951.205C1240.38 949.205 1243.06 947.805 1246.34 947.005C1240.18 943.245 1237.1 937.565 1237.1 929.965C1237.1 923.325 1239.5 918.085 1244.3 914.245C1249.18 910.405 1256.1 908.485 1265.06 908.485C1269.94 908.485 1274.18 909.085 1277.78 910.285C1280.18 908.765 1281.9 906.965 1282.94 904.885C1284.06 902.725 1284.62 900.885 1284.62 899.365H1300.7C1300.7 903.765 1299.5 907.325 1297.1 910.045C1294.78 912.685 1291.46 914.485 1287.14 915.445C1291.14 919.205 1293.14 924.045 1293.14 929.965C1293.14 936.605 1290.78 941.845 1286.06 945.685C1281.42 949.525 1274.74 951.445 1266.02 951.445H1256.42C1254.98 951.445 1253.82 951.765 1252.94 952.405C1252.14 953.045 1251.74 953.925 1251.74 955.045C1251.74 956.005 1252.1 956.845 1252.82 957.565C1253.54 958.205 1254.5 958.525 1255.7 958.525H1284.38C1289.02 958.525 1292.9 960.085 1296.02 963.205C1299.14 966.325 1300.7 970.405 1300.7 975.445C1300.7 979.285 1299.66 982.685 1297.58 985.645C1295.5 988.605 1292.66 990.885 1289.06 992.485C1285.46 994.085 1281.5 994.885 1277.18 994.885H1247.3ZM1265.06 940.285C1268.9 940.285 1271.82 939.405 1273.82 937.645C1275.82 935.805 1276.82 933.245 1276.82 929.965C1276.82 926.685 1275.82 924.165 1273.82 922.405C1271.82 920.565 1268.9 919.645 1265.06 919.645C1261.22 919.645 1258.3 920.565 1256.3 922.405C1254.38 924.165 1253.42 926.685 1253.42 929.965C1253.42 933.245 1254.38 935.805 1256.3 937.645C1258.3 939.405 1261.22 940.285 1265.06 940.285ZM1276.94 983.485C1279.02 983.485 1280.74 982.965 1282.1 981.925C1283.46 980.885 1284.14 979.525 1284.14 977.845C1284.14 976.085 1283.5 974.725 1282.22 973.765C1281.02 972.805 1279.5 972.325 1277.66 972.325H1254.5C1252.74 972.325 1251.22 972.845 1249.94 973.885C1248.74 974.925 1248.14 976.245 1248.14 977.845C1248.14 979.525 1248.74 980.885 1249.94 981.925C1251.14 982.965 1252.66 983.485 1254.5 983.485H1276.94ZM106.12 1125.88C101.72 1125.88 97.96 1125.36 94.84 1124.32V1112.8H102.64C105.44 1112.8 107.72 1112.12 109.48 1110.76C111.24 1109.4 112.68 1107.16 113.8 1104.04L89.08 1040.92H106.24L118.12 1070.56C119.32 1073.68 120.8 1079.16 122.56 1087H123.16C125.08 1079.64 126.56 1074.2 127.6 1070.68L136.96 1040.92H153.64L132.4 1100.8C130.48 1106.08 128.48 1110.48 126.4 1114C124.32 1117.6 121.6 1120.48 118.24 1122.64C114.96 1124.8 110.92 1125.88 106.12 1125.88ZM191.28 1105.48C180.48 1105.48 172.44 1102.8 167.16 1097.44C161.88 1092.08 159.24 1083.76 159.24 1072.48C159.24 1061.2 161.88 1052.88 167.16 1047.52C172.44 1042.16 180.48 1039.48 191.28 1039.48C202.08 1039.48 210.12 1042.16 215.4 1047.52C220.76 1052.88 223.44 1061.2 223.44 1072.48C223.44 1083.76 220.76 1092.08 215.4 1097.44C210.12 1102.8 202.08 1105.48 191.28 1105.48ZM191.28 1092.04C196.64 1092.04 200.52 1090.52 202.92 1087.48C205.32 1084.36 206.52 1079.68 206.52 1073.44V1071.52C206.52 1065.28 205.32 1060.64 202.92 1057.6C200.52 1054.48 196.64 1052.92 191.28 1052.92C185.92 1052.92 182.04 1054.48 179.64 1057.6C177.32 1060.64 176.16 1065.28 176.16 1071.52V1073.44C176.16 1079.68 177.32 1084.36 179.64 1087.48C182.04 1090.52 185.92 1092.04 191.28 1092.04ZM257.079 1105.48C250.599 1105.48 245.479 1103.72 241.719 1100.2C238.039 1096.68 236.199 1091.04 236.199 1083.28V1040.92H252.639V1079.8C252.639 1083.72 253.559 1086.56 255.399 1088.32C257.239 1090.08 259.959 1090.96 263.559 1090.96C267.239 1090.96 270.279 1089.68 272.679 1087.12C275.159 1084.48 276.399 1081.24 276.399 1077.4V1040.92H292.839V1104.04H278.799L277.599 1095.76H276.759C271.639 1102.24 265.079 1105.48 257.079 1105.48ZM309.918 1040.92H323.958L325.278 1051.12H326.118C327.478 1047.52 329.238 1044.68 331.398 1042.6C333.558 1040.52 336.398 1039.48 339.918 1039.48C342.238 1039.48 344.318 1039.84 346.158 1040.56V1055.92H341.598C336.238 1055.92 332.358 1057.4 329.958 1060.36C327.558 1063.24 326.358 1067.64 326.358 1073.56V1104.04H309.918V1040.92ZM421.038 1105.48C414.718 1105.48 408.918 1104.52 403.638 1102.6C398.438 1100.6 394.278 1097.68 391.158 1093.84C388.038 1090 386.478 1085.36 386.478 1079.92L386.598 1077.28H404.238L404.118 1079.2C404.118 1082.72 405.678 1085.52 408.798 1087.6C411.918 1089.68 416.278 1090.72 421.878 1090.72C427.798 1090.72 432.078 1089.96 434.718 1088.44C437.358 1086.84 438.678 1084.72 438.678 1082.08C438.678 1079.76 437.798 1077.84 436.038 1076.32C434.358 1074.72 432.198 1073.48 429.558 1072.6C426.998 1071.64 423.438 1070.52 418.878 1069.24C412.398 1067.4 407.158 1065.64 403.158 1063.96C399.158 1062.28 395.718 1059.8 392.838 1056.52C389.958 1053.16 388.518 1048.76 388.518 1043.32C388.518 1035.8 391.558 1030.08 397.638 1026.16C403.718 1022.24 411.798 1020.28 421.878 1020.28C431.398 1020.28 439.158 1022.32 445.158 1026.4C451.238 1030.4 454.278 1036.44 454.278 1044.52V1045.96H436.998V1044.88C436.998 1041.84 435.598 1039.44 432.798 1037.68C430.078 1035.92 426.358 1035.04 421.638 1035.04C416.598 1035.04 412.718 1035.72 409.998 1037.08C407.358 1038.44 406.038 1040.32 406.038 1042.72C406.038 1044.56 406.838 1046.16 408.438 1047.52C410.038 1048.8 412.038 1049.88 414.438 1050.76C416.838 1051.56 420.238 1052.56 424.638 1053.76C431.198 1055.52 436.558 1057.28 440.718 1059.04C444.958 1060.72 448.598 1063.24 451.638 1066.6C454.678 1069.96 456.198 1074.36 456.198 1079.8C456.198 1088.6 453.038 1095.08 446.718 1099.24C440.478 1103.4 431.918 1105.48 421.038 1105.48ZM484.517 1105.48C479.637 1105.48 475.157 1104.2 471.077 1101.64C466.997 1099.08 464.957 1094.44 464.957 1087.72C464.957 1079.64 468.277 1073.92 474.917 1070.56C481.557 1067.12 490.957 1065.4 503.117 1065.4V1060.96C503.117 1058.16 502.477 1056 501.197 1054.48C499.997 1052.96 497.677 1052.2 494.237 1052.2C490.557 1052.2 487.917 1052.76 486.317 1053.88C484.797 1055 484.037 1056.32 484.037 1057.84V1059.64H468.197C468.117 1059.16 468.077 1058.28 468.077 1057C468.077 1051.72 470.397 1047.48 475.037 1044.28C479.757 1041.08 485.997 1039.48 493.757 1039.48C502.397 1039.48 508.837 1041.24 513.077 1044.76C517.397 1048.28 519.557 1053.36 519.557 1060V1087.84C519.557 1089.28 519.957 1090.36 520.757 1091.08C521.557 1091.72 522.557 1092.04 523.757 1092.04H527.117V1103.56C524.557 1104.84 521.397 1105.48 517.637 1105.48C514.357 1105.48 511.597 1104.76 509.357 1103.32C507.197 1101.88 505.717 1099.84 504.917 1097.2H504.197C501.877 1099.92 499.197 1102 496.157 1103.44C493.197 1104.8 489.317 1105.48 484.517 1105.48ZM489.677 1092.52C494.317 1092.52 497.717 1091.24 499.877 1088.68C502.037 1086.04 503.117 1082.56 503.117 1078.24V1076.32C488.797 1076.32 481.637 1079.52 481.637 1085.92C481.637 1087.92 482.277 1089.52 483.557 1090.72C484.917 1091.92 486.957 1092.52 489.677 1092.52ZM536.676 1040.92H550.716L551.916 1049.2H552.756C557.396 1042.72 563.396 1039.48 570.756 1039.48C578.756 1039.48 584.276 1042.72 587.316 1049.2H588.276C593.076 1042.72 599.316 1039.48 606.996 1039.48C612.996 1039.48 617.756 1041.24 621.276 1044.76C624.876 1048.28 626.676 1053.92 626.676 1061.68V1104.04H610.236V1065.16C610.236 1057.72 607.156 1054 600.996 1054C597.796 1054 595.156 1055.32 593.076 1057.96C590.996 1060.52 589.956 1063.72 589.956 1067.56V1104.04H573.516V1065.16C573.516 1057.72 570.436 1054 564.276 1054C561.076 1054 558.396 1055.32 556.236 1057.96C554.156 1060.52 553.116 1063.72 553.116 1067.56V1104.04H536.676V1040.92ZM643.317 1040.92H657.357L658.437 1049.2H659.277C661.277 1046 663.957 1043.6 667.317 1042C670.677 1040.32 674.397 1039.48 678.477 1039.48C686.477 1039.48 692.677 1042.24 697.077 1047.76C701.477 1053.2 703.677 1061.48 703.677 1072.6C703.677 1083.48 701.437 1091.68 696.957 1097.2C692.557 1102.72 686.677 1105.48 679.317 1105.48C675.077 1105.48 671.317 1104.72 668.037 1103.2C664.837 1101.68 662.317 1099.52 660.477 1096.72H659.757V1124.8H643.317V1040.92ZM673.197 1091.2C678.077 1091.2 681.557 1089.76 683.637 1086.88C685.717 1083.92 686.757 1079.48 686.757 1073.56V1071.4C686.757 1065.48 685.717 1061.08 683.637 1058.2C681.557 1055.24 678.077 1053.76 673.197 1053.76C664.237 1053.76 659.757 1059.64 659.757 1071.4V1073.32C659.757 1085.24 664.237 1091.2 673.197 1091.2ZM716.676 1017.28H733.116V1104.04H716.676V1017.28ZM776.115 1105.48C765.955 1105.48 758.355 1102.8 753.315 1097.44C748.355 1092.08 745.875 1083.76 745.875 1072.48C745.875 1061.2 748.355 1052.88 753.315 1047.52C758.355 1042.16 765.955 1039.48 776.115 1039.48C785.475 1039.48 792.475 1042.2 797.115 1047.64C801.755 1053 804.075 1061.28 804.075 1072.48V1076.32H762.555C762.715 1081.92 763.835 1086.08 765.915 1088.8C767.995 1091.44 771.475 1092.76 776.355 1092.76C779.795 1092.76 782.555 1091.8 784.635 1089.88C786.795 1087.96 787.875 1085.24 787.875 1081.72H804.075C804.075 1089.64 801.515 1095.6 796.395 1099.6C791.275 1103.52 784.515 1105.48 776.115 1105.48ZM787.035 1065.4C787.035 1056.68 783.395 1052.32 776.115 1052.32C771.955 1052.32 768.795 1053.4 766.635 1055.56C764.555 1057.72 763.275 1061 762.795 1065.4H787.035ZM878.233 1105.48C867.433 1105.48 859.393 1102.8 854.113 1097.44C848.833 1092.08 846.193 1083.76 846.193 1072.48C846.193 1061.2 848.833 1052.88 854.113 1047.52C859.393 1042.16 867.433 1039.48 878.233 1039.48C889.033 1039.48 897.073 1042.16 902.353 1047.52C907.713 1052.88 910.393 1061.2 910.393 1072.48C910.393 1083.76 907.713 1092.08 902.353 1097.44C897.073 1102.8 889.033 1105.48 878.233 1105.48ZM878.233 1092.04C883.593 1092.04 887.473 1090.52 889.873 1087.48C892.273 1084.36 893.473 1079.68 893.473 1073.44V1071.52C893.473 1065.28 892.273 1060.64 889.873 1057.6C887.473 1054.48 883.593 1052.92 878.233 1052.92C872.873 1052.92 868.993 1054.48 866.593 1057.6C864.273 1060.64 863.113 1065.28 863.113 1071.52V1073.44C863.113 1079.68 864.273 1084.36 866.593 1087.48C868.993 1090.52 872.873 1092.04 878.233 1092.04ZM923.512 1040.92H937.552L938.752 1049.2H939.592C944.712 1042.72 951.272 1039.48 959.272 1039.48C965.752 1039.48 970.832 1041.24 974.512 1044.76C978.272 1048.28 980.152 1053.92 980.152 1061.68V1104.04H963.712V1065.16C963.712 1061.24 962.792 1058.4 960.952 1056.64C959.112 1054.88 956.392 1054 952.792 1054C949.112 1054 946.032 1055.32 943.552 1057.96C941.152 1060.52 939.952 1063.72 939.952 1067.56V1104.04H923.512V1040.92ZM803.041 1218.6H819.601V1235.04H803.041V1218.6Z" fill="#6A6C74"/>
<path d="M396.157 759.725H413.557V799.445L451.597 759.725H472.717L440.557 793.205L473.197 842.045H452.557L428.917 805.445L413.557 818.165V842.045H396.157V759.725ZM497.759 843.485C492.879 843.485 488.399 842.205 484.319 839.645C480.239 837.085 478.199 832.445 478.199 825.725C478.199 817.645 481.519 811.925 488.159 808.565C494.799 805.125 504.199 803.405 516.359 803.405V798.965C516.359 796.165 515.719 794.005 514.439 792.485C513.239 790.965 510.919 790.205 507.479 790.205C503.799 790.205 501.159 790.765 499.559 791.885C498.039 793.005 497.279 794.325 497.279 795.845V797.645H481.439C481.359 797.165 481.319 796.285 481.319 795.005C481.319 789.725 483.639 785.485 488.279 782.285C492.999 779.085 499.239 777.485 506.999 777.485C515.639 777.485 522.079 779.245 526.319 782.765C530.639 786.285 532.799 791.365 532.799 798.005V825.845C532.799 827.285 533.199 828.365 533.999 829.085C534.799 829.725 535.799 830.045 536.999 830.045H540.359V841.565C537.799 842.845 534.639 843.485 530.879 843.485C527.599 843.485 524.839 842.765 522.599 841.325C520.439 839.885 518.959 837.845 518.159 835.205H517.439C515.119 837.925 512.439 840.005 509.399 841.445C506.439 842.805 502.559 843.485 497.759 843.485ZM502.919 830.525C507.559 830.525 510.959 829.245 513.119 826.685C515.279 824.045 516.359 820.565 516.359 816.245V814.325C502.039 814.325 494.879 817.525 494.879 823.925C494.879 825.925 495.519 827.525 496.799 828.725C498.159 829.925 500.199 830.525 502.919 830.525ZM549.918 778.925H563.958L565.278 789.125H566.118C567.478 785.525 569.238 782.685 571.398 780.605C573.558 778.525 576.398 777.485 579.918 777.485C582.238 777.485 584.318 777.845 586.158 778.565V793.925H581.598C576.238 793.925 572.358 795.405 569.958 798.365C567.558 801.245 566.358 805.645 566.358 811.565V842.045H549.918V778.925ZM596.559 778.925H610.599L611.799 787.205H612.639C617.279 780.725 623.279 777.485 630.639 777.485C638.639 777.485 644.159 780.725 647.199 787.205H648.159C652.959 780.725 659.199 777.485 666.879 777.485C672.879 777.485 677.639 779.245 681.159 782.765C684.759 786.285 686.559 791.925 686.559 799.685V842.045H670.119V803.165C670.119 795.725 667.039 792.005 660.879 792.005C657.679 792.005 655.039 793.325 652.959 795.965C650.879 798.525 649.839 801.725 649.839 805.565V842.045H633.399V803.165C633.399 795.725 630.319 792.005 624.159 792.005C620.959 792.005 618.279 793.325 616.119 795.965C614.039 798.525 612.999 801.725 612.999 805.565V842.045H596.559V778.925ZM717.72 843.485C712.84 843.485 708.36 842.205 704.28 839.645C700.2 837.085 698.16 832.445 698.16 825.725C698.16 817.645 701.48 811.925 708.12 808.565C714.76 805.125 724.16 803.405 736.32 803.405V798.965C736.32 796.165 735.68 794.005 734.4 792.485C733.2 790.965 730.88 790.205 727.44 790.205C723.76 790.205 721.12 790.765 719.52 791.885C718 793.005 717.24 794.325 717.24 795.845V797.645H701.4C701.32 797.165 701.28 796.285 701.28 795.005C701.28 789.725 703.6 785.485 708.24 782.285C712.96 779.085 719.2 777.485 726.96 777.485C735.6 777.485 742.04 779.245 746.28 782.765C750.6 786.285 752.76 791.365 752.76 798.005V825.845C752.76 827.285 753.16 828.365 753.96 829.085C754.76 829.725 755.76 830.045 756.96 830.045H760.32V841.565C757.76 842.845 754.6 843.485 750.84 843.485C747.56 843.485 744.8 842.765 742.56 841.325C740.4 839.885 738.92 837.845 738.12 835.205H737.4C735.08 837.925 732.4 840.005 729.36 841.445C726.4 842.805 722.52 843.485 717.72 843.485ZM722.88 830.525C727.52 830.525 730.92 829.245 733.08 826.685C735.24 824.045 736.32 820.565 736.32 816.245V814.325C722 814.325 714.84 817.525 714.84 823.925C714.84 825.925 715.48 827.525 716.76 828.725C718.12 829.925 720.16 830.525 722.88 830.525Z" fill="#D69090"/>
<path d="M96.04 1152.72H143.2C147.52 1152.72 151.44 1153.6 154.96 1155.36C158.48 1157.04 161.24 1159.44 163.24 1162.56C165.24 1165.6 166.24 1169.12 166.24 1173.12C166.24 1177.68 164.96 1181.64 162.4 1185C159.92 1188.28 156.72 1190.56 152.8 1191.84V1192.32C157.44 1193.2 161.2 1195.48 164.08 1199.16C167.04 1202.76 168.52 1207.04 168.52 1212C168.52 1219.44 166.12 1225.16 161.32 1229.16C156.6 1233.08 150.56 1235.04 143.2 1235.04H96.04V1152.72ZM138.28 1185.6C141.48 1185.6 143.96 1184.8 145.72 1183.2C147.48 1181.52 148.36 1179.4 148.36 1176.84C148.36 1173.8 147.52 1171.48 145.84 1169.88C144.24 1168.28 142 1167.48 139.12 1167.48H113.56V1185.6H138.28ZM140.32 1220.28C143.36 1220.28 145.84 1219.4 147.76 1217.64C149.68 1215.88 150.64 1213.36 150.64 1210.08C150.64 1207.12 149.68 1204.72 147.76 1202.88C145.84 1201.04 143.04 1200.12 139.36 1200.12H113.56V1220.28H140.32ZM209.162 1236.48C199.002 1236.48 191.402 1233.8 186.362 1228.44C181.402 1223.08 178.922 1214.76 178.922 1203.48C178.922 1192.2 181.402 1183.88 186.362 1178.52C191.402 1173.16 199.002 1170.48 209.162 1170.48C218.522 1170.48 225.522 1173.2 230.162 1178.64C234.802 1184 237.122 1192.28 237.122 1203.48V1207.32H195.602C195.762 1212.92 196.882 1217.08 198.962 1219.8C201.042 1222.44 204.522 1223.76 209.402 1223.76C212.842 1223.76 215.602 1222.8 217.682 1220.88C219.842 1218.96 220.922 1216.24 220.922 1212.72H237.122C237.122 1220.64 234.562 1226.6 229.442 1230.6C224.322 1234.52 217.562 1236.48 209.162 1236.48ZM220.082 1196.4C220.082 1187.68 216.442 1183.32 209.162 1183.32C205.002 1183.32 201.842 1184.4 199.682 1186.56C197.602 1188.72 196.322 1192 195.842 1196.4H220.082ZM264.321 1236.48C259.441 1236.48 254.961 1235.2 250.881 1232.64C246.801 1230.08 244.761 1225.44 244.761 1218.72C244.761 1210.64 248.081 1204.92 254.721 1201.56C261.361 1198.12 270.761 1196.4 282.921 1196.4V1191.96C282.921 1189.16 282.281 1187 281.001 1185.48C279.801 1183.96 277.481 1183.2 274.041 1183.2C270.361 1183.2 267.721 1183.76 266.121 1184.88C264.601 1186 263.841 1187.32 263.841 1188.84V1190.64H248.001C247.921 1190.16 247.881 1189.28 247.881 1188C247.881 1182.72 250.201 1178.48 254.841 1175.28C259.561 1172.08 265.801 1170.48 273.561 1170.48C282.201 1170.48 288.641 1172.24 292.881 1175.76C297.201 1179.28 299.361 1184.36 299.361 1191V1218.84C299.361 1220.28 299.761 1221.36 300.561 1222.08C301.361 1222.72 302.361 1223.04 303.561 1223.04H306.921V1234.56C304.361 1235.84 301.201 1236.48 297.441 1236.48C294.161 1236.48 291.401 1235.76 289.161 1234.32C287.001 1232.88 285.521 1230.84 284.721 1228.2H284.001C281.681 1230.92 279.001 1233 275.961 1234.44C273.001 1235.8 269.121 1236.48 264.321 1236.48ZM269.481 1223.52C274.121 1223.52 277.521 1222.24 279.681 1219.68C281.841 1217.04 282.921 1213.56 282.921 1209.24V1207.32C268.601 1207.32 261.441 1210.52 261.441 1216.92C261.441 1218.92 262.081 1220.52 263.361 1221.72C264.721 1222.92 266.761 1223.52 269.481 1223.52ZM333.401 1236.48C327.481 1236.48 323.241 1234.88 320.681 1231.68C318.121 1228.48 316.841 1224.44 316.841 1219.56V1185.36H309.281V1171.92H317.201L319.961 1154.16H333.281V1171.92H344.201V1185.36H333.281V1217.88C333.281 1221.32 335.001 1223.04 338.441 1223.04H344.201V1234.56C342.841 1235.04 341.121 1235.48 339.041 1235.88C337.041 1236.28 335.161 1236.48 333.401 1236.48ZM355.962 1152.72H403.122C407.442 1152.72 411.362 1153.6 414.882 1155.36C418.402 1157.04 421.162 1159.44 423.162 1162.56C425.162 1165.6 426.162 1169.12 426.162 1173.12C426.162 1177.68 424.882 1181.64 422.322 1185C419.842 1188.28 416.642 1190.56 412.722 1191.84V1192.32C417.362 1193.2 421.122 1195.48 424.002 1199.16C426.962 1202.76 428.442 1207.04 428.442 1212C428.442 1219.44 426.042 1225.16 421.242 1229.16C416.522 1233.08 410.482 1235.04 403.122 1235.04H355.962V1152.72ZM398.202 1185.6C401.402 1185.6 403.882 1184.8 405.642 1183.2C407.402 1181.52 408.282 1179.4 408.282 1176.84C408.282 1173.8 407.442 1171.48 405.762 1169.88C404.162 1168.28 401.922 1167.48 399.042 1167.48H373.482V1185.6H398.202ZM400.242 1220.28C403.282 1220.28 405.762 1219.4 407.682 1217.64C409.602 1215.88 410.562 1213.36 410.562 1210.08C410.562 1207.12 409.602 1204.72 407.682 1202.88C405.762 1201.04 402.962 1200.12 399.282 1200.12H373.482V1220.28H400.242ZM443.043 1148.28H459.483V1235.04H443.043V1148.28ZM502.482 1236.48C492.322 1236.48 484.722 1233.8 479.682 1228.44C474.722 1223.08 472.242 1214.76 472.242 1203.48C472.242 1192.2 474.722 1183.88 479.682 1178.52C484.722 1173.16 492.322 1170.48 502.482 1170.48C511.842 1170.48 518.842 1173.2 523.482 1178.64C528.122 1184 530.442 1192.28 530.442 1203.48V1207.32H488.922C489.082 1212.92 490.202 1217.08 492.282 1219.8C494.362 1222.44 497.842 1223.76 502.722 1223.76C506.162 1223.76 508.922 1222.8 511.002 1220.88C513.162 1218.96 514.242 1216.24 514.242 1212.72H530.442C530.442 1220.64 527.882 1226.6 522.762 1230.6C517.642 1234.52 510.882 1236.48 502.482 1236.48ZM513.402 1196.4C513.402 1187.68 509.762 1183.32 502.482 1183.32C498.322 1183.32 495.162 1184.4 493.002 1186.56C490.922 1188.72 489.642 1192 489.162 1196.4H513.402ZM543.122 1171.92H557.162L558.362 1180.2H559.202C564.322 1173.72 570.882 1170.48 578.882 1170.48C585.362 1170.48 590.442 1172.24 594.122 1175.76C597.882 1179.28 599.762 1184.92 599.762 1192.68V1235.04H583.322V1196.16C583.322 1192.24 582.402 1189.4 580.562 1187.64C578.722 1185.88 576.002 1185 572.402 1185C568.722 1185 565.642 1186.32 563.162 1188.96C560.762 1191.52 559.562 1194.72 559.562 1198.56V1235.04H543.122V1171.92ZM637.601 1236.48C629.601 1236.48 623.401 1233.76 619.001 1228.32C614.601 1222.8 612.401 1214.48 612.401 1203.36C612.401 1192.48 614.601 1184.28 619.001 1178.76C623.481 1173.24 629.401 1170.48 636.761 1170.48C641.001 1170.48 644.721 1171.24 647.921 1172.76C651.201 1174.28 653.761 1176.44 655.601 1179.24H656.321V1148.28H672.761V1235.04H658.721L657.641 1226.76H656.801C654.801 1229.96 652.121 1232.4 648.761 1234.08C645.401 1235.68 641.681 1236.48 637.601 1236.48ZM642.881 1222.2C651.841 1222.2 656.321 1216.32 656.321 1204.56V1202.64C656.321 1190.72 651.841 1184.76 642.881 1184.76C638.001 1184.76 634.521 1186.24 632.441 1189.2C630.361 1192.08 629.321 1196.48 629.321 1202.4V1204.56C629.321 1210.48 630.361 1214.92 632.441 1217.88C634.521 1220.76 638.001 1222.2 642.881 1222.2ZM715.88 1236.48C705.72 1236.48 698.12 1233.8 693.08 1228.44C688.12 1223.08 685.64 1214.76 685.64 1203.48C685.64 1192.2 688.12 1183.88 693.08 1178.52C698.12 1173.16 705.72 1170.48 715.88 1170.48C725.24 1170.48 732.24 1173.2 736.88 1178.64C741.52 1184 743.84 1192.28 743.84 1203.48V1207.32H702.32C702.48 1212.92 703.6 1217.08 705.68 1219.8C707.76 1222.44 711.24 1223.76 716.12 1223.76C719.56 1223.76 722.32 1222.8 724.4 1220.88C726.56 1218.96 727.64 1216.24 727.64 1212.72H743.84C743.84 1220.64 741.28 1226.6 736.16 1230.6C731.04 1234.52 724.28 1236.48 715.88 1236.48ZM726.8 1196.4C726.8 1187.68 723.16 1183.32 715.88 1183.32C711.72 1183.32 708.56 1184.4 706.4 1186.56C704.32 1188.72 703.04 1192 702.56 1196.4H726.8ZM756.52 1171.92H770.56L771.88 1182.12H772.72C774.08 1178.52 775.84 1175.68 778 1173.6C780.16 1171.52 783 1170.48 786.52 1170.48C788.84 1170.48 790.92 1170.84 792.76 1171.56V1186.92H788.2C782.84 1186.92 778.96 1188.4 776.56 1191.36C774.16 1194.24 772.96 1198.64 772.96 1204.56V1235.04H756.52V1171.92Z" fill="#658566"/>
</g>
<defs>
<clipPath id="clip0">
<rect width="2677" height="1416" fill="white"/>
</clipPath>
</defs>
</svg>
