<svg width="2944" height="3416" viewBox="0 0 2944 3416" fill="none" xmlns="http://www.w3.org/2000/svg">
<g clip-path="url(#clip0)">
<rect width="2944" height="3416" fill="#FAFAFA"/>
<path d="M1235.16 1708L1235.16 1674.5L1235.16 1674.5L1235.16 1708ZM2871.69 1731.69C2884.77 1718.61 2884.77 1697.39 2871.69 1684.31L2658.5 1471.12C2645.41 1458.04 2624.2 1458.04 2611.12 1471.12C2598.04 1484.2 2598.04 1505.41 2611.12 1518.5L2800.62 1708L2611.12 1897.5C2598.04 1910.59 2598.04 1931.8 2611.12 1944.88C2624.2 1957.96 2645.41 1957.96 2658.5 1944.88L2871.69 1731.69ZM118.609 1741.5L1235.16 1741.5L1235.16 1674.5L118.609 1674.5L118.609 1741.5ZM1235.16 1741.5L2848 1741.5L2848 1674.5L1235.16 1674.5L1235.16 1741.5Z" fill="#6A6C74"/>
<path d="M1373.3 833.191C1362.77 833.191 1353.1 831.591 1344.3 828.391C1335.64 825.057 1328.7 820.191 1323.5 813.791C1318.3 807.391 1315.7 799.657 1315.7 790.591L1315.9 786.191H1345.3L1345.1 789.391C1345.1 795.257 1347.7 799.924 1352.9 803.391C1358.1 806.857 1365.37 808.591 1374.7 808.591C1384.57 808.591 1391.7 807.324 1396.1 804.791C1400.5 802.124 1402.7 798.591 1402.7 794.191C1402.7 790.324 1401.24 787.124 1398.3 784.591C1395.5 781.924 1391.9 779.857 1387.5 778.391C1383.24 776.791 1377.3 774.924 1369.7 772.791C1358.9 769.724 1350.17 766.791 1343.5 763.991C1336.84 761.191 1331.1 757.057 1326.3 751.591C1321.5 745.991 1319.1 738.657 1319.1 729.591C1319.1 717.057 1324.17 707.524 1334.3 700.991C1344.44 694.457 1357.9 691.191 1374.7 691.191C1390.57 691.191 1403.5 694.591 1413.5 701.391C1423.64 708.057 1428.7 718.124 1428.7 731.591V733.991H1399.9V732.191C1399.9 727.124 1397.57 723.124 1392.9 720.191C1388.37 717.257 1382.17 715.791 1374.3 715.791C1365.9 715.791 1359.44 716.924 1354.9 719.191C1350.5 721.457 1348.3 724.591 1348.3 728.591C1348.3 731.657 1349.64 734.324 1352.3 736.591C1354.97 738.724 1358.3 740.524 1362.3 741.991C1366.3 743.324 1371.97 744.991 1379.3 746.991C1390.24 749.924 1399.17 752.857 1406.1 755.791C1413.17 758.591 1419.24 762.791 1424.3 768.391C1429.37 773.991 1431.9 781.324 1431.9 790.391C1431.9 805.057 1426.64 815.857 1416.1 822.791C1405.7 829.724 1391.44 833.191 1373.3 833.191ZM1454.9 725.591H1478.3L1480.1 739.391H1481.5C1484.84 734.057 1489.3 730.057 1494.9 727.391C1500.5 724.591 1506.7 723.191 1513.5 723.191C1526.84 723.191 1537.17 727.791 1544.5 736.991C1551.84 746.057 1555.5 759.857 1555.5 778.391C1555.5 796.524 1551.77 810.191 1544.3 819.391C1536.97 828.591 1527.17 833.191 1514.9 833.191C1507.84 833.191 1501.57 831.924 1496.1 829.391C1490.77 826.857 1486.57 823.257 1483.5 818.591H1482.3V865.391H1454.9V725.591ZM1504.7 809.391C1512.84 809.391 1518.64 806.991 1522.1 802.191C1525.57 797.257 1527.3 789.857 1527.3 779.991V776.391C1527.3 766.524 1525.57 759.191 1522.1 754.391C1518.64 749.457 1512.84 746.991 1504.7 746.991C1489.77 746.991 1482.3 756.791 1482.3 776.391V779.591C1482.3 799.457 1489.77 809.391 1504.7 809.391ZM1620.57 833.191C1603.64 833.191 1590.97 828.724 1582.57 819.791C1574.3 810.857 1570.17 796.991 1570.17 778.191C1570.17 759.391 1574.3 745.524 1582.57 736.591C1590.97 727.657 1603.64 723.191 1620.57 723.191C1636.17 723.191 1647.84 727.724 1655.57 736.791C1663.3 745.724 1667.17 759.524 1667.17 778.191V784.591H1597.97C1598.24 793.924 1600.1 800.857 1603.57 805.391C1607.04 809.791 1612.84 811.991 1620.97 811.991C1626.7 811.991 1631.3 810.391 1634.77 807.191C1638.37 803.991 1640.17 799.457 1640.17 793.591H1667.17C1667.17 806.791 1662.9 816.724 1654.37 823.391C1645.84 829.924 1634.57 833.191 1620.57 833.191ZM1638.77 766.391C1638.77 751.857 1632.7 744.591 1620.57 744.591C1613.64 744.591 1608.37 746.391 1604.77 749.991C1601.3 753.591 1599.17 759.057 1598.37 766.391H1638.77ZM1688.3 725.591H1711.7L1713.7 739.391H1715.1C1723.63 728.591 1734.57 723.191 1747.9 723.191C1758.7 723.191 1767.17 726.124 1773.3 731.991C1779.57 737.857 1782.7 747.257 1782.7 760.191V830.791H1755.3V765.991C1755.3 759.457 1753.77 754.724 1750.7 751.791C1747.63 748.857 1743.1 747.391 1737.1 747.391C1730.97 747.391 1725.83 749.591 1721.7 753.991C1717.7 758.257 1715.7 763.591 1715.7 769.991V830.791H1688.3V725.591ZM1845.77 833.191C1832.43 833.191 1822.1 828.657 1814.77 819.591C1807.43 810.391 1803.77 796.524 1803.77 777.991C1803.77 759.857 1807.43 746.191 1814.77 736.991C1822.23 727.791 1832.1 723.191 1844.37 723.191C1851.43 723.191 1857.63 724.457 1862.97 726.991C1868.43 729.524 1872.7 733.124 1875.77 737.791H1876.97V686.191H1904.37V830.791H1880.97L1879.17 816.991H1877.77C1874.43 822.324 1869.97 826.391 1864.37 829.191C1858.77 831.857 1852.57 833.191 1845.77 833.191ZM1854.57 809.391C1869.5 809.391 1876.97 799.591 1876.97 779.991V776.791C1876.97 756.924 1869.5 746.991 1854.57 746.991C1846.43 746.991 1840.63 749.457 1837.17 754.391C1833.7 759.191 1831.97 766.524 1831.97 776.391V779.991C1831.97 789.857 1833.7 797.257 1837.17 802.191C1840.63 806.991 1846.43 809.391 1854.57 809.391ZM2694.43 833.191C2684.56 833.191 2677.5 830.524 2673.23 825.191C2668.96 819.857 2666.83 813.124 2666.83 804.991V747.991H2654.23V725.591H2667.43L2672.03 695.991H2694.23V725.591H2712.43V747.991H2694.23V802.191C2694.23 807.924 2697.1 810.791 2702.83 810.791H2712.43V829.991C2710.16 830.791 2707.3 831.524 2703.83 832.191C2700.5 832.857 2697.36 833.191 2694.43 833.191ZM2779.63 833.191C2761.63 833.191 2748.23 828.724 2739.43 819.791C2730.63 810.857 2726.23 796.991 2726.23 778.191C2726.23 759.391 2730.63 745.524 2739.43 736.591C2748.23 727.657 2761.63 723.191 2779.63 723.191C2797.63 723.191 2811.03 727.657 2819.83 736.591C2828.77 745.524 2833.23 759.391 2833.23 778.191C2833.23 796.991 2828.77 810.857 2819.83 819.791C2811.03 828.724 2797.63 833.191 2779.63 833.191ZM2779.63 810.791C2788.57 810.791 2795.03 808.257 2799.03 803.191C2803.03 797.991 2805.03 790.191 2805.03 779.791V776.591C2805.03 766.191 2803.03 758.457 2799.03 753.391C2795.03 748.191 2788.57 745.591 2779.63 745.591C2770.7 745.591 2764.23 748.191 2760.23 753.391C2756.37 758.457 2754.43 766.191 2754.43 776.591V779.791C2754.43 790.191 2756.37 797.991 2760.23 803.191C2764.23 808.257 2770.7 810.791 2779.63 810.791ZM1364.9 1051.19C1347.97 1051.19 1335.3 1046.72 1326.9 1037.79C1318.64 1028.86 1314.5 1014.99 1314.5 996.191C1314.5 977.391 1318.64 963.524 1326.9 954.591C1335.3 945.657 1347.97 941.191 1364.9 941.191C1380.5 941.191 1392.17 945.724 1399.9 954.791C1407.64 963.724 1411.5 977.524 1411.5 996.191V1002.59H1342.3C1342.57 1011.92 1344.44 1018.86 1347.9 1023.39C1351.37 1027.79 1357.17 1029.99 1365.3 1029.99C1371.04 1029.99 1375.64 1028.39 1379.1 1025.19C1382.7 1021.99 1384.5 1017.46 1384.5 1011.59H1411.5C1411.5 1024.79 1407.24 1034.72 1398.7 1041.39C1390.17 1047.92 1378.9 1051.19 1364.9 1051.19ZM1383.1 984.391C1383.1 969.857 1377.04 962.591 1364.9 962.591C1357.97 962.591 1352.7 964.391 1349.1 967.991C1345.64 971.591 1343.5 977.057 1342.7 984.391H1383.1ZM1456.64 994.391L1422.64 943.591H1455.64L1474.64 974.191H1475.84L1495.24 943.591H1526.24L1491.64 993.791L1528.24 1048.79H1495.44L1473.64 1013.99H1472.44L1450.44 1048.79H1419.64L1456.64 994.391ZM1571.97 1051.19C1562.1 1051.19 1555.04 1048.52 1550.77 1043.19C1546.5 1037.86 1544.37 1031.12 1544.37 1022.99V965.991H1531.77V943.591H1544.97L1549.57 913.991H1571.77V943.591H1589.97V965.991H1571.77V1020.19C1571.77 1025.92 1574.64 1028.79 1580.37 1028.79H1589.97V1047.99C1587.7 1048.79 1584.84 1049.52 1581.37 1050.19C1578.04 1050.86 1574.9 1051.19 1571.97 1051.19ZM1653.77 1051.19C1636.84 1051.19 1624.17 1046.72 1615.77 1037.79C1607.51 1028.86 1603.37 1014.99 1603.37 996.191C1603.37 977.391 1607.51 963.524 1615.77 954.591C1624.17 945.657 1636.84 941.191 1653.77 941.191C1669.37 941.191 1681.04 945.724 1688.77 954.791C1696.51 963.724 1700.37 977.524 1700.37 996.191V1002.59H1631.17C1631.44 1011.92 1633.31 1018.86 1636.77 1023.39C1640.24 1027.79 1646.04 1029.99 1654.17 1029.99C1659.91 1029.99 1664.51 1028.39 1667.97 1025.19C1671.57 1021.99 1673.37 1017.46 1673.37 1011.59H1700.37C1700.37 1024.79 1696.11 1034.72 1687.57 1041.39C1679.04 1047.92 1667.77 1051.19 1653.77 1051.19ZM1671.97 984.391C1671.97 969.857 1665.91 962.591 1653.77 962.591C1646.84 962.591 1641.57 964.391 1637.97 967.991C1634.51 971.591 1632.37 977.057 1631.57 984.391H1671.97ZM1721.5 943.591H1744.9L1746.9 957.391H1748.3C1756.84 946.591 1767.77 941.191 1781.1 941.191C1791.9 941.191 1800.37 944.124 1806.5 949.991C1812.77 955.857 1815.9 965.257 1815.9 978.191V1048.79H1788.5V983.991C1788.5 977.457 1786.97 972.724 1783.9 969.791C1780.84 966.857 1776.3 965.391 1770.3 965.391C1764.17 965.391 1759.04 967.591 1754.9 971.991C1750.9 976.257 1748.9 981.591 1748.9 987.991V1048.79H1721.5V943.591ZM1878.97 1051.19C1865.64 1051.19 1855.3 1046.66 1847.97 1037.59C1840.64 1028.39 1836.97 1014.52 1836.97 995.991C1836.97 977.857 1840.64 964.191 1847.97 954.991C1855.44 945.791 1865.3 941.191 1877.57 941.191C1884.64 941.191 1890.84 942.457 1896.17 944.991C1901.64 947.524 1905.9 951.124 1908.97 955.791H1910.17V904.191H1937.57V1048.79H1914.17L1912.37 1034.99H1910.97C1907.64 1040.32 1903.17 1044.39 1897.57 1047.19C1891.97 1049.86 1885.77 1051.19 1878.97 1051.19ZM1887.77 1027.39C1902.7 1027.39 1910.17 1017.59 1910.17 997.991V994.791C1910.17 974.924 1902.7 964.991 1887.77 964.991C1879.64 964.991 1873.84 967.457 1870.37 972.391C1866.9 977.191 1865.17 984.524 1865.17 994.391V997.991C1865.17 1007.86 1866.9 1015.26 1870.37 1020.19C1873.84 1024.99 1879.64 1027.39 1887.77 1027.39ZM2150.1 1269.19C2140.23 1269.19 2133.16 1266.52 2128.9 1261.19C2124.63 1255.86 2122.5 1249.12 2122.5 1240.99V1183.99H2109.9V1161.59H2123.1L2127.7 1131.99H2149.9V1161.59H2168.1V1183.99H2149.9V1238.19C2149.9 1243.92 2152.76 1246.79 2158.5 1246.79H2168.1V1265.99C2165.83 1266.79 2162.96 1267.52 2159.5 1268.19C2156.16 1268.86 2153.03 1269.19 2150.1 1269.19ZM2235.3 1269.19C2217.3 1269.19 2203.9 1264.72 2195.1 1255.79C2186.3 1246.86 2181.9 1232.99 2181.9 1214.19C2181.9 1195.39 2186.3 1181.52 2195.1 1172.59C2203.9 1163.66 2217.3 1159.19 2235.3 1159.19C2253.3 1159.19 2266.7 1163.66 2275.5 1172.59C2284.43 1181.52 2288.9 1195.39 2288.9 1214.19C2288.9 1232.99 2284.43 1246.86 2275.5 1255.79C2266.7 1264.72 2253.3 1269.19 2235.3 1269.19ZM2235.3 1246.79C2244.23 1246.79 2250.7 1244.26 2254.7 1239.19C2258.7 1233.99 2260.7 1226.19 2260.7 1215.79V1212.59C2260.7 1202.19 2258.7 1194.46 2254.7 1189.39C2250.7 1184.19 2244.23 1181.59 2235.3 1181.59C2226.36 1181.59 2219.9 1184.19 2215.9 1189.39C2212.03 1194.46 2210.1 1202.19 2210.1 1212.59V1215.79C2210.1 1226.19 2212.03 1233.99 2215.9 1239.19C2219.9 1244.26 2226.36 1246.79 2235.3 1246.79ZM2066.03 1457.39H2093.63V1484.79H2066.03V1457.39Z" fill="#6A6C74"/>
<path d="M1987.7 693.591H2016.7V759.791L2080.1 693.591H2115.3L2061.7 749.391L2116.1 830.791H2081.7L2042.3 769.791L2016.7 790.991V830.791H1987.7V693.591ZM2157.03 833.191C2148.9 833.191 2141.43 831.057 2134.63 826.791C2127.83 822.524 2124.43 814.791 2124.43 803.591C2124.43 790.124 2129.97 780.591 2141.03 774.991C2152.1 769.257 2167.77 766.391 2188.03 766.391V758.991C2188.03 754.324 2186.97 750.724 2184.83 748.191C2182.83 745.657 2178.97 744.391 2173.23 744.391C2167.1 744.391 2162.7 745.324 2160.03 747.191C2157.5 749.057 2156.23 751.257 2156.23 753.791V756.791H2129.83C2129.7 755.991 2129.63 754.524 2129.63 752.391C2129.63 743.591 2133.5 736.524 2141.23 731.191C2149.1 725.857 2159.5 723.191 2172.43 723.191C2186.83 723.191 2197.57 726.124 2204.63 731.991C2211.83 737.857 2215.43 746.324 2215.43 757.391V803.791C2215.43 806.191 2216.1 807.991 2217.43 809.191C2218.77 810.257 2220.43 810.791 2222.43 810.791H2228.03V829.991C2223.77 832.124 2218.5 833.191 2212.23 833.191C2206.77 833.191 2202.17 831.991 2198.43 829.591C2194.83 827.191 2192.37 823.791 2191.03 819.391H2189.83C2185.97 823.924 2181.5 827.391 2176.43 829.791C2171.5 832.057 2165.03 833.191 2157.03 833.191ZM2165.63 811.591C2173.37 811.591 2179.03 809.457 2182.63 805.191C2186.23 800.791 2188.03 794.991 2188.03 787.791V784.591C2164.17 784.591 2152.23 789.924 2152.23 800.591C2152.23 803.924 2153.3 806.591 2155.43 808.591C2157.7 810.591 2161.1 811.591 2165.63 811.591ZM2243.97 725.591H2267.37L2269.57 742.591H2270.97C2273.23 736.591 2276.17 731.857 2279.77 728.391C2283.37 724.924 2288.1 723.191 2293.97 723.191C2297.83 723.191 2301.3 723.791 2304.37 724.991V750.591H2296.77C2287.83 750.591 2281.37 753.057 2277.37 757.991C2273.37 762.791 2271.37 770.124 2271.37 779.991V830.791H2243.97V725.591ZM2321.7 725.591H2345.1L2347.1 739.391H2348.5C2356.23 728.591 2366.23 723.191 2378.5 723.191C2391.83 723.191 2401.03 728.591 2406.1 739.391H2407.7C2415.7 728.591 2426.1 723.191 2438.9 723.191C2448.9 723.191 2456.83 726.124 2462.7 731.991C2468.7 737.857 2471.7 747.257 2471.7 760.191V830.791H2444.3V765.991C2444.3 753.591 2439.17 747.391 2428.9 747.391C2423.57 747.391 2419.17 749.591 2415.7 753.991C2412.23 758.257 2410.5 763.591 2410.5 769.991V830.791H2383.1V765.991C2383.1 753.591 2377.97 747.391 2367.7 747.391C2362.37 747.391 2357.9 749.591 2354.3 753.991C2350.83 758.257 2349.1 763.591 2349.1 769.991V830.791H2321.7V725.591ZM2523.63 833.191C2515.5 833.191 2508.03 831.057 2501.23 826.791C2494.43 822.524 2491.03 814.791 2491.03 803.591C2491.03 790.124 2496.57 780.591 2507.63 774.991C2518.7 769.257 2534.37 766.391 2554.63 766.391V758.991C2554.63 754.324 2553.57 750.724 2551.43 748.191C2549.43 745.657 2545.57 744.391 2539.83 744.391C2533.7 744.391 2529.3 745.324 2526.63 747.191C2524.1 749.057 2522.83 751.257 2522.83 753.791V756.791H2496.43C2496.3 755.991 2496.23 754.524 2496.23 752.391C2496.23 743.591 2500.1 736.524 2507.83 731.191C2515.7 725.857 2526.1 723.191 2539.03 723.191C2553.43 723.191 2564.17 726.124 2571.23 731.991C2578.43 737.857 2582.03 746.324 2582.03 757.391V803.791C2582.03 806.191 2582.7 807.991 2584.03 809.191C2585.37 810.257 2587.03 810.791 2589.03 810.791H2594.63V829.991C2590.37 832.124 2585.1 833.191 2578.83 833.191C2573.37 833.191 2568.77 831.991 2565.03 829.591C2561.43 827.191 2558.97 823.791 2557.63 819.391H2556.43C2552.57 823.924 2548.1 827.391 2543.03 829.791C2538.1 832.057 2531.63 833.191 2523.63 833.191ZM2532.23 811.591C2539.97 811.591 2545.63 809.457 2549.23 805.191C2552.83 800.791 2554.63 794.991 2554.63 787.791V784.591C2530.77 784.591 2518.83 789.924 2518.83 800.591C2518.83 803.924 2519.9 806.591 2522.03 808.591C2524.3 810.591 2527.7 811.591 2532.23 811.591ZM2365.63 1129.59H2465.03V1154.19H2394.63V1187.99H2457.63V1212.59H2394.63V1266.79H2365.63V1129.59ZM2522.89 1269.19C2512.09 1269.19 2503.56 1266.26 2497.29 1260.39C2491.16 1254.52 2488.09 1245.12 2488.09 1232.19V1161.59H2515.49V1226.39C2515.49 1232.92 2517.03 1237.66 2520.09 1240.59C2523.16 1243.52 2527.69 1244.99 2533.69 1244.99C2539.83 1244.99 2544.89 1242.86 2548.89 1238.59C2553.03 1234.19 2555.09 1228.79 2555.09 1222.39V1161.59H2582.49V1266.79H2559.09L2557.09 1252.99H2555.69C2547.16 1263.79 2536.23 1269.19 2522.89 1269.19ZM2610.96 1122.19H2638.36V1266.79H2610.96V1122.19ZM2666.62 1122.19H2694.02V1266.79H2666.62V1122.19ZM1320.7 1347.59H1349.7V1459.59H1423.7V1484.79H1320.7V1347.59ZM1443.57 1340.19H1470.97V1366.19H1443.57V1340.19ZM1443.57 1379.59H1470.97V1484.79H1443.57V1379.59ZM1543.03 1487.19C1526.23 1487.19 1513.63 1482.72 1505.23 1473.79C1496.97 1464.86 1492.83 1450.99 1492.83 1432.19C1492.83 1413.52 1496.97 1399.72 1505.23 1390.79C1513.63 1381.72 1526.23 1377.19 1543.03 1377.19C1557.03 1377.19 1568.17 1380.79 1576.43 1387.99C1584.83 1395.06 1589.03 1405.46 1589.03 1419.19H1561.43C1561.43 1412.79 1559.77 1407.86 1556.43 1404.39C1553.1 1400.92 1548.43 1399.19 1542.43 1399.19C1534.97 1399.19 1529.43 1401.86 1525.83 1407.19C1522.37 1412.39 1520.63 1420.19 1520.63 1430.59V1433.79C1520.63 1444.19 1522.43 1452.06 1526.03 1457.39C1529.77 1462.59 1535.7 1465.19 1543.83 1465.19C1549.57 1465.19 1554.1 1463.46 1557.43 1459.99C1560.9 1456.39 1562.63 1451.46 1562.63 1445.19H1589.03C1589.03 1458.92 1584.9 1469.39 1576.63 1476.59C1568.37 1483.66 1557.17 1487.19 1543.03 1487.19ZM1653.97 1487.19C1637.03 1487.19 1624.37 1482.72 1615.97 1473.79C1607.7 1464.86 1603.57 1450.99 1603.57 1432.19C1603.57 1413.39 1607.7 1399.52 1615.97 1390.59C1624.37 1381.66 1637.03 1377.19 1653.97 1377.19C1669.57 1377.19 1681.23 1381.72 1688.97 1390.79C1696.7 1399.72 1700.57 1413.52 1700.57 1432.19V1438.59H1631.37C1631.63 1447.92 1633.5 1454.86 1636.97 1459.39C1640.43 1463.79 1646.23 1465.99 1654.37 1465.99C1660.1 1465.99 1664.7 1464.39 1668.17 1461.19C1671.77 1457.99 1673.57 1453.46 1673.57 1447.59H1700.57C1700.57 1460.79 1696.3 1470.72 1687.77 1477.39C1679.23 1483.92 1667.97 1487.19 1653.97 1487.19ZM1672.17 1420.39C1672.17 1405.86 1666.1 1398.59 1653.97 1398.59C1647.03 1398.59 1641.77 1400.39 1638.17 1403.99C1634.7 1407.59 1632.57 1413.06 1631.77 1420.39H1672.17ZM1721.7 1379.59H1745.1L1747.1 1393.39H1748.5C1757.03 1382.59 1767.97 1377.19 1781.3 1377.19C1792.1 1377.19 1800.57 1380.12 1806.7 1385.99C1812.97 1391.86 1816.1 1401.26 1816.1 1414.19V1484.79H1788.7V1419.99C1788.7 1413.46 1787.17 1408.72 1784.1 1405.79C1781.03 1402.86 1776.5 1401.39 1770.5 1401.39C1764.37 1401.39 1759.23 1403.59 1755.1 1407.99C1751.1 1412.26 1749.1 1417.59 1749.1 1423.99V1484.79H1721.7V1379.59ZM1885.97 1487.19C1871.3 1487.19 1859.77 1484.19 1851.37 1478.19C1843.1 1472.06 1838.97 1463.92 1838.97 1453.79L1839.17 1451.39H1865.77V1452.79C1865.9 1457.46 1867.97 1460.86 1871.97 1462.99C1876.1 1464.99 1881.1 1465.99 1886.97 1465.99C1892.43 1465.99 1897.1 1465.26 1900.97 1463.79C1904.83 1462.32 1906.77 1459.92 1906.77 1456.59C1906.77 1452.86 1904.77 1450.06 1900.77 1448.19C1896.9 1446.32 1890.77 1444.46 1882.37 1442.59C1873.7 1440.59 1866.63 1438.59 1861.17 1436.59C1855.7 1434.46 1850.97 1431.19 1846.97 1426.79C1842.97 1422.39 1840.97 1416.52 1840.97 1409.19C1840.97 1398.92 1845.23 1391.06 1853.77 1385.59C1862.43 1379.99 1873.57 1377.19 1887.17 1377.19C1899.83 1377.19 1910.3 1379.79 1918.57 1384.99C1926.83 1390.06 1930.97 1396.99 1930.97 1405.79L1930.77 1410.39H1904.17V1409.19C1904.17 1405.72 1902.5 1403.06 1899.17 1401.19C1895.97 1399.32 1891.63 1398.39 1886.17 1398.39C1880.7 1398.39 1876.37 1399.12 1873.17 1400.59C1869.97 1402.06 1868.37 1404.12 1868.37 1406.79C1868.37 1410.12 1870.17 1412.59 1873.77 1414.19C1877.5 1415.79 1883.43 1417.39 1891.57 1418.99C1900.5 1420.99 1907.77 1422.99 1913.37 1424.99C1918.97 1426.99 1923.83 1430.26 1927.97 1434.79C1932.1 1439.32 1934.17 1445.46 1934.17 1453.19C1934.17 1475.86 1918.1 1487.19 1885.97 1487.19ZM1998.5 1487.19C1981.57 1487.19 1968.9 1482.72 1960.5 1473.79C1952.23 1464.86 1948.1 1450.99 1948.1 1432.19C1948.1 1413.39 1952.23 1399.52 1960.5 1390.59C1968.9 1381.66 1981.57 1377.19 1998.5 1377.19C2014.1 1377.19 2025.77 1381.72 2033.5 1390.79C2041.23 1399.72 2045.1 1413.52 2045.1 1432.19V1438.59H1975.9C1976.17 1447.92 1978.03 1454.86 1981.5 1459.39C1984.97 1463.79 1990.77 1465.99 1998.9 1465.99C2004.63 1465.99 2009.23 1464.39 2012.7 1461.19C2016.3 1457.99 2018.1 1453.46 2018.1 1447.59H2045.1C2045.1 1460.79 2040.83 1470.72 2032.3 1477.39C2023.77 1483.92 2012.5 1487.19 1998.5 1487.19ZM2016.7 1420.39C2016.7 1405.86 2010.63 1398.59 1998.5 1398.59C1991.57 1398.59 1986.3 1400.39 1982.7 1403.99C1979.23 1407.59 1977.1 1413.06 1976.3 1420.39H2016.7Z" fill="#D69090"/>
<path d="M2020.9 911.591H2099.5C2106.7 911.591 2113.23 913.057 2119.1 915.991C2124.97 918.791 2129.57 922.791 2132.9 927.991C2136.23 933.057 2137.9 938.924 2137.9 945.591C2137.9 953.191 2135.77 959.791 2131.5 965.391C2127.37 970.857 2122.03 974.657 2115.5 976.791V977.591C2123.23 979.057 2129.5 982.857 2134.3 988.991C2139.23 994.991 2141.7 1002.12 2141.7 1010.39C2141.7 1022.79 2137.7 1032.32 2129.7 1038.99C2121.83 1045.52 2111.77 1048.79 2099.5 1048.79H2020.9V911.591ZM2091.3 966.391C2096.63 966.391 2100.77 965.057 2103.7 962.391C2106.63 959.591 2108.1 956.057 2108.1 951.791C2108.1 946.724 2106.7 942.857 2103.9 940.191C2101.23 937.524 2097.5 936.191 2092.7 936.191H2050.1V966.391H2091.3ZM2094.7 1024.19C2099.77 1024.19 2103.9 1022.72 2107.1 1019.79C2110.3 1016.86 2111.9 1012.66 2111.9 1007.19C2111.9 1002.26 2110.3 998.257 2107.1 995.191C2103.9 992.124 2099.23 990.591 2093.1 990.591H2050.1V1024.19H2094.7ZM2190.24 1051.19C2182.1 1051.19 2174.64 1049.06 2167.84 1044.79C2161.04 1040.52 2157.64 1032.79 2157.64 1021.59C2157.64 1008.12 2163.17 998.591 2174.24 992.991C2185.3 987.257 2200.97 984.391 2221.24 984.391V976.991C2221.24 972.324 2220.17 968.724 2218.04 966.191C2216.04 963.657 2212.17 962.391 2206.44 962.391C2200.3 962.391 2195.9 963.324 2193.24 965.191C2190.7 967.057 2189.44 969.257 2189.44 971.791V974.791H2163.04C2162.9 973.991 2162.84 972.524 2162.84 970.391C2162.84 961.591 2166.7 954.524 2174.44 949.191C2182.3 943.857 2192.7 941.191 2205.64 941.191C2220.04 941.191 2230.77 944.124 2237.84 949.991C2245.04 955.857 2248.64 964.324 2248.64 975.391V1021.79C2248.64 1024.19 2249.3 1025.99 2250.64 1027.19C2251.97 1028.26 2253.64 1028.79 2255.64 1028.79H2261.24V1047.99C2256.97 1050.12 2251.7 1051.19 2245.44 1051.19C2239.97 1051.19 2235.37 1049.99 2231.64 1047.59C2228.04 1045.19 2225.57 1041.79 2224.24 1037.39H2223.04C2219.17 1041.92 2214.7 1045.39 2209.64 1047.79C2204.7 1050.06 2198.24 1051.19 2190.24 1051.19ZM2198.84 1029.59C2206.57 1029.59 2212.24 1027.46 2215.84 1023.19C2219.44 1018.79 2221.24 1012.99 2221.24 1005.79V1002.59C2197.37 1002.59 2185.44 1007.92 2185.44 1018.59C2185.44 1021.92 2186.5 1024.59 2188.64 1026.59C2190.9 1028.59 2194.3 1029.59 2198.84 1029.59ZM2319.17 1051.19C2304.5 1051.19 2292.97 1048.19 2284.57 1042.19C2276.3 1036.06 2272.17 1027.92 2272.17 1017.79L2272.37 1015.39H2298.97V1016.79C2299.1 1021.46 2301.17 1024.86 2305.17 1026.99C2309.3 1028.99 2314.3 1029.99 2320.17 1029.99C2325.64 1029.99 2330.3 1029.26 2334.17 1027.79C2338.04 1026.32 2339.97 1023.92 2339.97 1020.59C2339.97 1016.86 2337.97 1014.06 2333.97 1012.19C2330.1 1010.32 2323.97 1008.46 2315.57 1006.59C2306.9 1004.59 2299.84 1002.59 2294.37 1000.59C2288.9 998.457 2284.17 995.191 2280.17 990.791C2276.17 986.391 2274.17 980.524 2274.17 973.191C2274.17 962.924 2278.44 955.057 2286.97 949.591C2295.64 943.991 2306.77 941.191 2320.37 941.191C2333.04 941.191 2343.5 943.791 2351.77 948.991C2360.04 954.057 2364.17 960.991 2364.17 969.791L2363.97 974.391H2337.37V973.191C2337.37 969.724 2335.7 967.057 2332.37 965.191C2329.17 963.324 2324.84 962.391 2319.37 962.391C2313.9 962.391 2309.57 963.124 2306.37 964.591C2303.17 966.057 2301.57 968.124 2301.57 970.791C2301.57 974.124 2303.37 976.591 2306.97 978.191C2310.7 979.791 2316.64 981.391 2324.77 982.991C2333.7 984.991 2340.97 986.991 2346.57 988.991C2352.17 990.991 2357.04 994.257 2361.17 998.791C2365.3 1003.32 2367.37 1009.46 2367.37 1017.19C2367.37 1039.86 2351.3 1051.19 2319.17 1051.19ZM2388.1 904.191H2415.5V930.191H2388.1V904.191ZM2388.1 943.591H2415.5V1048.79H2388.1V943.591ZM2487.57 1051.19C2470.77 1051.19 2458.17 1046.72 2449.77 1037.79C2441.5 1028.86 2437.37 1014.99 2437.37 996.191C2437.37 977.524 2441.5 963.724 2449.77 954.791C2458.17 945.724 2470.77 941.191 2487.57 941.191C2501.57 941.191 2512.7 944.791 2520.97 951.991C2529.37 959.057 2533.57 969.457 2533.57 983.191H2505.97C2505.97 976.791 2504.3 971.857 2500.97 968.391C2497.63 964.924 2492.97 963.191 2486.97 963.191C2479.5 963.191 2473.97 965.857 2470.37 971.191C2466.9 976.391 2465.17 984.191 2465.17 994.591V997.791C2465.17 1008.19 2466.97 1016.06 2470.57 1021.39C2474.3 1026.59 2480.23 1029.19 2488.37 1029.19C2494.1 1029.19 2498.63 1027.46 2501.97 1023.99C2505.43 1020.39 2507.17 1015.46 2507.17 1009.19H2533.57C2533.57 1022.92 2529.43 1033.39 2521.17 1040.59C2512.9 1047.66 2501.7 1051.19 2487.57 1051.19ZM1320.7 1129.59H1349.7V1241.59H1423.7V1266.79H1320.7V1129.59ZM1443.57 1122.19H1470.97V1148.19H1443.57V1122.19ZM1443.57 1161.59H1470.97V1266.79H1443.57V1161.59ZM1543.03 1269.19C1526.23 1269.19 1513.63 1264.72 1505.23 1255.79C1496.97 1246.86 1492.83 1232.99 1492.83 1214.19C1492.83 1195.52 1496.97 1181.72 1505.23 1172.79C1513.63 1163.72 1526.23 1159.19 1543.03 1159.19C1557.03 1159.19 1568.17 1162.79 1576.43 1169.99C1584.83 1177.06 1589.03 1187.46 1589.03 1201.19H1561.43C1561.43 1194.79 1559.77 1189.86 1556.43 1186.39C1553.1 1182.92 1548.43 1181.19 1542.43 1181.19C1534.97 1181.19 1529.43 1183.86 1525.83 1189.19C1522.37 1194.39 1520.63 1202.19 1520.63 1212.59V1215.79C1520.63 1226.19 1522.43 1234.06 1526.03 1239.39C1529.77 1244.59 1535.7 1247.19 1543.83 1247.19C1549.57 1247.19 1554.1 1245.46 1557.43 1241.99C1560.9 1238.39 1562.63 1233.46 1562.63 1227.19H1589.03C1589.03 1240.92 1584.9 1251.39 1576.63 1258.59C1568.37 1265.66 1557.17 1269.19 1543.03 1269.19ZM1653.97 1269.19C1637.03 1269.19 1624.37 1264.72 1615.97 1255.79C1607.7 1246.86 1603.57 1232.99 1603.57 1214.19C1603.57 1195.39 1607.7 1181.52 1615.97 1172.59C1624.37 1163.66 1637.03 1159.19 1653.97 1159.19C1669.57 1159.19 1681.23 1163.72 1688.97 1172.79C1696.7 1181.72 1700.57 1195.52 1700.57 1214.19V1220.59H1631.37C1631.63 1229.92 1633.5 1236.86 1636.97 1241.39C1640.43 1245.79 1646.23 1247.99 1654.37 1247.99C1660.1 1247.99 1664.7 1246.39 1668.17 1243.19C1671.77 1239.99 1673.57 1235.46 1673.57 1229.59H1700.57C1700.57 1242.79 1696.3 1252.72 1687.77 1259.39C1679.23 1265.92 1667.97 1269.19 1653.97 1269.19ZM1672.17 1202.39C1672.17 1187.86 1666.1 1180.59 1653.97 1180.59C1647.03 1180.59 1641.77 1182.39 1638.17 1185.99C1634.7 1189.59 1632.57 1195.06 1631.77 1202.39H1672.17ZM1721.7 1161.59H1745.1L1747.1 1175.39H1748.5C1757.03 1164.59 1767.97 1159.19 1781.3 1159.19C1792.1 1159.19 1800.57 1162.12 1806.7 1167.99C1812.97 1173.86 1816.1 1183.26 1816.1 1196.19V1266.79H1788.7V1201.99C1788.7 1195.46 1787.17 1190.72 1784.1 1187.79C1781.03 1184.86 1776.5 1183.39 1770.5 1183.39C1764.37 1183.39 1759.23 1185.59 1755.1 1189.99C1751.1 1194.26 1749.1 1199.59 1749.1 1205.99V1266.79H1721.7V1161.59ZM1885.97 1269.19C1871.3 1269.19 1859.77 1266.19 1851.37 1260.19C1843.1 1254.06 1838.97 1245.92 1838.97 1235.79L1839.17 1233.39H1865.77V1234.79C1865.9 1239.46 1867.97 1242.86 1871.97 1244.99C1876.1 1246.99 1881.1 1247.99 1886.97 1247.99C1892.43 1247.99 1897.1 1247.26 1900.97 1245.79C1904.83 1244.32 1906.77 1241.92 1906.77 1238.59C1906.77 1234.86 1904.77 1232.06 1900.77 1230.19C1896.9 1228.32 1890.77 1226.46 1882.37 1224.59C1873.7 1222.59 1866.63 1220.59 1861.17 1218.59C1855.7 1216.46 1850.97 1213.19 1846.97 1208.79C1842.97 1204.39 1840.97 1198.52 1840.97 1191.19C1840.97 1180.92 1845.23 1173.06 1853.77 1167.59C1862.43 1161.99 1873.57 1159.19 1887.17 1159.19C1899.83 1159.19 1910.3 1161.79 1918.57 1166.99C1926.83 1172.06 1930.97 1178.99 1930.97 1187.79L1930.77 1192.39H1904.17V1191.19C1904.17 1187.72 1902.5 1185.06 1899.17 1183.19C1895.97 1181.32 1891.63 1180.39 1886.17 1180.39C1880.7 1180.39 1876.37 1181.12 1873.17 1182.59C1869.97 1184.06 1868.37 1186.12 1868.37 1188.79C1868.37 1192.12 1870.17 1194.59 1873.77 1196.19C1877.5 1197.79 1883.43 1199.39 1891.57 1200.99C1900.5 1202.99 1907.77 1204.99 1913.37 1206.99C1918.97 1208.99 1923.83 1212.26 1927.97 1216.79C1932.1 1221.32 1934.17 1227.46 1934.17 1235.19C1934.17 1257.86 1918.1 1269.19 1885.97 1269.19ZM1998.5 1269.19C1981.57 1269.19 1968.9 1264.72 1960.5 1255.79C1952.23 1246.86 1948.1 1232.99 1948.1 1214.19C1948.1 1195.39 1952.23 1181.52 1960.5 1172.59C1968.9 1163.66 1981.57 1159.19 1998.5 1159.19C2014.1 1159.19 2025.77 1163.72 2033.5 1172.79C2041.23 1181.72 2045.1 1195.52 2045.1 1214.19V1220.59H1975.9C1976.17 1229.92 1978.03 1236.86 1981.5 1241.39C1984.97 1245.79 1990.77 1247.99 1998.9 1247.99C2004.63 1247.99 2009.23 1246.39 2012.7 1243.19C2016.3 1239.99 2018.1 1235.46 2018.1 1229.59H2045.1C2045.1 1242.79 2040.83 1252.72 2032.3 1259.39C2023.77 1265.92 2012.5 1269.19 1998.5 1269.19ZM2016.7 1202.39C2016.7 1187.86 2010.63 1180.59 1998.5 1180.59C1991.57 1180.59 1986.3 1182.39 1982.7 1185.99C1979.23 1189.59 1977.1 1195.06 1976.3 1202.39H2016.7Z" fill="#658566"/>
<path d="M132.009 1942.84H239.809V1967.44H161.009V1997.64H231.009V2022.24H161.009V2055.44H241.009V2080.04H132.009V1942.84ZM290.408 2082.44C282.274 2082.44 274.808 2080.31 268.008 2076.04C261.208 2071.78 257.808 2064.04 257.808 2052.84C257.808 2039.38 263.341 2029.84 274.408 2024.24C285.474 2018.51 301.141 2015.64 321.408 2015.64V2008.24C321.408 2003.58 320.341 1999.98 318.208 1997.44C316.208 1994.91 312.341 1993.64 306.608 1993.64C300.474 1993.64 296.074 1994.58 293.408 1996.44C290.874 1998.31 289.608 2000.51 289.608 2003.04V2006.04H263.208C263.074 2005.24 263.008 2003.78 263.008 2001.64C263.008 1992.84 266.874 1985.78 274.608 1980.44C282.474 1975.11 292.874 1972.44 305.808 1972.44C320.208 1972.44 330.941 1975.38 338.008 1981.24C345.208 1987.11 348.808 1995.58 348.808 2006.64V2053.04C348.808 2055.44 349.474 2057.24 350.808 2058.44C352.141 2059.51 353.808 2060.04 355.808 2060.04H361.408V2079.24C357.141 2081.38 351.874 2082.44 345.608 2082.44C340.141 2082.44 335.541 2081.24 331.808 2078.84C328.208 2076.44 325.741 2073.04 324.408 2068.64H323.208C319.341 2073.18 314.874 2076.64 309.808 2079.04C304.874 2081.31 298.408 2082.44 290.408 2082.44ZM299.008 2060.84C306.741 2060.84 312.408 2058.71 316.008 2054.44C319.608 2050.04 321.408 2044.24 321.408 2037.04V2033.84C297.541 2033.84 285.608 2039.18 285.608 2049.84C285.608 2053.18 286.674 2055.84 288.808 2057.84C291.074 2059.84 294.474 2060.84 299.008 2060.84ZM377.341 1974.84H400.741L402.941 1991.84H404.341C406.607 1985.84 409.541 1981.11 413.141 1977.64C416.741 1974.18 421.474 1972.44 427.341 1972.44C431.207 1972.44 434.674 1973.04 437.741 1974.24V1999.84H430.141C421.207 1999.84 414.741 2002.31 410.741 2007.24C406.741 2012.04 404.741 2019.38 404.741 2029.24V2080.04H377.341V1974.84ZM455.075 1974.84H478.475L480.475 1988.64H481.875C490.408 1977.84 501.342 1972.44 514.675 1972.44C525.475 1972.44 533.942 1975.38 540.075 1981.24C546.342 1987.11 549.475 1996.51 549.475 2009.44V2080.04H522.075V2015.24C522.075 2008.71 520.542 2003.98 517.475 2001.04C514.408 1998.11 509.875 1996.64 503.875 1996.64C497.742 1996.64 492.608 1998.84 488.475 2003.24C484.475 2007.51 482.475 2012.84 482.475 2019.24V2080.04H455.075V1974.84ZM1369.34 2082.44C1362.54 2082.44 1356.34 2081.11 1350.74 2078.44C1345.14 2075.64 1340.67 2071.58 1337.34 2066.24H1335.94L1334.14 2080.04H1310.74V1935.44H1338.14V1987.04H1339.34C1342.41 1982.38 1346.61 1978.78 1351.94 1976.24C1357.41 1973.71 1363.67 1972.44 1370.74 1972.44C1383.01 1972.44 1392.81 1977.04 1400.14 1986.24C1407.61 1995.44 1411.34 2009.11 1411.34 2027.24C1411.34 2045.78 1407.67 2059.64 1400.34 2068.84C1393.01 2077.91 1382.67 2082.44 1369.34 2082.44ZM1360.54 2058.64C1368.67 2058.64 1374.47 2056.24 1377.94 2051.44C1381.41 2046.51 1383.14 2039.11 1383.14 2029.24V2025.64C1383.14 2015.78 1381.41 2008.44 1377.94 2003.64C1374.47 1998.71 1368.67 1996.24 1360.54 1996.24C1345.61 1996.24 1338.14 2006.18 1338.14 2026.04V2029.24C1338.14 2048.84 1345.61 2058.64 1360.54 2058.64ZM1449 2116.44C1441.67 2116.44 1435.4 2115.58 1430.2 2113.84V2094.64H1443.2C1447.87 2094.64 1451.67 2093.51 1454.6 2091.24C1457.54 2088.98 1459.94 2085.24 1461.8 2080.04L1420.6 1974.84H1449.2L1469 2024.24C1471 2029.44 1473.47 2038.58 1476.4 2051.64H1477.4C1480.6 2039.38 1483.07 2030.31 1484.8 2024.44L1500.4 1974.84H1528.2L1492.8 2074.64C1489.6 2083.44 1486.27 2090.78 1482.8 2096.64C1479.34 2102.64 1474.8 2107.44 1469.2 2111.04C1463.74 2114.64 1457 2116.44 1449 2116.44ZM132.809 2192.84H156.209L158.009 2206.64H159.409C162.743 2201.31 167.209 2197.31 172.809 2194.64C178.409 2191.84 184.609 2190.44 191.409 2190.44C204.743 2190.44 215.076 2195.04 222.409 2204.24C229.743 2213.31 233.409 2227.11 233.409 2245.64C233.409 2263.78 229.676 2277.44 222.209 2286.64C214.876 2295.84 205.076 2300.44 192.809 2300.44C185.743 2300.44 179.476 2299.18 174.009 2296.64C168.676 2294.11 164.476 2290.51 161.409 2285.84H160.209V2332.64H132.809V2192.84ZM182.609 2276.64C190.743 2276.64 196.543 2274.24 200.009 2269.44C203.476 2264.51 205.209 2257.11 205.209 2247.24V2243.64C205.209 2233.78 203.476 2226.44 200.009 2221.64C196.543 2216.71 190.743 2214.24 182.609 2214.24C167.676 2214.24 160.209 2224.04 160.209 2243.64V2246.84C160.209 2266.71 167.676 2276.64 182.609 2276.64ZM289.275 2300.44C278.475 2300.44 269.942 2297.51 263.675 2291.64C257.542 2285.78 254.475 2276.38 254.475 2263.44V2192.84H281.875V2257.64C281.875 2264.18 283.408 2268.91 286.475 2271.84C289.542 2274.78 294.075 2276.24 300.075 2276.24C306.208 2276.24 311.275 2274.11 315.275 2269.84C319.408 2265.44 321.475 2260.04 321.475 2253.64V2192.84H348.875V2298.04H325.475L323.475 2284.24H322.075C313.542 2295.04 302.608 2300.44 289.275 2300.44ZM435.941 2300.44C429.141 2300.44 422.941 2299.11 417.341 2296.44C411.741 2293.64 407.274 2289.58 403.941 2284.24H402.541L400.741 2298.04H377.341V2153.44H404.741V2205.04H405.941C409.007 2200.38 413.207 2196.78 418.541 2194.24C424.007 2191.71 430.274 2190.44 437.341 2190.44C449.607 2190.44 459.407 2195.04 466.741 2204.24C474.207 2213.44 477.941 2227.11 477.941 2245.24C477.941 2263.78 474.274 2277.64 466.941 2286.84C459.607 2295.91 449.274 2300.44 435.941 2300.44ZM427.141 2276.64C435.274 2276.64 441.074 2274.24 444.541 2269.44C448.007 2264.51 449.741 2257.11 449.741 2247.24V2243.64C449.741 2233.78 448.007 2226.44 444.541 2221.64C441.074 2216.71 435.274 2214.24 427.141 2214.24C412.207 2214.24 404.741 2224.18 404.741 2244.04V2247.24C404.741 2266.84 412.207 2276.64 427.141 2276.64ZM499.606 2153.44H527.006V2298.04H499.606V2153.44ZM555.07 2153.44H582.47V2179.44H555.07V2153.44ZM555.07 2192.84H582.47V2298.04H555.07V2192.84ZM652.934 2300.44C638.268 2300.44 626.734 2297.44 618.334 2291.44C610.068 2285.31 605.934 2277.18 605.934 2267.04L606.134 2264.64H632.734V2266.04C632.868 2270.71 634.934 2274.11 638.934 2276.24C643.068 2278.24 648.068 2279.24 653.934 2279.24C659.401 2279.24 664.068 2278.51 667.934 2277.04C671.801 2275.58 673.734 2273.18 673.734 2269.84C673.734 2266.11 671.734 2263.31 667.734 2261.44C663.868 2259.58 657.734 2257.71 649.334 2255.84C640.668 2253.84 633.601 2251.84 628.134 2249.84C622.668 2247.71 617.934 2244.44 613.934 2240.04C609.934 2235.64 607.934 2229.78 607.934 2222.44C607.934 2212.18 612.201 2204.31 620.734 2198.84C629.401 2193.24 640.534 2190.44 654.134 2190.44C666.801 2190.44 677.268 2193.04 685.534 2198.24C693.801 2203.31 697.934 2210.24 697.934 2219.04L697.734 2223.64H671.134V2222.44C671.134 2218.98 669.468 2216.31 666.134 2214.44C662.934 2212.58 658.601 2211.64 653.134 2211.64C647.668 2211.64 643.334 2212.38 640.134 2213.84C636.934 2215.31 635.334 2217.38 635.334 2220.04C635.334 2223.38 637.134 2225.84 640.734 2227.44C644.468 2229.04 650.401 2230.64 658.534 2232.24C667.468 2234.24 674.734 2236.24 680.334 2238.24C685.934 2240.24 690.801 2243.51 694.934 2248.04C699.068 2252.58 701.134 2258.71 701.134 2266.44C701.134 2289.11 685.068 2300.44 652.934 2300.44ZM722.067 2153.44H749.467V2205.04H750.867C758.867 2195.31 769.134 2190.44 781.667 2190.44C792.467 2190.44 800.934 2193.38 807.067 2199.24C813.334 2205.11 816.467 2214.51 816.467 2227.44V2298.04H789.067V2233.24C789.067 2226.71 787.534 2221.98 784.467 2219.04C781.401 2216.11 776.867 2214.64 770.867 2214.64C764.734 2214.64 759.601 2216.84 755.467 2221.24C751.467 2225.51 749.467 2230.84 749.467 2237.24V2298.04H722.067V2153.44ZM844.133 2153.44H871.533V2179.44H844.133V2153.44ZM844.133 2192.84H871.533V2298.04H844.133V2192.84ZM899.997 2192.84H923.397L925.397 2206.64H926.797C935.33 2195.84 946.264 2190.44 959.597 2190.44C970.397 2190.44 978.864 2193.38 984.997 2199.24C991.264 2205.11 994.397 2214.51 994.397 2227.44V2298.04H966.997V2233.24C966.997 2226.71 965.464 2221.98 962.397 2219.04C959.33 2216.11 954.797 2214.64 948.797 2214.64C942.664 2214.64 937.53 2216.84 933.397 2221.24C929.397 2225.51 927.397 2230.84 927.397 2237.24V2298.04H899.997V2192.84ZM1039.06 2334.44C1031.73 2334.44 1025.53 2332.18 1020.46 2327.64C1015.4 2323.11 1012.86 2317.31 1012.86 2310.24C1012.86 2300.91 1018.26 2293.78 1029.06 2288.84C1022.26 2285.38 1018.86 2280.11 1018.86 2273.04C1018.86 2268.64 1020.6 2264.84 1024.06 2261.64C1027.53 2258.31 1032 2255.98 1037.46 2254.64C1027.2 2248.38 1022.06 2238.91 1022.06 2226.24C1022.06 2215.18 1026.06 2206.44 1034.06 2200.04C1042.2 2193.64 1053.73 2190.44 1068.66 2190.44C1076.8 2190.44 1083.86 2191.44 1089.86 2193.44C1093.86 2190.91 1096.73 2187.91 1098.46 2184.44C1100.33 2180.84 1101.26 2177.78 1101.26 2175.24H1128.06C1128.06 2182.58 1126.06 2188.51 1122.06 2193.04C1118.2 2197.44 1112.66 2200.44 1105.46 2202.04C1112.13 2208.31 1115.46 2216.38 1115.46 2226.24C1115.46 2237.31 1111.53 2246.04 1103.66 2252.44C1095.93 2258.84 1084.8 2262.04 1070.26 2262.04H1054.26C1051.86 2262.04 1049.93 2262.58 1048.46 2263.64C1047.13 2264.71 1046.46 2266.18 1046.46 2268.04C1046.46 2269.64 1047.06 2271.04 1048.26 2272.24C1049.46 2273.31 1051.06 2273.84 1053.06 2273.84H1100.86C1108.6 2273.84 1115.06 2276.44 1120.26 2281.64C1125.46 2286.84 1128.06 2293.64 1128.06 2302.04C1128.06 2308.44 1126.33 2314.11 1122.86 2319.04C1119.4 2323.98 1114.66 2327.78 1108.66 2330.44C1102.66 2333.11 1096.06 2334.44 1088.86 2334.44H1039.06ZM1068.66 2243.44C1075.06 2243.44 1079.93 2241.98 1083.26 2239.04C1086.6 2235.98 1088.26 2231.71 1088.26 2226.24C1088.26 2220.78 1086.6 2216.58 1083.26 2213.64C1079.93 2210.58 1075.06 2209.04 1068.66 2209.04C1062.26 2209.04 1057.4 2210.58 1054.06 2213.64C1050.86 2216.58 1049.26 2220.78 1049.26 2226.24C1049.26 2231.71 1050.86 2235.98 1054.06 2239.04C1057.4 2241.98 1062.26 2243.44 1068.66 2243.44ZM1088.46 2315.44C1091.93 2315.44 1094.8 2314.58 1097.06 2312.84C1099.33 2311.11 1100.46 2308.84 1100.46 2306.04C1100.46 2303.11 1099.4 2300.84 1097.26 2299.24C1095.26 2297.64 1092.73 2296.84 1089.66 2296.84H1051.06C1048.13 2296.84 1045.6 2297.71 1043.46 2299.44C1041.46 2301.18 1040.46 2303.38 1040.46 2306.04C1040.46 2308.84 1041.46 2311.11 1043.46 2312.84C1045.46 2314.58 1048 2315.44 1051.06 2315.44H1088.46ZM1234.39 2300.44C1223.59 2300.44 1215.06 2297.51 1208.79 2291.64C1202.66 2285.78 1199.59 2276.38 1199.59 2263.44V2192.84H1226.99V2257.64C1226.99 2264.18 1228.53 2268.91 1231.59 2271.84C1234.66 2274.78 1239.19 2276.24 1245.19 2276.24C1251.33 2276.24 1256.39 2274.11 1260.39 2269.84C1264.53 2265.44 1266.59 2260.04 1266.59 2253.64V2192.84H1293.99V2298.04H1270.59L1268.59 2284.24H1267.19C1258.66 2295.04 1247.73 2300.44 1234.39 2300.44ZM1322.46 2192.84H1345.86L1347.66 2206.64H1349.06C1352.39 2201.31 1356.86 2197.31 1362.46 2194.64C1368.06 2191.84 1374.26 2190.44 1381.06 2190.44C1394.39 2190.44 1404.72 2195.04 1412.06 2204.24C1419.39 2213.31 1423.06 2227.11 1423.06 2245.64C1423.06 2263.78 1419.32 2277.44 1411.86 2286.64C1404.52 2295.84 1394.72 2300.44 1382.46 2300.44C1375.39 2300.44 1369.12 2299.18 1363.66 2296.64C1358.32 2294.11 1354.12 2290.51 1351.06 2285.84H1349.86V2332.64H1322.46V2192.84ZM1372.26 2276.64C1380.39 2276.64 1386.19 2274.24 1389.66 2269.44C1393.12 2264.51 1394.86 2257.11 1394.86 2247.24V2243.64C1394.86 2233.78 1393.12 2226.44 1389.66 2221.64C1386.19 2216.71 1380.39 2214.24 1372.26 2214.24C1357.32 2214.24 1349.86 2224.04 1349.86 2243.64V2246.84C1349.86 2266.71 1357.32 2276.64 1372.26 2276.64ZM1444.72 2153.44H1472.12V2298.04H1444.72V2153.44ZM1547.19 2300.44C1529.19 2300.44 1515.79 2295.98 1506.99 2287.04C1498.19 2278.11 1493.79 2264.24 1493.79 2245.44C1493.79 2226.64 1498.19 2212.78 1506.99 2203.84C1515.79 2194.91 1529.19 2190.44 1547.19 2190.44C1565.19 2190.44 1578.59 2194.91 1587.39 2203.84C1596.32 2212.78 1600.79 2226.64 1600.79 2245.44C1600.79 2264.24 1596.32 2278.11 1587.39 2287.04C1578.59 2295.98 1565.19 2300.44 1547.19 2300.44ZM1547.19 2278.04C1556.12 2278.04 1562.59 2275.51 1566.59 2270.44C1570.59 2265.24 1572.59 2257.44 1572.59 2247.04V2243.84C1572.59 2233.44 1570.59 2225.71 1566.59 2220.64C1562.59 2215.44 1556.12 2212.84 1547.19 2212.84C1538.25 2212.84 1531.79 2215.44 1527.79 2220.64C1523.92 2225.71 1521.99 2233.44 1521.99 2243.84V2247.04C1521.99 2257.44 1523.92 2265.24 1527.79 2270.44C1531.79 2275.51 1538.25 2278.04 1547.19 2278.04ZM1646.85 2300.44C1638.72 2300.44 1631.25 2298.31 1624.45 2294.04C1617.65 2289.78 1614.25 2282.04 1614.25 2270.84C1614.25 2257.38 1619.79 2247.84 1630.85 2242.24C1641.92 2236.51 1657.59 2233.64 1677.85 2233.64V2226.24C1677.85 2221.58 1676.79 2217.98 1674.65 2215.44C1672.65 2212.91 1668.79 2211.64 1663.05 2211.64C1656.92 2211.64 1652.52 2212.58 1649.85 2214.44C1647.32 2216.31 1646.05 2218.51 1646.05 2221.04V2224.04H1619.65C1619.52 2223.24 1619.45 2221.78 1619.45 2219.64C1619.45 2210.84 1623.32 2203.78 1631.05 2198.44C1638.92 2193.11 1649.32 2190.44 1662.25 2190.44C1676.65 2190.44 1687.39 2193.38 1694.45 2199.24C1701.65 2205.11 1705.25 2213.58 1705.25 2224.64V2271.04C1705.25 2273.44 1705.92 2275.24 1707.25 2276.44C1708.59 2277.51 1710.25 2278.04 1712.25 2278.04H1717.85V2297.24C1713.59 2299.38 1708.32 2300.44 1702.05 2300.44C1696.59 2300.44 1691.99 2299.24 1688.25 2296.84C1684.65 2294.44 1682.19 2291.04 1680.85 2286.64H1679.65C1675.79 2291.18 1671.32 2294.64 1666.25 2297.04C1661.32 2299.31 1654.85 2300.44 1646.85 2300.44ZM1655.45 2278.84C1663.19 2278.84 1668.85 2276.71 1672.45 2272.44C1676.05 2268.04 1677.85 2262.24 1677.85 2255.04V2251.84C1653.99 2251.84 1642.05 2257.18 1642.05 2267.84C1642.05 2271.18 1643.12 2273.84 1645.25 2275.84C1647.52 2277.84 1650.92 2278.84 1655.45 2278.84ZM1768.99 2300.44C1755.65 2300.44 1745.32 2295.91 1737.99 2286.84C1730.65 2277.64 1726.99 2263.78 1726.99 2245.24C1726.99 2227.11 1730.65 2213.44 1737.99 2204.24C1745.45 2195.04 1755.32 2190.44 1767.59 2190.44C1774.65 2190.44 1780.85 2191.71 1786.19 2194.24C1791.65 2196.78 1795.92 2200.38 1798.99 2205.04H1800.19V2153.44H1827.59V2298.04H1804.19L1802.39 2284.24H1800.99C1797.65 2289.58 1793.19 2293.64 1787.59 2296.44C1781.99 2299.11 1775.79 2300.44 1768.99 2300.44ZM1777.79 2276.64C1792.72 2276.64 1800.19 2266.84 1800.19 2247.24V2244.04C1800.19 2224.18 1792.72 2214.24 1777.79 2214.24C1769.65 2214.24 1763.85 2216.71 1760.39 2221.64C1756.92 2226.44 1755.19 2233.78 1755.19 2243.64V2247.24C1755.19 2257.11 1756.92 2264.51 1760.39 2269.44C1763.85 2274.24 1769.65 2276.64 1777.79 2276.64ZM1855.85 2153.44H1883.25V2179.44H1855.85V2153.44ZM1855.85 2192.84H1883.25V2298.04H1855.85V2192.84ZM1911.72 2192.84H1935.12L1937.12 2206.64H1938.52C1947.05 2195.84 1957.98 2190.44 1971.32 2190.44C1982.12 2190.44 1990.58 2193.38 1996.72 2199.24C2002.98 2205.11 2006.12 2214.51 2006.12 2227.44V2298.04H1978.72V2233.24C1978.72 2226.71 1977.18 2221.98 1974.12 2219.04C1971.05 2216.11 1966.52 2214.64 1960.52 2214.64C1954.38 2214.64 1949.25 2216.84 1945.12 2221.24C1941.12 2225.51 1939.12 2230.84 1939.12 2237.24V2298.04H1911.72V2192.84ZM2050.78 2334.44C2043.45 2334.44 2037.25 2332.18 2032.18 2327.64C2027.11 2323.11 2024.58 2317.31 2024.58 2310.24C2024.58 2300.91 2029.98 2293.78 2040.78 2288.84C2033.98 2285.38 2030.58 2280.11 2030.58 2273.04C2030.58 2268.64 2032.31 2264.84 2035.78 2261.64C2039.25 2258.31 2043.71 2255.98 2049.18 2254.64C2038.91 2248.38 2033.78 2238.91 2033.78 2226.24C2033.78 2215.18 2037.78 2206.44 2045.78 2200.04C2053.91 2193.64 2065.45 2190.44 2080.38 2190.44C2088.51 2190.44 2095.58 2191.44 2101.58 2193.44C2105.58 2190.91 2108.45 2187.91 2110.18 2184.44C2112.05 2180.84 2112.98 2177.78 2112.98 2175.24H2139.78C2139.78 2182.58 2137.78 2188.51 2133.78 2193.04C2129.91 2197.44 2124.38 2200.44 2117.18 2202.04C2123.85 2208.31 2127.18 2216.38 2127.18 2226.24C2127.18 2237.31 2123.25 2246.04 2115.38 2252.44C2107.65 2258.84 2096.51 2262.04 2081.98 2262.04H2065.98C2063.58 2262.04 2061.65 2262.58 2060.18 2263.64C2058.85 2264.71 2058.18 2266.18 2058.18 2268.04C2058.18 2269.64 2058.78 2271.04 2059.98 2272.24C2061.18 2273.31 2062.78 2273.84 2064.78 2273.84H2112.58C2120.31 2273.84 2126.78 2276.44 2131.98 2281.64C2137.18 2286.84 2139.78 2293.64 2139.78 2302.04C2139.78 2308.44 2138.05 2314.11 2134.58 2319.04C2131.11 2323.98 2126.38 2327.78 2120.38 2330.44C2114.38 2333.11 2107.78 2334.44 2100.58 2334.44H2050.78ZM2080.38 2243.44C2086.78 2243.44 2091.65 2241.98 2094.98 2239.04C2098.31 2235.98 2099.98 2231.71 2099.98 2226.24C2099.98 2220.78 2098.31 2216.58 2094.98 2213.64C2091.65 2210.58 2086.78 2209.04 2080.38 2209.04C2073.98 2209.04 2069.11 2210.58 2065.78 2213.64C2062.58 2216.58 2060.98 2220.78 2060.98 2226.24C2060.98 2231.71 2062.58 2235.98 2065.78 2239.04C2069.11 2241.98 2073.98 2243.44 2080.38 2243.44ZM2100.18 2315.44C2103.65 2315.44 2106.51 2314.58 2108.78 2312.84C2111.05 2311.11 2112.18 2308.84 2112.18 2306.04C2112.18 2303.11 2111.11 2300.84 2108.98 2299.24C2106.98 2297.64 2104.45 2296.84 2101.38 2296.84H2062.78C2059.85 2296.84 2057.31 2297.71 2055.18 2299.44C2053.18 2301.18 2052.18 2303.38 2052.18 2306.04C2052.18 2308.84 2053.18 2311.11 2055.18 2312.84C2057.18 2314.58 2059.71 2315.44 2062.78 2315.44H2100.18ZM148.809 2552.44C141.476 2552.44 135.209 2551.58 130.009 2549.84V2530.64H143.009C147.676 2530.64 151.476 2529.51 154.409 2527.24C157.343 2524.98 159.743 2521.24 161.609 2516.04L120.409 2410.84H149.009L168.809 2460.24C170.809 2465.44 173.276 2474.58 176.209 2487.64H177.209C180.409 2475.38 182.876 2466.31 184.609 2460.44L200.209 2410.84H228.009L192.609 2510.64C189.409 2519.44 186.076 2526.78 182.609 2532.64C179.143 2538.64 174.609 2543.44 169.009 2547.04C163.543 2550.64 156.809 2552.44 148.809 2552.44ZM290.742 2518.44C272.742 2518.44 259.342 2513.98 250.542 2505.04C241.742 2496.11 237.342 2482.24 237.342 2463.44C237.342 2444.64 241.742 2430.78 250.542 2421.84C259.342 2412.91 272.742 2408.44 290.742 2408.44C308.742 2408.44 322.142 2412.91 330.942 2421.84C339.876 2430.78 344.342 2444.64 344.342 2463.44C344.342 2482.24 339.876 2496.11 330.942 2505.04C322.142 2513.98 308.742 2518.44 290.742 2518.44ZM290.742 2496.04C299.676 2496.04 306.142 2493.51 310.142 2488.44C314.142 2483.24 316.142 2475.44 316.142 2465.04V2461.84C316.142 2451.44 314.142 2443.71 310.142 2438.64C306.142 2433.44 299.676 2430.84 290.742 2430.84C281.809 2430.84 275.342 2433.44 271.342 2438.64C267.476 2443.71 265.542 2451.44 265.542 2461.84V2465.04C265.542 2475.44 267.476 2483.24 271.342 2488.44C275.342 2493.51 281.809 2496.04 290.742 2496.04ZM400.408 2518.44C389.608 2518.44 381.074 2515.51 374.808 2509.64C368.674 2503.78 365.608 2494.38 365.608 2481.44V2410.84H393.008V2475.64C393.008 2482.18 394.541 2486.91 397.608 2489.84C400.674 2492.78 405.208 2494.24 411.208 2494.24C417.341 2494.24 422.408 2492.11 426.408 2487.84C430.541 2483.44 432.608 2478.04 432.608 2471.64V2410.84H460.008V2516.04H436.608L434.608 2502.24H433.208C424.674 2513.04 413.741 2518.44 400.408 2518.44ZM488.473 2410.84H511.873L514.073 2427.84H515.473C517.74 2421.84 520.673 2417.11 524.273 2413.64C527.873 2410.18 532.607 2408.44 538.473 2408.44C542.34 2408.44 545.807 2409.04 548.873 2410.24V2435.84H541.273C532.34 2435.84 525.873 2438.31 521.873 2443.24C517.873 2448.04 515.873 2455.38 515.873 2465.24V2516.04H488.473V2410.84ZM673.672 2518.44C663.139 2518.44 653.472 2516.84 644.672 2513.64C636.005 2510.31 629.072 2505.44 623.872 2499.04C618.672 2492.64 616.072 2484.91 616.072 2475.84L616.272 2471.44H645.672L645.472 2474.64C645.472 2480.51 648.072 2485.18 653.272 2488.64C658.472 2492.11 665.739 2493.84 675.072 2493.84C684.939 2493.84 692.072 2492.58 696.472 2490.04C700.872 2487.38 703.072 2483.84 703.072 2479.44C703.072 2475.58 701.605 2472.38 698.672 2469.84C695.872 2467.18 692.272 2465.11 687.872 2463.64C683.605 2462.04 677.672 2460.18 670.072 2458.04C659.272 2454.98 650.539 2452.04 643.872 2449.24C637.205 2446.44 631.472 2442.31 626.672 2436.84C621.872 2431.24 619.472 2423.91 619.472 2414.84C619.472 2402.31 624.539 2392.78 634.672 2386.24C644.805 2379.71 658.272 2376.44 675.072 2376.44C690.939 2376.44 703.872 2379.84 713.872 2386.64C724.005 2393.31 729.072 2403.38 729.072 2416.84V2419.24H700.272V2417.44C700.272 2412.38 697.939 2408.38 693.272 2405.44C688.739 2402.51 682.539 2401.04 674.672 2401.04C666.272 2401.04 659.805 2402.18 655.272 2404.44C650.872 2406.71 648.672 2409.84 648.672 2413.84C648.672 2416.91 650.005 2419.58 652.672 2421.84C655.339 2423.98 658.672 2425.78 662.672 2427.24C666.672 2428.58 672.339 2430.24 679.672 2432.24C690.605 2435.18 699.539 2438.11 706.472 2441.04C713.539 2443.84 719.605 2448.04 724.672 2453.64C729.739 2459.24 732.272 2466.58 732.272 2475.64C732.272 2490.31 727.005 2501.11 716.472 2508.04C706.072 2514.98 691.805 2518.44 673.672 2518.44ZM779.47 2518.44C771.337 2518.44 763.87 2516.31 757.07 2512.04C750.27 2507.78 746.87 2500.04 746.87 2488.84C746.87 2475.38 752.404 2465.84 763.47 2460.24C774.537 2454.51 790.204 2451.64 810.47 2451.64V2444.24C810.47 2439.58 809.404 2435.98 807.27 2433.44C805.27 2430.91 801.404 2429.64 795.67 2429.64C789.537 2429.64 785.137 2430.58 782.47 2432.44C779.937 2434.31 778.67 2436.51 778.67 2439.04V2442.04H752.27C752.137 2441.24 752.07 2439.78 752.07 2437.64C752.07 2428.84 755.937 2421.78 763.67 2416.44C771.537 2411.11 781.937 2408.44 794.87 2408.44C809.27 2408.44 820.004 2411.38 827.07 2417.24C834.27 2423.11 837.87 2431.58 837.87 2442.64V2489.04C837.87 2491.44 838.537 2493.24 839.87 2494.44C841.204 2495.51 842.87 2496.04 844.87 2496.04H850.47V2515.24C846.204 2517.38 840.937 2518.44 834.67 2518.44C829.204 2518.44 824.604 2517.24 820.87 2514.84C817.27 2512.44 814.804 2509.04 813.47 2504.64H812.27C808.404 2509.18 803.937 2512.64 798.87 2515.04C793.937 2517.31 787.47 2518.44 779.47 2518.44ZM788.07 2496.84C795.804 2496.84 801.47 2494.71 805.07 2490.44C808.67 2486.04 810.47 2480.24 810.47 2473.04V2469.84C786.604 2469.84 774.67 2475.18 774.67 2485.84C774.67 2489.18 775.737 2491.84 777.87 2493.84C780.137 2495.84 783.537 2496.84 788.07 2496.84ZM866.403 2410.84H889.803L891.803 2424.64H893.203C900.936 2413.84 910.936 2408.44 923.203 2408.44C936.536 2408.44 945.736 2413.84 950.803 2424.64H952.403C960.403 2413.84 970.803 2408.44 983.603 2408.44C993.603 2408.44 1001.54 2411.38 1007.4 2417.24C1013.4 2423.11 1016.4 2432.51 1016.4 2445.44V2516.04H989.003V2451.24C989.003 2438.84 983.87 2432.64 973.603 2432.64C968.27 2432.64 963.87 2434.84 960.403 2439.24C956.936 2443.51 955.203 2448.84 955.203 2455.24V2516.04H927.803V2451.24C927.803 2438.84 922.67 2432.64 912.403 2432.64C907.07 2432.64 902.603 2434.84 899.003 2439.24C895.536 2443.51 893.803 2448.84 893.803 2455.24V2516.04H866.403V2410.84ZM1044.14 2410.84H1067.54L1069.34 2424.64H1070.74C1074.07 2419.31 1078.54 2415.31 1084.14 2412.64C1089.74 2409.84 1095.94 2408.44 1102.74 2408.44C1116.07 2408.44 1126.4 2413.04 1133.74 2422.24C1141.07 2431.31 1144.74 2445.11 1144.74 2463.64C1144.74 2481.78 1141 2495.44 1133.54 2504.64C1126.2 2513.84 1116.4 2518.44 1104.14 2518.44C1097.07 2518.44 1090.8 2517.18 1085.34 2514.64C1080 2512.11 1075.8 2508.51 1072.74 2503.84H1071.54V2550.64H1044.14V2410.84ZM1093.94 2494.64C1102.07 2494.64 1107.87 2492.24 1111.34 2487.44C1114.8 2482.51 1116.54 2475.11 1116.54 2465.24V2461.64C1116.54 2451.78 1114.8 2444.44 1111.34 2439.64C1107.87 2434.71 1102.07 2432.24 1093.94 2432.24C1079 2432.24 1071.54 2442.04 1071.54 2461.64V2464.84C1071.54 2484.71 1079 2494.64 1093.94 2494.64ZM1166.4 2371.44H1193.8V2516.04H1166.4V2371.44ZM1265.47 2518.44C1248.53 2518.44 1235.87 2513.98 1227.47 2505.04C1219.2 2496.11 1215.07 2482.24 1215.07 2463.44C1215.07 2444.64 1219.2 2430.78 1227.47 2421.84C1235.87 2412.91 1248.53 2408.44 1265.47 2408.44C1281.07 2408.44 1292.73 2412.98 1300.47 2422.04C1308.2 2430.98 1312.07 2444.78 1312.07 2463.44V2469.84H1242.87C1243.13 2479.18 1245 2486.11 1248.47 2490.64C1251.93 2495.04 1257.73 2497.24 1265.87 2497.24C1271.6 2497.24 1276.2 2495.64 1279.67 2492.44C1283.27 2489.24 1285.07 2484.71 1285.07 2478.84H1312.07C1312.07 2492.04 1307.8 2501.98 1299.27 2508.64C1290.73 2515.18 1279.47 2518.44 1265.47 2518.44ZM1283.67 2451.64C1283.67 2437.11 1277.6 2429.84 1265.47 2429.84C1258.53 2429.84 1253.27 2431.64 1249.67 2435.24C1246.2 2438.84 1244.07 2444.31 1243.27 2451.64H1283.67ZM1435.66 2518.44C1417.66 2518.44 1404.26 2513.98 1395.46 2505.04C1386.66 2496.11 1382.26 2482.24 1382.26 2463.44C1382.26 2444.64 1386.66 2430.78 1395.46 2421.84C1404.26 2412.91 1417.66 2408.44 1435.66 2408.44C1453.66 2408.44 1467.06 2412.91 1475.86 2421.84C1484.8 2430.78 1489.26 2444.64 1489.26 2463.44C1489.26 2482.24 1484.8 2496.11 1475.86 2505.04C1467.06 2513.98 1453.66 2518.44 1435.66 2518.44ZM1435.66 2496.04C1444.6 2496.04 1451.06 2493.51 1455.06 2488.44C1459.06 2483.24 1461.06 2475.44 1461.06 2465.04V2461.84C1461.06 2451.44 1459.06 2443.71 1455.06 2438.64C1451.06 2433.44 1444.6 2430.84 1435.66 2430.84C1426.73 2430.84 1420.26 2433.44 1416.26 2438.64C1412.4 2443.71 1410.46 2451.44 1410.46 2461.84V2465.04C1410.46 2475.44 1412.4 2483.24 1416.26 2488.44C1420.26 2493.51 1426.73 2496.04 1435.66 2496.04ZM1511.13 2410.84H1534.53L1536.53 2424.64H1537.93C1546.46 2413.84 1557.4 2408.44 1570.73 2408.44C1581.53 2408.44 1590 2411.38 1596.13 2417.24C1602.4 2423.11 1605.53 2432.51 1605.53 2445.44V2516.04H1578.13V2451.24C1578.13 2444.71 1576.6 2439.98 1573.53 2437.04C1570.46 2434.11 1565.93 2432.64 1559.93 2432.64C1553.8 2432.64 1548.66 2434.84 1544.53 2439.24C1540.53 2443.51 1538.53 2448.84 1538.53 2455.24V2516.04H1511.13V2410.84ZM1310.34 2706.64H1337.94V2734.04H1310.34V2706.64Z" fill="#6A6C74"/>
<path d="M632.205 1942.84H661.205V2009.04L724.605 1942.84H759.805L706.205 1998.64L760.605 2080.04H726.205L686.805 2019.04L661.205 2040.24V2080.04H632.205V1942.84ZM801.541 2082.44C793.407 2082.44 785.941 2080.31 779.141 2076.04C772.341 2071.78 768.941 2064.04 768.941 2052.84C768.941 2039.38 774.474 2029.84 785.541 2024.24C796.607 2018.51 812.274 2015.64 832.541 2015.64V2008.24C832.541 2003.58 831.474 1999.98 829.341 1997.44C827.341 1994.91 823.474 1993.64 817.741 1993.64C811.607 1993.64 807.207 1994.58 804.541 1996.44C802.007 1998.31 800.741 2000.51 800.741 2003.04V2006.04H774.341C774.207 2005.24 774.141 2003.78 774.141 2001.64C774.141 1992.84 778.007 1985.78 785.741 1980.44C793.607 1975.11 804.007 1972.44 816.941 1972.44C831.341 1972.44 842.074 1975.38 849.141 1981.24C856.341 1987.11 859.941 1995.58 859.941 2006.64V2053.04C859.941 2055.44 860.607 2057.24 861.941 2058.44C863.274 2059.51 864.941 2060.04 866.941 2060.04H872.541V2079.24C868.274 2081.38 863.007 2082.44 856.741 2082.44C851.274 2082.44 846.674 2081.24 842.941 2078.84C839.341 2076.44 836.874 2073.04 835.541 2068.64H834.341C830.474 2073.18 826.007 2076.64 820.941 2079.04C816.007 2081.31 809.541 2082.44 801.541 2082.44ZM810.141 2060.84C817.874 2060.84 823.541 2058.71 827.141 2054.44C830.741 2050.04 832.541 2044.24 832.541 2037.04V2033.84C808.674 2033.84 796.741 2039.18 796.741 2049.84C796.741 2053.18 797.807 2055.84 799.941 2057.84C802.207 2059.84 805.607 2060.84 810.141 2060.84ZM888.473 1974.84H911.873L914.073 1991.84H915.473C917.74 1985.84 920.673 1981.11 924.273 1977.64C927.873 1974.18 932.607 1972.44 938.473 1972.44C942.34 1972.44 945.807 1973.04 948.873 1974.24V1999.84H941.273C932.34 1999.84 925.873 2002.31 921.873 2007.24C917.873 2012.04 915.873 2019.38 915.873 2029.24V2080.04H888.473V1974.84ZM966.208 1974.84H989.608L991.608 1988.64H993.008C1000.74 1977.84 1010.74 1972.44 1023.01 1972.44C1036.34 1972.44 1045.54 1977.84 1050.61 1988.64H1052.21C1060.21 1977.84 1070.61 1972.44 1083.41 1972.44C1093.41 1972.44 1101.34 1975.38 1107.21 1981.24C1113.21 1987.11 1116.21 1996.51 1116.21 2009.44V2080.04H1088.81V2015.24C1088.81 2002.84 1083.67 1996.64 1073.41 1996.64C1068.07 1996.64 1063.67 1998.84 1060.21 2003.24C1056.74 2007.51 1055.01 2012.84 1055.01 2019.24V2080.04H1027.61V2015.24C1027.61 2002.84 1022.47 1996.64 1012.21 1996.64C1006.87 1996.64 1002.41 1998.84 998.808 2003.24C995.341 2007.51 993.608 2012.84 993.608 2019.24V2080.04H966.208V1974.84ZM1168.14 2082.44C1160.01 2082.44 1152.54 2080.31 1145.74 2076.04C1138.94 2071.78 1135.54 2064.04 1135.54 2052.84C1135.54 2039.38 1141.08 2029.84 1152.14 2024.24C1163.21 2018.51 1178.88 2015.64 1199.14 2015.64V2008.24C1199.14 2003.58 1198.08 1999.98 1195.94 1997.44C1193.94 1994.91 1190.08 1993.64 1184.34 1993.64C1178.21 1993.64 1173.81 1994.58 1171.14 1996.44C1168.61 1998.31 1167.34 2000.51 1167.34 2003.04V2006.04H1140.94C1140.81 2005.24 1140.74 2003.78 1140.74 2001.64C1140.74 1992.84 1144.61 1985.78 1152.34 1980.44C1160.21 1975.11 1170.61 1972.44 1183.54 1972.44C1197.94 1972.44 1208.68 1975.38 1215.74 1981.24C1222.94 1987.11 1226.54 1995.58 1226.54 2006.64V2053.04C1226.54 2055.44 1227.21 2057.24 1228.54 2058.44C1229.88 2059.51 1231.54 2060.04 1233.54 2060.04H1239.14V2079.24C1234.88 2081.38 1229.61 2082.44 1223.34 2082.44C1217.88 2082.44 1213.28 2081.24 1209.54 2078.84C1205.94 2076.44 1203.48 2073.04 1202.14 2068.64H1200.94C1197.08 2073.18 1192.61 2076.64 1187.54 2079.04C1182.61 2081.31 1176.14 2082.44 1168.14 2082.44ZM1176.74 2060.84C1184.48 2060.84 1190.14 2058.71 1193.74 2054.44C1197.34 2050.04 1199.14 2044.24 1199.14 2037.04V2033.84C1175.28 2033.84 1163.34 2039.18 1163.34 2049.84C1163.34 2053.18 1164.41 2055.84 1166.54 2057.84C1168.81 2059.84 1172.21 2060.84 1176.74 2060.84Z" fill="#D69090"/>
<path d="M132.009 2596.84H210.609C217.809 2596.84 224.343 2598.31 230.209 2601.24C236.076 2604.04 240.676 2608.04 244.009 2613.24C247.343 2618.31 249.009 2624.18 249.009 2630.84C249.009 2638.44 246.876 2645.04 242.609 2650.64C238.476 2656.11 233.143 2659.91 226.609 2662.04V2662.84C234.343 2664.31 240.609 2668.11 245.409 2674.24C250.343 2680.24 252.809 2687.38 252.809 2695.64C252.809 2708.04 248.809 2717.58 240.809 2724.24C232.943 2730.78 222.876 2734.04 210.609 2734.04H132.009V2596.84ZM202.409 2651.64C207.743 2651.64 211.876 2650.31 214.809 2647.64C217.743 2644.84 219.209 2641.31 219.209 2637.04C219.209 2631.98 217.809 2628.11 215.009 2625.44C212.343 2622.78 208.609 2621.44 203.809 2621.44H161.209V2651.64H202.409ZM205.809 2709.44C210.876 2709.44 215.009 2707.98 218.209 2705.04C221.409 2702.11 223.009 2697.91 223.009 2692.44C223.009 2687.51 221.409 2683.51 218.209 2680.44C215.009 2677.38 210.343 2675.84 204.209 2675.84H161.209V2709.44H205.809ZM320.545 2736.44C303.612 2736.44 290.945 2731.98 282.545 2723.04C274.279 2714.11 270.145 2700.24 270.145 2681.44C270.145 2662.64 274.279 2648.78 282.545 2639.84C290.945 2630.91 303.612 2626.44 320.545 2626.44C336.145 2626.44 347.812 2630.98 355.545 2640.04C363.279 2648.98 367.145 2662.78 367.145 2681.44V2687.84H297.945C298.212 2697.18 300.079 2704.11 303.545 2708.64C307.012 2713.04 312.812 2715.24 320.945 2715.24C326.679 2715.24 331.279 2713.64 334.745 2710.44C338.345 2707.24 340.145 2702.71 340.145 2696.84H367.145C367.145 2710.04 362.879 2719.98 354.345 2726.64C345.812 2733.18 334.545 2736.44 320.545 2736.44ZM338.745 2669.64C338.745 2655.11 332.679 2647.84 320.545 2647.84C313.612 2647.84 308.345 2649.64 304.745 2653.24C301.279 2656.84 299.145 2662.31 298.345 2669.64H338.745ZM412.478 2736.44C404.345 2736.44 396.878 2734.31 390.078 2730.04C383.278 2725.78 379.878 2718.04 379.878 2706.84C379.878 2693.38 385.411 2683.84 396.478 2678.24C407.545 2672.51 423.211 2669.64 443.478 2669.64V2662.24C443.478 2657.58 442.411 2653.98 440.278 2651.44C438.278 2648.91 434.411 2647.64 428.678 2647.64C422.545 2647.64 418.145 2648.58 415.478 2650.44C412.945 2652.31 411.678 2654.51 411.678 2657.04V2660.04H385.278C385.145 2659.24 385.078 2657.78 385.078 2655.64C385.078 2646.84 388.945 2639.78 396.678 2634.44C404.545 2629.11 414.945 2626.44 427.878 2626.44C442.278 2626.44 453.011 2629.38 460.078 2635.24C467.278 2641.11 470.878 2649.58 470.878 2660.64V2707.04C470.878 2709.44 471.545 2711.24 472.878 2712.44C474.211 2713.51 475.878 2714.04 477.878 2714.04H483.478V2733.24C479.211 2735.38 473.945 2736.44 467.678 2736.44C462.211 2736.44 457.611 2735.24 453.878 2732.84C450.278 2730.44 447.811 2727.04 446.478 2722.64H445.278C441.411 2727.18 436.945 2730.64 431.878 2733.04C426.945 2735.31 420.478 2736.44 412.478 2736.44ZM421.078 2714.84C428.811 2714.84 434.478 2712.71 438.078 2708.44C441.678 2704.04 443.478 2698.24 443.478 2691.04V2687.84C419.611 2687.84 407.678 2693.18 407.678 2703.84C407.678 2707.18 408.745 2709.84 410.878 2711.84C413.145 2713.84 416.545 2714.84 421.078 2714.84ZM527.611 2736.44C517.744 2736.44 510.678 2733.78 506.411 2728.44C502.144 2723.11 500.011 2716.38 500.011 2708.24V2651.24H487.411V2628.84H500.611L505.211 2599.24H527.411V2628.84H545.611V2651.24H527.411V2705.44C527.411 2711.18 530.278 2714.04 536.011 2714.04H545.611V2733.24C543.344 2734.04 540.478 2734.78 537.011 2735.44C533.678 2736.11 530.544 2736.44 527.611 2736.44ZM565.213 2596.84H643.813C651.013 2596.84 657.546 2598.31 663.413 2601.24C669.279 2604.04 673.879 2608.04 677.213 2613.24C680.546 2618.31 682.213 2624.18 682.213 2630.84C682.213 2638.44 680.079 2645.04 675.813 2650.64C671.679 2656.11 666.346 2659.91 659.813 2662.04V2662.84C667.546 2664.31 673.813 2668.11 678.613 2674.24C683.546 2680.24 686.013 2687.38 686.013 2695.64C686.013 2708.04 682.013 2717.58 674.013 2724.24C666.146 2730.78 656.079 2734.04 643.813 2734.04H565.213V2596.84ZM635.613 2651.64C640.946 2651.64 645.079 2650.31 648.013 2647.64C650.946 2644.84 652.413 2641.31 652.413 2637.04C652.413 2631.98 651.013 2628.11 648.213 2625.44C645.546 2622.78 641.813 2621.44 637.013 2621.44H594.413V2651.64H635.613ZM639.013 2709.44C644.079 2709.44 648.213 2707.98 651.413 2705.04C654.613 2702.11 656.213 2697.91 656.213 2692.44C656.213 2687.51 654.613 2683.51 651.413 2680.44C648.213 2677.38 643.546 2675.84 637.413 2675.84H594.413V2709.44H639.013ZM710.348 2589.44H737.748V2734.04H710.348V2589.44ZM809.413 2736.44C792.479 2736.44 779.813 2731.98 771.413 2723.04C763.146 2714.11 759.013 2700.24 759.013 2681.44C759.013 2662.64 763.146 2648.78 771.413 2639.84C779.813 2630.91 792.479 2626.44 809.413 2626.44C825.013 2626.44 836.679 2630.98 844.413 2640.04C852.146 2648.98 856.013 2662.78 856.013 2681.44V2687.84H786.813C787.079 2697.18 788.946 2704.11 792.413 2708.64C795.879 2713.04 801.679 2715.24 809.813 2715.24C815.546 2715.24 820.146 2713.64 823.613 2710.44C827.213 2707.24 829.013 2702.71 829.013 2696.84H856.013C856.013 2710.04 851.746 2719.98 843.213 2726.64C834.679 2733.18 823.413 2736.44 809.413 2736.44ZM827.613 2669.64C827.613 2655.11 821.546 2647.84 809.413 2647.84C802.479 2647.84 797.213 2649.64 793.613 2653.24C790.146 2656.84 788.013 2662.31 787.213 2669.64H827.613ZM877.145 2628.84H900.545L902.545 2642.64H903.945C912.479 2631.84 923.412 2626.44 936.745 2626.44C947.545 2626.44 956.012 2629.38 962.145 2635.24C968.412 2641.11 971.545 2650.51 971.545 2663.44V2734.04H944.145V2669.24C944.145 2662.71 942.612 2657.98 939.545 2655.04C936.479 2652.11 931.945 2650.64 925.945 2650.64C919.812 2650.64 914.679 2652.84 910.545 2657.24C906.545 2661.51 904.545 2666.84 904.545 2673.24V2734.04H877.145V2628.84ZM1034.61 2736.44C1021.28 2736.44 1010.94 2731.91 1003.61 2722.84C996.278 2713.64 992.611 2699.78 992.611 2681.24C992.611 2663.11 996.278 2649.44 1003.61 2640.24C1011.08 2631.04 1020.94 2626.44 1033.21 2626.44C1040.28 2626.44 1046.48 2627.71 1051.81 2630.24C1057.28 2632.78 1061.54 2636.38 1064.61 2641.04H1065.81V2589.44H1093.21V2734.04H1069.81L1068.01 2720.24H1066.61C1063.28 2725.58 1058.81 2729.64 1053.21 2732.44C1047.61 2735.11 1041.41 2736.44 1034.61 2736.44ZM1043.41 2712.64C1058.34 2712.64 1065.81 2702.84 1065.81 2683.24V2680.04C1065.81 2660.18 1058.34 2650.24 1043.41 2650.24C1035.28 2650.24 1029.48 2652.71 1026.01 2657.64C1022.54 2662.44 1020.81 2669.78 1020.81 2679.64V2683.24C1020.81 2693.11 1022.54 2700.51 1026.01 2705.44C1029.48 2710.24 1035.28 2712.64 1043.41 2712.64ZM1165.08 2736.44C1148.14 2736.44 1135.48 2731.98 1127.08 2723.04C1118.81 2714.11 1114.68 2700.24 1114.68 2681.44C1114.68 2662.64 1118.81 2648.78 1127.08 2639.84C1135.48 2630.91 1148.14 2626.44 1165.08 2626.44C1180.68 2626.44 1192.34 2630.98 1200.08 2640.04C1207.81 2648.98 1211.68 2662.78 1211.68 2681.44V2687.84H1142.48C1142.74 2697.18 1144.61 2704.11 1148.08 2708.64C1151.54 2713.04 1157.34 2715.24 1165.48 2715.24C1171.21 2715.24 1175.81 2713.64 1179.28 2710.44C1182.88 2707.24 1184.68 2702.71 1184.68 2696.84H1211.68C1211.68 2710.04 1207.41 2719.98 1198.88 2726.64C1190.34 2733.18 1179.08 2736.44 1165.08 2736.44ZM1183.28 2669.64C1183.28 2655.11 1177.21 2647.84 1165.08 2647.84C1158.14 2647.84 1152.88 2649.64 1149.28 2653.24C1145.81 2656.84 1143.68 2662.31 1142.88 2669.64H1183.28ZM1232.81 2628.84H1256.21L1258.41 2645.84H1259.81C1262.08 2639.84 1265.01 2635.11 1268.61 2631.64C1272.21 2628.18 1276.94 2626.44 1282.81 2626.44C1286.68 2626.44 1290.14 2627.04 1293.21 2628.24V2653.84H1285.61C1276.68 2653.84 1270.21 2656.31 1266.21 2661.24C1262.21 2666.04 1260.21 2673.38 1260.21 2683.24V2734.04H1232.81V2628.84Z" fill="#658566"/>
</g>
<defs>
<clipPath id="clip0">
<rect width="2944" height="3416" fill="white"/>
</clipPath>
</defs>
</svg>
